<?xml version="1.0" encoding="utf-8" standalone="no"?>
<!DOCTYPE svg PUBLIC "-//W3C//DTD SVG 1.1//EN"
  "http://www.w3.org/Graphics/SVG/1.1/DTD/svg11.dtd">
<svg xmlns:xlink="http://www.w3.org/1999/xlink" width="720pt" height="504pt" viewBox="0 0 720 504" xmlns="http://www.w3.org/2000/svg" version="1.1">
 <metadata>
  <rdf:RDF xmlns:dc="http://purl.org/dc/elements/1.1/" xmlns:cc="http://creativecommons.org/ns#" xmlns:rdf="http://www.w3.org/1999/02/22-rdf-syntax-ns#">
   <cc:Work>
    <dc:type rdf:resource="http://purl.org/dc/dcmitype/StillImage"/>
    <dc:date>2024-02-12T20:10:31.758558</dc:date>
    <dc:format>image/svg+xml</dc:format>
    <dc:creator>
     <cc:Agent>
      <dc:title>Matplotlib v3.8.2, https://matplotlib.org/</dc:title>
     </cc:Agent>
    </dc:creator>
   </cc:Work>
  </rdf:RDF>
 </metadata>
 <defs>
  <style type="text/css">*{stroke-linejoin: round; stroke-linecap: butt}</style>
 </defs>
 <g id="figure_1">
  <g id="patch_1">
   <path d="M 0 504 
L 720 504 
L 720 0 
L 0 0 
z
" style="fill: #ffffff"/>
  </g>
  <g id="axes_1">
   <g id="patch_2">
    <path d="M 90 448.56 
L 648 448.56 
L 648 60.48 
L 90 60.48 
z
" style="fill: #ffffff"/>
   </g>
   <g id="patch_3">
    <path d="M 101.625 448.56 
L 124.875 448.56 
L 124.875 444.6792 
L 101.625 444.6792 
z
" clip-path="url(#p9834c5563a)" style="fill: #6ce5e8"/>
   </g>
   <g id="patch_4">
    <path d="M 148.125 448.56 
L 171.375 448.56 
L 171.375 436.9176 
L 148.125 436.9176 
z
" clip-path="url(#p9834c5563a)" style="fill: #6ce5e8"/>
   </g>
   <g id="patch_5">
    <path d="M 194.625 448.56 
L 217.875 448.56 
L 217.875 440.7984 
L 194.625 440.7984 
z
" clip-path="url(#p9834c5563a)" style="fill: #6ce5e8"/>
   </g>
   <g id="patch_6">
    <path d="M 241.125 448.56 
L 264.375 448.56 
L 264.375 440.7984 
L 241.125 440.7984 
z
" clip-path="url(#p9834c5563a)" style="fill: #6ce5e8"/>
   </g>
   <g id="patch_7">
    <path d="M 287.625 448.56 
L 310.875 448.56 
L 310.875 444.6792 
L 287.625 444.6792 
z
" clip-path="url(#p9834c5563a)" style="fill: #6ce5e8"/>
   </g>
   <g id="patch_8">
    <path d="M 334.125 448.56 
L 357.375 448.56 
L 357.375 448.56 
L 334.125 448.56 
z
" clip-path="url(#p9834c5563a)" style="fill: #6ce5e8"/>
   </g>
   <g id="patch_9">
    <path d="M 380.625 448.56 
L 403.875 448.56 
L 403.875 448.56 
L 380.625 448.56 
z
" clip-path="url(#p9834c5563a)" style="fill: #6ce5e8"/>
   </g>
   <g id="patch_10">
    <path d="M 427.125 448.56 
L 450.375 448.56 
L 450.375 448.56 
L 427.125 448.56 
z
" clip-path="url(#p9834c5563a)" style="fill: #6ce5e8"/>
   </g>
   <g id="patch_11">
    <path d="M 473.625 448.56 
L 496.875 448.56 
L 496.875 448.56 
L 473.625 448.56 
z
" clip-path="url(#p9834c5563a)" style="fill: #6ce5e8"/>
   </g>
   <g id="patch_12">
    <path d="M 520.125 448.56 
L 543.375 448.56 
L 543.375 448.56 
L 520.125 448.56 
z
" clip-path="url(#p9834c5563a)" style="fill: #6ce5e8"/>
   </g>
   <g id="patch_13">
    <path d="M 566.625 448.56 
L 589.875 448.56 
L 589.875 448.56 
L 566.625 448.56 
z
" clip-path="url(#p9834c5563a)" style="fill: #6ce5e8"/>
   </g>
   <g id="patch_14">
    <path d="M 613.125 448.56 
L 636.375 448.56 
L 636.375 444.6792 
L 613.125 444.6792 
z
" clip-path="url(#p9834c5563a)" style="fill: #6ce5e8"/>
   </g>
   <g id="patch_15">
    <path d="M 101.625 444.6792 
L 124.875 444.6792 
L 124.875 145.8576 
L 101.625 145.8576 
z
" clip-path="url(#p9834c5563a)" style="fill: #31356e"/>
   </g>
   <g id="patch_16">
    <path d="M 148.125 436.9176 
L 171.375 436.9176 
L 171.375 138.096 
L 148.125 138.096 
z
" clip-path="url(#p9834c5563a)" style="fill: #31356e"/>
   </g>
   <g id="patch_17">
    <path d="M 194.625 440.7984 
L 217.875 440.7984 
L 217.875 134.2152 
L 194.625 134.2152 
z
" clip-path="url(#p9834c5563a)" style="fill: #31356e"/>
   </g>
   <g id="patch_18">
    <path d="M 241.125 440.7984 
L 264.375 440.7984 
L 264.375 122.5728 
L 241.125 122.5728 
z
" clip-path="url(#p9834c5563a)" style="fill: #31356e"/>
   </g>
   <g id="patch_19">
    <path d="M 287.625 444.6792 
L 310.875 444.6792 
L 310.875 130.3344 
L 287.625 130.3344 
z
" clip-path="url(#p9834c5563a)" style="fill: #31356e"/>
   </g>
   <g id="patch_20">
    <path d="M 334.125 448.56 
L 357.375 448.56 
L 357.375 130.3344 
L 334.125 130.3344 
z
" clip-path="url(#p9834c5563a)" style="fill: #31356e"/>
   </g>
   <g id="patch_21">
    <path d="M 380.625 448.56 
L 403.875 448.56 
L 403.875 130.3344 
L 380.625 130.3344 
z
" clip-path="url(#p9834c5563a)" style="fill: #31356e"/>
   </g>
   <g id="patch_22">
    <path d="M 427.125 448.56 
L 450.375 448.56 
L 450.375 122.5728 
L 427.125 122.5728 
z
" clip-path="url(#p9834c5563a)" style="fill: #31356e"/>
   </g>
   <g id="patch_23">
    <path d="M 473.625 448.56 
L 496.875 448.56 
L 496.875 126.4536 
L 473.625 126.4536 
z
" clip-path="url(#p9834c5563a)" style="fill: #31356e"/>
   </g>
   <g id="patch_24">
    <path d="M 520.125 448.56 
L 543.375 448.56 
L 543.375 126.4536 
L 520.125 126.4536 
z
" clip-path="url(#p9834c5563a)" style="fill: #31356e"/>
   </g>
   <g id="patch_25">
    <path d="M 566.625 448.56 
L 589.875 448.56 
L 589.875 126.4536 
L 566.625 126.4536 
z
" clip-path="url(#p9834c5563a)" style="fill: #31356e"/>
   </g>
   <g id="patch_26">
    <path d="M 613.125 444.6792 
L 636.375 444.6792 
L 636.375 122.5728 
L 613.125 122.5728 
z
" clip-path="url(#p9834c5563a)" style="fill: #31356e"/>
   </g>
   <g id="patch_27">
    <path d="M 101.625 145.8576 
L 124.875 145.8576 
L 124.875 134.2152 
L 101.625 134.2152 
z
" clip-path="url(#p9834c5563a)" style="fill: #2d8bba"/>
   </g>
   <g id="patch_28">
    <path d="M 148.125 448.56 
L 171.375 448.56 
L 171.375 448.56 
L 148.125 448.56 
z
" clip-path="url(#p9834c5563a)" style="fill: #2d8bba"/>
   </g>
   <g id="patch_29">
    <path d="M 194.625 134.2152 
L 217.875 134.2152 
L 217.875 122.5728 
L 194.625 122.5728 
z
" clip-path="url(#p9834c5563a)" style="fill: #2d8bba"/>
   </g>
   <g id="patch_30">
    <path d="M 241.125 448.56 
L 264.375 448.56 
L 264.375 448.56 
L 241.125 448.56 
z
" clip-path="url(#p9834c5563a)" style="fill: #2d8bba"/>
   </g>
   <g id="patch_31">
    <path d="M 287.625 448.56 
L 310.875 448.56 
L 310.875 448.56 
L 287.625 448.56 
z
" clip-path="url(#p9834c5563a)" style="fill: #2d8bba"/>
   </g>
   <g id="patch_32">
    <path d="M 334.125 448.56 
L 357.375 448.56 
L 357.375 448.56 
L 334.125 448.56 
z
" clip-path="url(#p9834c5563a)" style="fill: #2d8bba"/>
   </g>
   <g id="patch_33">
    <path d="M 380.625 130.3344 
L 403.875 130.3344 
L 403.875 122.5728 
L 380.625 122.5728 
z
" clip-path="url(#p9834c5563a)" style="fill: #2d8bba"/>
   </g>
   <g id="patch_34">
    <path d="M 427.125 448.56 
L 450.375 448.56 
L 450.375 448.56 
L 427.125 448.56 
z
" clip-path="url(#p9834c5563a)" style="fill: #2d8bba"/>
   </g>
   <g id="patch_35">
    <path d="M 473.625 448.56 
L 496.875 448.56 
L 496.875 448.56 
L 473.625 448.56 
z
" clip-path="url(#p9834c5563a)" style="fill: #2d8bba"/>
   </g>
   <g id="patch_36">
    <path d="M 520.125 448.56 
L 543.375 448.56 
L 543.375 448.56 
L 520.125 448.56 
z
" clip-path="url(#p9834c5563a)" style="fill: #2d8bba"/>
   </g>
   <g id="patch_37">
    <path d="M 566.625 126.4536 
L 589.875 126.4536 
L 589.875 122.5728 
L 566.625 122.5728 
z
" clip-path="url(#p9834c5563a)" style="fill: #2d8bba"/>
   </g>
   <g id="patch_38">
    <path d="M 613.125 448.56 
L 636.375 448.56 
L 636.375 448.56 
L 613.125 448.56 
z
" clip-path="url(#p9834c5563a)" style="fill: #2d8bba"/>
   </g>
   <g id="matplotlib.axis_1">
    <g id="xtick_1">
     <g id="line2d_1">
      <defs>
       <path id="m63b5a56c04" d="M 0 0 
L 0 3.5 
" style="stroke: #000000; stroke-width: 0.8"/>
      </defs>
      <g>
       <use xlink:href="#m63b5a56c04" x="113.25" y="448.56" style="stroke: #000000; stroke-width: 0.8"/>
      </g>
     </g>
     <g id="text_1">
      <!-- 2011 -->
      <g transform="translate(106.203239 478.928774) rotate(-45) scale(0.1 -0.1)">
       <defs>
        <path id="DejaVuSans-32" d="M 1228 531 
L 3431 531 
L 3431 0 
L 469 0 
L 469 531 
Q 828 903 1448 1529 
Q 2069 2156 2228 2338 
Q 2531 2678 2651 2914 
Q 2772 3150 2772 3378 
Q 2772 3750 2511 3984 
Q 2250 4219 1831 4219 
Q 1534 4219 1204 4116 
Q 875 4013 500 3803 
L 500 4441 
Q 881 4594 1212 4672 
Q 1544 4750 1819 4750 
Q 2544 4750 2975 4387 
Q 3406 4025 3406 3419 
Q 3406 3131 3298 2873 
Q 3191 2616 2906 2266 
Q 2828 2175 2409 1742 
Q 1991 1309 1228 531 
z
" transform="scale(0.015625)"/>
        <path id="DejaVuSans-30" d="M 2034 4250 
Q 1547 4250 1301 3770 
Q 1056 3291 1056 2328 
Q 1056 1369 1301 889 
Q 1547 409 2034 409 
Q 2525 409 2770 889 
Q 3016 1369 3016 2328 
Q 3016 3291 2770 3770 
Q 2525 4250 2034 4250 
z
M 2034 4750 
Q 2819 4750 3233 4129 
Q 3647 3509 3647 2328 
Q 3647 1150 3233 529 
Q 2819 -91 2034 -91 
Q 1250 -91 836 529 
Q 422 1150 422 2328 
Q 422 3509 836 4129 
Q 1250 4750 2034 4750 
z
" transform="scale(0.015625)"/>
        <path id="DejaVuSans-31" d="M 794 531 
L 1825 531 
L 1825 4091 
L 703 3866 
L 703 4441 
L 1819 4666 
L 2450 4666 
L 2450 531 
L 3481 531 
L 3481 0 
L 794 0 
L 794 531 
z
" transform="scale(0.015625)"/>
       </defs>
       <use xlink:href="#DejaVuSans-32"/>
       <use xlink:href="#DejaVuSans-30" x="63.623047"/>
       <use xlink:href="#DejaVuSans-31" x="127.246094"/>
       <use xlink:href="#DejaVuSans-31" x="190.869141"/>
      </g>
     </g>
    </g>
    <g id="xtick_2">
     <g id="line2d_2">
      <g>
       <use xlink:href="#m63b5a56c04" x="159.75" y="448.56" style="stroke: #000000; stroke-width: 0.8"/>
      </g>
     </g>
     <g id="text_2">
      <!-- 2012 -->
      <g transform="translate(152.703239 478.928774) rotate(-45) scale(0.1 -0.1)">
       <use xlink:href="#DejaVuSans-32"/>
       <use xlink:href="#DejaVuSans-30" x="63.623047"/>
       <use xlink:href="#DejaVuSans-31" x="127.246094"/>
       <use xlink:href="#DejaVuSans-32" x="190.869141"/>
      </g>
     </g>
    </g>
    <g id="xtick_3">
     <g id="line2d_3">
      <g>
       <use xlink:href="#m63b5a56c04" x="206.25" y="448.56" style="stroke: #000000; stroke-width: 0.8"/>
      </g>
     </g>
     <g id="text_3">
      <!-- 2013 -->
      <g transform="translate(199.203239 478.928774) rotate(-45) scale(0.1 -0.1)">
       <defs>
        <path id="DejaVuSans-33" d="M 2597 2516 
Q 3050 2419 3304 2112 
Q 3559 1806 3559 1356 
Q 3559 666 3084 287 
Q 2609 -91 1734 -91 
Q 1441 -91 1130 -33 
Q 819 25 488 141 
L 488 750 
Q 750 597 1062 519 
Q 1375 441 1716 441 
Q 2309 441 2620 675 
Q 2931 909 2931 1356 
Q 2931 1769 2642 2001 
Q 2353 2234 1838 2234 
L 1294 2234 
L 1294 2753 
L 1863 2753 
Q 2328 2753 2575 2939 
Q 2822 3125 2822 3475 
Q 2822 3834 2567 4026 
Q 2313 4219 1838 4219 
Q 1578 4219 1281 4162 
Q 984 4106 628 3988 
L 628 4550 
Q 988 4650 1302 4700 
Q 1616 4750 1894 4750 
Q 2613 4750 3031 4423 
Q 3450 4097 3450 3541 
Q 3450 3153 3228 2886 
Q 3006 2619 2597 2516 
z
" transform="scale(0.015625)"/>
       </defs>
       <use xlink:href="#DejaVuSans-32"/>
       <use xlink:href="#DejaVuSans-30" x="63.623047"/>
       <use xlink:href="#DejaVuSans-31" x="127.246094"/>
       <use xlink:href="#DejaVuSans-33" x="190.869141"/>
      </g>
     </g>
    </g>
    <g id="xtick_4">
     <g id="line2d_4">
      <g>
       <use xlink:href="#m63b5a56c04" x="252.75" y="448.56" style="stroke: #000000; stroke-width: 0.8"/>
      </g>
     </g>
     <g id="text_4">
      <!-- 2014 -->
      <g transform="translate(245.703239 478.928774) rotate(-45) scale(0.1 -0.1)">
       <defs>
        <path id="DejaVuSans-34" d="M 2419 4116 
L 825 1625 
L 2419 1625 
L 2419 4116 
z
M 2253 4666 
L 3047 4666 
L 3047 1625 
L 3713 1625 
L 3713 1100 
L 3047 1100 
L 3047 0 
L 2419 0 
L 2419 1100 
L 313 1100 
L 313 1709 
L 2253 4666 
z
" transform="scale(0.015625)"/>
       </defs>
       <use xlink:href="#DejaVuSans-32"/>
       <use xlink:href="#DejaVuSans-30" x="63.623047"/>
       <use xlink:href="#DejaVuSans-31" x="127.246094"/>
       <use xlink:href="#DejaVuSans-34" x="190.869141"/>
      </g>
     </g>
    </g>
    <g id="xtick_5">
     <g id="line2d_5">
      <g>
       <use xlink:href="#m63b5a56c04" x="299.25" y="448.56" style="stroke: #000000; stroke-width: 0.8"/>
      </g>
     </g>
     <g id="text_5">
      <!-- 2015 -->
      <g transform="translate(292.203239 478.928774) rotate(-45) scale(0.1 -0.1)">
       <defs>
        <path id="DejaVuSans-35" d="M 691 4666 
L 3169 4666 
L 3169 4134 
L 1269 4134 
L 1269 2991 
Q 1406 3038 1543 3061 
Q 1681 3084 1819 3084 
Q 2600 3084 3056 2656 
Q 3513 2228 3513 1497 
Q 3513 744 3044 326 
Q 2575 -91 1722 -91 
Q 1428 -91 1123 -41 
Q 819 9 494 109 
L 494 744 
Q 775 591 1075 516 
Q 1375 441 1709 441 
Q 2250 441 2565 725 
Q 2881 1009 2881 1497 
Q 2881 1984 2565 2268 
Q 2250 2553 1709 2553 
Q 1456 2553 1204 2497 
Q 953 2441 691 2322 
L 691 4666 
z
" transform="scale(0.015625)"/>
       </defs>
       <use xlink:href="#DejaVuSans-32"/>
       <use xlink:href="#DejaVuSans-30" x="63.623047"/>
       <use xlink:href="#DejaVuSans-31" x="127.246094"/>
       <use xlink:href="#DejaVuSans-35" x="190.869141"/>
      </g>
     </g>
    </g>
    <g id="xtick_6">
     <g id="line2d_6">
      <g>
       <use xlink:href="#m63b5a56c04" x="345.75" y="448.56" style="stroke: #000000; stroke-width: 0.8"/>
      </g>
     </g>
     <g id="text_6">
      <!-- 2016 -->
      <g transform="translate(338.703239 478.928774) rotate(-45) scale(0.1 -0.1)">
       <defs>
        <path id="DejaVuSans-36" d="M 2113 2584 
Q 1688 2584 1439 2293 
Q 1191 2003 1191 1497 
Q 1191 994 1439 701 
Q 1688 409 2113 409 
Q 2538 409 2786 701 
Q 3034 994 3034 1497 
Q 3034 2003 2786 2293 
Q 2538 2584 2113 2584 
z
M 3366 4563 
L 3366 3988 
Q 3128 4100 2886 4159 
Q 2644 4219 2406 4219 
Q 1781 4219 1451 3797 
Q 1122 3375 1075 2522 
Q 1259 2794 1537 2939 
Q 1816 3084 2150 3084 
Q 2853 3084 3261 2657 
Q 3669 2231 3669 1497 
Q 3669 778 3244 343 
Q 2819 -91 2113 -91 
Q 1303 -91 875 529 
Q 447 1150 447 2328 
Q 447 3434 972 4092 
Q 1497 4750 2381 4750 
Q 2619 4750 2861 4703 
Q 3103 4656 3366 4563 
z
" transform="scale(0.015625)"/>
       </defs>
       <use xlink:href="#DejaVuSans-32"/>
       <use xlink:href="#DejaVuSans-30" x="63.623047"/>
       <use xlink:href="#DejaVuSans-31" x="127.246094"/>
       <use xlink:href="#DejaVuSans-36" x="190.869141"/>
      </g>
     </g>
    </g>
    <g id="xtick_7">
     <g id="line2d_7">
      <g>
       <use xlink:href="#m63b5a56c04" x="392.25" y="448.56" style="stroke: #000000; stroke-width: 0.8"/>
      </g>
     </g>
     <g id="text_7">
      <!-- 2017 -->
      <g transform="translate(385.203239 478.928774) rotate(-45) scale(0.1 -0.1)">
       <defs>
        <path id="DejaVuSans-37" d="M 525 4666 
L 3525 4666 
L 3525 4397 
L 1831 0 
L 1172 0 
L 2766 4134 
L 525 4134 
L 525 4666 
z
" transform="scale(0.015625)"/>
       </defs>
       <use xlink:href="#DejaVuSans-32"/>
       <use xlink:href="#DejaVuSans-30" x="63.623047"/>
       <use xlink:href="#DejaVuSans-31" x="127.246094"/>
       <use xlink:href="#DejaVuSans-37" x="190.869141"/>
      </g>
     </g>
    </g>
    <g id="xtick_8">
     <g id="line2d_8">
      <g>
       <use xlink:href="#m63b5a56c04" x="438.75" y="448.56" style="stroke: #000000; stroke-width: 0.8"/>
      </g>
     </g>
     <g id="text_8">
      <!-- 2018 -->
      <g transform="translate(431.703239 478.928774) rotate(-45) scale(0.1 -0.1)">
       <defs>
        <path id="DejaVuSans-38" d="M 2034 2216 
Q 1584 2216 1326 1975 
Q 1069 1734 1069 1313 
Q 1069 891 1326 650 
Q 1584 409 2034 409 
Q 2484 409 2743 651 
Q 3003 894 3003 1313 
Q 3003 1734 2745 1975 
Q 2488 2216 2034 2216 
z
M 1403 2484 
Q 997 2584 770 2862 
Q 544 3141 544 3541 
Q 544 4100 942 4425 
Q 1341 4750 2034 4750 
Q 2731 4750 3128 4425 
Q 3525 4100 3525 3541 
Q 3525 3141 3298 2862 
Q 3072 2584 2669 2484 
Q 3125 2378 3379 2068 
Q 3634 1759 3634 1313 
Q 3634 634 3220 271 
Q 2806 -91 2034 -91 
Q 1263 -91 848 271 
Q 434 634 434 1313 
Q 434 1759 690 2068 
Q 947 2378 1403 2484 
z
M 1172 3481 
Q 1172 3119 1398 2916 
Q 1625 2713 2034 2713 
Q 2441 2713 2670 2916 
Q 2900 3119 2900 3481 
Q 2900 3844 2670 4047 
Q 2441 4250 2034 4250 
Q 1625 4250 1398 4047 
Q 1172 3844 1172 3481 
z
" transform="scale(0.015625)"/>
       </defs>
       <use xlink:href="#DejaVuSans-32"/>
       <use xlink:href="#DejaVuSans-30" x="63.623047"/>
       <use xlink:href="#DejaVuSans-31" x="127.246094"/>
       <use xlink:href="#DejaVuSans-38" x="190.869141"/>
      </g>
     </g>
    </g>
    <g id="xtick_9">
     <g id="line2d_9">
      <g>
       <use xlink:href="#m63b5a56c04" x="485.25" y="448.56" style="stroke: #000000; stroke-width: 0.8"/>
      </g>
     </g>
     <g id="text_9">
      <!-- 2019 -->
      <g transform="translate(478.203239 478.928774) rotate(-45) scale(0.1 -0.1)">
       <defs>
        <path id="DejaVuSans-39" d="M 703 97 
L 703 672 
Q 941 559 1184 500 
Q 1428 441 1663 441 
Q 2288 441 2617 861 
Q 2947 1281 2994 2138 
Q 2813 1869 2534 1725 
Q 2256 1581 1919 1581 
Q 1219 1581 811 2004 
Q 403 2428 403 3163 
Q 403 3881 828 4315 
Q 1253 4750 1959 4750 
Q 2769 4750 3195 4129 
Q 3622 3509 3622 2328 
Q 3622 1225 3098 567 
Q 2575 -91 1691 -91 
Q 1453 -91 1209 -44 
Q 966 3 703 97 
z
M 1959 2075 
Q 2384 2075 2632 2365 
Q 2881 2656 2881 3163 
Q 2881 3666 2632 3958 
Q 2384 4250 1959 4250 
Q 1534 4250 1286 3958 
Q 1038 3666 1038 3163 
Q 1038 2656 1286 2365 
Q 1534 2075 1959 2075 
z
" transform="scale(0.015625)"/>
       </defs>
       <use xlink:href="#DejaVuSans-32"/>
       <use xlink:href="#DejaVuSans-30" x="63.623047"/>
       <use xlink:href="#DejaVuSans-31" x="127.246094"/>
       <use xlink:href="#DejaVuSans-39" x="190.869141"/>
      </g>
     </g>
    </g>
    <g id="xtick_10">
     <g id="line2d_10">
      <g>
       <use xlink:href="#m63b5a56c04" x="531.75" y="448.56" style="stroke: #000000; stroke-width: 0.8"/>
      </g>
     </g>
     <g id="text_10">
      <!-- 2020 -->
      <g transform="translate(524.703239 478.928774) rotate(-45) scale(0.1 -0.1)">
       <use xlink:href="#DejaVuSans-32"/>
       <use xlink:href="#DejaVuSans-30" x="63.623047"/>
       <use xlink:href="#DejaVuSans-32" x="127.246094"/>
       <use xlink:href="#DejaVuSans-30" x="190.869141"/>
      </g>
     </g>
    </g>
    <g id="xtick_11">
     <g id="line2d_11">
      <g>
       <use xlink:href="#m63b5a56c04" x="578.25" y="448.56" style="stroke: #000000; stroke-width: 0.8"/>
      </g>
     </g>
     <g id="text_11">
      <!-- 2021 -->
      <g transform="translate(571.203239 478.928774) rotate(-45) scale(0.1 -0.1)">
       <use xlink:href="#DejaVuSans-32"/>
       <use xlink:href="#DejaVuSans-30" x="63.623047"/>
       <use xlink:href="#DejaVuSans-32" x="127.246094"/>
       <use xlink:href="#DejaVuSans-31" x="190.869141"/>
      </g>
     </g>
    </g>
    <g id="xtick_12">
     <g id="line2d_12">
      <g>
       <use xlink:href="#m63b5a56c04" x="624.75" y="448.56" style="stroke: #000000; stroke-width: 0.8"/>
      </g>
     </g>
     <g id="text_12">
      <!-- 2022 -->
      <g transform="translate(617.703239 478.928774) rotate(-45) scale(0.1 -0.1)">
       <use xlink:href="#DejaVuSans-32"/>
       <use xlink:href="#DejaVuSans-30" x="63.623047"/>
       <use xlink:href="#DejaVuSans-32" x="127.246094"/>
       <use xlink:href="#DejaVuSans-32" x="190.869141"/>
      </g>
     </g>
    </g>
    <g id="text_13">
     <!-- Año -->
     <g transform="translate(359.351562 491.997773) scale(0.1 -0.1)">
      <defs>
       <path id="DejaVuSans-41" d="M 2188 4044 
L 1331 1722 
L 3047 1722 
L 2188 4044 
z
M 1831 4666 
L 2547 4666 
L 4325 0 
L 3669 0 
L 3244 1197 
L 1141 1197 
L 716 0 
L 50 0 
L 1831 4666 
z
" transform="scale(0.015625)"/>
       <path id="DejaVuSans-f1" d="M 3513 2113 
L 3513 0 
L 2938 0 
L 2938 2094 
Q 2938 2591 2744 2837 
Q 2550 3084 2163 3084 
Q 1697 3084 1428 2787 
Q 1159 2491 1159 1978 
L 1159 0 
L 581 0 
L 581 3500 
L 1159 3500 
L 1159 2956 
Q 1366 3272 1645 3428 
Q 1925 3584 2291 3584 
Q 2894 3584 3203 3211 
Q 3513 2838 3513 2113 
z
M 2060 4281 
L 1881 4453 
Q 1813 4516 1761 4545 
Q 1710 4575 1669 4575 
Q 1550 4575 1494 4461 
Q 1438 4347 1431 4091 
L 1041 4091 
Q 1047 4513 1206 4742 
Q 1366 4972 1650 4972 
Q 1769 4972 1869 4928 
Q 1969 4884 2085 4781 
L 2263 4609 
Q 2331 4547 2383 4517 
Q 2435 4488 2475 4488 
Q 2594 4488 2650 4602 
Q 2706 4716 2713 4972 
L 3103 4972 
Q 3097 4550 2937 4320 
Q 2778 4091 2494 4091 
Q 2375 4091 2275 4134 
Q 2175 4178 2060 4281 
z
" transform="scale(0.015625)"/>
       <path id="DejaVuSans-6f" d="M 1959 3097 
Q 1497 3097 1228 2736 
Q 959 2375 959 1747 
Q 959 1119 1226 758 
Q 1494 397 1959 397 
Q 2419 397 2687 759 
Q 2956 1122 2956 1747 
Q 2956 2369 2687 2733 
Q 2419 3097 1959 3097 
z
M 1959 3584 
Q 2709 3584 3137 3096 
Q 3566 2609 3566 1747 
Q 3566 888 3137 398 
Q 2709 -91 1959 -91 
Q 1206 -91 779 398 
Q 353 888 353 1747 
Q 353 2609 779 3096 
Q 1206 3584 1959 3584 
z
" transform="scale(0.015625)"/>
      </defs>
      <use xlink:href="#DejaVuSans-41"/>
      <use xlink:href="#DejaVuSans-f1" x="68.408203"/>
      <use xlink:href="#DejaVuSans-6f" x="131.787109"/>
     </g>
    </g>
   </g>
   <g id="matplotlib.axis_2">
    <g id="ytick_1">
     <g id="line2d_13">
      <defs>
       <path id="mab598eaf68" d="M 0 0 
L -3.5 0 
" style="stroke: #000000; stroke-width: 0.8"/>
      </defs>
      <g>
       <use xlink:href="#mab598eaf68" x="90" y="448.56" style="stroke: #000000; stroke-width: 0.8"/>
      </g>
     </g>
     <g id="text_14">
      <!-- 0 -->
      <g transform="translate(76.6375 452.359219) scale(0.1 -0.1)">
       <use xlink:href="#DejaVuSans-30"/>
      </g>
     </g>
    </g>
    <g id="ytick_2">
     <g id="line2d_14">
      <g>
       <use xlink:href="#mab598eaf68" x="90" y="370.944" style="stroke: #000000; stroke-width: 0.8"/>
      </g>
     </g>
     <g id="text_15">
      <!-- 20 -->
      <g transform="translate(70.275 374.743219) scale(0.1 -0.1)">
       <use xlink:href="#DejaVuSans-32"/>
       <use xlink:href="#DejaVuSans-30" x="63.623047"/>
      </g>
     </g>
    </g>
    <g id="ytick_3">
     <g id="line2d_15">
      <g>
       <use xlink:href="#mab598eaf68" x="90" y="293.328" style="stroke: #000000; stroke-width: 0.8"/>
      </g>
     </g>
     <g id="text_16">
      <!-- 40 -->
      <g transform="translate(70.275 297.127219) scale(0.1 -0.1)">
       <use xlink:href="#DejaVuSans-34"/>
       <use xlink:href="#DejaVuSans-30" x="63.623047"/>
      </g>
     </g>
    </g>
    <g id="ytick_4">
     <g id="line2d_16">
      <g>
       <use xlink:href="#mab598eaf68" x="90" y="215.712" style="stroke: #000000; stroke-width: 0.8"/>
      </g>
     </g>
     <g id="text_17">
      <!-- 60 -->
      <g transform="translate(70.275 219.511219) scale(0.1 -0.1)">
       <use xlink:href="#DejaVuSans-36"/>
       <use xlink:href="#DejaVuSans-30" x="63.623047"/>
      </g>
     </g>
    </g>
    <g id="ytick_5">
     <g id="line2d_17">
      <g>
       <use xlink:href="#mab598eaf68" x="90" y="138.096" style="stroke: #000000; stroke-width: 0.8"/>
      </g>
     </g>
     <g id="text_18">
      <!-- 80 -->
      <g transform="translate(70.275 141.895219) scale(0.1 -0.1)">
       <use xlink:href="#DejaVuSans-38"/>
       <use xlink:href="#DejaVuSans-30" x="63.623047"/>
      </g>
     </g>
    </g>
    <g id="ytick_6">
     <g id="line2d_18">
      <g>
       <use xlink:href="#mab598eaf68" x="90" y="60.48" style="stroke: #000000; stroke-width: 0.8"/>
      </g>
     </g>
     <g id="text_19">
      <!-- 100 -->
      <g transform="translate(63.9125 64.279219) scale(0.1 -0.1)">
       <use xlink:href="#DejaVuSans-31"/>
       <use xlink:href="#DejaVuSans-30" x="63.623047"/>
       <use xlink:href="#DejaVuSans-30" x="127.246094"/>
      </g>
     </g>
    </g>
    <g id="text_20">
     <!-- % calidad -->
     <g transform="translate(57.832812 278.86375) rotate(-90) scale(0.1 -0.1)">
      <defs>
       <path id="DejaVuSans-25" d="M 4653 2053 
Q 4381 2053 4226 1822 
Q 4072 1591 4072 1178 
Q 4072 772 4226 539 
Q 4381 306 4653 306 
Q 4919 306 5073 539 
Q 5228 772 5228 1178 
Q 5228 1588 5073 1820 
Q 4919 2053 4653 2053 
z
M 4653 2450 
Q 5147 2450 5437 2106 
Q 5728 1763 5728 1178 
Q 5728 594 5436 251 
Q 5144 -91 4653 -91 
Q 4153 -91 3862 251 
Q 3572 594 3572 1178 
Q 3572 1766 3864 2108 
Q 4156 2450 4653 2450 
z
M 1428 4353 
Q 1159 4353 1004 4120 
Q 850 3888 850 3481 
Q 850 3069 1003 2837 
Q 1156 2606 1428 2606 
Q 1700 2606 1854 2837 
Q 2009 3069 2009 3481 
Q 2009 3884 1853 4118 
Q 1697 4353 1428 4353 
z
M 4250 4750 
L 4750 4750 
L 1831 -91 
L 1331 -91 
L 4250 4750 
z
M 1428 4750 
Q 1922 4750 2215 4408 
Q 2509 4066 2509 3481 
Q 2509 2891 2217 2550 
Q 1925 2209 1428 2209 
Q 931 2209 642 2551 
Q 353 2894 353 3481 
Q 353 4063 643 4406 
Q 934 4750 1428 4750 
z
" transform="scale(0.015625)"/>
       <path id="DejaVuSans-20" transform="scale(0.015625)"/>
       <path id="DejaVuSans-63" d="M 3122 3366 
L 3122 2828 
Q 2878 2963 2633 3030 
Q 2388 3097 2138 3097 
Q 1578 3097 1268 2742 
Q 959 2388 959 1747 
Q 959 1106 1268 751 
Q 1578 397 2138 397 
Q 2388 397 2633 464 
Q 2878 531 3122 666 
L 3122 134 
Q 2881 22 2623 -34 
Q 2366 -91 2075 -91 
Q 1284 -91 818 406 
Q 353 903 353 1747 
Q 353 2603 823 3093 
Q 1294 3584 2113 3584 
Q 2378 3584 2631 3529 
Q 2884 3475 3122 3366 
z
" transform="scale(0.015625)"/>
       <path id="DejaVuSans-61" d="M 2194 1759 
Q 1497 1759 1228 1600 
Q 959 1441 959 1056 
Q 959 750 1161 570 
Q 1363 391 1709 391 
Q 2188 391 2477 730 
Q 2766 1069 2766 1631 
L 2766 1759 
L 2194 1759 
z
M 3341 1997 
L 3341 0 
L 2766 0 
L 2766 531 
Q 2569 213 2275 61 
Q 1981 -91 1556 -91 
Q 1019 -91 701 211 
Q 384 513 384 1019 
Q 384 1609 779 1909 
Q 1175 2209 1959 2209 
L 2766 2209 
L 2766 2266 
Q 2766 2663 2505 2880 
Q 2244 3097 1772 3097 
Q 1472 3097 1187 3025 
Q 903 2953 641 2809 
L 641 3341 
Q 956 3463 1253 3523 
Q 1550 3584 1831 3584 
Q 2591 3584 2966 3190 
Q 3341 2797 3341 1997 
z
" transform="scale(0.015625)"/>
       <path id="DejaVuSans-6c" d="M 603 4863 
L 1178 4863 
L 1178 0 
L 603 0 
L 603 4863 
z
" transform="scale(0.015625)"/>
       <path id="DejaVuSans-69" d="M 603 3500 
L 1178 3500 
L 1178 0 
L 603 0 
L 603 3500 
z
M 603 4863 
L 1178 4863 
L 1178 4134 
L 603 4134 
L 603 4863 
z
" transform="scale(0.015625)"/>
       <path id="DejaVuSans-64" d="M 2906 2969 
L 2906 4863 
L 3481 4863 
L 3481 0 
L 2906 0 
L 2906 525 
Q 2725 213 2448 61 
Q 2172 -91 1784 -91 
Q 1150 -91 751 415 
Q 353 922 353 1747 
Q 353 2572 751 3078 
Q 1150 3584 1784 3584 
Q 2172 3584 2448 3432 
Q 2725 3281 2906 2969 
z
M 947 1747 
Q 947 1113 1208 752 
Q 1469 391 1925 391 
Q 2381 391 2643 752 
Q 2906 1113 2906 1747 
Q 2906 2381 2643 2742 
Q 2381 3103 1925 3103 
Q 1469 3103 1208 2742 
Q 947 2381 947 1747 
z
" transform="scale(0.015625)"/>
      </defs>
      <use xlink:href="#DejaVuSans-25"/>
      <use xlink:href="#DejaVuSans-20" x="95.019531"/>
      <use xlink:href="#DejaVuSans-63" x="126.806641"/>
      <use xlink:href="#DejaVuSans-61" x="181.787109"/>
      <use xlink:href="#DejaVuSans-6c" x="243.066406"/>
      <use xlink:href="#DejaVuSans-69" x="270.849609"/>
      <use xlink:href="#DejaVuSans-64" x="298.632812"/>
      <use xlink:href="#DejaVuSans-61" x="362.109375"/>
      <use xlink:href="#DejaVuSans-64" x="423.388672"/>
     </g>
    </g>
   </g>
   <g id="patch_39">
    <path d="M 90 448.56 
L 90 60.48 
" style="fill: none; stroke: #000000; stroke-width: 0.8; stroke-linejoin: miter; stroke-linecap: square"/>
   </g>
   <g id="patch_40">
    <path d="M 648 448.56 
L 648 60.48 
" style="fill: none; stroke: #000000; stroke-width: 0.8; stroke-linejoin: miter; stroke-linecap: square"/>
   </g>
   <g id="patch_41">
    <path d="M 90 448.56 
L 648 448.56 
" style="fill: none; stroke: #000000; stroke-width: 0.8; stroke-linejoin: miter; stroke-linecap: square"/>
   </g>
   <g id="patch_42">
    <path d="M 90 60.48 
L 648 60.48 
" style="fill: none; stroke: #000000; stroke-width: 0.8; stroke-linejoin: miter; stroke-linecap: square"/>
   </g>
   <g id="text_21">
    <!-- Calidad del Agua para el Baño -->
    <g transform="translate(278.154375 54.48) scale(0.12 -0.12)">
     <defs>
      <path id="DejaVuSans-43" d="M 4122 4306 
L 4122 3641 
Q 3803 3938 3442 4084 
Q 3081 4231 2675 4231 
Q 1875 4231 1450 3742 
Q 1025 3253 1025 2328 
Q 1025 1406 1450 917 
Q 1875 428 2675 428 
Q 3081 428 3442 575 
Q 3803 722 4122 1019 
L 4122 359 
Q 3791 134 3420 21 
Q 3050 -91 2638 -91 
Q 1578 -91 968 557 
Q 359 1206 359 2328 
Q 359 3453 968 4101 
Q 1578 4750 2638 4750 
Q 3056 4750 3426 4639 
Q 3797 4528 4122 4306 
z
" transform="scale(0.015625)"/>
      <path id="DejaVuSans-65" d="M 3597 1894 
L 3597 1613 
L 953 1613 
Q 991 1019 1311 708 
Q 1631 397 2203 397 
Q 2534 397 2845 478 
Q 3156 559 3463 722 
L 3463 178 
Q 3153 47 2828 -22 
Q 2503 -91 2169 -91 
Q 1331 -91 842 396 
Q 353 884 353 1716 
Q 353 2575 817 3079 
Q 1281 3584 2069 3584 
Q 2775 3584 3186 3129 
Q 3597 2675 3597 1894 
z
M 3022 2063 
Q 3016 2534 2758 2815 
Q 2500 3097 2075 3097 
Q 1594 3097 1305 2825 
Q 1016 2553 972 2059 
L 3022 2063 
z
" transform="scale(0.015625)"/>
      <path id="DejaVuSans-67" d="M 2906 1791 
Q 2906 2416 2648 2759 
Q 2391 3103 1925 3103 
Q 1463 3103 1205 2759 
Q 947 2416 947 1791 
Q 947 1169 1205 825 
Q 1463 481 1925 481 
Q 2391 481 2648 825 
Q 2906 1169 2906 1791 
z
M 3481 434 
Q 3481 -459 3084 -895 
Q 2688 -1331 1869 -1331 
Q 1566 -1331 1297 -1286 
Q 1028 -1241 775 -1147 
L 775 -588 
Q 1028 -725 1275 -790 
Q 1522 -856 1778 -856 
Q 2344 -856 2625 -561 
Q 2906 -266 2906 331 
L 2906 616 
Q 2728 306 2450 153 
Q 2172 0 1784 0 
Q 1141 0 747 490 
Q 353 981 353 1791 
Q 353 2603 747 3093 
Q 1141 3584 1784 3584 
Q 2172 3584 2450 3431 
Q 2728 3278 2906 2969 
L 2906 3500 
L 3481 3500 
L 3481 434 
z
" transform="scale(0.015625)"/>
      <path id="DejaVuSans-75" d="M 544 1381 
L 544 3500 
L 1119 3500 
L 1119 1403 
Q 1119 906 1312 657 
Q 1506 409 1894 409 
Q 2359 409 2629 706 
Q 2900 1003 2900 1516 
L 2900 3500 
L 3475 3500 
L 3475 0 
L 2900 0 
L 2900 538 
Q 2691 219 2414 64 
Q 2138 -91 1772 -91 
Q 1169 -91 856 284 
Q 544 659 544 1381 
z
M 1991 3584 
L 1991 3584 
z
" transform="scale(0.015625)"/>
      <path id="DejaVuSans-70" d="M 1159 525 
L 1159 -1331 
L 581 -1331 
L 581 3500 
L 1159 3500 
L 1159 2969 
Q 1341 3281 1617 3432 
Q 1894 3584 2278 3584 
Q 2916 3584 3314 3078 
Q 3713 2572 3713 1747 
Q 3713 922 3314 415 
Q 2916 -91 2278 -91 
Q 1894 -91 1617 61 
Q 1341 213 1159 525 
z
M 3116 1747 
Q 3116 2381 2855 2742 
Q 2594 3103 2138 3103 
Q 1681 3103 1420 2742 
Q 1159 2381 1159 1747 
Q 1159 1113 1420 752 
Q 1681 391 2138 391 
Q 2594 391 2855 752 
Q 3116 1113 3116 1747 
z
" transform="scale(0.015625)"/>
      <path id="DejaVuSans-72" d="M 2631 2963 
Q 2534 3019 2420 3045 
Q 2306 3072 2169 3072 
Q 1681 3072 1420 2755 
Q 1159 2438 1159 1844 
L 1159 0 
L 581 0 
L 581 3500 
L 1159 3500 
L 1159 2956 
Q 1341 3275 1631 3429 
Q 1922 3584 2338 3584 
Q 2397 3584 2469 3576 
Q 2541 3569 2628 3553 
L 2631 2963 
z
" transform="scale(0.015625)"/>
      <path id="DejaVuSans-42" d="M 1259 2228 
L 1259 519 
L 2272 519 
Q 2781 519 3026 730 
Q 3272 941 3272 1375 
Q 3272 1813 3026 2020 
Q 2781 2228 2272 2228 
L 1259 2228 
z
M 1259 4147 
L 1259 2741 
L 2194 2741 
Q 2656 2741 2882 2914 
Q 3109 3088 3109 3444 
Q 3109 3797 2882 3972 
Q 2656 4147 2194 4147 
L 1259 4147 
z
M 628 4666 
L 2241 4666 
Q 2963 4666 3353 4366 
Q 3744 4066 3744 3513 
Q 3744 3084 3544 2831 
Q 3344 2578 2956 2516 
Q 3422 2416 3680 2098 
Q 3938 1781 3938 1306 
Q 3938 681 3513 340 
Q 3088 0 2303 0 
L 628 0 
L 628 4666 
z
" transform="scale(0.015625)"/>
     </defs>
     <use xlink:href="#DejaVuSans-43"/>
     <use xlink:href="#DejaVuSans-61" x="69.824219"/>
     <use xlink:href="#DejaVuSans-6c" x="131.103516"/>
     <use xlink:href="#DejaVuSans-69" x="158.886719"/>
     <use xlink:href="#DejaVuSans-64" x="186.669922"/>
     <use xlink:href="#DejaVuSans-61" x="250.146484"/>
     <use xlink:href="#DejaVuSans-64" x="311.425781"/>
     <use xlink:href="#DejaVuSans-20" x="374.902344"/>
     <use xlink:href="#DejaVuSans-64" x="406.689453"/>
     <use xlink:href="#DejaVuSans-65" x="470.166016"/>
     <use xlink:href="#DejaVuSans-6c" x="531.689453"/>
     <use xlink:href="#DejaVuSans-20" x="559.472656"/>
     <use xlink:href="#DejaVuSans-41" x="591.259766"/>
     <use xlink:href="#DejaVuSans-67" x="659.667969"/>
     <use xlink:href="#DejaVuSans-75" x="723.144531"/>
     <use xlink:href="#DejaVuSans-61" x="786.523438"/>
     <use xlink:href="#DejaVuSans-20" x="847.802734"/>
     <use xlink:href="#DejaVuSans-70" x="879.589844"/>
     <use xlink:href="#DejaVuSans-61" x="943.066406"/>
     <use xlink:href="#DejaVuSans-72" x="1004.345703"/>
     <use xlink:href="#DejaVuSans-61" x="1045.458984"/>
     <use xlink:href="#DejaVuSans-20" x="1106.738281"/>
     <use xlink:href="#DejaVuSans-65" x="1138.525391"/>
     <use xlink:href="#DejaVuSans-6c" x="1200.048828"/>
     <use xlink:href="#DejaVuSans-20" x="1227.832031"/>
     <use xlink:href="#DejaVuSans-42" x="1259.619141"/>
     <use xlink:href="#DejaVuSans-61" x="1328.222656"/>
     <use xlink:href="#DejaVuSans-f1" x="1389.501953"/>
     <use xlink:href="#DejaVuSans-6f" x="1452.880859"/>
    </g>
   </g>
   <g id="legend_1">
    <g id="patch_43">
     <path d="M 432.759375 113.34875 
L 641 113.34875 
Q 643 113.34875 643 111.34875 
L 643 67.48 
Q 643 65.48 641 65.48 
L 432.759375 65.48 
Q 430.759375 65.48 430.759375 67.48 
L 430.759375 111.34875 
Q 430.759375 113.34875 432.759375 113.34875 
z
" style="fill: #ffffff; opacity: 0.8; stroke: #cccccc; stroke-linejoin: miter"/>
    </g>
    <g id="patch_44">
     <path d="M 434.759375 77.078438 
L 454.759375 77.078438 
L 454.759375 70.078438 
L 434.759375 70.078438 
z
" style="fill: #6ce5e8"/>
    </g>
    <g id="text_22">
     <!-- PM_CALIDAD_AGUA_BUENA -->
     <g transform="translate(462.759375 77.078438) scale(0.1 -0.1)">
      <defs>
       <path id="DejaVuSans-50" d="M 1259 4147 
L 1259 2394 
L 2053 2394 
Q 2494 2394 2734 2622 
Q 2975 2850 2975 3272 
Q 2975 3691 2734 3919 
Q 2494 4147 2053 4147 
L 1259 4147 
z
M 628 4666 
L 2053 4666 
Q 2838 4666 3239 4311 
Q 3641 3956 3641 3272 
Q 3641 2581 3239 2228 
Q 2838 1875 2053 1875 
L 1259 1875 
L 1259 0 
L 628 0 
L 628 4666 
z
" transform="scale(0.015625)"/>
       <path id="DejaVuSans-4d" d="M 628 4666 
L 1569 4666 
L 2759 1491 
L 3956 4666 
L 4897 4666 
L 4897 0 
L 4281 0 
L 4281 4097 
L 3078 897 
L 2444 897 
L 1241 4097 
L 1241 0 
L 628 0 
L 628 4666 
z
" transform="scale(0.015625)"/>
       <path id="DejaVuSans-5f" d="M 3263 -1063 
L 3263 -1509 
L -63 -1509 
L -63 -1063 
L 3263 -1063 
z
" transform="scale(0.015625)"/>
       <path id="DejaVuSans-4c" d="M 628 4666 
L 1259 4666 
L 1259 531 
L 3531 531 
L 3531 0 
L 628 0 
L 628 4666 
z
" transform="scale(0.015625)"/>
       <path id="DejaVuSans-49" d="M 628 4666 
L 1259 4666 
L 1259 0 
L 628 0 
L 628 4666 
z
" transform="scale(0.015625)"/>
       <path id="DejaVuSans-44" d="M 1259 4147 
L 1259 519 
L 2022 519 
Q 2988 519 3436 956 
Q 3884 1394 3884 2338 
Q 3884 3275 3436 3711 
Q 2988 4147 2022 4147 
L 1259 4147 
z
M 628 4666 
L 1925 4666 
Q 3281 4666 3915 4102 
Q 4550 3538 4550 2338 
Q 4550 1131 3912 565 
Q 3275 0 1925 0 
L 628 0 
L 628 4666 
z
" transform="scale(0.015625)"/>
       <path id="DejaVuSans-47" d="M 3809 666 
L 3809 1919 
L 2778 1919 
L 2778 2438 
L 4434 2438 
L 4434 434 
Q 4069 175 3628 42 
Q 3188 -91 2688 -91 
Q 1594 -91 976 548 
Q 359 1188 359 2328 
Q 359 3472 976 4111 
Q 1594 4750 2688 4750 
Q 3144 4750 3555 4637 
Q 3966 4525 4313 4306 
L 4313 3634 
Q 3963 3931 3569 4081 
Q 3175 4231 2741 4231 
Q 1884 4231 1454 3753 
Q 1025 3275 1025 2328 
Q 1025 1384 1454 906 
Q 1884 428 2741 428 
Q 3075 428 3337 486 
Q 3600 544 3809 666 
z
" transform="scale(0.015625)"/>
       <path id="DejaVuSans-55" d="M 556 4666 
L 1191 4666 
L 1191 1831 
Q 1191 1081 1462 751 
Q 1734 422 2344 422 
Q 2950 422 3222 751 
Q 3494 1081 3494 1831 
L 3494 4666 
L 4128 4666 
L 4128 1753 
Q 4128 841 3676 375 
Q 3225 -91 2344 -91 
Q 1459 -91 1007 375 
Q 556 841 556 1753 
L 556 4666 
z
" transform="scale(0.015625)"/>
       <path id="DejaVuSans-45" d="M 628 4666 
L 3578 4666 
L 3578 4134 
L 1259 4134 
L 1259 2753 
L 3481 2753 
L 3481 2222 
L 1259 2222 
L 1259 531 
L 3634 531 
L 3634 0 
L 628 0 
L 628 4666 
z
" transform="scale(0.015625)"/>
       <path id="DejaVuSans-4e" d="M 628 4666 
L 1478 4666 
L 3547 763 
L 3547 4666 
L 4159 4666 
L 4159 0 
L 3309 0 
L 1241 3903 
L 1241 0 
L 628 0 
L 628 4666 
z
" transform="scale(0.015625)"/>
      </defs>
      <use xlink:href="#DejaVuSans-50"/>
      <use xlink:href="#DejaVuSans-4d" x="60.302734"/>
      <use xlink:href="#DejaVuSans-5f" x="146.582031"/>
      <use xlink:href="#DejaVuSans-43" x="196.582031"/>
      <use xlink:href="#DejaVuSans-41" x="266.40625"/>
      <use xlink:href="#DejaVuSans-4c" x="334.814453"/>
      <use xlink:href="#DejaVuSans-49" x="390.527344"/>
      <use xlink:href="#DejaVuSans-44" x="420.019531"/>
      <use xlink:href="#DejaVuSans-41" x="495.271484"/>
      <use xlink:href="#DejaVuSans-44" x="563.679688"/>
      <use xlink:href="#DejaVuSans-5f" x="640.681641"/>
      <use xlink:href="#DejaVuSans-41" x="690.681641"/>
      <use xlink:href="#DejaVuSans-47" x="757.339844"/>
      <use xlink:href="#DejaVuSans-55" x="834.830078"/>
      <use xlink:href="#DejaVuSans-41" x="908.023438"/>
      <use xlink:href="#DejaVuSans-5f" x="976.431641"/>
      <use xlink:href="#DejaVuSans-42" x="1026.431641"/>
      <use xlink:href="#DejaVuSans-55" x="1095.035156"/>
      <use xlink:href="#DejaVuSans-45" x="1168.228516"/>
      <use xlink:href="#DejaVuSans-4e" x="1231.412109"/>
      <use xlink:href="#DejaVuSans-41" x="1306.216797"/>
     </g>
    </g>
    <g id="patch_45">
     <path d="M 434.759375 92.034688 
L 454.759375 92.034688 
L 454.759375 85.034688 
L 434.759375 85.034688 
z
" style="fill: #31356e"/>
    </g>
    <g id="text_23">
     <!-- PM_CALIDAD_AGUA_EXCELENTE -->
     <g transform="translate(462.759375 92.034688) scale(0.1 -0.1)">
      <defs>
       <path id="DejaVuSans-58" d="M 403 4666 
L 1081 4666 
L 2241 2931 
L 3406 4666 
L 4084 4666 
L 2584 2425 
L 4184 0 
L 3506 0 
L 2194 1984 
L 872 0 
L 191 0 
L 1856 2491 
L 403 4666 
z
" transform="scale(0.015625)"/>
       <path id="DejaVuSans-54" d="M -19 4666 
L 3928 4666 
L 3928 4134 
L 2272 4134 
L 2272 0 
L 1638 0 
L 1638 4134 
L -19 4134 
L -19 4666 
z
" transform="scale(0.015625)"/>
      </defs>
      <use xlink:href="#DejaVuSans-50"/>
      <use xlink:href="#DejaVuSans-4d" x="60.302734"/>
      <use xlink:href="#DejaVuSans-5f" x="146.582031"/>
      <use xlink:href="#DejaVuSans-43" x="196.582031"/>
      <use xlink:href="#DejaVuSans-41" x="266.40625"/>
      <use xlink:href="#DejaVuSans-4c" x="334.814453"/>
      <use xlink:href="#DejaVuSans-49" x="390.527344"/>
      <use xlink:href="#DejaVuSans-44" x="420.019531"/>
      <use xlink:href="#DejaVuSans-41" x="495.271484"/>
      <use xlink:href="#DejaVuSans-44" x="563.679688"/>
      <use xlink:href="#DejaVuSans-5f" x="640.681641"/>
      <use xlink:href="#DejaVuSans-41" x="690.681641"/>
      <use xlink:href="#DejaVuSans-47" x="757.339844"/>
      <use xlink:href="#DejaVuSans-55" x="834.830078"/>
      <use xlink:href="#DejaVuSans-41" x="908.023438"/>
      <use xlink:href="#DejaVuSans-5f" x="976.431641"/>
      <use xlink:href="#DejaVuSans-45" x="1026.431641"/>
      <use xlink:href="#DejaVuSans-58" x="1089.615234"/>
      <use xlink:href="#DejaVuSans-43" x="1150.871094"/>
      <use xlink:href="#DejaVuSans-45" x="1220.695312"/>
      <use xlink:href="#DejaVuSans-4c" x="1283.878906"/>
      <use xlink:href="#DejaVuSans-45" x="1339.591797"/>
      <use xlink:href="#DejaVuSans-4e" x="1402.775391"/>
      <use xlink:href="#DejaVuSans-54" x="1477.580078"/>
      <use xlink:href="#DejaVuSans-45" x="1538.664062"/>
     </g>
    </g>
    <g id="patch_46">
     <path d="M 434.759375 106.990938 
L 454.759375 106.990938 
L 454.759375 99.990938 
L 434.759375 99.990938 
z
" style="fill: #2d8bba"/>
    </g>
    <g id="text_24">
     <!-- PM_CALIDAD_AGUA_SIN_CALIFICAR -->
     <g transform="translate(462.759375 106.990938) scale(0.1 -0.1)">
      <defs>
       <path id="DejaVuSans-53" d="M 3425 4513 
L 3425 3897 
Q 3066 4069 2747 4153 
Q 2428 4238 2131 4238 
Q 1616 4238 1336 4038 
Q 1056 3838 1056 3469 
Q 1056 3159 1242 3001 
Q 1428 2844 1947 2747 
L 2328 2669 
Q 3034 2534 3370 2195 
Q 3706 1856 3706 1288 
Q 3706 609 3251 259 
Q 2797 -91 1919 -91 
Q 1588 -91 1214 -16 
Q 841 59 441 206 
L 441 856 
Q 825 641 1194 531 
Q 1563 422 1919 422 
Q 2459 422 2753 634 
Q 3047 847 3047 1241 
Q 3047 1584 2836 1778 
Q 2625 1972 2144 2069 
L 1759 2144 
Q 1053 2284 737 2584 
Q 422 2884 422 3419 
Q 422 4038 858 4394 
Q 1294 4750 2059 4750 
Q 2388 4750 2728 4690 
Q 3069 4631 3425 4513 
z
" transform="scale(0.015625)"/>
       <path id="DejaVuSans-46" d="M 628 4666 
L 3309 4666 
L 3309 4134 
L 1259 4134 
L 1259 2759 
L 3109 2759 
L 3109 2228 
L 1259 2228 
L 1259 0 
L 628 0 
L 628 4666 
z
" transform="scale(0.015625)"/>
       <path id="DejaVuSans-52" d="M 2841 2188 
Q 3044 2119 3236 1894 
Q 3428 1669 3622 1275 
L 4263 0 
L 3584 0 
L 2988 1197 
Q 2756 1666 2539 1819 
Q 2322 1972 1947 1972 
L 1259 1972 
L 1259 0 
L 628 0 
L 628 4666 
L 2053 4666 
Q 2853 4666 3247 4331 
Q 3641 3997 3641 3322 
Q 3641 2881 3436 2590 
Q 3231 2300 2841 2188 
z
M 1259 4147 
L 1259 2491 
L 2053 2491 
Q 2509 2491 2742 2702 
Q 2975 2913 2975 3322 
Q 2975 3731 2742 3939 
Q 2509 4147 2053 4147 
L 1259 4147 
z
" transform="scale(0.015625)"/>
      </defs>
      <use xlink:href="#DejaVuSans-50"/>
      <use xlink:href="#DejaVuSans-4d" x="60.302734"/>
      <use xlink:href="#DejaVuSans-5f" x="146.582031"/>
      <use xlink:href="#DejaVuSans-43" x="196.582031"/>
      <use xlink:href="#DejaVuSans-41" x="266.40625"/>
      <use xlink:href="#DejaVuSans-4c" x="334.814453"/>
      <use xlink:href="#DejaVuSans-49" x="390.527344"/>
      <use xlink:href="#DejaVuSans-44" x="420.019531"/>
      <use xlink:href="#DejaVuSans-41" x="495.271484"/>
      <use xlink:href="#DejaVuSans-44" x="563.679688"/>
      <use xlink:href="#DejaVuSans-5f" x="640.681641"/>
      <use xlink:href="#DejaVuSans-41" x="690.681641"/>
      <use xlink:href="#DejaVuSans-47" x="757.339844"/>
      <use xlink:href="#DejaVuSans-55" x="834.830078"/>
      <use xlink:href="#DejaVuSans-41" x="908.023438"/>
      <use xlink:href="#DejaVuSans-5f" x="976.431641"/>
      <use xlink:href="#DejaVuSans-53" x="1026.431641"/>
      <use xlink:href="#DejaVuSans-49" x="1089.908203"/>
      <use xlink:href="#DejaVuSans-4e" x="1119.400391"/>
      <use xlink:href="#DejaVuSans-5f" x="1194.205078"/>
      <use xlink:href="#DejaVuSans-43" x="1244.205078"/>
      <use xlink:href="#DejaVuSans-41" x="1314.029297"/>
      <use xlink:href="#DejaVuSans-4c" x="1382.4375"/>
      <use xlink:href="#DejaVuSans-49" x="1438.150391"/>
      <use xlink:href="#DejaVuSans-46" x="1467.642578"/>
      <use xlink:href="#DejaVuSans-49" x="1525.162109"/>
      <use xlink:href="#DejaVuSans-43" x="1554.654297"/>
      <use xlink:href="#DejaVuSans-41" x="1624.478516"/>
      <use xlink:href="#DejaVuSans-52" x="1692.886719"/>
     </g>
    </g>
   </g>
  </g>
 </g>
 <defs>
  <clipPath id="p9834c5563a">
   <rect x="90" y="60.48" width="558" height="388.08"/>
  </clipPath>
 </defs>
</svg>
