<?xml version="1.0" encoding="utf-8" standalone="no"?>
<!DOCTYPE svg PUBLIC "-//W3C//DTD SVG 1.1//EN"
  "http://www.w3.org/Graphics/SVG/1.1/DTD/svg11.dtd">
<svg xmlns:xlink="http://www.w3.org/1999/xlink" width="720pt" height="432pt" viewBox="0 0 720 432" xmlns="http://www.w3.org/2000/svg" version="1.1">
 <metadata>
  <rdf:RDF xmlns:dc="http://purl.org/dc/elements/1.1/" xmlns:cc="http://creativecommons.org/ns#" xmlns:rdf="http://www.w3.org/1999/02/22-rdf-syntax-ns#">
   <cc:Work>
    <dc:type rdf:resource="http://purl.org/dc/dcmitype/StillImage"/>
    <dc:date>2024-02-12T22:01:10.448038</dc:date>
    <dc:format>image/svg+xml</dc:format>
    <dc:creator>
     <cc:Agent>
      <dc:title>Matplotlib v3.6.0, https://matplotlib.org/</dc:title>
     </cc:Agent>
    </dc:creator>
   </cc:Work>
  </rdf:RDF>
 </metadata>
 <defs>
  <style type="text/css">*{stroke-linejoin: round; stroke-linecap: butt}</style>
 </defs>
 <g id="figure_1">
  <g id="patch_1">
   <path d="M 0 432 
L 720 432 
L 720 0 
L 0 0 
z
" style="fill: #ffffff"/>
  </g>
  <g id="axes_1">
   <g id="patch_2">
    <path d="M 90 384.48 
L 648 384.48 
L 648 51.84 
L 90 51.84 
z
" style="fill: #ffffff"/>
   </g>
   <g id="matplotlib.axis_1">
    <g id="xtick_1">
     <g id="line2d_1">
      <defs>
       <path id="m79af27d48c" d="M 0 0 
L 0 3.5 
" style="stroke: #000000; stroke-width: 0.8"/>
      </defs>
      <g>
       <use xlink:href="#m79af27d48c" x="131.008655" y="384.48" style="stroke: #000000; stroke-width: 0.8"/>
      </g>
     </g>
     <g id="text_1">
      <!-- 2016 -->
      <g transform="translate(123.961894 414.848774) rotate(-45) scale(0.1 -0.1)">
       <defs>
        <path id="DejaVuSans-32" d="M 1228 531 
L 3431 531 
L 3431 0 
L 469 0 
L 469 531 
Q 828 903 1448 1529 
Q 2069 2156 2228 2338 
Q 2531 2678 2651 2914 
Q 2772 3150 2772 3378 
Q 2772 3750 2511 3984 
Q 2250 4219 1831 4219 
Q 1534 4219 1204 4116 
Q 875 4013 500 3803 
L 500 4441 
Q 881 4594 1212 4672 
Q 1544 4750 1819 4750 
Q 2544 4750 2975 4387 
Q 3406 4025 3406 3419 
Q 3406 3131 3298 2873 
Q 3191 2616 2906 2266 
Q 2828 2175 2409 1742 
Q 1991 1309 1228 531 
z
" transform="scale(0.015625)"/>
        <path id="DejaVuSans-30" d="M 2034 4250 
Q 1547 4250 1301 3770 
Q 1056 3291 1056 2328 
Q 1056 1369 1301 889 
Q 1547 409 2034 409 
Q 2525 409 2770 889 
Q 3016 1369 3016 2328 
Q 3016 3291 2770 3770 
Q 2525 4250 2034 4250 
z
M 2034 4750 
Q 2819 4750 3233 4129 
Q 3647 3509 3647 2328 
Q 3647 1150 3233 529 
Q 2819 -91 2034 -91 
Q 1250 -91 836 529 
Q 422 1150 422 2328 
Q 422 3509 836 4129 
Q 1250 4750 2034 4750 
z
" transform="scale(0.015625)"/>
        <path id="DejaVuSans-31" d="M 794 531 
L 1825 531 
L 1825 4091 
L 703 3866 
L 703 4441 
L 1819 4666 
L 2450 4666 
L 2450 531 
L 3481 531 
L 3481 0 
L 794 0 
L 794 531 
z
" transform="scale(0.015625)"/>
        <path id="DejaVuSans-36" d="M 2113 2584 
Q 1688 2584 1439 2293 
Q 1191 2003 1191 1497 
Q 1191 994 1439 701 
Q 1688 409 2113 409 
Q 2538 409 2786 701 
Q 3034 994 3034 1497 
Q 3034 2003 2786 2293 
Q 2538 2584 2113 2584 
z
M 3366 4563 
L 3366 3988 
Q 3128 4100 2886 4159 
Q 2644 4219 2406 4219 
Q 1781 4219 1451 3797 
Q 1122 3375 1075 2522 
Q 1259 2794 1537 2939 
Q 1816 3084 2150 3084 
Q 2853 3084 3261 2657 
Q 3669 2231 3669 1497 
Q 3669 778 3244 343 
Q 2819 -91 2113 -91 
Q 1303 -91 875 529 
Q 447 1150 447 2328 
Q 447 3434 972 4092 
Q 1497 4750 2381 4750 
Q 2619 4750 2861 4703 
Q 3103 4656 3366 4563 
z
" transform="scale(0.015625)"/>
       </defs>
       <use xlink:href="#DejaVuSans-32"/>
       <use xlink:href="#DejaVuSans-30" x="63.623047"/>
       <use xlink:href="#DejaVuSans-31" x="127.246094"/>
       <use xlink:href="#DejaVuSans-36" x="190.869141"/>
      </g>
     </g>
    </g>
    <g id="xtick_2">
     <g id="line2d_2">
      <g>
       <use xlink:href="#m79af27d48c" x="193.248621" y="384.48" style="stroke: #000000; stroke-width: 0.8"/>
      </g>
     </g>
     <g id="text_2">
      <!-- 2017 -->
      <g transform="translate(186.20186 414.848774) rotate(-45) scale(0.1 -0.1)">
       <defs>
        <path id="DejaVuSans-37" d="M 525 4666 
L 3525 4666 
L 3525 4397 
L 1831 0 
L 1172 0 
L 2766 4134 
L 525 4134 
L 525 4666 
z
" transform="scale(0.015625)"/>
       </defs>
       <use xlink:href="#DejaVuSans-32"/>
       <use xlink:href="#DejaVuSans-30" x="63.623047"/>
       <use xlink:href="#DejaVuSans-31" x="127.246094"/>
       <use xlink:href="#DejaVuSans-37" x="190.869141"/>
      </g>
     </g>
    </g>
    <g id="xtick_3">
     <g id="line2d_3">
      <g>
       <use xlink:href="#m79af27d48c" x="255.318532" y="384.48" style="stroke: #000000; stroke-width: 0.8"/>
      </g>
     </g>
     <g id="text_3">
      <!-- 2018 -->
      <g transform="translate(248.271771 414.848774) rotate(-45) scale(0.1 -0.1)">
       <defs>
        <path id="DejaVuSans-38" d="M 2034 2216 
Q 1584 2216 1326 1975 
Q 1069 1734 1069 1313 
Q 1069 891 1326 650 
Q 1584 409 2034 409 
Q 2484 409 2743 651 
Q 3003 894 3003 1313 
Q 3003 1734 2745 1975 
Q 2488 2216 2034 2216 
z
M 1403 2484 
Q 997 2584 770 2862 
Q 544 3141 544 3541 
Q 544 4100 942 4425 
Q 1341 4750 2034 4750 
Q 2731 4750 3128 4425 
Q 3525 4100 3525 3541 
Q 3525 3141 3298 2862 
Q 3072 2584 2669 2484 
Q 3125 2378 3379 2068 
Q 3634 1759 3634 1313 
Q 3634 634 3220 271 
Q 2806 -91 2034 -91 
Q 1263 -91 848 271 
Q 434 634 434 1313 
Q 434 1759 690 2068 
Q 947 2378 1403 2484 
z
M 1172 3481 
Q 1172 3119 1398 2916 
Q 1625 2713 2034 2713 
Q 2441 2713 2670 2916 
Q 2900 3119 2900 3481 
Q 2900 3844 2670 4047 
Q 2441 4250 2034 4250 
Q 1625 4250 1398 4047 
Q 1172 3844 1172 3481 
z
" transform="scale(0.015625)"/>
       </defs>
       <use xlink:href="#DejaVuSans-32"/>
       <use xlink:href="#DejaVuSans-30" x="63.623047"/>
       <use xlink:href="#DejaVuSans-31" x="127.246094"/>
       <use xlink:href="#DejaVuSans-38" x="190.869141"/>
      </g>
     </g>
    </g>
    <g id="xtick_4">
     <g id="line2d_4">
      <g>
       <use xlink:href="#m79af27d48c" x="317.388444" y="384.48" style="stroke: #000000; stroke-width: 0.8"/>
      </g>
     </g>
     <g id="text_4">
      <!-- 2019 -->
      <g transform="translate(310.341683 414.848774) rotate(-45) scale(0.1 -0.1)">
       <defs>
        <path id="DejaVuSans-39" d="M 703 97 
L 703 672 
Q 941 559 1184 500 
Q 1428 441 1663 441 
Q 2288 441 2617 861 
Q 2947 1281 2994 2138 
Q 2813 1869 2534 1725 
Q 2256 1581 1919 1581 
Q 1219 1581 811 2004 
Q 403 2428 403 3163 
Q 403 3881 828 4315 
Q 1253 4750 1959 4750 
Q 2769 4750 3195 4129 
Q 3622 3509 3622 2328 
Q 3622 1225 3098 567 
Q 2575 -91 1691 -91 
Q 1453 -91 1209 -44 
Q 966 3 703 97 
z
M 1959 2075 
Q 2384 2075 2632 2365 
Q 2881 2656 2881 3163 
Q 2881 3666 2632 3958 
Q 2384 4250 1959 4250 
Q 1534 4250 1286 3958 
Q 1038 3666 1038 3163 
Q 1038 2656 1286 2365 
Q 1534 2075 1959 2075 
z
" transform="scale(0.015625)"/>
       </defs>
       <use xlink:href="#DejaVuSans-32"/>
       <use xlink:href="#DejaVuSans-30" x="63.623047"/>
       <use xlink:href="#DejaVuSans-31" x="127.246094"/>
       <use xlink:href="#DejaVuSans-39" x="190.869141"/>
      </g>
     </g>
    </g>
    <g id="xtick_5">
     <g id="line2d_5">
      <g>
       <use xlink:href="#m79af27d48c" x="379.458355" y="384.48" style="stroke: #000000; stroke-width: 0.8"/>
      </g>
     </g>
     <g id="text_5">
      <!-- 2020 -->
      <g transform="translate(372.411594 414.848774) rotate(-45) scale(0.1 -0.1)">
       <use xlink:href="#DejaVuSans-32"/>
       <use xlink:href="#DejaVuSans-30" x="63.623047"/>
       <use xlink:href="#DejaVuSans-32" x="127.246094"/>
       <use xlink:href="#DejaVuSans-30" x="190.869141"/>
      </g>
     </g>
    </g>
    <g id="xtick_6">
     <g id="line2d_6">
      <g>
       <use xlink:href="#m79af27d48c" x="441.698321" y="384.48" style="stroke: #000000; stroke-width: 0.8"/>
      </g>
     </g>
     <g id="text_6">
      <!-- 2021 -->
      <g transform="translate(434.65156 414.848774) rotate(-45) scale(0.1 -0.1)">
       <use xlink:href="#DejaVuSans-32"/>
       <use xlink:href="#DejaVuSans-30" x="63.623047"/>
       <use xlink:href="#DejaVuSans-32" x="127.246094"/>
       <use xlink:href="#DejaVuSans-31" x="190.869141"/>
      </g>
     </g>
    </g>
    <g id="xtick_7">
     <g id="line2d_7">
      <g>
       <use xlink:href="#m79af27d48c" x="503.768232" y="384.48" style="stroke: #000000; stroke-width: 0.8"/>
      </g>
     </g>
     <g id="text_7">
      <!-- 2022 -->
      <g transform="translate(496.721471 414.848774) rotate(-45) scale(0.1 -0.1)">
       <use xlink:href="#DejaVuSans-32"/>
       <use xlink:href="#DejaVuSans-30" x="63.623047"/>
       <use xlink:href="#DejaVuSans-32" x="127.246094"/>
       <use xlink:href="#DejaVuSans-32" x="190.869141"/>
      </g>
     </g>
    </g>
    <g id="xtick_8">
     <g id="line2d_8">
      <g>
       <use xlink:href="#m79af27d48c" x="565.838143" y="384.48" style="stroke: #000000; stroke-width: 0.8"/>
      </g>
     </g>
     <g id="text_8">
      <!-- 2023 -->
      <g transform="translate(558.791382 414.848774) rotate(-45) scale(0.1 -0.1)">
       <defs>
        <path id="DejaVuSans-33" d="M 2597 2516 
Q 3050 2419 3304 2112 
Q 3559 1806 3559 1356 
Q 3559 666 3084 287 
Q 2609 -91 1734 -91 
Q 1441 -91 1130 -33 
Q 819 25 488 141 
L 488 750 
Q 750 597 1062 519 
Q 1375 441 1716 441 
Q 2309 441 2620 675 
Q 2931 909 2931 1356 
Q 2931 1769 2642 2001 
Q 2353 2234 1838 2234 
L 1294 2234 
L 1294 2753 
L 1863 2753 
Q 2328 2753 2575 2939 
Q 2822 3125 2822 3475 
Q 2822 3834 2567 4026 
Q 2313 4219 1838 4219 
Q 1578 4219 1281 4162 
Q 984 4106 628 3988 
L 628 4550 
Q 988 4650 1302 4700 
Q 1616 4750 1894 4750 
Q 2613 4750 3031 4423 
Q 3450 4097 3450 3541 
Q 3450 3153 3228 2886 
Q 3006 2619 2597 2516 
z
" transform="scale(0.015625)"/>
       </defs>
       <use xlink:href="#DejaVuSans-32"/>
       <use xlink:href="#DejaVuSans-30" x="63.623047"/>
       <use xlink:href="#DejaVuSans-32" x="127.246094"/>
       <use xlink:href="#DejaVuSans-33" x="190.869141"/>
      </g>
     </g>
    </g>
    <g id="xtick_9">
     <g id="line2d_9">
      <g>
       <use xlink:href="#m79af27d48c" x="627.908055" y="384.48" style="stroke: #000000; stroke-width: 0.8"/>
      </g>
     </g>
     <g id="text_9">
      <!-- 2024 -->
      <g transform="translate(620.861294 414.848774) rotate(-45) scale(0.1 -0.1)">
       <defs>
        <path id="DejaVuSans-34" d="M 2419 4116 
L 825 1625 
L 2419 1625 
L 2419 4116 
z
M 2253 4666 
L 3047 4666 
L 3047 1625 
L 3713 1625 
L 3713 1100 
L 3047 1100 
L 3047 0 
L 2419 0 
L 2419 1100 
L 313 1100 
L 313 1709 
L 2253 4666 
z
" transform="scale(0.015625)"/>
       </defs>
       <use xlink:href="#DejaVuSans-32"/>
       <use xlink:href="#DejaVuSans-30" x="63.623047"/>
       <use xlink:href="#DejaVuSans-32" x="127.246094"/>
       <use xlink:href="#DejaVuSans-34" x="190.869141"/>
      </g>
     </g>
    </g>
   </g>
   <g id="matplotlib.axis_2">
    <g id="ytick_1">
     <g id="line2d_10">
      <defs>
       <path id="m2e2ac93d35" d="M 0 0 
L -3.5 0 
" style="stroke: #000000; stroke-width: 0.8"/>
      </defs>
      <g>
       <use xlink:href="#m2e2ac93d35" x="90" y="372.100055" style="stroke: #000000; stroke-width: 0.8"/>
      </g>
     </g>
     <g id="text_10">
      <!-- 0.0 -->
      <g transform="translate(67.096875 375.899274) scale(0.1 -0.1)">
       <defs>
        <path id="DejaVuSans-2e" d="M 684 794 
L 1344 794 
L 1344 0 
L 684 0 
L 684 794 
z
" transform="scale(0.015625)"/>
       </defs>
       <use xlink:href="#DejaVuSans-30"/>
       <use xlink:href="#DejaVuSans-2e" x="63.623047"/>
       <use xlink:href="#DejaVuSans-30" x="95.410156"/>
      </g>
     </g>
    </g>
    <g id="ytick_2">
     <g id="line2d_11">
      <g>
       <use xlink:href="#m2e2ac93d35" x="90" y="325.952378" style="stroke: #000000; stroke-width: 0.8"/>
      </g>
     </g>
     <g id="text_11">
      <!-- 0.2 -->
      <g transform="translate(67.096875 329.751597) scale(0.1 -0.1)">
       <use xlink:href="#DejaVuSans-30"/>
       <use xlink:href="#DejaVuSans-2e" x="63.623047"/>
       <use xlink:href="#DejaVuSans-32" x="95.410156"/>
      </g>
     </g>
    </g>
    <g id="ytick_3">
     <g id="line2d_12">
      <g>
       <use xlink:href="#m2e2ac93d35" x="90" y="279.804701" style="stroke: #000000; stroke-width: 0.8"/>
      </g>
     </g>
     <g id="text_12">
      <!-- 0.4 -->
      <g transform="translate(67.096875 283.60392) scale(0.1 -0.1)">
       <use xlink:href="#DejaVuSans-30"/>
       <use xlink:href="#DejaVuSans-2e" x="63.623047"/>
       <use xlink:href="#DejaVuSans-34" x="95.410156"/>
      </g>
     </g>
    </g>
    <g id="ytick_4">
     <g id="line2d_13">
      <g>
       <use xlink:href="#m2e2ac93d35" x="90" y="233.657024" style="stroke: #000000; stroke-width: 0.8"/>
      </g>
     </g>
     <g id="text_13">
      <!-- 0.6 -->
      <g transform="translate(67.096875 237.456243) scale(0.1 -0.1)">
       <use xlink:href="#DejaVuSans-30"/>
       <use xlink:href="#DejaVuSans-2e" x="63.623047"/>
       <use xlink:href="#DejaVuSans-36" x="95.410156"/>
      </g>
     </g>
    </g>
    <g id="ytick_5">
     <g id="line2d_14">
      <g>
       <use xlink:href="#m2e2ac93d35" x="90" y="187.509348" style="stroke: #000000; stroke-width: 0.8"/>
      </g>
     </g>
     <g id="text_14">
      <!-- 0.8 -->
      <g transform="translate(67.096875 191.308566) scale(0.1 -0.1)">
       <use xlink:href="#DejaVuSans-30"/>
       <use xlink:href="#DejaVuSans-2e" x="63.623047"/>
       <use xlink:href="#DejaVuSans-38" x="95.410156"/>
      </g>
     </g>
    </g>
    <g id="ytick_6">
     <g id="line2d_15">
      <g>
       <use xlink:href="#m2e2ac93d35" x="90" y="141.361671" style="stroke: #000000; stroke-width: 0.8"/>
      </g>
     </g>
     <g id="text_15">
      <!-- 1.0 -->
      <g transform="translate(67.096875 145.160889) scale(0.1 -0.1)">
       <use xlink:href="#DejaVuSans-31"/>
       <use xlink:href="#DejaVuSans-2e" x="63.623047"/>
       <use xlink:href="#DejaVuSans-30" x="95.410156"/>
      </g>
     </g>
    </g>
    <g id="ytick_7">
     <g id="line2d_16">
      <g>
       <use xlink:href="#m2e2ac93d35" x="90" y="95.213994" style="stroke: #000000; stroke-width: 0.8"/>
      </g>
     </g>
     <g id="text_16">
      <!-- 1.2 -->
      <g transform="translate(67.096875 99.013213) scale(0.1 -0.1)">
       <use xlink:href="#DejaVuSans-31"/>
       <use xlink:href="#DejaVuSans-2e" x="63.623047"/>
       <use xlink:href="#DejaVuSans-32" x="95.410156"/>
      </g>
     </g>
    </g>
    <g id="text_17">
     <!-- 1e10 -->
     <g transform="translate(90 48.84) scale(0.1 -0.1)">
      <defs>
       <path id="DejaVuSans-65" d="M 3597 1894 
L 3597 1613 
L 953 1613 
Q 991 1019 1311 708 
Q 1631 397 2203 397 
Q 2534 397 2845 478 
Q 3156 559 3463 722 
L 3463 178 
Q 3153 47 2828 -22 
Q 2503 -91 2169 -91 
Q 1331 -91 842 396 
Q 353 884 353 1716 
Q 353 2575 817 3079 
Q 1281 3584 2069 3584 
Q 2775 3584 3186 3129 
Q 3597 2675 3597 1894 
z
M 3022 2063 
Q 3016 2534 2758 2815 
Q 2500 3097 2075 3097 
Q 1594 3097 1305 2825 
Q 1016 2553 972 2059 
L 3022 2063 
z
" transform="scale(0.015625)"/>
      </defs>
      <use xlink:href="#DejaVuSans-31"/>
      <use xlink:href="#DejaVuSans-65" x="63.623047"/>
      <use xlink:href="#DejaVuSans-31" x="125.146484"/>
      <use xlink:href="#DejaVuSans-30" x="188.769531"/>
     </g>
    </g>
   </g>
   <g id="line2d_17">
    <path d="M 115.363636 230.56187 
L 120.635327 285.23382 
L 125.736964 287.225719 
L 131.008655 288.851096 
L 136.280346 288.526329 
L 141.211928 267.553642 
L 146.483619 246.406538 
L 151.585256 216.551896 
L 156.856947 195.935843 
L 161.958583 144.398963 
L 167.230275 149.274375 
L 172.501966 187.802956 
L 177.603602 209.714717 
L 182.875293 277.872728 
L 187.97693 272.149546 
L 193.248621 277.77769 
L 198.520312 276.908833 
L 203.28184 258.289023 
L 208.553531 220.638148 
L 213.655167 194.255177 
L 218.926858 170.063207 
L 224.028495 108.474721 
L 229.300186 120.610494 
L 234.571877 160.783139 
L 239.673514 200.554495 
L 244.945205 268.120917 
L 250.046841 271.583768 
L 255.318532 272.000063 
L 260.590223 271.398696 
L 265.351751 244.482108 
L 270.623442 226.609821 
L 275.725078 192.066279 
L 280.99677 164.426434 
L 286.098406 109.242514 
L 291.370097 117.138254 
L 296.641788 161.000653 
L 301.743425 190.183067 
L 307.015116 265.647423 
L 312.116753 261.602831 
L 317.388444 268.950518 
L 322.660135 267.866279 
L 327.421662 237.059354 
L 332.693353 213.347991 
L 337.79499 190.369349 
L 343.066681 155.081723 
L 348.168317 109.555595 
L 353.440009 119.488822 
L 358.7117 161.316399 
L 363.813336 189.965353 
L 369.085027 259.337841 
L 374.186664 261.457885 
L 379.458355 267.200514 
L 384.730046 264.885582 
L 389.661628 324.356916 
L 394.933319 232.551108 
L 400.034956 232.551108 
L 405.306647 369.36 
L 410.408283 317.683208 
L 415.679974 317.62429 
L 420.951665 351.266835 
L 426.053302 353.059575 
L 431.324993 361.435304 
L 436.42663 356.598719 
L 441.698321 362.032575 
L 446.970012 364.840333 
L 451.731539 360.090402 
L 457.00323 357.591094 
L 462.104867 341.246162 
L 467.376558 317.757776 
L 472.478195 254.73883 
L 477.749886 239.113471 
L 483.021577 259.148181 
L 488.123213 245.76144 
L 493.394904 288.181449 
L 498.496541 292.58284 
L 503.768232 303.757705 
L 509.039923 287.992761 
L 513.801451 258.512163 
L 519.073142 217.977799 
L 524.174778 192.372814 
L 529.446469 170.810355 
L 534.548106 106.608643 
L 539.819797 126.696181 
L 545.091488 171.302199 
L 550.193125 188.386963 
L 555.464816 252.15 
L 560.566452 255.788937 
L 565.838143 257.0625 
L 571.109835 255.326099 
L 575.871362 224.662364 
L 581.143053 184.7233 
L 586.24469 159.03545 
L 591.516381 134.764575 
L 596.618017 66.96 
L 601.889708 78.687254 
L 607.161399 126.706609 
L 612.263036 146.678867 
L 617.534727 224.344933 
L 622.636364 213.878624 
" clip-path="url(#pb9bdb386e3)" style="fill: none; stroke: #ff0000; stroke-width: 1.5; stroke-linecap: square"/>
    <defs>
     <path id="m6445a0edef" d="M -3 3 
L 3 -3 
M -3 -3 
L 3 3 
" style="stroke: #ff0000"/>
    </defs>
    <g clip-path="url(#pb9bdb386e3)">
     <use xlink:href="#m6445a0edef" x="115.363636" y="230.56187" style="fill: #ff0000; stroke: #ff0000"/>
     <use xlink:href="#m6445a0edef" x="120.635327" y="285.23382" style="fill: #ff0000; stroke: #ff0000"/>
     <use xlink:href="#m6445a0edef" x="125.736964" y="287.225719" style="fill: #ff0000; stroke: #ff0000"/>
     <use xlink:href="#m6445a0edef" x="131.008655" y="288.851096" style="fill: #ff0000; stroke: #ff0000"/>
     <use xlink:href="#m6445a0edef" x="136.280346" y="288.526329" style="fill: #ff0000; stroke: #ff0000"/>
     <use xlink:href="#m6445a0edef" x="141.211928" y="267.553642" style="fill: #ff0000; stroke: #ff0000"/>
     <use xlink:href="#m6445a0edef" x="146.483619" y="246.406538" style="fill: #ff0000; stroke: #ff0000"/>
     <use xlink:href="#m6445a0edef" x="151.585256" y="216.551896" style="fill: #ff0000; stroke: #ff0000"/>
     <use xlink:href="#m6445a0edef" x="156.856947" y="195.935843" style="fill: #ff0000; stroke: #ff0000"/>
     <use xlink:href="#m6445a0edef" x="161.958583" y="144.398963" style="fill: #ff0000; stroke: #ff0000"/>
     <use xlink:href="#m6445a0edef" x="167.230275" y="149.274375" style="fill: #ff0000; stroke: #ff0000"/>
     <use xlink:href="#m6445a0edef" x="172.501966" y="187.802956" style="fill: #ff0000; stroke: #ff0000"/>
     <use xlink:href="#m6445a0edef" x="177.603602" y="209.714717" style="fill: #ff0000; stroke: #ff0000"/>
     <use xlink:href="#m6445a0edef" x="182.875293" y="277.872728" style="fill: #ff0000; stroke: #ff0000"/>
     <use xlink:href="#m6445a0edef" x="187.97693" y="272.149546" style="fill: #ff0000; stroke: #ff0000"/>
     <use xlink:href="#m6445a0edef" x="193.248621" y="277.77769" style="fill: #ff0000; stroke: #ff0000"/>
     <use xlink:href="#m6445a0edef" x="198.520312" y="276.908833" style="fill: #ff0000; stroke: #ff0000"/>
     <use xlink:href="#m6445a0edef" x="203.28184" y="258.289023" style="fill: #ff0000; stroke: #ff0000"/>
     <use xlink:href="#m6445a0edef" x="208.553531" y="220.638148" style="fill: #ff0000; stroke: #ff0000"/>
     <use xlink:href="#m6445a0edef" x="213.655167" y="194.255177" style="fill: #ff0000; stroke: #ff0000"/>
     <use xlink:href="#m6445a0edef" x="218.926858" y="170.063207" style="fill: #ff0000; stroke: #ff0000"/>
     <use xlink:href="#m6445a0edef" x="224.028495" y="108.474721" style="fill: #ff0000; stroke: #ff0000"/>
     <use xlink:href="#m6445a0edef" x="229.300186" y="120.610494" style="fill: #ff0000; stroke: #ff0000"/>
     <use xlink:href="#m6445a0edef" x="234.571877" y="160.783139" style="fill: #ff0000; stroke: #ff0000"/>
     <use xlink:href="#m6445a0edef" x="239.673514" y="200.554495" style="fill: #ff0000; stroke: #ff0000"/>
     <use xlink:href="#m6445a0edef" x="244.945205" y="268.120917" style="fill: #ff0000; stroke: #ff0000"/>
     <use xlink:href="#m6445a0edef" x="250.046841" y="271.583768" style="fill: #ff0000; stroke: #ff0000"/>
     <use xlink:href="#m6445a0edef" x="255.318532" y="272.000063" style="fill: #ff0000; stroke: #ff0000"/>
     <use xlink:href="#m6445a0edef" x="260.590223" y="271.398696" style="fill: #ff0000; stroke: #ff0000"/>
     <use xlink:href="#m6445a0edef" x="265.351751" y="244.482108" style="fill: #ff0000; stroke: #ff0000"/>
     <use xlink:href="#m6445a0edef" x="270.623442" y="226.609821" style="fill: #ff0000; stroke: #ff0000"/>
     <use xlink:href="#m6445a0edef" x="275.725078" y="192.066279" style="fill: #ff0000; stroke: #ff0000"/>
     <use xlink:href="#m6445a0edef" x="280.99677" y="164.426434" style="fill: #ff0000; stroke: #ff0000"/>
     <use xlink:href="#m6445a0edef" x="286.098406" y="109.242514" style="fill: #ff0000; stroke: #ff0000"/>
     <use xlink:href="#m6445a0edef" x="291.370097" y="117.138254" style="fill: #ff0000; stroke: #ff0000"/>
     <use xlink:href="#m6445a0edef" x="296.641788" y="161.000653" style="fill: #ff0000; stroke: #ff0000"/>
     <use xlink:href="#m6445a0edef" x="301.743425" y="190.183067" style="fill: #ff0000; stroke: #ff0000"/>
     <use xlink:href="#m6445a0edef" x="307.015116" y="265.647423" style="fill: #ff0000; stroke: #ff0000"/>
     <use xlink:href="#m6445a0edef" x="312.116753" y="261.602831" style="fill: #ff0000; stroke: #ff0000"/>
     <use xlink:href="#m6445a0edef" x="317.388444" y="268.950518" style="fill: #ff0000; stroke: #ff0000"/>
     <use xlink:href="#m6445a0edef" x="322.660135" y="267.866279" style="fill: #ff0000; stroke: #ff0000"/>
     <use xlink:href="#m6445a0edef" x="327.421662" y="237.059354" style="fill: #ff0000; stroke: #ff0000"/>
     <use xlink:href="#m6445a0edef" x="332.693353" y="213.347991" style="fill: #ff0000; stroke: #ff0000"/>
     <use xlink:href="#m6445a0edef" x="337.79499" y="190.369349" style="fill: #ff0000; stroke: #ff0000"/>
     <use xlink:href="#m6445a0edef" x="343.066681" y="155.081723" style="fill: #ff0000; stroke: #ff0000"/>
     <use xlink:href="#m6445a0edef" x="348.168317" y="109.555595" style="fill: #ff0000; stroke: #ff0000"/>
     <use xlink:href="#m6445a0edef" x="353.440009" y="119.488822" style="fill: #ff0000; stroke: #ff0000"/>
     <use xlink:href="#m6445a0edef" x="358.7117" y="161.316399" style="fill: #ff0000; stroke: #ff0000"/>
     <use xlink:href="#m6445a0edef" x="363.813336" y="189.965353" style="fill: #ff0000; stroke: #ff0000"/>
     <use xlink:href="#m6445a0edef" x="369.085027" y="259.337841" style="fill: #ff0000; stroke: #ff0000"/>
     <use xlink:href="#m6445a0edef" x="374.186664" y="261.457885" style="fill: #ff0000; stroke: #ff0000"/>
     <use xlink:href="#m6445a0edef" x="379.458355" y="267.200514" style="fill: #ff0000; stroke: #ff0000"/>
     <use xlink:href="#m6445a0edef" x="384.730046" y="264.885582" style="fill: #ff0000; stroke: #ff0000"/>
     <use xlink:href="#m6445a0edef" x="389.661628" y="324.356916" style="fill: #ff0000; stroke: #ff0000"/>
     <use xlink:href="#m6445a0edef" x="394.933319" y="232.551108" style="fill: #ff0000; stroke: #ff0000"/>
     <use xlink:href="#m6445a0edef" x="400.034956" y="232.551108" style="fill: #ff0000; stroke: #ff0000"/>
     <use xlink:href="#m6445a0edef" x="405.306647" y="369.36" style="fill: #ff0000; stroke: #ff0000"/>
     <use xlink:href="#m6445a0edef" x="410.408283" y="317.683208" style="fill: #ff0000; stroke: #ff0000"/>
     <use xlink:href="#m6445a0edef" x="415.679974" y="317.62429" style="fill: #ff0000; stroke: #ff0000"/>
     <use xlink:href="#m6445a0edef" x="420.951665" y="351.266835" style="fill: #ff0000; stroke: #ff0000"/>
     <use xlink:href="#m6445a0edef" x="426.053302" y="353.059575" style="fill: #ff0000; stroke: #ff0000"/>
     <use xlink:href="#m6445a0edef" x="431.324993" y="361.435304" style="fill: #ff0000; stroke: #ff0000"/>
     <use xlink:href="#m6445a0edef" x="436.42663" y="356.598719" style="fill: #ff0000; stroke: #ff0000"/>
     <use xlink:href="#m6445a0edef" x="441.698321" y="362.032575" style="fill: #ff0000; stroke: #ff0000"/>
     <use xlink:href="#m6445a0edef" x="446.970012" y="364.840333" style="fill: #ff0000; stroke: #ff0000"/>
     <use xlink:href="#m6445a0edef" x="451.731539" y="360.090402" style="fill: #ff0000; stroke: #ff0000"/>
     <use xlink:href="#m6445a0edef" x="457.00323" y="357.591094" style="fill: #ff0000; stroke: #ff0000"/>
     <use xlink:href="#m6445a0edef" x="462.104867" y="341.246162" style="fill: #ff0000; stroke: #ff0000"/>
     <use xlink:href="#m6445a0edef" x="467.376558" y="317.757776" style="fill: #ff0000; stroke: #ff0000"/>
     <use xlink:href="#m6445a0edef" x="472.478195" y="254.73883" style="fill: #ff0000; stroke: #ff0000"/>
     <use xlink:href="#m6445a0edef" x="477.749886" y="239.113471" style="fill: #ff0000; stroke: #ff0000"/>
     <use xlink:href="#m6445a0edef" x="483.021577" y="259.148181" style="fill: #ff0000; stroke: #ff0000"/>
     <use xlink:href="#m6445a0edef" x="488.123213" y="245.76144" style="fill: #ff0000; stroke: #ff0000"/>
     <use xlink:href="#m6445a0edef" x="493.394904" y="288.181449" style="fill: #ff0000; stroke: #ff0000"/>
     <use xlink:href="#m6445a0edef" x="498.496541" y="292.58284" style="fill: #ff0000; stroke: #ff0000"/>
     <use xlink:href="#m6445a0edef" x="503.768232" y="303.757705" style="fill: #ff0000; stroke: #ff0000"/>
     <use xlink:href="#m6445a0edef" x="509.039923" y="287.992761" style="fill: #ff0000; stroke: #ff0000"/>
     <use xlink:href="#m6445a0edef" x="513.801451" y="258.512163" style="fill: #ff0000; stroke: #ff0000"/>
     <use xlink:href="#m6445a0edef" x="519.073142" y="217.977799" style="fill: #ff0000; stroke: #ff0000"/>
     <use xlink:href="#m6445a0edef" x="524.174778" y="192.372814" style="fill: #ff0000; stroke: #ff0000"/>
     <use xlink:href="#m6445a0edef" x="529.446469" y="170.810355" style="fill: #ff0000; stroke: #ff0000"/>
     <use xlink:href="#m6445a0edef" x="534.548106" y="106.608643" style="fill: #ff0000; stroke: #ff0000"/>
     <use xlink:href="#m6445a0edef" x="539.819797" y="126.696181" style="fill: #ff0000; stroke: #ff0000"/>
     <use xlink:href="#m6445a0edef" x="545.091488" y="171.302199" style="fill: #ff0000; stroke: #ff0000"/>
     <use xlink:href="#m6445a0edef" x="550.193125" y="188.386963" style="fill: #ff0000; stroke: #ff0000"/>
     <use xlink:href="#m6445a0edef" x="555.464816" y="252.15" style="fill: #ff0000; stroke: #ff0000"/>
     <use xlink:href="#m6445a0edef" x="560.566452" y="255.788937" style="fill: #ff0000; stroke: #ff0000"/>
     <use xlink:href="#m6445a0edef" x="565.838143" y="257.0625" style="fill: #ff0000; stroke: #ff0000"/>
     <use xlink:href="#m6445a0edef" x="571.109835" y="255.326099" style="fill: #ff0000; stroke: #ff0000"/>
     <use xlink:href="#m6445a0edef" x="575.871362" y="224.662364" style="fill: #ff0000; stroke: #ff0000"/>
     <use xlink:href="#m6445a0edef" x="581.143053" y="184.7233" style="fill: #ff0000; stroke: #ff0000"/>
     <use xlink:href="#m6445a0edef" x="586.24469" y="159.03545" style="fill: #ff0000; stroke: #ff0000"/>
     <use xlink:href="#m6445a0edef" x="591.516381" y="134.764575" style="fill: #ff0000; stroke: #ff0000"/>
     <use xlink:href="#m6445a0edef" x="596.618017" y="66.96" style="fill: #ff0000; stroke: #ff0000"/>
     <use xlink:href="#m6445a0edef" x="601.889708" y="78.687254" style="fill: #ff0000; stroke: #ff0000"/>
     <use xlink:href="#m6445a0edef" x="607.161399" y="126.706609" style="fill: #ff0000; stroke: #ff0000"/>
     <use xlink:href="#m6445a0edef" x="612.263036" y="146.678867" style="fill: #ff0000; stroke: #ff0000"/>
     <use xlink:href="#m6445a0edef" x="617.534727" y="224.344933" style="fill: #ff0000; stroke: #ff0000"/>
     <use xlink:href="#m6445a0edef" x="622.636364" y="213.878624" style="fill: #ff0000; stroke: #ff0000"/>
    </g>
   </g>
   <g id="patch_3">
    <path d="M 90 384.48 
L 90 51.84 
" style="fill: none; stroke: #000000; stroke-width: 0.8; stroke-linejoin: miter; stroke-linecap: square"/>
   </g>
   <g id="patch_4">
    <path d="M 648 384.48 
L 648 51.84 
" style="fill: none; stroke: #000000; stroke-width: 0.8; stroke-linejoin: miter; stroke-linecap: square"/>
   </g>
   <g id="patch_5">
    <path d="M 90 384.48 
L 648 384.48 
" style="fill: none; stroke: #000000; stroke-width: 0.8; stroke-linejoin: miter; stroke-linecap: square"/>
   </g>
   <g id="patch_6">
    <path d="M 90 51.84 
L 648 51.84 
" style="fill: none; stroke: #000000; stroke-width: 0.8; stroke-linejoin: miter; stroke-linecap: square"/>
   </g>
   <g id="text_18">
    <!-- Gráfico de Línea - GASTO TOTAL -->
    <g transform="translate(272.091563 45.84) scale(0.12 -0.12)">
     <defs>
      <path id="DejaVuSans-47" d="M 3809 666 
L 3809 1919 
L 2778 1919 
L 2778 2438 
L 4434 2438 
L 4434 434 
Q 4069 175 3628 42 
Q 3188 -91 2688 -91 
Q 1594 -91 976 548 
Q 359 1188 359 2328 
Q 359 3472 976 4111 
Q 1594 4750 2688 4750 
Q 3144 4750 3555 4637 
Q 3966 4525 4313 4306 
L 4313 3634 
Q 3963 3931 3569 4081 
Q 3175 4231 2741 4231 
Q 1884 4231 1454 3753 
Q 1025 3275 1025 2328 
Q 1025 1384 1454 906 
Q 1884 428 2741 428 
Q 3075 428 3337 486 
Q 3600 544 3809 666 
z
" transform="scale(0.015625)"/>
      <path id="DejaVuSans-72" d="M 2631 2963 
Q 2534 3019 2420 3045 
Q 2306 3072 2169 3072 
Q 1681 3072 1420 2755 
Q 1159 2438 1159 1844 
L 1159 0 
L 581 0 
L 581 3500 
L 1159 3500 
L 1159 2956 
Q 1341 3275 1631 3429 
Q 1922 3584 2338 3584 
Q 2397 3584 2469 3576 
Q 2541 3569 2628 3553 
L 2631 2963 
z
" transform="scale(0.015625)"/>
      <path id="DejaVuSans-e1" d="M 2194 1759 
Q 1497 1759 1228 1600 
Q 959 1441 959 1056 
Q 959 750 1161 570 
Q 1363 391 1709 391 
Q 2188 391 2477 730 
Q 2766 1069 2766 1631 
L 2766 1759 
L 2194 1759 
z
M 3341 1997 
L 3341 0 
L 2766 0 
L 2766 531 
Q 2569 213 2275 61 
Q 1981 -91 1556 -91 
Q 1019 -91 701 211 
Q 384 513 384 1019 
Q 384 1609 779 1909 
Q 1175 2209 1959 2209 
L 2766 2209 
L 2766 2266 
Q 2766 2663 2505 2880 
Q 2244 3097 1772 3097 
Q 1472 3097 1187 3025 
Q 903 2953 641 2809 
L 641 3341 
Q 956 3463 1253 3523 
Q 1550 3584 1831 3584 
Q 2591 3584 2966 3190 
Q 3341 2797 3341 1997 
z
M 2290 5119 
L 2912 5119 
L 1894 3944 
L 1415 3944 
L 2290 5119 
z
" transform="scale(0.015625)"/>
      <path id="DejaVuSans-66" d="M 2375 4863 
L 2375 4384 
L 1825 4384 
Q 1516 4384 1395 4259 
Q 1275 4134 1275 3809 
L 1275 3500 
L 2222 3500 
L 2222 3053 
L 1275 3053 
L 1275 0 
L 697 0 
L 697 3053 
L 147 3053 
L 147 3500 
L 697 3500 
L 697 3744 
Q 697 4328 969 4595 
Q 1241 4863 1831 4863 
L 2375 4863 
z
" transform="scale(0.015625)"/>
      <path id="DejaVuSans-69" d="M 603 3500 
L 1178 3500 
L 1178 0 
L 603 0 
L 603 3500 
z
M 603 4863 
L 1178 4863 
L 1178 4134 
L 603 4134 
L 603 4863 
z
" transform="scale(0.015625)"/>
      <path id="DejaVuSans-63" d="M 3122 3366 
L 3122 2828 
Q 2878 2963 2633 3030 
Q 2388 3097 2138 3097 
Q 1578 3097 1268 2742 
Q 959 2388 959 1747 
Q 959 1106 1268 751 
Q 1578 397 2138 397 
Q 2388 397 2633 464 
Q 2878 531 3122 666 
L 3122 134 
Q 2881 22 2623 -34 
Q 2366 -91 2075 -91 
Q 1284 -91 818 406 
Q 353 903 353 1747 
Q 353 2603 823 3093 
Q 1294 3584 2113 3584 
Q 2378 3584 2631 3529 
Q 2884 3475 3122 3366 
z
" transform="scale(0.015625)"/>
      <path id="DejaVuSans-6f" d="M 1959 3097 
Q 1497 3097 1228 2736 
Q 959 2375 959 1747 
Q 959 1119 1226 758 
Q 1494 397 1959 397 
Q 2419 397 2687 759 
Q 2956 1122 2956 1747 
Q 2956 2369 2687 2733 
Q 2419 3097 1959 3097 
z
M 1959 3584 
Q 2709 3584 3137 3096 
Q 3566 2609 3566 1747 
Q 3566 888 3137 398 
Q 2709 -91 1959 -91 
Q 1206 -91 779 398 
Q 353 888 353 1747 
Q 353 2609 779 3096 
Q 1206 3584 1959 3584 
z
" transform="scale(0.015625)"/>
      <path id="DejaVuSans-20" transform="scale(0.015625)"/>
      <path id="DejaVuSans-64" d="M 2906 2969 
L 2906 4863 
L 3481 4863 
L 3481 0 
L 2906 0 
L 2906 525 
Q 2725 213 2448 61 
Q 2172 -91 1784 -91 
Q 1150 -91 751 415 
Q 353 922 353 1747 
Q 353 2572 751 3078 
Q 1150 3584 1784 3584 
Q 2172 3584 2448 3432 
Q 2725 3281 2906 2969 
z
M 947 1747 
Q 947 1113 1208 752 
Q 1469 391 1925 391 
Q 2381 391 2643 752 
Q 2906 1113 2906 1747 
Q 2906 2381 2643 2742 
Q 2381 3103 1925 3103 
Q 1469 3103 1208 2742 
Q 947 2381 947 1747 
z
" transform="scale(0.015625)"/>
      <path id="DejaVuSans-4c" d="M 628 4666 
L 1259 4666 
L 1259 531 
L 3531 531 
L 3531 0 
L 628 0 
L 628 4666 
z
" transform="scale(0.015625)"/>
      <path id="DejaVuSans-ed" d="M 1322 5119 
L 1944 5119 
L 926 3944 
L 447 3944 
L 1322 5119 
z
M 603 3500 
L 1178 3500 
L 1178 0 
L 603 0 
L 603 3500 
z
M 891 3584 
L 891 3584 
z
" transform="scale(0.015625)"/>
      <path id="DejaVuSans-6e" d="M 3513 2113 
L 3513 0 
L 2938 0 
L 2938 2094 
Q 2938 2591 2744 2837 
Q 2550 3084 2163 3084 
Q 1697 3084 1428 2787 
Q 1159 2491 1159 1978 
L 1159 0 
L 581 0 
L 581 3500 
L 1159 3500 
L 1159 2956 
Q 1366 3272 1645 3428 
Q 1925 3584 2291 3584 
Q 2894 3584 3203 3211 
Q 3513 2838 3513 2113 
z
" transform="scale(0.015625)"/>
      <path id="DejaVuSans-61" d="M 2194 1759 
Q 1497 1759 1228 1600 
Q 959 1441 959 1056 
Q 959 750 1161 570 
Q 1363 391 1709 391 
Q 2188 391 2477 730 
Q 2766 1069 2766 1631 
L 2766 1759 
L 2194 1759 
z
M 3341 1997 
L 3341 0 
L 2766 0 
L 2766 531 
Q 2569 213 2275 61 
Q 1981 -91 1556 -91 
Q 1019 -91 701 211 
Q 384 513 384 1019 
Q 384 1609 779 1909 
Q 1175 2209 1959 2209 
L 2766 2209 
L 2766 2266 
Q 2766 2663 2505 2880 
Q 2244 3097 1772 3097 
Q 1472 3097 1187 3025 
Q 903 2953 641 2809 
L 641 3341 
Q 956 3463 1253 3523 
Q 1550 3584 1831 3584 
Q 2591 3584 2966 3190 
Q 3341 2797 3341 1997 
z
" transform="scale(0.015625)"/>
      <path id="DejaVuSans-2d" d="M 313 2009 
L 1997 2009 
L 1997 1497 
L 313 1497 
L 313 2009 
z
" transform="scale(0.015625)"/>
      <path id="DejaVuSans-41" d="M 2188 4044 
L 1331 1722 
L 3047 1722 
L 2188 4044 
z
M 1831 4666 
L 2547 4666 
L 4325 0 
L 3669 0 
L 3244 1197 
L 1141 1197 
L 716 0 
L 50 0 
L 1831 4666 
z
" transform="scale(0.015625)"/>
      <path id="DejaVuSans-53" d="M 3425 4513 
L 3425 3897 
Q 3066 4069 2747 4153 
Q 2428 4238 2131 4238 
Q 1616 4238 1336 4038 
Q 1056 3838 1056 3469 
Q 1056 3159 1242 3001 
Q 1428 2844 1947 2747 
L 2328 2669 
Q 3034 2534 3370 2195 
Q 3706 1856 3706 1288 
Q 3706 609 3251 259 
Q 2797 -91 1919 -91 
Q 1588 -91 1214 -16 
Q 841 59 441 206 
L 441 856 
Q 825 641 1194 531 
Q 1563 422 1919 422 
Q 2459 422 2753 634 
Q 3047 847 3047 1241 
Q 3047 1584 2836 1778 
Q 2625 1972 2144 2069 
L 1759 2144 
Q 1053 2284 737 2584 
Q 422 2884 422 3419 
Q 422 4038 858 4394 
Q 1294 4750 2059 4750 
Q 2388 4750 2728 4690 
Q 3069 4631 3425 4513 
z
" transform="scale(0.015625)"/>
      <path id="DejaVuSans-54" d="M -19 4666 
L 3928 4666 
L 3928 4134 
L 2272 4134 
L 2272 0 
L 1638 0 
L 1638 4134 
L -19 4134 
L -19 4666 
z
" transform="scale(0.015625)"/>
      <path id="DejaVuSans-4f" d="M 2522 4238 
Q 1834 4238 1429 3725 
Q 1025 3213 1025 2328 
Q 1025 1447 1429 934 
Q 1834 422 2522 422 
Q 3209 422 3611 934 
Q 4013 1447 4013 2328 
Q 4013 3213 3611 3725 
Q 3209 4238 2522 4238 
z
M 2522 4750 
Q 3503 4750 4090 4092 
Q 4678 3434 4678 2328 
Q 4678 1225 4090 567 
Q 3503 -91 2522 -91 
Q 1538 -91 948 565 
Q 359 1222 359 2328 
Q 359 3434 948 4092 
Q 1538 4750 2522 4750 
z
" transform="scale(0.015625)"/>
     </defs>
     <use xlink:href="#DejaVuSans-47"/>
     <use xlink:href="#DejaVuSans-72" x="77.490234"/>
     <use xlink:href="#DejaVuSans-e1" x="118.603516"/>
     <use xlink:href="#DejaVuSans-66" x="179.882812"/>
     <use xlink:href="#DejaVuSans-69" x="215.087891"/>
     <use xlink:href="#DejaVuSans-63" x="242.871094"/>
     <use xlink:href="#DejaVuSans-6f" x="297.851562"/>
     <use xlink:href="#DejaVuSans-20" x="359.033203"/>
     <use xlink:href="#DejaVuSans-64" x="390.820312"/>
     <use xlink:href="#DejaVuSans-65" x="454.296875"/>
     <use xlink:href="#DejaVuSans-20" x="515.820312"/>
     <use xlink:href="#DejaVuSans-4c" x="547.607422"/>
     <use xlink:href="#DejaVuSans-ed" x="603.320312"/>
     <use xlink:href="#DejaVuSans-6e" x="631.103516"/>
     <use xlink:href="#DejaVuSans-65" x="694.482422"/>
     <use xlink:href="#DejaVuSans-61" x="756.005859"/>
     <use xlink:href="#DejaVuSans-20" x="817.285156"/>
     <use xlink:href="#DejaVuSans-2d" x="849.072266"/>
     <use xlink:href="#DejaVuSans-20" x="885.15625"/>
     <use xlink:href="#DejaVuSans-47" x="916.943359"/>
     <use xlink:href="#DejaVuSans-41" x="994.433594"/>
     <use xlink:href="#DejaVuSans-53" x="1062.841797"/>
     <use xlink:href="#DejaVuSans-54" x="1126.318359"/>
     <use xlink:href="#DejaVuSans-4f" x="1187.402344"/>
     <use xlink:href="#DejaVuSans-20" x="1266.113281"/>
     <use xlink:href="#DejaVuSans-54" x="1297.900391"/>
     <use xlink:href="#DejaVuSans-4f" x="1358.984375"/>
     <use xlink:href="#DejaVuSans-54" x="1437.695312"/>
     <use xlink:href="#DejaVuSans-41" x="1491.029297"/>
     <use xlink:href="#DejaVuSans-4c" x="1559.4375"/>
    </g>
   </g>
   <g id="legend_1">
    <g id="patch_7">
     <path d="M 97 74.518125 
L 240.515625 74.518125 
Q 242.515625 74.518125 242.515625 72.518125 
L 242.515625 58.84 
Q 242.515625 56.84 240.515625 56.84 
L 97 56.84 
Q 95 56.84 95 58.84 
L 95 72.518125 
Q 95 74.518125 97 74.518125 
z
" style="fill: #ffffff; opacity: 0.8; stroke: #cccccc; stroke-linejoin: miter"/>
    </g>
    <g id="line2d_18">
     <path d="M 99 64.938438 
L 109 64.938438 
L 119 64.938438 
" style="fill: none; stroke: #ff0000; stroke-width: 1.5; stroke-linecap: square"/>
     <g>
      <use xlink:href="#m6445a0edef" x="109" y="64.938438" style="fill: #ff0000; stroke: #ff0000"/>
     </g>
    </g>
    <g id="text_19">
     <!-- Gasto Total (x1 Millón) -->
     <g transform="translate(127 68.438438) scale(0.1 -0.1)">
      <defs>
       <path id="DejaVuSans-73" d="M 2834 3397 
L 2834 2853 
Q 2591 2978 2328 3040 
Q 2066 3103 1784 3103 
Q 1356 3103 1142 2972 
Q 928 2841 928 2578 
Q 928 2378 1081 2264 
Q 1234 2150 1697 2047 
L 1894 2003 
Q 2506 1872 2764 1633 
Q 3022 1394 3022 966 
Q 3022 478 2636 193 
Q 2250 -91 1575 -91 
Q 1294 -91 989 -36 
Q 684 19 347 128 
L 347 722 
Q 666 556 975 473 
Q 1284 391 1588 391 
Q 1994 391 2212 530 
Q 2431 669 2431 922 
Q 2431 1156 2273 1281 
Q 2116 1406 1581 1522 
L 1381 1569 
Q 847 1681 609 1914 
Q 372 2147 372 2553 
Q 372 3047 722 3315 
Q 1072 3584 1716 3584 
Q 2034 3584 2315 3537 
Q 2597 3491 2834 3397 
z
" transform="scale(0.015625)"/>
       <path id="DejaVuSans-74" d="M 1172 4494 
L 1172 3500 
L 2356 3500 
L 2356 3053 
L 1172 3053 
L 1172 1153 
Q 1172 725 1289 603 
Q 1406 481 1766 481 
L 2356 481 
L 2356 0 
L 1766 0 
Q 1100 0 847 248 
Q 594 497 594 1153 
L 594 3053 
L 172 3053 
L 172 3500 
L 594 3500 
L 594 4494 
L 1172 4494 
z
" transform="scale(0.015625)"/>
       <path id="DejaVuSans-6c" d="M 603 4863 
L 1178 4863 
L 1178 0 
L 603 0 
L 603 4863 
z
" transform="scale(0.015625)"/>
       <path id="DejaVuSans-28" d="M 1984 4856 
Q 1566 4138 1362 3434 
Q 1159 2731 1159 2009 
Q 1159 1288 1364 580 
Q 1569 -128 1984 -844 
L 1484 -844 
Q 1016 -109 783 600 
Q 550 1309 550 2009 
Q 550 2706 781 3412 
Q 1013 4119 1484 4856 
L 1984 4856 
z
" transform="scale(0.015625)"/>
       <path id="DejaVuSans-78" d="M 3513 3500 
L 2247 1797 
L 3578 0 
L 2900 0 
L 1881 1375 
L 863 0 
L 184 0 
L 1544 1831 
L 300 3500 
L 978 3500 
L 1906 2253 
L 2834 3500 
L 3513 3500 
z
" transform="scale(0.015625)"/>
       <path id="DejaVuSans-4d" d="M 628 4666 
L 1569 4666 
L 2759 1491 
L 3956 4666 
L 4897 4666 
L 4897 0 
L 4281 0 
L 4281 4097 
L 3078 897 
L 2444 897 
L 1241 4097 
L 1241 0 
L 628 0 
L 628 4666 
z
" transform="scale(0.015625)"/>
       <path id="DejaVuSans-f3" d="M 1959 3097 
Q 1497 3097 1228 2736 
Q 959 2375 959 1747 
Q 959 1119 1226 758 
Q 1494 397 1959 397 
Q 2419 397 2687 759 
Q 2956 1122 2956 1747 
Q 2956 2369 2687 2733 
Q 2419 3097 1959 3097 
z
M 1959 3584 
Q 2709 3584 3137 3096 
Q 3566 2609 3566 1747 
Q 3566 888 3137 398 
Q 2709 -91 1959 -91 
Q 1206 -91 779 398 
Q 353 888 353 1747 
Q 353 2609 779 3096 
Q 1206 3584 1959 3584 
z
M 2394 5119 
L 3016 5119 
L 1998 3944 
L 1519 3944 
L 2394 5119 
z
" transform="scale(0.015625)"/>
       <path id="DejaVuSans-29" d="M 513 4856 
L 1013 4856 
Q 1481 4119 1714 3412 
Q 1947 2706 1947 2009 
Q 1947 1309 1714 600 
Q 1481 -109 1013 -844 
L 513 -844 
Q 928 -128 1133 580 
Q 1338 1288 1338 2009 
Q 1338 2731 1133 3434 
Q 928 4138 513 4856 
z
" transform="scale(0.015625)"/>
      </defs>
      <use xlink:href="#DejaVuSans-47"/>
      <use xlink:href="#DejaVuSans-61" x="77.490234"/>
      <use xlink:href="#DejaVuSans-73" x="138.769531"/>
      <use xlink:href="#DejaVuSans-74" x="190.869141"/>
      <use xlink:href="#DejaVuSans-6f" x="230.078125"/>
      <use xlink:href="#DejaVuSans-20" x="291.259766"/>
      <use xlink:href="#DejaVuSans-54" x="323.046875"/>
      <use xlink:href="#DejaVuSans-6f" x="367.130859"/>
      <use xlink:href="#DejaVuSans-74" x="428.3125"/>
      <use xlink:href="#DejaVuSans-61" x="467.521484"/>
      <use xlink:href="#DejaVuSans-6c" x="528.800781"/>
      <use xlink:href="#DejaVuSans-20" x="556.583984"/>
      <use xlink:href="#DejaVuSans-28" x="588.371094"/>
      <use xlink:href="#DejaVuSans-78" x="627.384766"/>
      <use xlink:href="#DejaVuSans-31" x="686.564453"/>
      <use xlink:href="#DejaVuSans-20" x="750.1875"/>
      <use xlink:href="#DejaVuSans-4d" x="781.974609"/>
      <use xlink:href="#DejaVuSans-69" x="868.253906"/>
      <use xlink:href="#DejaVuSans-6c" x="896.037109"/>
      <use xlink:href="#DejaVuSans-6c" x="923.820312"/>
      <use xlink:href="#DejaVuSans-f3" x="951.603516"/>
      <use xlink:href="#DejaVuSans-6e" x="1012.785156"/>
      <use xlink:href="#DejaVuSans-29" x="1076.164062"/>
     </g>
    </g>
   </g>
  </g>
 </g>
 <defs>
  <clipPath id="pb9bdb386e3">
   <rect x="90" y="51.84" width="558" height="332.64"/>
  </clipPath>
 </defs>
</svg>
