<?xml version="1.0" encoding="utf-8" standalone="no"?>
<!DOCTYPE svg PUBLIC "-//W3C//DTD SVG 1.1//EN"
  "http://www.w3.org/Graphics/SVG/1.1/DTD/svg11.dtd">
<svg xmlns:xlink="http://www.w3.org/1999/xlink" width="1080pt" height="360pt" viewBox="0 0 1080 360" xmlns="http://www.w3.org/2000/svg" version="1.1">
 <metadata>
  <rdf:RDF xmlns:dc="http://purl.org/dc/elements/1.1/" xmlns:cc="http://creativecommons.org/ns#" xmlns:rdf="http://www.w3.org/1999/02/22-rdf-syntax-ns#">
   <cc:Work>
    <dc:type rdf:resource="http://purl.org/dc/dcmitype/StillImage"/>
    <dc:date>2024-02-20T21:22:53.292319</dc:date>
    <dc:format>image/svg+xml</dc:format>
    <dc:creator>
     <cc:Agent>
      <dc:title>Matplotlib v3.6.0, https://matplotlib.org/</dc:title>
     </cc:Agent>
    </dc:creator>
   </cc:Work>
  </rdf:RDF>
 </metadata>
 <defs>
  <style type="text/css">*{stroke-linejoin: round; stroke-linecap: butt}</style>
 </defs>
 <g id="figure_1">
  <g id="patch_1">
   <path d="M 0 360 
L 1080 360 
L 1080 0 
L 0 0 
z
" style="fill: #ffffff"/>
  </g>
  <g id="axes_1">
   <g id="patch_2">
    <path d="M 135 320.4 
L 972 320.4 
L 972 43.2 
L 135 43.2 
z
" style="fill: #ffffff"/>
   </g>
   <g id="PolyCollection_1">
    <defs>
     <path id="mf50290d060" d="M 173.045455 -237.595225 
L 173.045455 -198.165232 
L 176.882179 -193.489019 
L 180.471373 -208.509785 
L 184.308097 -191.034926 
L 188.021056 -190.696731 
L 191.857781 -184.743998 
L 195.57074 -246.267528 
L 199.407464 -264.501507 
L 203.244189 -221.056317 
L 206.957148 -198.778945 
L 210.793872 -186.619833 
L 214.506831 -187.901373 
L 218.343556 -187.900039 
L 222.18028 -183.08184 
L 225.645709 -195.766872 
L 229.482433 -184.995285 
L 233.195392 -186.290505 
L 237.032117 -185.827575 
L 240.745076 -239.238445 
L 244.5818 -254.966875 
L 248.418525 -214.467557 
L 252.131484 -191.634571 
L 255.968208 -184.357057 
L 259.681168 -185.499689 
L 263.517892 -183.554385 
L 267.354616 -179.236782 
L 270.820045 -183.095633 
L 274.656769 -183.55054 
L 278.369729 -179.97116 
L 282.206453 -188.111575 
L 285.919412 -234.073909 
L 289.756137 -248.813992 
L 293.592861 -207.163832 
L 297.30582 -185.508882 
L 301.142545 -178.530093 
L 304.855504 -181.389638 
L 308.692228 -181.74546 
L 312.528953 -176.756441 
L 315.994381 -172.509997 
L 319.831105 -178.887445 
L 323.544065 -172.791176 
L 327.380789 -188.589423 
L 331.093748 -225.454284 
L 334.930473 -240.747012 
L 338.767197 -200.694223 
L 342.480156 -178.849369 
L 346.316881 -174.845015 
L 350.02984 -179.731637 
L 353.866564 -176.917018 
L 357.703289 -172.962242 
L 361.292482 -187.792114 
L 365.129207 -170.878942 
L 368.842166 -169.379089 
L 372.67889 -164.269039 
L 376.39185 -225.531195 
L 380.228574 -243.330574 
L 384.065298 -198.539785 
L 387.778258 -178.025456 
L 391.614982 -168.367548 
L 395.327941 -169.12846 
L 399.164666 -168.130696 
L 403.00139 -163.17256 
L 406.466818 -176.871081 
L 410.303543 -167.351416 
L 414.016502 -165.096749 
L 417.853226 -167.722736 
L 421.566186 -219.025963 
L 425.40291 -238.680253 
L 429.239634 -196.603311 
L 432.952594 -172.932354 
L 436.789318 -166.813627 
L 440.502277 -170.139822 
L 444.339002 -166.159677 
L 448.175726 -164.032719 
L 451.641155 -169.264011 
L 455.477879 -168.212399 
L 459.190838 -165.064929 
L 463.027563 -174.85445 
L 466.740522 -220.053184 
L 470.577246 -237.574284 
L 474.413971 -195.299432 
L 478.12693 -174.971348 
L 481.963654 -168.984763 
L 485.676613 -173.215251 
L 489.513338 -171.547054 
L 493.350062 -169.048007 
L 496.815491 -163.030204 
L 500.652215 -172.440887 
L 504.365174 -166.968188 
L 508.201899 -181.578435 
L 511.914858 -219.787153 
L 515.751582 -234.932626 
L 519.588307 -196.036268 
L 523.301266 -175.272924 
L 527.13799 -171.78757 
L 530.850949 -176.291089 
L 534.687674 -175.339031 
L 538.524398 -171.600969 
L 542.113592 -186.593387 
L 545.950316 -168.357633 
L 549.663276 -169.174964 
L 553.5 -165.898875 
L 557.212959 -226.682708 
L 561.049684 -244.51502 
L 564.886408 -200.8101 
L 568.599367 -178.496302 
L 572.436092 -171.525789 
L 576.149051 -173.030537 
L 579.985775 -170.760545 
L 583.8225 -166.679709 
L 587.287928 -180.5554 
L 591.124653 -171.105844 
L 594.837612 -171.340249 
L 598.674336 -170.465338 
L 602.387295 -225.473742 
L 606.22402 -243.111329 
L 610.060744 -201.97488 
L 613.773703 -182.227653 
L 617.610428 -172.348234 
L 621.323387 -175.398545 
L 625.160111 -173.641208 
L 628.996836 -170.829572 
L 632.462264 -175.722689 
L 636.298989 -174.086722 
L 640.011948 -170.595224 
L 643.848672 -181.06358 
L 647.561631 -226.409688 
L 651.398356 -241.569093 
L 655.23508 -200.882926 
L 658.948039 -179.905301 
L 662.784764 -175.745437 
L 666.497723 -178.307747 
L 670.334447 -177.420806 
L 674.171172 -173.505562 
L 677.6366 -169.852005 
L 681.473325 -178.562819 
L 685.186284 -173.268889 
L 689.023008 -189.232302 
L 692.735967 -225.761318 
L 696.572692 -241.914805 
L 700.409416 -202.488224 
L 704.122375 -180.170912 
L 707.9591 -178.272116 
L 711.672059 -182.595904 
L 715.508783 -181.822814 
L 719.345508 -175.877315 
L 722.934702 -91.506106 
L 726.771426 -75.671912 
L 730.484385 -76.907627 
L 734.32111 -172.035856 
L 738.034069 -231.876183 
L 741.870793 -250.361571 
L 745.707518 -208.291749 
L 749.420477 -185.192553 
L 753.257201 -175.938575 
L 756.97016 -178.762111 
L 760.806885 -180.035139 
L 764.643609 -174.552372 
L 768.109038 -189.13038 
L 771.945762 -179.038678 
L 775.658721 -178.488188 
L 779.495446 -180.385107 
L 783.208405 -234.115898 
L 787.045129 -250.893785 
L 790.881854 -208.995975 
L 794.594813 -187.961899 
L 798.431537 -181.740194 
L 802.144496 -184.389328 
L 805.981221 -184.300514 
L 809.817945 -179.080287 
L 813.283374 -185.103317 
L 817.120098 -183.543352 
L 820.833057 -180.267691 
L 824.669782 -191.210017 
L 828.382741 -233.747345 
L 832.219465 -252.219201 
L 836.05619 -212.969824 
L 839.769149 -190.563246 
L 843.605873 -185.394703 
L 847.318832 -189.606033 
L 851.155557 -189.506068 
L 854.992281 -183.878271 
L 858.45771 -181.445948 
L 862.294434 -187.314687 
L 866.007393 -183.969261 
L 869.844118 -200.329749 
L 873.557077 -237.137768 
L 877.393801 -254.484353 
L 881.230526 -216.69765 
L 884.943485 -193.840656 
L 888.780209 -190.0403 
L 892.369403 -202.181805 
L 896.206128 -199.698528 
L 900.042852 -194.51168 
L 903.632046 -178.499779 
L 907.46877 -195.106816 
L 911.181729 -188.4711 
L 915.018454 -209.378325 
L 918.731413 -238.558816 
L 922.568137 -253.062547 
L 926.404862 -218.291771 
L 930.117821 -196.840946 
L 933.954545 -195.656902 
L 933.954545 -233.771209 
L 933.954545 -233.771209 
L 930.117821 -234.419114 
L 926.404862 -257.705392 
L 922.568137 -292.663625 
L 918.731413 -277.510233 
L 915.018454 -246.941338 
L 911.181729 -227.970594 
L 907.46877 -234.093175 
L 903.632046 -217.202625 
L 900.042852 -232.483029 
L 896.206128 -239.428873 
L 892.369403 -241.724394 
L 888.780209 -228.811529 
L 884.943485 -233.993058 
L 881.230526 -255.062812 
L 877.393801 -291.74536 
L 873.557077 -276.603421 
L 869.844118 -238.26497 
L 866.007393 -223.975874 
L 862.294434 -228.336522 
L 858.45771 -220.779136 
L 854.992281 -224.237235 
L 851.155557 -227.601188 
L 847.318832 -228.663944 
L 843.605873 -224.932085 
L 839.769149 -230.997839 
L 836.05619 -253.300398 
L 832.219465 -291.733316 
L 828.382741 -274.43731 
L 824.669782 -229.570565 
L 820.833057 -220.441678 
L 817.120098 -223.079379 
L 813.283374 -223.42135 
L 809.817945 -219.086476 
L 805.981221 -221.813647 
L 802.144496 -223.321907 
L 798.431537 -220.213881 
L 794.594813 -225.891044 
L 790.881854 -249.039416 
L 787.045129 -289.509068 
L 783.208405 -273.897316 
L 779.495446 -219.619308 
L 775.658721 -217.115993 
L 771.945762 -218.663968 
L 768.109038 -227.666812 
L 764.643609 -212.816483 
L 760.806885 -216.156911 
L 756.97016 -217.032562 
L 753.257201 -214.293837 
L 749.420477 -222.662859 
L 745.707518 -248.253564 
L 741.870793 -289.768899 
L 738.034069 -270.786931 
L 734.32111 -209.464413 
L 730.484385 -113.845153 
L 726.771426 -113.799673 
L 722.934702 -132.989447 
L 719.345508 -214.589898 
L 715.508783 -220.930704 
L 711.672059 -221.600427 
L 707.9591 -216.024713 
L 704.122375 -220.41117 
L 700.409416 -242.73852 
L 696.572692 -277.812207 
L 692.735967 -264.139844 
L 689.023008 -227.220421 
L 685.186284 -212.617755 
L 681.473325 -217.122728 
L 677.6366 -208.088275 
L 674.171172 -211.63628 
L 670.334447 -217.699241 
L 666.497723 -217.427277 
L 662.784764 -214.282285 
L 658.948039 -218.734222 
L 655.23508 -240.649562 
L 651.398356 -281.816078 
L 647.561631 -265.524737 
L 643.848672 -218.641414 
L 640.011948 -211.086507 
L 636.298989 -213.447256 
L 632.462264 -214.465487 
L 628.996836 -209.250379 
L 625.160111 -212.626766 
L 621.323387 -215.684067 
L 617.610428 -212.260143 
L 613.773703 -220.711191 
L 610.060744 -242.212488 
L 606.22402 -282.724026 
L 602.387295 -263.433115 
L 598.674336 -211.638344 
L 594.837612 -208.745328 
L 591.124653 -211.051431 
L 587.287928 -220.134294 
L 583.8225 -205.837284 
L 579.985775 -209.41624 
L 576.149051 -211.633647 
L 572.436092 -208.498294 
L 568.599367 -216.768184 
L 564.886408 -240.030355 
L 561.049684 -283.872978 
L 557.212959 -264.13146 
L 553.5 -206.147823 
L 549.663276 -208.955364 
L 545.950316 -207.838805 
L 542.113592 -225.344112 
L 538.524398 -209.338756 
L 534.687674 -214.357084 
L 530.850949 -216.434221 
L 527.13799 -210.362773 
L 523.301266 -214.837007 
L 519.588307 -235.794013 
L 515.751582 -275.402215 
L 511.914858 -259.006196 
L 508.201899 -220.820578 
L 504.365174 -207.045469 
L 500.652215 -211.614576 
L 496.815491 -203.063468 
L 493.350062 -206.648348 
L 489.513338 -212.027415 
L 485.676613 -211.543612 
L 481.963654 -206.763666 
L 478.12693 -213.977813 
L 474.413971 -236.47663 
L 470.577246 -275.125947 
L 466.740522 -259.089443 
L 463.027563 -213.134651 
L 459.190838 -204.633849 
L 455.477879 -208.353755 
L 451.641155 -208.36106 
L 448.175726 -203.505506 
L 444.339002 -207.442657 
L 440.502277 -209.5261 
L 436.789318 -206.90965 
L 432.952594 -212.44 
L 429.239634 -235.509409 
L 425.40291 -278.682068 
L 421.566186 -259.803301 
L 417.853226 -207.725173 
L 414.016502 -205.784151 
L 410.303543 -205.920462 
L 406.466818 -216.160928 
L 403.00139 -203.145759 
L 399.164666 -207.798743 
L 395.327941 -208.458347 
L 391.614982 -207.667877 
L 387.778258 -216.831411 
L 384.065298 -239.836879 
L 380.228574 -282.898573 
L 376.39185 -263.837503 
L 372.67889 -204.414394 
L 368.842166 -209.08404 
L 365.129207 -210.913494 
L 361.292482 -228.280182 
L 357.703289 -210.629495 
L 353.866564 -217.022939 
L 350.02984 -219.400409 
L 346.316881 -214.142535 
L 342.480156 -218.428919 
L 338.767197 -240.446831 
L 334.930473 -280.060989 
L 331.093748 -263.098166 
L 327.380789 -227.329935 
L 323.544065 -212.90548 
L 319.831105 -218.825915 
L 315.994381 -210.628237 
L 312.528953 -215.136483 
L 308.692228 -220.643345 
L 304.855504 -221.431927 
L 301.142545 -217.674496 
L 297.30582 -224.115047 
L 293.592861 -248.242463 
L 289.756137 -286.608945 
L 285.919412 -270.781873 
L 282.206453 -227.536194 
L 278.369729 -218.547357 
L 274.656769 -221.66072 
L 270.820045 -222.271196 
L 267.354616 -218.747544 
L 263.517892 -223.576427 
L 259.681168 -226.818901 
L 255.968208 -221.521632 
L 252.131484 -229.705879 
L 248.418525 -252.772887 
L 244.5818 -296.435269 
L 240.745076 -279.877652 
L 237.032117 -224.456067 
L 233.195392 -223.673035 
L 229.482433 -225.802704 
L 225.645709 -236.604132 
L 222.18028 -223.676663 
L 218.343556 -225.645063 
L 214.506831 -227.955952 
L 210.793872 -227.148687 
L 206.957148 -235.79332 
L 203.244189 -258.762788 
L 199.407464 -304.2 
L 195.57074 -284.52276 
L 191.857781 -223.331995 
L 188.021056 -228.608874 
L 184.308097 -228.855143 
L 180.471373 -248.238659 
L 176.882179 -232.344414 
L 173.045455 -237.595225 
z
" style="stroke: #0072b2; stroke-opacity: 0.2"/>
    </defs>
    <g clip-path="url(#p558d91dc02)">
     <use xlink:href="#mf50290d060" x="0" y="360" style="fill: #0072b2; fill-opacity: 0.2; stroke: #0072b2; stroke-opacity: 0.2"/>
    </g>
   </g>
   <g id="matplotlib.axis_1">
    <g id="xtick_1">
     <g id="line2d_1">
      <path d="M 173.045455 320.4 
L 173.045455 43.2 
" clip-path="url(#p558d91dc02)" style="fill: none; stroke: #808080; stroke-opacity: 0.2; stroke-linecap: square"/>
     </g>
     <g id="line2d_2">
      <defs>
       <path id="mf1daf89fba" d="M 0 0 
L 0 3.5 
" style="stroke: #000000; stroke-width: 0.8"/>
      </defs>
      <g>
       <use xlink:href="#mf1daf89fba" x="173.045455" y="320.4" style="stroke: #000000; stroke-width: 0.8"/>
      </g>
     </g>
     <g id="text_1">
      <!-- 2008 -->
      <g transform="translate(165.998694 350.768774) rotate(-45) scale(0.1 -0.1)">
       <defs>
        <path id="DejaVuSans-32" d="M 1228 531 
L 3431 531 
L 3431 0 
L 469 0 
L 469 531 
Q 828 903 1448 1529 
Q 2069 2156 2228 2338 
Q 2531 2678 2651 2914 
Q 2772 3150 2772 3378 
Q 2772 3750 2511 3984 
Q 2250 4219 1831 4219 
Q 1534 4219 1204 4116 
Q 875 4013 500 3803 
L 500 4441 
Q 881 4594 1212 4672 
Q 1544 4750 1819 4750 
Q 2544 4750 2975 4387 
Q 3406 4025 3406 3419 
Q 3406 3131 3298 2873 
Q 3191 2616 2906 2266 
Q 2828 2175 2409 1742 
Q 1991 1309 1228 531 
z
" transform="scale(0.015625)"/>
        <path id="DejaVuSans-30" d="M 2034 4250 
Q 1547 4250 1301 3770 
Q 1056 3291 1056 2328 
Q 1056 1369 1301 889 
Q 1547 409 2034 409 
Q 2525 409 2770 889 
Q 3016 1369 3016 2328 
Q 3016 3291 2770 3770 
Q 2525 4250 2034 4250 
z
M 2034 4750 
Q 2819 4750 3233 4129 
Q 3647 3509 3647 2328 
Q 3647 1150 3233 529 
Q 2819 -91 2034 -91 
Q 1250 -91 836 529 
Q 422 1150 422 2328 
Q 422 3509 836 4129 
Q 1250 4750 2034 4750 
z
" transform="scale(0.015625)"/>
        <path id="DejaVuSans-38" d="M 2034 2216 
Q 1584 2216 1326 1975 
Q 1069 1734 1069 1313 
Q 1069 891 1326 650 
Q 1584 409 2034 409 
Q 2484 409 2743 651 
Q 3003 894 3003 1313 
Q 3003 1734 2745 1975 
Q 2488 2216 2034 2216 
z
M 1403 2484 
Q 997 2584 770 2862 
Q 544 3141 544 3541 
Q 544 4100 942 4425 
Q 1341 4750 2034 4750 
Q 2731 4750 3128 4425 
Q 3525 4100 3525 3541 
Q 3525 3141 3298 2862 
Q 3072 2584 2669 2484 
Q 3125 2378 3379 2068 
Q 3634 1759 3634 1313 
Q 3634 634 3220 271 
Q 2806 -91 2034 -91 
Q 1263 -91 848 271 
Q 434 634 434 1313 
Q 434 1759 690 2068 
Q 947 2378 1403 2484 
z
M 1172 3481 
Q 1172 3119 1398 2916 
Q 1625 2713 2034 2713 
Q 2441 2713 2670 2916 
Q 2900 3119 2900 3481 
Q 2900 3844 2670 4047 
Q 2441 4250 2034 4250 
Q 1625 4250 1398 4047 
Q 1172 3844 1172 3481 
z
" transform="scale(0.015625)"/>
       </defs>
       <use xlink:href="#DejaVuSans-32"/>
       <use xlink:href="#DejaVuSans-30" x="63.623047"/>
       <use xlink:href="#DejaVuSans-30" x="127.246094"/>
       <use xlink:href="#DejaVuSans-38" x="190.869141"/>
      </g>
     </g>
    </g>
    <g id="xtick_2">
     <g id="line2d_3">
      <path d="M 263.517892 320.4 
L 263.517892 43.2 
" clip-path="url(#p558d91dc02)" style="fill: none; stroke: #808080; stroke-opacity: 0.2; stroke-linecap: square"/>
     </g>
     <g id="line2d_4">
      <g>
       <use xlink:href="#mf1daf89fba" x="263.517892" y="320.4" style="stroke: #000000; stroke-width: 0.8"/>
      </g>
     </g>
     <g id="text_2">
      <!-- 2010 -->
      <g transform="translate(256.471131 350.768774) rotate(-45) scale(0.1 -0.1)">
       <defs>
        <path id="DejaVuSans-31" d="M 794 531 
L 1825 531 
L 1825 4091 
L 703 3866 
L 703 4441 
L 1819 4666 
L 2450 4666 
L 2450 531 
L 3481 531 
L 3481 0 
L 794 0 
L 794 531 
z
" transform="scale(0.015625)"/>
       </defs>
       <use xlink:href="#DejaVuSans-32"/>
       <use xlink:href="#DejaVuSans-30" x="63.623047"/>
       <use xlink:href="#DejaVuSans-31" x="127.246094"/>
       <use xlink:href="#DejaVuSans-30" x="190.869141"/>
      </g>
     </g>
    </g>
    <g id="xtick_3">
     <g id="line2d_5">
      <path d="M 353.866564 320.4 
L 353.866564 43.2 
" clip-path="url(#p558d91dc02)" style="fill: none; stroke: #808080; stroke-opacity: 0.2; stroke-linecap: square"/>
     </g>
     <g id="line2d_6">
      <g>
       <use xlink:href="#mf1daf89fba" x="353.866564" y="320.4" style="stroke: #000000; stroke-width: 0.8"/>
      </g>
     </g>
     <g id="text_3">
      <!-- 2012 -->
      <g transform="translate(346.819803 350.768774) rotate(-45) scale(0.1 -0.1)">
       <use xlink:href="#DejaVuSans-32"/>
       <use xlink:href="#DejaVuSans-30" x="63.623047"/>
       <use xlink:href="#DejaVuSans-31" x="127.246094"/>
       <use xlink:href="#DejaVuSans-32" x="190.869141"/>
      </g>
     </g>
    </g>
    <g id="xtick_4">
     <g id="line2d_7">
      <path d="M 444.339002 320.4 
L 444.339002 43.2 
" clip-path="url(#p558d91dc02)" style="fill: none; stroke: #808080; stroke-opacity: 0.2; stroke-linecap: square"/>
     </g>
     <g id="line2d_8">
      <g>
       <use xlink:href="#mf1daf89fba" x="444.339002" y="320.4" style="stroke: #000000; stroke-width: 0.8"/>
      </g>
     </g>
     <g id="text_4">
      <!-- 2014 -->
      <g transform="translate(437.292241 350.768774) rotate(-45) scale(0.1 -0.1)">
       <defs>
        <path id="DejaVuSans-34" d="M 2419 4116 
L 825 1625 
L 2419 1625 
L 2419 4116 
z
M 2253 4666 
L 3047 4666 
L 3047 1625 
L 3713 1625 
L 3713 1100 
L 3047 1100 
L 3047 0 
L 2419 0 
L 2419 1100 
L 313 1100 
L 313 1709 
L 2253 4666 
z
" transform="scale(0.015625)"/>
       </defs>
       <use xlink:href="#DejaVuSans-32"/>
       <use xlink:href="#DejaVuSans-30" x="63.623047"/>
       <use xlink:href="#DejaVuSans-31" x="127.246094"/>
       <use xlink:href="#DejaVuSans-34" x="190.869141"/>
      </g>
     </g>
    </g>
    <g id="xtick_5">
     <g id="line2d_9">
      <path d="M 534.687674 320.4 
L 534.687674 43.2 
" clip-path="url(#p558d91dc02)" style="fill: none; stroke: #808080; stroke-opacity: 0.2; stroke-linecap: square"/>
     </g>
     <g id="line2d_10">
      <g>
       <use xlink:href="#mf1daf89fba" x="534.687674" y="320.4" style="stroke: #000000; stroke-width: 0.8"/>
      </g>
     </g>
     <g id="text_5">
      <!-- 2016 -->
      <g transform="translate(527.640913 350.768774) rotate(-45) scale(0.1 -0.1)">
       <defs>
        <path id="DejaVuSans-36" d="M 2113 2584 
Q 1688 2584 1439 2293 
Q 1191 2003 1191 1497 
Q 1191 994 1439 701 
Q 1688 409 2113 409 
Q 2538 409 2786 701 
Q 3034 994 3034 1497 
Q 3034 2003 2786 2293 
Q 2538 2584 2113 2584 
z
M 3366 4563 
L 3366 3988 
Q 3128 4100 2886 4159 
Q 2644 4219 2406 4219 
Q 1781 4219 1451 3797 
Q 1122 3375 1075 2522 
Q 1259 2794 1537 2939 
Q 1816 3084 2150 3084 
Q 2853 3084 3261 2657 
Q 3669 2231 3669 1497 
Q 3669 778 3244 343 
Q 2819 -91 2113 -91 
Q 1303 -91 875 529 
Q 447 1150 447 2328 
Q 447 3434 972 4092 
Q 1497 4750 2381 4750 
Q 2619 4750 2861 4703 
Q 3103 4656 3366 4563 
z
" transform="scale(0.015625)"/>
       </defs>
       <use xlink:href="#DejaVuSans-32"/>
       <use xlink:href="#DejaVuSans-30" x="63.623047"/>
       <use xlink:href="#DejaVuSans-31" x="127.246094"/>
       <use xlink:href="#DejaVuSans-36" x="190.869141"/>
      </g>
     </g>
    </g>
    <g id="xtick_6">
     <g id="line2d_11">
      <path d="M 625.160111 320.4 
L 625.160111 43.2 
" clip-path="url(#p558d91dc02)" style="fill: none; stroke: #808080; stroke-opacity: 0.2; stroke-linecap: square"/>
     </g>
     <g id="line2d_12">
      <g>
       <use xlink:href="#mf1daf89fba" x="625.160111" y="320.4" style="stroke: #000000; stroke-width: 0.8"/>
      </g>
     </g>
     <g id="text_6">
      <!-- 2018 -->
      <g transform="translate(618.11335 350.768774) rotate(-45) scale(0.1 -0.1)">
       <use xlink:href="#DejaVuSans-32"/>
       <use xlink:href="#DejaVuSans-30" x="63.623047"/>
       <use xlink:href="#DejaVuSans-31" x="127.246094"/>
       <use xlink:href="#DejaVuSans-38" x="190.869141"/>
      </g>
     </g>
    </g>
    <g id="xtick_7">
     <g id="line2d_13">
      <path d="M 715.508783 320.4 
L 715.508783 43.2 
" clip-path="url(#p558d91dc02)" style="fill: none; stroke: #808080; stroke-opacity: 0.2; stroke-linecap: square"/>
     </g>
     <g id="line2d_14">
      <g>
       <use xlink:href="#mf1daf89fba" x="715.508783" y="320.4" style="stroke: #000000; stroke-width: 0.8"/>
      </g>
     </g>
     <g id="text_7">
      <!-- 2020 -->
      <g transform="translate(708.462022 350.768774) rotate(-45) scale(0.1 -0.1)">
       <use xlink:href="#DejaVuSans-32"/>
       <use xlink:href="#DejaVuSans-30" x="63.623047"/>
       <use xlink:href="#DejaVuSans-32" x="127.246094"/>
       <use xlink:href="#DejaVuSans-30" x="190.869141"/>
      </g>
     </g>
    </g>
    <g id="xtick_8">
     <g id="line2d_15">
      <path d="M 805.981221 320.4 
L 805.981221 43.2 
" clip-path="url(#p558d91dc02)" style="fill: none; stroke: #808080; stroke-opacity: 0.2; stroke-linecap: square"/>
     </g>
     <g id="line2d_16">
      <g>
       <use xlink:href="#mf1daf89fba" x="805.981221" y="320.4" style="stroke: #000000; stroke-width: 0.8"/>
      </g>
     </g>
     <g id="text_8">
      <!-- 2022 -->
      <g transform="translate(798.93446 350.768774) rotate(-45) scale(0.1 -0.1)">
       <use xlink:href="#DejaVuSans-32"/>
       <use xlink:href="#DejaVuSans-30" x="63.623047"/>
       <use xlink:href="#DejaVuSans-32" x="127.246094"/>
       <use xlink:href="#DejaVuSans-32" x="190.869141"/>
      </g>
     </g>
    </g>
    <g id="xtick_9">
     <g id="line2d_17">
      <path d="M 896.329893 320.4 
L 896.329893 43.2 
" clip-path="url(#p558d91dc02)" style="fill: none; stroke: #808080; stroke-opacity: 0.2; stroke-linecap: square"/>
     </g>
     <g id="line2d_18">
      <g>
       <use xlink:href="#mf1daf89fba" x="896.329893" y="320.4" style="stroke: #000000; stroke-width: 0.8"/>
      </g>
     </g>
     <g id="text_9">
      <!-- 2024 -->
      <g transform="translate(889.283132 350.768774) rotate(-45) scale(0.1 -0.1)">
       <use xlink:href="#DejaVuSans-32"/>
       <use xlink:href="#DejaVuSans-30" x="63.623047"/>
       <use xlink:href="#DejaVuSans-32" x="127.246094"/>
       <use xlink:href="#DejaVuSans-34" x="190.869141"/>
      </g>
     </g>
    </g>
   </g>
   <g id="matplotlib.axis_2">
    <g id="ytick_1">
     <g id="line2d_19">
      <path d="M 135 307.8 
L 972 307.8 
" clip-path="url(#p558d91dc02)" style="fill: none; stroke: #808080; stroke-opacity: 0.2; stroke-linecap: square"/>
     </g>
     <g id="line2d_20">
      <defs>
       <path id="m898cda7ba9" d="M 0 0 
L -3.5 0 
" style="stroke: #000000; stroke-width: 0.8"/>
      </defs>
      <g>
       <use xlink:href="#m898cda7ba9" x="135" y="307.8" style="stroke: #000000; stroke-width: 0.8"/>
      </g>
     </g>
     <g id="text_10">
      <!-- 0 -->
      <g transform="translate(121.6375 311.599219) scale(0.1 -0.1)">
       <use xlink:href="#DejaVuSans-30"/>
      </g>
     </g>
    </g>
    <g id="ytick_2">
     <g id="line2d_21">
      <path d="M 135 255.567612 
L 972 255.567612 
" clip-path="url(#p558d91dc02)" style="fill: none; stroke: #808080; stroke-opacity: 0.2; stroke-linecap: square"/>
     </g>
     <g id="line2d_22">
      <g>
       <use xlink:href="#m898cda7ba9" x="135" y="255.567612" style="stroke: #000000; stroke-width: 0.8"/>
      </g>
     </g>
     <g id="text_11">
      <!-- 20 -->
      <g transform="translate(115.275 259.366831) scale(0.1 -0.1)">
       <use xlink:href="#DejaVuSans-32"/>
       <use xlink:href="#DejaVuSans-30" x="63.623047"/>
      </g>
     </g>
    </g>
    <g id="ytick_3">
     <g id="line2d_23">
      <path d="M 135 203.335225 
L 972 203.335225 
" clip-path="url(#p558d91dc02)" style="fill: none; stroke: #808080; stroke-opacity: 0.2; stroke-linecap: square"/>
     </g>
     <g id="line2d_24">
      <g>
       <use xlink:href="#m898cda7ba9" x="135" y="203.335225" style="stroke: #000000; stroke-width: 0.8"/>
      </g>
     </g>
     <g id="text_12">
      <!-- 40 -->
      <g transform="translate(115.275 207.134444) scale(0.1 -0.1)">
       <use xlink:href="#DejaVuSans-34"/>
       <use xlink:href="#DejaVuSans-30" x="63.623047"/>
      </g>
     </g>
    </g>
    <g id="ytick_4">
     <g id="line2d_25">
      <path d="M 135 151.102837 
L 972 151.102837 
" clip-path="url(#p558d91dc02)" style="fill: none; stroke: #808080; stroke-opacity: 0.2; stroke-linecap: square"/>
     </g>
     <g id="line2d_26">
      <g>
       <use xlink:href="#m898cda7ba9" x="135" y="151.102837" style="stroke: #000000; stroke-width: 0.8"/>
      </g>
     </g>
     <g id="text_13">
      <!-- 60 -->
      <g transform="translate(115.275 154.902056) scale(0.1 -0.1)">
       <use xlink:href="#DejaVuSans-36"/>
       <use xlink:href="#DejaVuSans-30" x="63.623047"/>
      </g>
     </g>
    </g>
    <g id="ytick_5">
     <g id="line2d_27">
      <path d="M 135 98.87045 
L 972 98.87045 
" clip-path="url(#p558d91dc02)" style="fill: none; stroke: #808080; stroke-opacity: 0.2; stroke-linecap: square"/>
     </g>
     <g id="line2d_28">
      <g>
       <use xlink:href="#m898cda7ba9" x="135" y="98.87045" style="stroke: #000000; stroke-width: 0.8"/>
      </g>
     </g>
     <g id="text_14">
      <!-- 80 -->
      <g transform="translate(115.275 102.669668) scale(0.1 -0.1)">
       <use xlink:href="#DejaVuSans-38"/>
       <use xlink:href="#DejaVuSans-30" x="63.623047"/>
      </g>
     </g>
    </g>
    <g id="ytick_6">
     <g id="line2d_29">
      <path d="M 135 46.638062 
L 972 46.638062 
" clip-path="url(#p558d91dc02)" style="fill: none; stroke: #808080; stroke-opacity: 0.2; stroke-linecap: square"/>
     </g>
     <g id="line2d_30">
      <g>
       <use xlink:href="#m898cda7ba9" x="135" y="46.638062" style="stroke: #000000; stroke-width: 0.8"/>
      </g>
     </g>
     <g id="text_15">
      <!-- 100 -->
      <g transform="translate(108.9125 50.437281) scale(0.1 -0.1)">
       <use xlink:href="#DejaVuSans-31"/>
       <use xlink:href="#DejaVuSans-30" x="63.623047"/>
       <use xlink:href="#DejaVuSans-30" x="127.246094"/>
      </g>
     </g>
    </g>
   </g>
   <g id="line2d_31">
    <path d="M 173.045455 139.01104 
L 176.882179 143.999233 
L 180.471373 141.283148 
L 184.308097 142.171099 
L 188.021056 143.39856 
L 191.857781 130.888903 
L 195.57074 101.769347 
L 199.407464 84.480427 
L 203.244189 117.961387 
L 206.957148 132.299178 
L 210.793872 135.198075 
L 214.506831 131.280646 
L 218.343556 143.894768 
L 222.18028 145.566204 
L 225.645709 143.372444 
L 229.482433 148.386753 
L 233.195392 149.274704 
L 237.032117 146.192993 
L 240.745076 113.286589 
L 244.5818 95.16195 
L 248.418525 131.358995 
L 252.131484 157.449072 
L 255.968208 153.218249 
L 259.681168 139.977339 
L 263.517892 162.045523 
L 267.354616 156.326076 
L 270.820045 158.441488 
L 274.656769 153.636108 
L 278.369729 158.780998 
L 282.206453 156.978981 
L 285.919412 114.827444 
L 289.756137 100.045678 
L 293.592861 134.492938 
L 297.30582 157.762467 
L 301.142545 156.770051 
L 304.855504 149.09189 
L 308.692228 159.616716 
L 312.528953 163.325216 
L 315.994381 163.534146 
L 319.831105 165.231698 
L 323.544065 171.107842 
L 327.380789 166.093533 
L 331.093748 122.505605 
L 334.930473 112.685916 
L 338.767197 140.342965 
L 342.480156 157.422956 
L 346.316881 166.067416 
L 350.02984 154.027851 
L 353.866564 165.727906 
L 357.703289 174.68576 
L 361.292482 175.625943 
L 365.129207 169.279708 
L 368.842166 174.842457 
L 372.67889 168.914081 
L 376.39185 118.718757 
L 380.228574 109.395276 
L 384.065298 149.405285 
L 387.778258 165.15335 
L 391.614982 170.037078 
L 395.327941 175.286433 
L 399.164666 173.484415 
L 403.00139 178.472608 
L 406.466818 175.286433 
L 410.303543 178.707654 
L 414.016502 175.913221 
L 417.853226 169.123011 
L 421.566186 122.818999 
L 425.40291 100.489654 
L 429.239634 138.775994 
L 432.952594 164.213167 
L 436.789318 183.356337 
L 440.502277 177.506309 
L 444.339002 164.213167 
L 448.175726 175.547595 
L 451.641155 179.151629 
L 455.477879 175.208084 
L 459.190838 175.286433 
L 463.027563 161.262037 
L 466.740522 122.035514 
L 470.577246 104.01534 
L 474.413971 145.487856 
L 478.12693 173.301602 
L 481.963654 178.577073 
L 485.676613 181.919946 
L 489.513338 169.671451 
L 493.350062 171.081726 
L 496.815491 177.192915 
L 500.652215 172.439768 
L 504.365174 167.503807 
L 508.201899 157.501305 
L 511.914858 123.445788 
L 515.751582 95.997668 
L 519.588307 136.373304 
L 523.301266 162.724544 
L 527.13799 170.037078 
L 530.850949 169.514754 
L 534.687674 169.880381 
L 538.524398 174.68576 
L 542.113592 165.910719 
L 545.950316 169.671451 
L 549.663276 164.526561 
L 553.5 153.296598 
L 557.212959 111.380107 
L 561.049684 98.504823 
L 564.886408 136.686698 
L 568.599367 162.881241 
L 572.436092 171.73463 
L 576.149051 172.256954 
L 579.985775 159.773414 
L 583.8225 161.99329 
L 587.287928 168.809617 
L 591.124653 156.926749 
L 594.837612 160.530783 
L 598.674336 153.505527 
L 602.387295 103.675829 
L 606.22402 94.274 
L 610.060744 137.809695 
L 613.773703 159.094393 
L 617.610428 166.302462 
L 621.323387 163.586378 
L 625.160111 161.836593 
L 628.996836 170.742215 
L 632.462264 161.914942 
L 636.298989 166.58974 
L 640.011948 165.205582 
L 643.848672 148.386753 
L 647.561631 106.888121 
L 651.398356 97.695221 
L 655.23508 134.179544 
L 658.948039 162.724544 
L 662.784764 166.850902 
L 666.497723 163.325216 
L 670.334447 160.191273 
L 674.171172 164.082586 
L 677.6366 161.99329 
L 681.473325 153.583876 
L 685.186284 159.094393 
L 689.023008 143.085166 
L 692.735967 102.813995 
L 696.572692 91.192289 
L 700.409416 130.679974 
L 704.122375 157.94528 
L 707.9591 162.123871 
L 711.672059 160.374086 
L 715.508783 160.818061 
L 719.345508 166.955367 
L 722.934702 163.690843 
L 726.771426 307.8 
L 734.32111 307.8 
L 738.034069 122.792883 
L 741.870793 81.607646 
L 745.707518 146.166877 
L 749.420477 170.742215 
L 753.257201 187.273766 
L 756.97016 184.84496 
L 760.806885 181.789365 
L 764.643609 184.949424 
L 768.109038 178.237563 
L 771.945762 165.49286 
L 775.658721 165.15335 
L 779.495446 147.368222 
L 783.208405 118.823222 
L 787.045129 94.430697 
L 790.881854 133.65722 
L 794.594813 146.34969 
L 798.431537 153.061552 
L 802.144496 152.356415 
L 805.981221 157.292375 
L 809.817945 162.646195 
L 813.283374 159.25109 
L 817.120098 143.60749 
L 820.833057 157.501305 
L 828.382741 92.628679 
L 832.219465 75.888199 
L 836.05619 131.0456 
L 839.769149 150.005957 
L 843.605873 157.658002 
L 847.318832 146.114644 
L 851.155557 155.098615 
L 854.992281 156.064914 
L 858.45771 161.497082 
L 862.294434 141.074219 
L 866.007393 147.551035 
L 869.844118 131.280646 
L 873.557077 78.917678 
L 877.393801 65.807348 
L 881.230526 113.025427 
L 884.943485 135.276424 
L 888.780209 140.212385 
L 888.780209 140.212385 
" clip-path="url(#p558d91dc02)" style="fill: none; stroke: #2d8bba; stroke-width: 1.5; stroke-linecap: square"/>
   </g>
   <g id="line2d_32">
    <path d="M 173.045455 142.207347 
L 176.882179 147.321743 
L 180.471373 132.062533 
L 184.308097 150.122597 
L 188.021056 150.241525 
L 191.857781 155.433789 
L 195.57074 94.262442 
L 199.407464 76.251187 
L 203.244189 120.046996 
L 206.957148 143.178414 
L 210.793872 152.561571 
L 214.506831 151.49736 
L 218.343556 153.169865 
L 222.18028 157.265932 
L 225.645709 144.393468 
L 229.482433 153.868316 
L 233.195392 155.548183 
L 237.032117 154.237738 
L 240.745076 101.151007 
L 244.5818 84.025396 
L 248.418525 126.292863 
L 252.131484 149.223968 
L 255.968208 156.9362 
L 259.681168 154.657681 
L 263.517892 156.355648 
L 267.354616 160.707462 
L 270.820045 156.708297 
L 274.656769 157.484122 
L 278.369729 160.758077 
L 282.206453 153.058447 
L 285.919412 108.189655 
L 289.756137 91.846814 
L 293.592861 132.51018 
L 297.30582 155.205108 
L 301.142545 161.24064 
L 304.855504 157.80213 
L 308.692228 159.587396 
L 312.528953 164.27945 
L 315.994381 168.998804 
L 319.831105 160.969596 
L 323.544065 165.87353 
L 327.380789 151.903563 
L 331.093748 115.377454 
L 334.930473 99.697152 
L 338.767197 138.667757 
L 342.480156 161.078757 
L 346.316881 165.420454 
L 350.02984 160.864789 
L 353.866564 162.784938 
L 357.703289 167.864504 
L 361.292482 152.572711 
L 365.129207 170.597945 
L 368.842166 170.683168 
L 372.67889 175.840602 
L 376.39185 114.635549 
L 380.228574 96.477231 
L 384.065298 140.125977 
L 387.778258 163.115075 
L 391.614982 172.351169 
L 395.327941 171.144637 
L 399.164666 172.670079 
L 403.00139 176.504909 
L 406.466818 163.396489 
L 410.303543 172.610099 
L 414.016502 174.037156 
L 417.853226 172.465473 
L 421.566186 119.125932 
L 425.40291 101.60862 
L 429.239634 143.484387 
L 432.952594 166.036427 
L 436.789318 173.356958 
L 440.502277 170.699374 
L 444.339002 172.005641 
L 448.175726 175.85497 
L 451.641155 171.401949 
L 455.477879 171.67529 
L 459.190838 174.46297 
L 463.027563 166.260857 
L 466.740522 120.905789 
L 470.577246 104.060465 
L 474.413971 144.156157 
L 478.12693 166.301723 
L 481.963654 171.769583 
L 485.676613 167.781711 
L 489.513338 168.999303 
L 493.350062 173.123698 
L 496.815491 177.330327 
L 500.652215 168.733458 
L 504.365174 173.088044 
L 508.201899 158.550417 
L 511.914858 121.474959 
L 515.751582 105.241034 
L 519.588307 143.658016 
L 523.301266 165.533251 
L 527.13799 169.321325 
L 530.850949 164.229897 
L 534.687674 165.596422 
L 538.524398 170.143143 
L 542.113592 154.352883 
L 545.950316 171.845272 
L 549.663276 171.414838 
L 553.5 176.039427 
L 557.212959 114.318717 
L 561.049684 95.739788 
L 564.886408 138.967922 
L 568.599367 161.549978 
L 572.436092 170.36546 
L 576.149051 168.751886 
L 579.985775 169.856716 
L 583.8225 173.385109 
L 587.287928 159.999907 
L 591.124653 168.90708 
L 594.837612 170.037584 
L 598.674336 168.159464 
L 602.387295 114.523371 
L 606.22402 96.830086 
L 610.060744 138.529878 
L 613.773703 160.91162 
L 617.610428 168.056177 
L 621.323387 165.228296 
L 625.160111 166.358589 
L 628.996836 170.142727 
L 632.462264 165.630824 
L 636.298989 165.838975 
L 640.011948 168.563567 
L 643.848672 160.296263 
L 647.561631 114.878108 
L 651.398356 97.967592 
L 655.23508 138.063283 
L 658.948039 160.208849 
L 662.784764 165.676707 
L 666.497723 161.688833 
L 670.334447 162.906425 
L 674.171172 167.030818 
L 677.6366 171.237447 
L 681.473325 162.640578 
L 685.186284 166.995164 
L 689.023008 152.457537 
L 692.735967 115.382079 
L 696.572692 99.148153 
L 700.409416 137.565133 
L 704.122375 159.440365 
L 707.9591 163.228436 
L 711.672059 158.137005 
L 715.508783 159.503528 
L 719.345508 164.050246 
L 722.934702 248.233399 
L 726.771426 265.692631 
L 730.484385 265.23011 
L 734.32111 169.817111 
L 738.034069 108.064314 
L 741.870793 89.452228 
L 745.707518 132.515722 
L 749.420477 154.938447 
L 753.257201 163.589289 
L 756.97016 161.816384 
L 760.806885 162.756574 
L 764.643609 166.120326 
L 768.109038 152.586416 
L 771.945762 161.328948 
L 775.658721 162.300122 
L 779.495446 160.257362 
L 783.208405 106.461939 
L 787.045129 88.604012 
L 790.881854 130.139164 
L 794.594813 152.361576 
L 798.431537 159.341492 
L 802.144496 156.354281 
L 805.981221 157.319933 
L 809.817945 160.939431 
L 813.283374 156.27882 
L 817.120098 156.322329 
L 820.833057 158.887592 
L 824.669782 150.455647 
L 828.382741 104.878162 
L 832.219465 87.803005 
L 836.05619 127.734056 
L 839.769149 149.720291 
L 843.605873 155.023508 
L 847.318832 150.876305 
L 851.155557 151.929256 
L 854.992281 155.889008 
L 858.45771 159.94693 
L 862.294434 151.18542 
L 866.007393 155.380676 
L 869.844118 140.678408 
L 873.557077 103.44362 
L 877.393801 87.045053 
L 881.230526 125.297395 
L 884.943485 147.0133 
L 888.780209 150.636733 
L 892.369403 137.22429 
L 896.206128 139.629672 
L 900.042852 146.468318 
L 903.632046 163.582599 
L 907.46877 145.918083 
L 911.181729 151.781929 
L 915.018454 130.933304 
L 918.731413 102.157198 
L 922.568137 86.32591 
L 926.404862 122.826232 
L 930.117821 144.239444 
L 933.954545 146.182697 
L 933.954545 146.182697 
" clip-path="url(#p558d91dc02)" style="fill: none; stroke-dasharray: 5.55,2.4; stroke-dashoffset: 0; stroke: #ff0000; stroke-width: 1.5"/>
   </g>
   <g id="line2d_33">
    <defs>
     <path id="m7c6c3328a8" d="M 0 1.5 
C 0.397805 1.5 0.77937 1.341951 1.06066 1.06066 
C 1.341951 0.77937 1.5 0.397805 1.5 0 
C 1.5 -0.397805 1.341951 -0.77937 1.06066 -1.06066 
C 0.77937 -1.341951 0.397805 -1.5 0 -1.5 
C -0.397805 -1.5 -0.77937 -1.341951 -1.06066 -1.06066 
C -1.341951 -0.77937 -1.5 -0.397805 -1.5 0 
C -1.5 0.397805 -1.341951 0.77937 -1.06066 1.06066 
C -0.77937 1.341951 -0.397805 1.5 0 1.5 
z
" style="stroke: #000000"/>
    </defs>
    <g clip-path="url(#p558d91dc02)">
     <use xlink:href="#m7c6c3328a8" x="173.045455" y="139.01104" style="stroke: #000000"/>
     <use xlink:href="#m7c6c3328a8" x="176.882179" y="143.999233" style="stroke: #000000"/>
     <use xlink:href="#m7c6c3328a8" x="180.471373" y="141.283148" style="stroke: #000000"/>
     <use xlink:href="#m7c6c3328a8" x="184.308097" y="142.171099" style="stroke: #000000"/>
     <use xlink:href="#m7c6c3328a8" x="188.021056" y="143.39856" style="stroke: #000000"/>
     <use xlink:href="#m7c6c3328a8" x="191.857781" y="130.888903" style="stroke: #000000"/>
     <use xlink:href="#m7c6c3328a8" x="195.57074" y="101.769347" style="stroke: #000000"/>
     <use xlink:href="#m7c6c3328a8" x="199.407464" y="84.480427" style="stroke: #000000"/>
     <use xlink:href="#m7c6c3328a8" x="203.244189" y="117.961387" style="stroke: #000000"/>
     <use xlink:href="#m7c6c3328a8" x="206.957148" y="132.299178" style="stroke: #000000"/>
     <use xlink:href="#m7c6c3328a8" x="210.793872" y="135.198075" style="stroke: #000000"/>
     <use xlink:href="#m7c6c3328a8" x="214.506831" y="131.280646" style="stroke: #000000"/>
     <use xlink:href="#m7c6c3328a8" x="218.343556" y="143.894768" style="stroke: #000000"/>
     <use xlink:href="#m7c6c3328a8" x="222.18028" y="145.566204" style="stroke: #000000"/>
     <use xlink:href="#m7c6c3328a8" x="225.645709" y="143.372444" style="stroke: #000000"/>
     <use xlink:href="#m7c6c3328a8" x="229.482433" y="148.386753" style="stroke: #000000"/>
     <use xlink:href="#m7c6c3328a8" x="233.195392" y="149.274704" style="stroke: #000000"/>
     <use xlink:href="#m7c6c3328a8" x="237.032117" y="146.192993" style="stroke: #000000"/>
     <use xlink:href="#m7c6c3328a8" x="240.745076" y="113.286589" style="stroke: #000000"/>
     <use xlink:href="#m7c6c3328a8" x="244.5818" y="95.16195" style="stroke: #000000"/>
     <use xlink:href="#m7c6c3328a8" x="248.418525" y="131.358995" style="stroke: #000000"/>
     <use xlink:href="#m7c6c3328a8" x="252.131484" y="157.449072" style="stroke: #000000"/>
     <use xlink:href="#m7c6c3328a8" x="255.968208" y="153.218249" style="stroke: #000000"/>
     <use xlink:href="#m7c6c3328a8" x="259.681168" y="139.977339" style="stroke: #000000"/>
     <use xlink:href="#m7c6c3328a8" x="263.517892" y="162.045523" style="stroke: #000000"/>
     <use xlink:href="#m7c6c3328a8" x="267.354616" y="156.326076" style="stroke: #000000"/>
     <use xlink:href="#m7c6c3328a8" x="270.820045" y="158.441488" style="stroke: #000000"/>
     <use xlink:href="#m7c6c3328a8" x="274.656769" y="153.636108" style="stroke: #000000"/>
     <use xlink:href="#m7c6c3328a8" x="278.369729" y="158.780998" style="stroke: #000000"/>
     <use xlink:href="#m7c6c3328a8" x="282.206453" y="156.978981" style="stroke: #000000"/>
     <use xlink:href="#m7c6c3328a8" x="285.919412" y="114.827444" style="stroke: #000000"/>
     <use xlink:href="#m7c6c3328a8" x="289.756137" y="100.045678" style="stroke: #000000"/>
     <use xlink:href="#m7c6c3328a8" x="293.592861" y="134.492938" style="stroke: #000000"/>
     <use xlink:href="#m7c6c3328a8" x="297.30582" y="157.762467" style="stroke: #000000"/>
     <use xlink:href="#m7c6c3328a8" x="301.142545" y="156.770051" style="stroke: #000000"/>
     <use xlink:href="#m7c6c3328a8" x="304.855504" y="149.09189" style="stroke: #000000"/>
     <use xlink:href="#m7c6c3328a8" x="308.692228" y="159.616716" style="stroke: #000000"/>
     <use xlink:href="#m7c6c3328a8" x="312.528953" y="163.325216" style="stroke: #000000"/>
     <use xlink:href="#m7c6c3328a8" x="315.994381" y="163.534146" style="stroke: #000000"/>
     <use xlink:href="#m7c6c3328a8" x="319.831105" y="165.231698" style="stroke: #000000"/>
     <use xlink:href="#m7c6c3328a8" x="323.544065" y="171.107842" style="stroke: #000000"/>
     <use xlink:href="#m7c6c3328a8" x="327.380789" y="166.093533" style="stroke: #000000"/>
     <use xlink:href="#m7c6c3328a8" x="331.093748" y="122.505605" style="stroke: #000000"/>
     <use xlink:href="#m7c6c3328a8" x="334.930473" y="112.685916" style="stroke: #000000"/>
     <use xlink:href="#m7c6c3328a8" x="338.767197" y="140.342965" style="stroke: #000000"/>
     <use xlink:href="#m7c6c3328a8" x="342.480156" y="157.422956" style="stroke: #000000"/>
     <use xlink:href="#m7c6c3328a8" x="346.316881" y="166.067416" style="stroke: #000000"/>
     <use xlink:href="#m7c6c3328a8" x="350.02984" y="154.027851" style="stroke: #000000"/>
     <use xlink:href="#m7c6c3328a8" x="353.866564" y="165.727906" style="stroke: #000000"/>
     <use xlink:href="#m7c6c3328a8" x="357.703289" y="174.68576" style="stroke: #000000"/>
     <use xlink:href="#m7c6c3328a8" x="361.292482" y="175.625943" style="stroke: #000000"/>
     <use xlink:href="#m7c6c3328a8" x="365.129207" y="169.279708" style="stroke: #000000"/>
     <use xlink:href="#m7c6c3328a8" x="368.842166" y="174.842457" style="stroke: #000000"/>
     <use xlink:href="#m7c6c3328a8" x="372.67889" y="168.914081" style="stroke: #000000"/>
     <use xlink:href="#m7c6c3328a8" x="376.39185" y="118.718757" style="stroke: #000000"/>
     <use xlink:href="#m7c6c3328a8" x="380.228574" y="109.395276" style="stroke: #000000"/>
     <use xlink:href="#m7c6c3328a8" x="384.065298" y="149.405285" style="stroke: #000000"/>
     <use xlink:href="#m7c6c3328a8" x="387.778258" y="165.15335" style="stroke: #000000"/>
     <use xlink:href="#m7c6c3328a8" x="391.614982" y="170.037078" style="stroke: #000000"/>
     <use xlink:href="#m7c6c3328a8" x="395.327941" y="175.286433" style="stroke: #000000"/>
     <use xlink:href="#m7c6c3328a8" x="399.164666" y="173.484415" style="stroke: #000000"/>
     <use xlink:href="#m7c6c3328a8" x="403.00139" y="178.472608" style="stroke: #000000"/>
     <use xlink:href="#m7c6c3328a8" x="406.466818" y="175.286433" style="stroke: #000000"/>
     <use xlink:href="#m7c6c3328a8" x="410.303543" y="178.707654" style="stroke: #000000"/>
     <use xlink:href="#m7c6c3328a8" x="414.016502" y="175.913221" style="stroke: #000000"/>
     <use xlink:href="#m7c6c3328a8" x="417.853226" y="169.123011" style="stroke: #000000"/>
     <use xlink:href="#m7c6c3328a8" x="421.566186" y="122.818999" style="stroke: #000000"/>
     <use xlink:href="#m7c6c3328a8" x="425.40291" y="100.489654" style="stroke: #000000"/>
     <use xlink:href="#m7c6c3328a8" x="429.239634" y="138.775994" style="stroke: #000000"/>
     <use xlink:href="#m7c6c3328a8" x="432.952594" y="164.213167" style="stroke: #000000"/>
     <use xlink:href="#m7c6c3328a8" x="436.789318" y="183.356337" style="stroke: #000000"/>
     <use xlink:href="#m7c6c3328a8" x="440.502277" y="177.506309" style="stroke: #000000"/>
     <use xlink:href="#m7c6c3328a8" x="444.339002" y="164.213167" style="stroke: #000000"/>
     <use xlink:href="#m7c6c3328a8" x="448.175726" y="175.547595" style="stroke: #000000"/>
     <use xlink:href="#m7c6c3328a8" x="451.641155" y="179.151629" style="stroke: #000000"/>
     <use xlink:href="#m7c6c3328a8" x="455.477879" y="175.208084" style="stroke: #000000"/>
     <use xlink:href="#m7c6c3328a8" x="459.190838" y="175.286433" style="stroke: #000000"/>
     <use xlink:href="#m7c6c3328a8" x="463.027563" y="161.262037" style="stroke: #000000"/>
     <use xlink:href="#m7c6c3328a8" x="466.740522" y="122.035514" style="stroke: #000000"/>
     <use xlink:href="#m7c6c3328a8" x="470.577246" y="104.01534" style="stroke: #000000"/>
     <use xlink:href="#m7c6c3328a8" x="474.413971" y="145.487856" style="stroke: #000000"/>
     <use xlink:href="#m7c6c3328a8" x="478.12693" y="173.301602" style="stroke: #000000"/>
     <use xlink:href="#m7c6c3328a8" x="481.963654" y="178.577073" style="stroke: #000000"/>
     <use xlink:href="#m7c6c3328a8" x="485.676613" y="181.919946" style="stroke: #000000"/>
     <use xlink:href="#m7c6c3328a8" x="489.513338" y="169.671451" style="stroke: #000000"/>
     <use xlink:href="#m7c6c3328a8" x="493.350062" y="171.081726" style="stroke: #000000"/>
     <use xlink:href="#m7c6c3328a8" x="496.815491" y="177.192915" style="stroke: #000000"/>
     <use xlink:href="#m7c6c3328a8" x="500.652215" y="172.439768" style="stroke: #000000"/>
     <use xlink:href="#m7c6c3328a8" x="504.365174" y="167.503807" style="stroke: #000000"/>
     <use xlink:href="#m7c6c3328a8" x="508.201899" y="157.501305" style="stroke: #000000"/>
     <use xlink:href="#m7c6c3328a8" x="511.914858" y="123.445788" style="stroke: #000000"/>
     <use xlink:href="#m7c6c3328a8" x="515.751582" y="95.997668" style="stroke: #000000"/>
     <use xlink:href="#m7c6c3328a8" x="519.588307" y="136.373304" style="stroke: #000000"/>
     <use xlink:href="#m7c6c3328a8" x="523.301266" y="162.724544" style="stroke: #000000"/>
     <use xlink:href="#m7c6c3328a8" x="527.13799" y="170.037078" style="stroke: #000000"/>
     <use xlink:href="#m7c6c3328a8" x="530.850949" y="169.514754" style="stroke: #000000"/>
     <use xlink:href="#m7c6c3328a8" x="534.687674" y="169.880381" style="stroke: #000000"/>
     <use xlink:href="#m7c6c3328a8" x="538.524398" y="174.68576" style="stroke: #000000"/>
     <use xlink:href="#m7c6c3328a8" x="542.113592" y="165.910719" style="stroke: #000000"/>
     <use xlink:href="#m7c6c3328a8" x="545.950316" y="169.671451" style="stroke: #000000"/>
     <use xlink:href="#m7c6c3328a8" x="549.663276" y="164.526561" style="stroke: #000000"/>
     <use xlink:href="#m7c6c3328a8" x="553.5" y="153.296598" style="stroke: #000000"/>
     <use xlink:href="#m7c6c3328a8" x="557.212959" y="111.380107" style="stroke: #000000"/>
     <use xlink:href="#m7c6c3328a8" x="561.049684" y="98.504823" style="stroke: #000000"/>
     <use xlink:href="#m7c6c3328a8" x="564.886408" y="136.686698" style="stroke: #000000"/>
     <use xlink:href="#m7c6c3328a8" x="568.599367" y="162.881241" style="stroke: #000000"/>
     <use xlink:href="#m7c6c3328a8" x="572.436092" y="171.73463" style="stroke: #000000"/>
     <use xlink:href="#m7c6c3328a8" x="576.149051" y="172.256954" style="stroke: #000000"/>
     <use xlink:href="#m7c6c3328a8" x="579.985775" y="159.773414" style="stroke: #000000"/>
     <use xlink:href="#m7c6c3328a8" x="583.8225" y="161.99329" style="stroke: #000000"/>
     <use xlink:href="#m7c6c3328a8" x="587.287928" y="168.809617" style="stroke: #000000"/>
     <use xlink:href="#m7c6c3328a8" x="591.124653" y="156.926749" style="stroke: #000000"/>
     <use xlink:href="#m7c6c3328a8" x="594.837612" y="160.530783" style="stroke: #000000"/>
     <use xlink:href="#m7c6c3328a8" x="598.674336" y="153.505527" style="stroke: #000000"/>
     <use xlink:href="#m7c6c3328a8" x="602.387295" y="103.675829" style="stroke: #000000"/>
     <use xlink:href="#m7c6c3328a8" x="606.22402" y="94.274" style="stroke: #000000"/>
     <use xlink:href="#m7c6c3328a8" x="610.060744" y="137.809695" style="stroke: #000000"/>
     <use xlink:href="#m7c6c3328a8" x="613.773703" y="159.094393" style="stroke: #000000"/>
     <use xlink:href="#m7c6c3328a8" x="617.610428" y="166.302462" style="stroke: #000000"/>
     <use xlink:href="#m7c6c3328a8" x="621.323387" y="163.586378" style="stroke: #000000"/>
     <use xlink:href="#m7c6c3328a8" x="625.160111" y="161.836593" style="stroke: #000000"/>
     <use xlink:href="#m7c6c3328a8" x="628.996836" y="170.742215" style="stroke: #000000"/>
     <use xlink:href="#m7c6c3328a8" x="632.462264" y="161.914942" style="stroke: #000000"/>
     <use xlink:href="#m7c6c3328a8" x="636.298989" y="166.58974" style="stroke: #000000"/>
     <use xlink:href="#m7c6c3328a8" x="640.011948" y="165.205582" style="stroke: #000000"/>
     <use xlink:href="#m7c6c3328a8" x="643.848672" y="148.386753" style="stroke: #000000"/>
     <use xlink:href="#m7c6c3328a8" x="647.561631" y="106.888121" style="stroke: #000000"/>
     <use xlink:href="#m7c6c3328a8" x="651.398356" y="97.695221" style="stroke: #000000"/>
     <use xlink:href="#m7c6c3328a8" x="655.23508" y="134.179544" style="stroke: #000000"/>
     <use xlink:href="#m7c6c3328a8" x="658.948039" y="162.724544" style="stroke: #000000"/>
     <use xlink:href="#m7c6c3328a8" x="662.784764" y="166.850902" style="stroke: #000000"/>
     <use xlink:href="#m7c6c3328a8" x="666.497723" y="163.325216" style="stroke: #000000"/>
     <use xlink:href="#m7c6c3328a8" x="670.334447" y="160.191273" style="stroke: #000000"/>
     <use xlink:href="#m7c6c3328a8" x="674.171172" y="164.082586" style="stroke: #000000"/>
     <use xlink:href="#m7c6c3328a8" x="677.6366" y="161.99329" style="stroke: #000000"/>
     <use xlink:href="#m7c6c3328a8" x="681.473325" y="153.583876" style="stroke: #000000"/>
     <use xlink:href="#m7c6c3328a8" x="685.186284" y="159.094393" style="stroke: #000000"/>
     <use xlink:href="#m7c6c3328a8" x="689.023008" y="143.085166" style="stroke: #000000"/>
     <use xlink:href="#m7c6c3328a8" x="692.735967" y="102.813995" style="stroke: #000000"/>
     <use xlink:href="#m7c6c3328a8" x="696.572692" y="91.192289" style="stroke: #000000"/>
     <use xlink:href="#m7c6c3328a8" x="700.409416" y="130.679974" style="stroke: #000000"/>
     <use xlink:href="#m7c6c3328a8" x="704.122375" y="157.94528" style="stroke: #000000"/>
     <use xlink:href="#m7c6c3328a8" x="707.9591" y="162.123871" style="stroke: #000000"/>
     <use xlink:href="#m7c6c3328a8" x="711.672059" y="160.374086" style="stroke: #000000"/>
     <use xlink:href="#m7c6c3328a8" x="715.508783" y="160.818061" style="stroke: #000000"/>
     <use xlink:href="#m7c6c3328a8" x="719.345508" y="166.955367" style="stroke: #000000"/>
     <use xlink:href="#m7c6c3328a8" x="722.934702" y="163.690843" style="stroke: #000000"/>
     <use xlink:href="#m7c6c3328a8" x="726.771426" y="307.8" style="stroke: #000000"/>
     <use xlink:href="#m7c6c3328a8" x="730.484385" y="307.8" style="stroke: #000000"/>
     <use xlink:href="#m7c6c3328a8" x="734.32111" y="307.8" style="stroke: #000000"/>
     <use xlink:href="#m7c6c3328a8" x="738.034069" y="122.792883" style="stroke: #000000"/>
     <use xlink:href="#m7c6c3328a8" x="741.870793" y="81.607646" style="stroke: #000000"/>
     <use xlink:href="#m7c6c3328a8" x="745.707518" y="146.166877" style="stroke: #000000"/>
     <use xlink:href="#m7c6c3328a8" x="749.420477" y="170.742215" style="stroke: #000000"/>
     <use xlink:href="#m7c6c3328a8" x="753.257201" y="187.273766" style="stroke: #000000"/>
     <use xlink:href="#m7c6c3328a8" x="756.97016" y="184.84496" style="stroke: #000000"/>
     <use xlink:href="#m7c6c3328a8" x="760.806885" y="181.789365" style="stroke: #000000"/>
     <use xlink:href="#m7c6c3328a8" x="764.643609" y="184.949424" style="stroke: #000000"/>
     <use xlink:href="#m7c6c3328a8" x="768.109038" y="178.237563" style="stroke: #000000"/>
     <use xlink:href="#m7c6c3328a8" x="771.945762" y="165.49286" style="stroke: #000000"/>
     <use xlink:href="#m7c6c3328a8" x="775.658721" y="165.15335" style="stroke: #000000"/>
     <use xlink:href="#m7c6c3328a8" x="779.495446" y="147.368222" style="stroke: #000000"/>
     <use xlink:href="#m7c6c3328a8" x="783.208405" y="118.823222" style="stroke: #000000"/>
     <use xlink:href="#m7c6c3328a8" x="787.045129" y="94.430697" style="stroke: #000000"/>
     <use xlink:href="#m7c6c3328a8" x="790.881854" y="133.65722" style="stroke: #000000"/>
     <use xlink:href="#m7c6c3328a8" x="794.594813" y="146.34969" style="stroke: #000000"/>
     <use xlink:href="#m7c6c3328a8" x="798.431537" y="153.061552" style="stroke: #000000"/>
     <use xlink:href="#m7c6c3328a8" x="802.144496" y="152.356415" style="stroke: #000000"/>
     <use xlink:href="#m7c6c3328a8" x="805.981221" y="157.292375" style="stroke: #000000"/>
     <use xlink:href="#m7c6c3328a8" x="809.817945" y="162.646195" style="stroke: #000000"/>
     <use xlink:href="#m7c6c3328a8" x="813.283374" y="159.25109" style="stroke: #000000"/>
     <use xlink:href="#m7c6c3328a8" x="817.120098" y="143.60749" style="stroke: #000000"/>
     <use xlink:href="#m7c6c3328a8" x="820.833057" y="157.501305" style="stroke: #000000"/>
     <use xlink:href="#m7c6c3328a8" x="824.669782" y="124.542668" style="stroke: #000000"/>
     <use xlink:href="#m7c6c3328a8" x="828.382741" y="92.628679" style="stroke: #000000"/>
     <use xlink:href="#m7c6c3328a8" x="832.219465" y="75.888199" style="stroke: #000000"/>
     <use xlink:href="#m7c6c3328a8" x="836.05619" y="131.0456" style="stroke: #000000"/>
     <use xlink:href="#m7c6c3328a8" x="839.769149" y="150.005957" style="stroke: #000000"/>
     <use xlink:href="#m7c6c3328a8" x="843.605873" y="157.658002" style="stroke: #000000"/>
     <use xlink:href="#m7c6c3328a8" x="847.318832" y="146.114644" style="stroke: #000000"/>
     <use xlink:href="#m7c6c3328a8" x="851.155557" y="155.098615" style="stroke: #000000"/>
     <use xlink:href="#m7c6c3328a8" x="854.992281" y="156.064914" style="stroke: #000000"/>
     <use xlink:href="#m7c6c3328a8" x="858.45771" y="161.497082" style="stroke: #000000"/>
     <use xlink:href="#m7c6c3328a8" x="862.294434" y="141.074219" style="stroke: #000000"/>
     <use xlink:href="#m7c6c3328a8" x="866.007393" y="147.551035" style="stroke: #000000"/>
     <use xlink:href="#m7c6c3328a8" x="869.844118" y="131.280646" style="stroke: #000000"/>
     <use xlink:href="#m7c6c3328a8" x="873.557077" y="78.917678" style="stroke: #000000"/>
     <use xlink:href="#m7c6c3328a8" x="877.393801" y="65.807348" style="stroke: #000000"/>
     <use xlink:href="#m7c6c3328a8" x="881.230526" y="113.025427" style="stroke: #000000"/>
     <use xlink:href="#m7c6c3328a8" x="884.943485" y="135.276424" style="stroke: #000000"/>
     <use xlink:href="#m7c6c3328a8" x="888.780209" y="140.212385" style="stroke: #000000"/>
    </g>
   </g>
   <g id="line2d_34">
    <path d="M 173.045455 142.207347 
L 176.882179 147.321743 
L 180.471373 132.062533 
L 184.308097 150.122597 
L 188.021056 150.241525 
L 191.857781 155.433789 
L 195.57074 94.262442 
L 199.407464 76.251187 
L 203.244189 120.046996 
L 206.957148 143.178414 
L 210.793872 152.561571 
L 214.506831 151.49736 
L 218.343556 153.169865 
L 222.18028 157.265932 
L 225.645709 144.393468 
L 229.482433 153.868316 
L 233.195392 155.548183 
L 237.032117 154.237738 
L 240.745076 101.151007 
L 244.5818 84.025396 
L 248.418525 126.292863 
L 252.131484 149.223968 
L 255.968208 156.9362 
L 259.681168 154.657681 
L 263.517892 156.355648 
L 267.354616 160.707462 
L 270.820045 156.708297 
L 274.656769 157.484122 
L 278.369729 160.758077 
L 282.206453 153.058447 
L 285.919412 108.189655 
L 289.756137 91.846814 
L 293.592861 132.51018 
L 297.30582 155.205108 
L 301.142545 161.24064 
L 304.855504 157.80213 
L 308.692228 159.587396 
L 312.528953 164.27945 
L 315.994381 168.998804 
L 319.831105 160.969596 
L 323.544065 165.87353 
L 327.380789 151.903563 
L 331.093748 115.377454 
L 334.930473 99.697152 
L 338.767197 138.667757 
L 342.480156 161.078757 
L 346.316881 165.420454 
L 350.02984 160.864789 
L 353.866564 162.784938 
L 357.703289 167.864504 
L 361.292482 152.572711 
L 365.129207 170.597945 
L 368.842166 170.683168 
L 372.67889 175.840602 
L 376.39185 114.635549 
L 380.228574 96.477231 
L 384.065298 140.125977 
L 387.778258 163.115075 
L 391.614982 172.351169 
L 395.327941 171.144637 
L 399.164666 172.670079 
L 403.00139 176.504909 
L 406.466818 163.396489 
L 410.303543 172.610099 
L 414.016502 174.037156 
L 417.853226 172.465473 
L 421.566186 119.125932 
L 425.40291 101.60862 
L 429.239634 143.484387 
L 432.952594 166.036427 
L 436.789318 173.356958 
L 440.502277 170.699374 
L 444.339002 172.005641 
L 448.175726 175.85497 
L 451.641155 171.401949 
L 455.477879 171.67529 
L 459.190838 174.46297 
L 463.027563 166.260857 
L 466.740522 120.905789 
L 470.577246 104.060465 
L 474.413971 144.156157 
L 478.12693 166.301723 
L 481.963654 171.769583 
L 485.676613 167.781711 
L 489.513338 168.999303 
L 493.350062 173.123698 
L 496.815491 177.330327 
L 500.652215 168.733458 
L 504.365174 173.088044 
L 508.201899 158.550417 
L 511.914858 121.474959 
L 515.751582 105.241034 
L 519.588307 143.658016 
L 523.301266 165.533251 
L 527.13799 169.321325 
L 530.850949 164.229897 
L 534.687674 165.596422 
L 538.524398 170.143143 
L 542.113592 154.352883 
L 545.950316 171.845272 
L 549.663276 171.414838 
L 553.5 176.039427 
L 557.212959 114.318717 
L 561.049684 95.739788 
L 564.886408 138.967922 
L 568.599367 161.549978 
L 572.436092 170.36546 
L 576.149051 168.751886 
L 579.985775 169.856716 
L 583.8225 173.385109 
L 587.287928 159.999907 
L 591.124653 168.90708 
L 594.837612 170.037584 
L 598.674336 168.159464 
L 602.387295 114.523371 
L 606.22402 96.830086 
L 610.060744 138.529878 
L 613.773703 160.91162 
L 617.610428 168.056177 
L 621.323387 165.228296 
L 625.160111 166.358589 
L 628.996836 170.142727 
L 632.462264 165.630824 
L 636.298989 165.838975 
L 640.011948 168.563567 
L 643.848672 160.296263 
L 647.561631 114.878108 
L 651.398356 97.967592 
L 655.23508 138.063283 
L 658.948039 160.208849 
L 662.784764 165.676707 
L 666.497723 161.688833 
L 670.334447 162.906425 
L 674.171172 167.030818 
L 677.6366 171.237447 
L 681.473325 162.640578 
L 685.186284 166.995164 
L 689.023008 152.457537 
L 692.735967 115.382079 
L 696.572692 99.148153 
L 700.409416 137.565133 
L 704.122375 159.440365 
L 707.9591 163.228436 
L 711.672059 158.137005 
L 715.508783 159.503528 
L 719.345508 164.050246 
L 722.934702 248.233399 
L 726.771426 265.692631 
L 730.484385 265.23011 
L 734.32111 169.817111 
L 738.034069 108.064314 
L 741.870793 89.452228 
L 745.707518 132.515722 
L 749.420477 154.938447 
L 753.257201 163.589289 
L 756.97016 161.816384 
L 760.806885 162.756574 
L 764.643609 166.120326 
L 768.109038 152.586416 
L 771.945762 161.328948 
L 775.658721 162.300122 
L 779.495446 160.257362 
L 783.208405 106.461939 
L 787.045129 88.604012 
L 790.881854 130.139164 
L 794.594813 152.361576 
L 798.431537 159.341492 
L 802.144496 156.354281 
L 805.981221 157.319933 
L 809.817945 160.939431 
L 813.283374 156.27882 
L 817.120098 156.322329 
L 820.833057 158.887592 
L 824.669782 150.455647 
L 828.382741 104.878162 
L 832.219465 87.803005 
L 836.05619 127.734056 
L 839.769149 149.720291 
L 843.605873 155.023508 
L 847.318832 150.876305 
L 851.155557 151.929256 
L 854.992281 155.889008 
L 858.45771 159.94693 
L 862.294434 151.18542 
L 866.007393 155.380676 
L 869.844118 140.678408 
L 873.557077 103.44362 
L 877.393801 87.045053 
L 881.230526 125.297395 
L 884.943485 147.0133 
L 888.780209 150.636733 
L 892.369403 137.22429 
L 896.206128 139.629672 
L 900.042852 146.468318 
L 903.632046 163.582599 
L 907.46877 145.918083 
L 911.181729 151.781929 
L 915.018454 130.933304 
L 918.731413 102.157198 
L 922.568137 86.32591 
L 926.404862 122.826232 
L 930.117821 144.239444 
L 933.954545 146.182697 
L 933.954545 146.182697 
" clip-path="url(#p558d91dc02)" style="fill: none; stroke: #0072b2; stroke-width: 1.5; stroke-linecap: square"/>
   </g>
   <g id="line2d_35">
    <path d="M 173.045455 129.89039 
L 353.866564 150.467981 
L 376.39185 152.837293 
L 399.164666 154.56648 
L 421.566186 155.600845 
L 448.175726 155.813902 
L 474.413971 155.310418 
L 730.484385 146.585694 
L 741.870793 146.103621 
L 933.954545 131.388573 
L 933.954545 131.388573 
" clip-path="url(#p558d91dc02)" style="fill: none; stroke: #ff0000; stroke-width: 1.5; stroke-linecap: square"/>
   </g>
   <g id="line2d_36">
    <path d="M 331.093748 320.4 
L 331.093748 43.2 
" clip-path="url(#p558d91dc02)" style="fill: none; stroke-dasharray: 5.55,2.4; stroke-dashoffset: 0; stroke: #ff0000; stroke-width: 1.5"/>
   </g>
   <g id="line2d_37">
    <path d="M 353.866564 320.4 
L 353.866564 43.2 
" clip-path="url(#p558d91dc02)" style="fill: none; stroke-dasharray: 5.55,2.4; stroke-dashoffset: 0; stroke: #ff0000; stroke-width: 1.5"/>
   </g>
   <g id="line2d_38">
    <path d="M 376.39185 320.4 
L 376.39185 43.2 
" clip-path="url(#p558d91dc02)" style="fill: none; stroke-dasharray: 5.55,2.4; stroke-dashoffset: 0; stroke: #ff0000; stroke-width: 1.5"/>
   </g>
   <g id="line2d_39">
    <path d="M 399.164666 320.4 
L 399.164666 43.2 
" clip-path="url(#p558d91dc02)" style="fill: none; stroke-dasharray: 5.55,2.4; stroke-dashoffset: 0; stroke: #ff0000; stroke-width: 1.5"/>
   </g>
   <g id="line2d_40">
    <path d="M 421.566186 320.4 
L 421.566186 43.2 
" clip-path="url(#p558d91dc02)" style="fill: none; stroke-dasharray: 5.55,2.4; stroke-dashoffset: 0; stroke: #ff0000; stroke-width: 1.5"/>
   </g>
   <g id="line2d_41">
    <path d="M 444.339002 320.4 
L 444.339002 43.2 
" clip-path="url(#p558d91dc02)" style="fill: none; stroke-dasharray: 5.55,2.4; stroke-dashoffset: 0; stroke: #ff0000; stroke-width: 1.5"/>
   </g>
   <g id="line2d_42">
    <path d="M 470.577246 320.4 
L 470.577246 43.2 
" clip-path="url(#p558d91dc02)" style="fill: none; stroke-dasharray: 5.55,2.4; stroke-dashoffset: 0; stroke: #ff0000; stroke-width: 1.5"/>
   </g>
   <g id="line2d_43">
    <path d="M 719.345508 320.4 
L 719.345508 43.2 
" clip-path="url(#p558d91dc02)" style="fill: none; stroke-dasharray: 5.55,2.4; stroke-dashoffset: 0; stroke: #ff0000; stroke-width: 1.5"/>
   </g>
   <g id="line2d_44">
    <path d="M 741.870793 320.4 
L 741.870793 43.2 
" clip-path="url(#p558d91dc02)" style="fill: none; stroke-dasharray: 5.55,2.4; stroke-dashoffset: 0; stroke: #ff0000; stroke-width: 1.5"/>
   </g>
   <g id="patch_3">
    <path d="M 135 320.4 
L 135 43.2 
" style="fill: none; stroke: #000000; stroke-width: 0.8; stroke-linejoin: miter; stroke-linecap: square"/>
   </g>
   <g id="patch_4">
    <path d="M 972 320.4 
L 972 43.2 
" style="fill: none; stroke: #000000; stroke-width: 0.8; stroke-linejoin: miter; stroke-linecap: square"/>
   </g>
   <g id="patch_5">
    <path d="M 135 320.4 
L 972 320.4 
" style="fill: none; stroke: #000000; stroke-width: 0.8; stroke-linejoin: miter; stroke-linecap: square"/>
   </g>
   <g id="patch_6">
    <path d="M 135 43.2 
L 972 43.2 
" style="fill: none; stroke: #000000; stroke-width: 0.8; stroke-linejoin: miter; stroke-linecap: square"/>
   </g>
   <g id="text_16">
    <!-- Histrico + Proyeccin Indicador Adr (Prophet) -->
    <g transform="translate(413.909063 37.2) scale(0.12 -0.12)">
     <defs>
      <path id="DejaVuSans-48" d="M 628 4666 
L 1259 4666 
L 1259 2753 
L 3553 2753 
L 3553 4666 
L 4184 4666 
L 4184 0 
L 3553 0 
L 3553 2222 
L 1259 2222 
L 1259 0 
L 628 0 
L 628 4666 
z
" transform="scale(0.015625)"/>
      <path id="DejaVuSans-69" d="M 603 3500 
L 1178 3500 
L 1178 0 
L 603 0 
L 603 3500 
z
M 603 4863 
L 1178 4863 
L 1178 4134 
L 603 4134 
L 603 4863 
z
" transform="scale(0.015625)"/>
      <path id="DejaVuSans-73" d="M 2834 3397 
L 2834 2853 
Q 2591 2978 2328 3040 
Q 2066 3103 1784 3103 
Q 1356 3103 1142 2972 
Q 928 2841 928 2578 
Q 928 2378 1081 2264 
Q 1234 2150 1697 2047 
L 1894 2003 
Q 2506 1872 2764 1633 
Q 3022 1394 3022 966 
Q 3022 478 2636 193 
Q 2250 -91 1575 -91 
Q 1294 -91 989 -36 
Q 684 19 347 128 
L 347 722 
Q 666 556 975 473 
Q 1284 391 1588 391 
Q 1994 391 2212 530 
Q 2431 669 2431 922 
Q 2431 1156 2273 1281 
Q 2116 1406 1581 1522 
L 1381 1569 
Q 847 1681 609 1914 
Q 372 2147 372 2553 
Q 372 3047 722 3315 
Q 1072 3584 1716 3584 
Q 2034 3584 2315 3537 
Q 2597 3491 2834 3397 
z
" transform="scale(0.015625)"/>
      <path id="DejaVuSans-74" d="M 1172 4494 
L 1172 3500 
L 2356 3500 
L 2356 3053 
L 1172 3053 
L 1172 1153 
Q 1172 725 1289 603 
Q 1406 481 1766 481 
L 2356 481 
L 2356 0 
L 1766 0 
Q 1100 0 847 248 
Q 594 497 594 1153 
L 594 3053 
L 172 3053 
L 172 3500 
L 594 3500 
L 594 4494 
L 1172 4494 
z
" transform="scale(0.015625)"/>
      <path id="DejaVuSans-f3" d="M 1959 3097 
Q 1497 3097 1228 2736 
Q 959 2375 959 1747 
Q 959 1119 1226 758 
Q 1494 397 1959 397 
Q 2419 397 2687 759 
Q 2956 1122 2956 1747 
Q 2956 2369 2687 2733 
Q 2419 3097 1959 3097 
z
M 1959 3584 
Q 2709 3584 3137 3096 
Q 3566 2609 3566 1747 
Q 3566 888 3137 398 
Q 2709 -91 1959 -91 
Q 1206 -91 779 398 
Q 353 888 353 1747 
Q 353 2609 779 3096 
Q 1206 3584 1959 3584 
z
M 2394 5119 
L 3016 5119 
L 1998 3944 
L 1519 3944 
L 2394 5119 
z
" transform="scale(0.015625)"/>
      <path id="DejaVuSans-72" d="M 2631 2963 
Q 2534 3019 2420 3045 
Q 2306 3072 2169 3072 
Q 1681 3072 1420 2755 
Q 1159 2438 1159 1844 
L 1159 0 
L 581 0 
L 581 3500 
L 1159 3500 
L 1159 2956 
Q 1341 3275 1631 3429 
Q 1922 3584 2338 3584 
Q 2397 3584 2469 3576 
Q 2541 3569 2628 3553 
L 2631 2963 
z
" transform="scale(0.015625)"/>
      <path id="DejaVuSans-63" d="M 3122 3366 
L 3122 2828 
Q 2878 2963 2633 3030 
Q 2388 3097 2138 3097 
Q 1578 3097 1268 2742 
Q 959 2388 959 1747 
Q 959 1106 1268 751 
Q 1578 397 2138 397 
Q 2388 397 2633 464 
Q 2878 531 3122 666 
L 3122 134 
Q 2881 22 2623 -34 
Q 2366 -91 2075 -91 
Q 1284 -91 818 406 
Q 353 903 353 1747 
Q 353 2603 823 3093 
Q 1294 3584 2113 3584 
Q 2378 3584 2631 3529 
Q 2884 3475 3122 3366 
z
" transform="scale(0.015625)"/>
      <path id="DejaVuSans-6f" d="M 1959 3097 
Q 1497 3097 1228 2736 
Q 959 2375 959 1747 
Q 959 1119 1226 758 
Q 1494 397 1959 397 
Q 2419 397 2687 759 
Q 2956 1122 2956 1747 
Q 2956 2369 2687 2733 
Q 2419 3097 1959 3097 
z
M 1959 3584 
Q 2709 3584 3137 3096 
Q 3566 2609 3566 1747 
Q 3566 888 3137 398 
Q 2709 -91 1959 -91 
Q 1206 -91 779 398 
Q 353 888 353 1747 
Q 353 2609 779 3096 
Q 1206 3584 1959 3584 
z
" transform="scale(0.015625)"/>
      <path id="DejaVuSans-20" transform="scale(0.015625)"/>
      <path id="DejaVuSans-2b" d="M 2944 4013 
L 2944 2272 
L 4684 2272 
L 4684 1741 
L 2944 1741 
L 2944 0 
L 2419 0 
L 2419 1741 
L 678 1741 
L 678 2272 
L 2419 2272 
L 2419 4013 
L 2944 4013 
z
" transform="scale(0.015625)"/>
      <path id="DejaVuSans-50" d="M 1259 4147 
L 1259 2394 
L 2053 2394 
Q 2494 2394 2734 2622 
Q 2975 2850 2975 3272 
Q 2975 3691 2734 3919 
Q 2494 4147 2053 4147 
L 1259 4147 
z
M 628 4666 
L 2053 4666 
Q 2838 4666 3239 4311 
Q 3641 3956 3641 3272 
Q 3641 2581 3239 2228 
Q 2838 1875 2053 1875 
L 1259 1875 
L 1259 0 
L 628 0 
L 628 4666 
z
" transform="scale(0.015625)"/>
      <path id="DejaVuSans-79" d="M 2059 -325 
Q 1816 -950 1584 -1140 
Q 1353 -1331 966 -1331 
L 506 -1331 
L 506 -850 
L 844 -850 
Q 1081 -850 1212 -737 
Q 1344 -625 1503 -206 
L 1606 56 
L 191 3500 
L 800 3500 
L 1894 763 
L 2988 3500 
L 3597 3500 
L 2059 -325 
z
" transform="scale(0.015625)"/>
      <path id="DejaVuSans-65" d="M 3597 1894 
L 3597 1613 
L 953 1613 
Q 991 1019 1311 708 
Q 1631 397 2203 397 
Q 2534 397 2845 478 
Q 3156 559 3463 722 
L 3463 178 
Q 3153 47 2828 -22 
Q 2503 -91 2169 -91 
Q 1331 -91 842 396 
Q 353 884 353 1716 
Q 353 2575 817 3079 
Q 1281 3584 2069 3584 
Q 2775 3584 3186 3129 
Q 3597 2675 3597 1894 
z
M 3022 2063 
Q 3016 2534 2758 2815 
Q 2500 3097 2075 3097 
Q 1594 3097 1305 2825 
Q 1016 2553 972 2059 
L 3022 2063 
z
" transform="scale(0.015625)"/>
      <path id="DejaVuSans-6e" d="M 3513 2113 
L 3513 0 
L 2938 0 
L 2938 2094 
Q 2938 2591 2744 2837 
Q 2550 3084 2163 3084 
Q 1697 3084 1428 2787 
Q 1159 2491 1159 1978 
L 1159 0 
L 581 0 
L 581 3500 
L 1159 3500 
L 1159 2956 
Q 1366 3272 1645 3428 
Q 1925 3584 2291 3584 
Q 2894 3584 3203 3211 
Q 3513 2838 3513 2113 
z
" transform="scale(0.015625)"/>
      <path id="DejaVuSans-49" d="M 628 4666 
L 1259 4666 
L 1259 0 
L 628 0 
L 628 4666 
z
" transform="scale(0.015625)"/>
      <path id="DejaVuSans-64" d="M 2906 2969 
L 2906 4863 
L 3481 4863 
L 3481 0 
L 2906 0 
L 2906 525 
Q 2725 213 2448 61 
Q 2172 -91 1784 -91 
Q 1150 -91 751 415 
Q 353 922 353 1747 
Q 353 2572 751 3078 
Q 1150 3584 1784 3584 
Q 2172 3584 2448 3432 
Q 2725 3281 2906 2969 
z
M 947 1747 
Q 947 1113 1208 752 
Q 1469 391 1925 391 
Q 2381 391 2643 752 
Q 2906 1113 2906 1747 
Q 2906 2381 2643 2742 
Q 2381 3103 1925 3103 
Q 1469 3103 1208 2742 
Q 947 2381 947 1747 
z
" transform="scale(0.015625)"/>
      <path id="DejaVuSans-61" d="M 2194 1759 
Q 1497 1759 1228 1600 
Q 959 1441 959 1056 
Q 959 750 1161 570 
Q 1363 391 1709 391 
Q 2188 391 2477 730 
Q 2766 1069 2766 1631 
L 2766 1759 
L 2194 1759 
z
M 3341 1997 
L 3341 0 
L 2766 0 
L 2766 531 
Q 2569 213 2275 61 
Q 1981 -91 1556 -91 
Q 1019 -91 701 211 
Q 384 513 384 1019 
Q 384 1609 779 1909 
Q 1175 2209 1959 2209 
L 2766 2209 
L 2766 2266 
Q 2766 2663 2505 2880 
Q 2244 3097 1772 3097 
Q 1472 3097 1187 3025 
Q 903 2953 641 2809 
L 641 3341 
Q 956 3463 1253 3523 
Q 1550 3584 1831 3584 
Q 2591 3584 2966 3190 
Q 3341 2797 3341 1997 
z
" transform="scale(0.015625)"/>
      <path id="DejaVuSans-41" d="M 2188 4044 
L 1331 1722 
L 3047 1722 
L 2188 4044 
z
M 1831 4666 
L 2547 4666 
L 4325 0 
L 3669 0 
L 3244 1197 
L 1141 1197 
L 716 0 
L 50 0 
L 1831 4666 
z
" transform="scale(0.015625)"/>
      <path id="DejaVuSans-28" d="M 1984 4856 
Q 1566 4138 1362 3434 
Q 1159 2731 1159 2009 
Q 1159 1288 1364 580 
Q 1569 -128 1984 -844 
L 1484 -844 
Q 1016 -109 783 600 
Q 550 1309 550 2009 
Q 550 2706 781 3412 
Q 1013 4119 1484 4856 
L 1984 4856 
z
" transform="scale(0.015625)"/>
      <path id="DejaVuSans-70" d="M 1159 525 
L 1159 -1331 
L 581 -1331 
L 581 3500 
L 1159 3500 
L 1159 2969 
Q 1341 3281 1617 3432 
Q 1894 3584 2278 3584 
Q 2916 3584 3314 3078 
Q 3713 2572 3713 1747 
Q 3713 922 3314 415 
Q 2916 -91 2278 -91 
Q 1894 -91 1617 61 
Q 1341 213 1159 525 
z
M 3116 1747 
Q 3116 2381 2855 2742 
Q 2594 3103 2138 3103 
Q 1681 3103 1420 2742 
Q 1159 2381 1159 1747 
Q 1159 1113 1420 752 
Q 1681 391 2138 391 
Q 2594 391 2855 752 
Q 3116 1113 3116 1747 
z
" transform="scale(0.015625)"/>
      <path id="DejaVuSans-68" d="M 3513 2113 
L 3513 0 
L 2938 0 
L 2938 2094 
Q 2938 2591 2744 2837 
Q 2550 3084 2163 3084 
Q 1697 3084 1428 2787 
Q 1159 2491 1159 1978 
L 1159 0 
L 581 0 
L 581 4863 
L 1159 4863 
L 1159 2956 
Q 1366 3272 1645 3428 
Q 1925 3584 2291 3584 
Q 2894 3584 3203 3211 
Q 3513 2838 3513 2113 
z
" transform="scale(0.015625)"/>
      <path id="DejaVuSans-29" d="M 513 4856 
L 1013 4856 
Q 1481 4119 1714 3412 
Q 1947 2706 1947 2009 
Q 1947 1309 1714 600 
Q 1481 -109 1013 -844 
L 513 -844 
Q 928 -128 1133 580 
Q 1338 1288 1338 2009 
Q 1338 2731 1133 3434 
Q 928 4138 513 4856 
z
" transform="scale(0.015625)"/>
     </defs>
     <use xlink:href="#DejaVuSans-48"/>
     <use xlink:href="#DejaVuSans-69" x="75.195312"/>
     <use xlink:href="#DejaVuSans-73" x="102.978516"/>
     <use xlink:href="#DejaVuSans-74" x="155.078125"/>
     <use xlink:href="#DejaVuSans-f3" x="194.287109"/>
     <use xlink:href="#DejaVuSans-72" x="255.46875"/>
     <use xlink:href="#DejaVuSans-69" x="296.582031"/>
     <use xlink:href="#DejaVuSans-63" x="324.365234"/>
     <use xlink:href="#DejaVuSans-6f" x="379.345703"/>
     <use xlink:href="#DejaVuSans-20" x="440.527344"/>
     <use xlink:href="#DejaVuSans-2b" x="472.314453"/>
     <use xlink:href="#DejaVuSans-20" x="556.103516"/>
     <use xlink:href="#DejaVuSans-50" x="587.890625"/>
     <use xlink:href="#DejaVuSans-72" x="646.443359"/>
     <use xlink:href="#DejaVuSans-6f" x="685.306641"/>
     <use xlink:href="#DejaVuSans-79" x="746.488281"/>
     <use xlink:href="#DejaVuSans-65" x="805.667969"/>
     <use xlink:href="#DejaVuSans-63" x="867.191406"/>
     <use xlink:href="#DejaVuSans-63" x="922.171875"/>
     <use xlink:href="#DejaVuSans-69" x="977.152344"/>
     <use xlink:href="#DejaVuSans-f3" x="1004.935547"/>
     <use xlink:href="#DejaVuSans-6e" x="1066.117188"/>
     <use xlink:href="#DejaVuSans-20" x="1129.496094"/>
     <use xlink:href="#DejaVuSans-49" x="1161.283203"/>
     <use xlink:href="#DejaVuSans-6e" x="1190.775391"/>
     <use xlink:href="#DejaVuSans-64" x="1254.154297"/>
     <use xlink:href="#DejaVuSans-69" x="1317.630859"/>
     <use xlink:href="#DejaVuSans-63" x="1345.414062"/>
     <use xlink:href="#DejaVuSans-61" x="1400.394531"/>
     <use xlink:href="#DejaVuSans-64" x="1461.673828"/>
     <use xlink:href="#DejaVuSans-6f" x="1525.150391"/>
     <use xlink:href="#DejaVuSans-72" x="1586.332031"/>
     <use xlink:href="#DejaVuSans-20" x="1627.445312"/>
     <use xlink:href="#DejaVuSans-41" x="1659.232422"/>
     <use xlink:href="#DejaVuSans-64" x="1725.890625"/>
     <use xlink:href="#DejaVuSans-72" x="1789.367188"/>
     <use xlink:href="#DejaVuSans-20" x="1830.480469"/>
     <use xlink:href="#DejaVuSans-28" x="1862.267578"/>
     <use xlink:href="#DejaVuSans-50" x="1901.28125"/>
     <use xlink:href="#DejaVuSans-72" x="1959.833984"/>
     <use xlink:href="#DejaVuSans-6f" x="1998.697266"/>
     <use xlink:href="#DejaVuSans-70" x="2059.878906"/>
     <use xlink:href="#DejaVuSans-68" x="2123.355469"/>
     <use xlink:href="#DejaVuSans-65" x="2186.734375"/>
     <use xlink:href="#DejaVuSans-74" x="2248.257812"/>
     <use xlink:href="#DejaVuSans-29" x="2287.466797"/>
    </g>
   </g>
   <g id="legend_1">
    <g id="patch_7">
     <path d="M 142 315.4 
L 281.707812 315.4 
Q 283.707812 315.4 283.707812 313.4 
L 283.707812 255.6875 
Q 283.707812 253.6875 281.707812 253.6875 
L 142 253.6875 
Q 140 253.6875 140 255.6875 
L 140 313.4 
Q 140 315.4 142 315.4 
z
" style="fill: #ffffff; opacity: 0.8; stroke: #cccccc; stroke-linejoin: miter"/>
    </g>
    <g id="line2d_45">
     <path d="M 144 261.785937 
L 154 261.785937 
L 164 261.785937 
" style="fill: none; stroke: #2d8bba; stroke-width: 1.5; stroke-linecap: square"/>
    </g>
    <g id="text_17">
     <!-- Histrico -->
     <g transform="translate(172 265.285937) scale(0.1 -0.1)">
      <use xlink:href="#DejaVuSans-48"/>
      <use xlink:href="#DejaVuSans-69" x="75.195312"/>
      <use xlink:href="#DejaVuSans-73" x="102.978516"/>
      <use xlink:href="#DejaVuSans-74" x="155.078125"/>
      <use xlink:href="#DejaVuSans-f3" x="194.287109"/>
      <use xlink:href="#DejaVuSans-72" x="255.46875"/>
      <use xlink:href="#DejaVuSans-69" x="296.582031"/>
      <use xlink:href="#DejaVuSans-63" x="324.365234"/>
      <use xlink:href="#DejaVuSans-6f" x="379.345703"/>
     </g>
    </g>
    <g id="line2d_46">
     <g>
      <use xlink:href="#m7c6c3328a8" x="154" y="276.464063" style="stroke: #000000"/>
     </g>
    </g>
    <g id="text_18">
     <!-- Observed data points -->
     <g transform="translate(172 279.964063) scale(0.1 -0.1)">
      <defs>
       <path id="DejaVuSans-4f" d="M 2522 4238 
Q 1834 4238 1429 3725 
Q 1025 3213 1025 2328 
Q 1025 1447 1429 934 
Q 1834 422 2522 422 
Q 3209 422 3611 934 
Q 4013 1447 4013 2328 
Q 4013 3213 3611 3725 
Q 3209 4238 2522 4238 
z
M 2522 4750 
Q 3503 4750 4090 4092 
Q 4678 3434 4678 2328 
Q 4678 1225 4090 567 
Q 3503 -91 2522 -91 
Q 1538 -91 948 565 
Q 359 1222 359 2328 
Q 359 3434 948 4092 
Q 1538 4750 2522 4750 
z
" transform="scale(0.015625)"/>
       <path id="DejaVuSans-62" d="M 3116 1747 
Q 3116 2381 2855 2742 
Q 2594 3103 2138 3103 
Q 1681 3103 1420 2742 
Q 1159 2381 1159 1747 
Q 1159 1113 1420 752 
Q 1681 391 2138 391 
Q 2594 391 2855 752 
Q 3116 1113 3116 1747 
z
M 1159 2969 
Q 1341 3281 1617 3432 
Q 1894 3584 2278 3584 
Q 2916 3584 3314 3078 
Q 3713 2572 3713 1747 
Q 3713 922 3314 415 
Q 2916 -91 2278 -91 
Q 1894 -91 1617 61 
Q 1341 213 1159 525 
L 1159 0 
L 581 0 
L 581 4863 
L 1159 4863 
L 1159 2969 
z
" transform="scale(0.015625)"/>
       <path id="DejaVuSans-76" d="M 191 3500 
L 800 3500 
L 1894 563 
L 2988 3500 
L 3597 3500 
L 2284 0 
L 1503 0 
L 191 3500 
z
" transform="scale(0.015625)"/>
      </defs>
      <use xlink:href="#DejaVuSans-4f"/>
      <use xlink:href="#DejaVuSans-62" x="78.710938"/>
      <use xlink:href="#DejaVuSans-73" x="142.1875"/>
      <use xlink:href="#DejaVuSans-65" x="194.287109"/>
      <use xlink:href="#DejaVuSans-72" x="255.810547"/>
      <use xlink:href="#DejaVuSans-76" x="296.923828"/>
      <use xlink:href="#DejaVuSans-65" x="356.103516"/>
      <use xlink:href="#DejaVuSans-64" x="417.626953"/>
      <use xlink:href="#DejaVuSans-20" x="481.103516"/>
      <use xlink:href="#DejaVuSans-64" x="512.890625"/>
      <use xlink:href="#DejaVuSans-61" x="576.367188"/>
      <use xlink:href="#DejaVuSans-74" x="637.646484"/>
      <use xlink:href="#DejaVuSans-61" x="676.855469"/>
      <use xlink:href="#DejaVuSans-20" x="738.134766"/>
      <use xlink:href="#DejaVuSans-70" x="769.921875"/>
      <use xlink:href="#DejaVuSans-6f" x="833.398438"/>
      <use xlink:href="#DejaVuSans-69" x="894.580078"/>
      <use xlink:href="#DejaVuSans-6e" x="922.363281"/>
      <use xlink:href="#DejaVuSans-74" x="985.742188"/>
      <use xlink:href="#DejaVuSans-73" x="1024.951172"/>
     </g>
    </g>
    <g id="line2d_47">
     <path d="M 144 291.142187 
L 154 291.142187 
L 164 291.142187 
" style="fill: none; stroke: #0072b2; stroke-width: 1.5; stroke-linecap: square"/>
    </g>
    <g id="text_19">
     <!-- Forecast -->
     <g transform="translate(172 294.642187) scale(0.1 -0.1)">
      <defs>
       <path id="DejaVuSans-46" d="M 628 4666 
L 3309 4666 
L 3309 4134 
L 1259 4134 
L 1259 2759 
L 3109 2759 
L 3109 2228 
L 1259 2228 
L 1259 0 
L 628 0 
L 628 4666 
z
" transform="scale(0.015625)"/>
      </defs>
      <use xlink:href="#DejaVuSans-46"/>
      <use xlink:href="#DejaVuSans-6f" x="53.894531"/>
      <use xlink:href="#DejaVuSans-72" x="115.076172"/>
      <use xlink:href="#DejaVuSans-65" x="153.939453"/>
      <use xlink:href="#DejaVuSans-63" x="215.462891"/>
      <use xlink:href="#DejaVuSans-61" x="270.443359"/>
      <use xlink:href="#DejaVuSans-73" x="331.722656"/>
      <use xlink:href="#DejaVuSans-74" x="383.822266"/>
     </g>
    </g>
    <g id="patch_8">
     <path d="M 144 309.320312 
L 164 309.320312 
L 164 302.320312 
L 144 302.320312 
z
" style="fill: #0072b2; fill-opacity: 0.2; stroke: #0072b2; stroke-opacity: 0.2; stroke-linejoin: miter"/>
    </g>
    <g id="text_20">
     <!-- Uncertainty interval -->
     <g transform="translate(172 309.320312) scale(0.1 -0.1)">
      <defs>
       <path id="DejaVuSans-55" d="M 556 4666 
L 1191 4666 
L 1191 1831 
Q 1191 1081 1462 751 
Q 1734 422 2344 422 
Q 2950 422 3222 751 
Q 3494 1081 3494 1831 
L 3494 4666 
L 4128 4666 
L 4128 1753 
Q 4128 841 3676 375 
Q 3225 -91 2344 -91 
Q 1459 -91 1007 375 
Q 556 841 556 1753 
L 556 4666 
z
" transform="scale(0.015625)"/>
       <path id="DejaVuSans-6c" d="M 603 4863 
L 1178 4863 
L 1178 0 
L 603 0 
L 603 4863 
z
" transform="scale(0.015625)"/>
      </defs>
      <use xlink:href="#DejaVuSans-55"/>
      <use xlink:href="#DejaVuSans-6e" x="73.193359"/>
      <use xlink:href="#DejaVuSans-63" x="136.572266"/>
      <use xlink:href="#DejaVuSans-65" x="191.552734"/>
      <use xlink:href="#DejaVuSans-72" x="253.076172"/>
      <use xlink:href="#DejaVuSans-74" x="294.189453"/>
      <use xlink:href="#DejaVuSans-61" x="333.398438"/>
      <use xlink:href="#DejaVuSans-69" x="394.677734"/>
      <use xlink:href="#DejaVuSans-6e" x="422.460938"/>
      <use xlink:href="#DejaVuSans-74" x="485.839844"/>
      <use xlink:href="#DejaVuSans-79" x="525.048828"/>
      <use xlink:href="#DejaVuSans-20" x="584.228516"/>
      <use xlink:href="#DejaVuSans-69" x="616.015625"/>
      <use xlink:href="#DejaVuSans-6e" x="643.798828"/>
      <use xlink:href="#DejaVuSans-74" x="707.177734"/>
      <use xlink:href="#DejaVuSans-65" x="746.386719"/>
      <use xlink:href="#DejaVuSans-72" x="807.910156"/>
      <use xlink:href="#DejaVuSans-76" x="849.023438"/>
      <use xlink:href="#DejaVuSans-61" x="908.203125"/>
      <use xlink:href="#DejaVuSans-6c" x="969.482422"/>
     </g>
    </g>
   </g>
  </g>
 </g>
 <defs>
  <clipPath id="p558d91dc02">
   <rect x="135" y="43.2" width="837" height="277.2"/>
  </clipPath>
 </defs>
</svg>
