<?xml version="1.0" encoding="utf-8" standalone="no"?>
<!DOCTYPE svg PUBLIC "-//W3C//DTD SVG 1.1//EN"
  "http://www.w3.org/Graphics/SVG/1.1/DTD/svg11.dtd">
<svg xmlns:xlink="http://www.w3.org/1999/xlink" width="1008pt" height="576pt" viewBox="0 0 1008 576" xmlns="http://www.w3.org/2000/svg" version="1.1">
 <metadata>
  <rdf:RDF xmlns:dc="http://purl.org/dc/elements/1.1/" xmlns:cc="http://creativecommons.org/ns#" xmlns:rdf="http://www.w3.org/1999/02/22-rdf-syntax-ns#">
   <cc:Work>
    <dc:type rdf:resource="http://purl.org/dc/dcmitype/StillImage"/>
    <dc:date>2024-02-21T09:58:13.264405</dc:date>
    <dc:format>image/svg+xml</dc:format>
    <dc:creator>
     <cc:Agent>
      <dc:title>Matplotlib v3.6.0, https://matplotlib.org/</dc:title>
     </cc:Agent>
    </dc:creator>
   </cc:Work>
  </rdf:RDF>
 </metadata>
 <defs>
  <style type="text/css">*{stroke-linejoin: round; stroke-linecap: butt}</style>
 </defs>
 <g id="figure_1">
  <g id="patch_1">
   <path d="M 0 576 
L 1008 576 
L 1008 0 
L 0 0 
z
" style="fill: #ffffff"/>
  </g>
  <g id="axes_1">
   <g id="patch_2">
    <path d="M 126 512.64 
L 907.2 512.64 
L 907.2 69.12 
L 126 69.12 
z
" style="fill: #ffffff"/>
   </g>
   <g id="matplotlib.axis_1">
    <g id="xtick_1">
     <g id="line2d_1">
      <defs>
       <path id="m198679e537" d="M 0 0 
L 0 3.5 
" style="stroke: #000000; stroke-width: 0.8"/>
      </defs>
      <g>
       <use xlink:href="#m198679e537" x="161.509091" y="512.64" style="stroke: #000000; stroke-width: 0.8"/>
      </g>
     </g>
     <g id="text_1">
      <!-- 2008 -->
      <g transform="translate(148.784091 527.238438) scale(0.1 -0.1)">
       <defs>
        <path id="DejaVuSans-32" d="M 1228 531 
L 3431 531 
L 3431 0 
L 469 0 
L 469 531 
Q 828 903 1448 1529 
Q 2069 2156 2228 2338 
Q 2531 2678 2651 2914 
Q 2772 3150 2772 3378 
Q 2772 3750 2511 3984 
Q 2250 4219 1831 4219 
Q 1534 4219 1204 4116 
Q 875 4013 500 3803 
L 500 4441 
Q 881 4594 1212 4672 
Q 1544 4750 1819 4750 
Q 2544 4750 2975 4387 
Q 3406 4025 3406 3419 
Q 3406 3131 3298 2873 
Q 3191 2616 2906 2266 
Q 2828 2175 2409 1742 
Q 1991 1309 1228 531 
z
" transform="scale(0.015625)"/>
        <path id="DejaVuSans-30" d="M 2034 4250 
Q 1547 4250 1301 3770 
Q 1056 3291 1056 2328 
Q 1056 1369 1301 889 
Q 1547 409 2034 409 
Q 2525 409 2770 889 
Q 3016 1369 3016 2328 
Q 3016 3291 2770 3770 
Q 2525 4250 2034 4250 
z
M 2034 4750 
Q 2819 4750 3233 4129 
Q 3647 3509 3647 2328 
Q 3647 1150 3233 529 
Q 2819 -91 2034 -91 
Q 1250 -91 836 529 
Q 422 1150 422 2328 
Q 422 3509 836 4129 
Q 1250 4750 2034 4750 
z
" transform="scale(0.015625)"/>
        <path id="DejaVuSans-38" d="M 2034 2216 
Q 1584 2216 1326 1975 
Q 1069 1734 1069 1313 
Q 1069 891 1326 650 
Q 1584 409 2034 409 
Q 2484 409 2743 651 
Q 3003 894 3003 1313 
Q 3003 1734 2745 1975 
Q 2488 2216 2034 2216 
z
M 1403 2484 
Q 997 2584 770 2862 
Q 544 3141 544 3541 
Q 544 4100 942 4425 
Q 1341 4750 2034 4750 
Q 2731 4750 3128 4425 
Q 3525 4100 3525 3541 
Q 3525 3141 3298 2862 
Q 3072 2584 2669 2484 
Q 3125 2378 3379 2068 
Q 3634 1759 3634 1313 
Q 3634 634 3220 271 
Q 2806 -91 2034 -91 
Q 1263 -91 848 271 
Q 434 634 434 1313 
Q 434 1759 690 2068 
Q 947 2378 1403 2484 
z
M 1172 3481 
Q 1172 3119 1398 2916 
Q 1625 2713 2034 2713 
Q 2441 2713 2670 2916 
Q 2900 3119 2900 3481 
Q 2900 3844 2670 4047 
Q 2441 4250 2034 4250 
Q 1625 4250 1398 4047 
Q 1172 3844 1172 3481 
z
" transform="scale(0.015625)"/>
       </defs>
       <use xlink:href="#DejaVuSans-32"/>
       <use xlink:href="#DejaVuSans-30" x="63.623047"/>
       <use xlink:href="#DejaVuSans-30" x="127.246094"/>
       <use xlink:href="#DejaVuSans-38" x="190.869141"/>
      </g>
     </g>
    </g>
    <g id="xtick_2">
     <g id="line2d_2">
      <g>
       <use xlink:href="#m198679e537" x="251.27961" y="512.64" style="stroke: #000000; stroke-width: 0.8"/>
      </g>
     </g>
     <g id="text_2">
      <!-- 2010 -->
      <g transform="translate(238.55461 527.238438) scale(0.1 -0.1)">
       <defs>
        <path id="DejaVuSans-31" d="M 794 531 
L 1825 531 
L 1825 4091 
L 703 3866 
L 703 4441 
L 1819 4666 
L 2450 4666 
L 2450 531 
L 3481 531 
L 3481 0 
L 794 0 
L 794 531 
z
" transform="scale(0.015625)"/>
       </defs>
       <use xlink:href="#DejaVuSans-32"/>
       <use xlink:href="#DejaVuSans-30" x="63.623047"/>
       <use xlink:href="#DejaVuSans-31" x="127.246094"/>
       <use xlink:href="#DejaVuSans-30" x="190.869141"/>
      </g>
     </g>
    </g>
    <g id="xtick_3">
     <g id="line2d_3">
      <g>
       <use xlink:href="#m198679e537" x="340.927323" y="512.64" style="stroke: #000000; stroke-width: 0.8"/>
      </g>
     </g>
     <g id="text_3">
      <!-- 2012 -->
      <g transform="translate(328.202323 527.238438) scale(0.1 -0.1)">
       <use xlink:href="#DejaVuSans-32"/>
       <use xlink:href="#DejaVuSans-30" x="63.623047"/>
       <use xlink:href="#DejaVuSans-31" x="127.246094"/>
       <use xlink:href="#DejaVuSans-32" x="190.869141"/>
      </g>
     </g>
    </g>
    <g id="xtick_4">
     <g id="line2d_4">
      <g>
       <use xlink:href="#m198679e537" x="430.697842" y="512.64" style="stroke: #000000; stroke-width: 0.8"/>
      </g>
     </g>
     <g id="text_4">
      <!-- 2014 -->
      <g transform="translate(417.972842 527.238438) scale(0.1 -0.1)">
       <defs>
        <path id="DejaVuSans-34" d="M 2419 4116 
L 825 1625 
L 2419 1625 
L 2419 4116 
z
M 2253 4666 
L 3047 4666 
L 3047 1625 
L 3713 1625 
L 3713 1100 
L 3047 1100 
L 3047 0 
L 2419 0 
L 2419 1100 
L 313 1100 
L 313 1709 
L 2253 4666 
z
" transform="scale(0.015625)"/>
       </defs>
       <use xlink:href="#DejaVuSans-32"/>
       <use xlink:href="#DejaVuSans-30" x="63.623047"/>
       <use xlink:href="#DejaVuSans-31" x="127.246094"/>
       <use xlink:href="#DejaVuSans-34" x="190.869141"/>
      </g>
     </g>
    </g>
    <g id="xtick_5">
     <g id="line2d_5">
      <g>
       <use xlink:href="#m198679e537" x="520.345555" y="512.64" style="stroke: #000000; stroke-width: 0.8"/>
      </g>
     </g>
     <g id="text_5">
      <!-- 2016 -->
      <g transform="translate(507.620555 527.238438) scale(0.1 -0.1)">
       <defs>
        <path id="DejaVuSans-36" d="M 2113 2584 
Q 1688 2584 1439 2293 
Q 1191 2003 1191 1497 
Q 1191 994 1439 701 
Q 1688 409 2113 409 
Q 2538 409 2786 701 
Q 3034 994 3034 1497 
Q 3034 2003 2786 2293 
Q 2538 2584 2113 2584 
z
M 3366 4563 
L 3366 3988 
Q 3128 4100 2886 4159 
Q 2644 4219 2406 4219 
Q 1781 4219 1451 3797 
Q 1122 3375 1075 2522 
Q 1259 2794 1537 2939 
Q 1816 3084 2150 3084 
Q 2853 3084 3261 2657 
Q 3669 2231 3669 1497 
Q 3669 778 3244 343 
Q 2819 -91 2113 -91 
Q 1303 -91 875 529 
Q 447 1150 447 2328 
Q 447 3434 972 4092 
Q 1497 4750 2381 4750 
Q 2619 4750 2861 4703 
Q 3103 4656 3366 4563 
z
" transform="scale(0.015625)"/>
       </defs>
       <use xlink:href="#DejaVuSans-32"/>
       <use xlink:href="#DejaVuSans-30" x="63.623047"/>
       <use xlink:href="#DejaVuSans-31" x="127.246094"/>
       <use xlink:href="#DejaVuSans-36" x="190.869141"/>
      </g>
     </g>
    </g>
    <g id="xtick_6">
     <g id="line2d_6">
      <g>
       <use xlink:href="#m198679e537" x="610.116074" y="512.64" style="stroke: #000000; stroke-width: 0.8"/>
      </g>
     </g>
     <g id="text_6">
      <!-- 2018 -->
      <g transform="translate(597.391074 527.238438) scale(0.1 -0.1)">
       <use xlink:href="#DejaVuSans-32"/>
       <use xlink:href="#DejaVuSans-30" x="63.623047"/>
       <use xlink:href="#DejaVuSans-31" x="127.246094"/>
       <use xlink:href="#DejaVuSans-38" x="190.869141"/>
      </g>
     </g>
    </g>
    <g id="xtick_7">
     <g id="line2d_7">
      <g>
       <use xlink:href="#m198679e537" x="699.763787" y="512.64" style="stroke: #000000; stroke-width: 0.8"/>
      </g>
     </g>
     <g id="text_7">
      <!-- 2020 -->
      <g transform="translate(687.038787 527.238438) scale(0.1 -0.1)">
       <use xlink:href="#DejaVuSans-32"/>
       <use xlink:href="#DejaVuSans-30" x="63.623047"/>
       <use xlink:href="#DejaVuSans-32" x="127.246094"/>
       <use xlink:href="#DejaVuSans-30" x="190.869141"/>
      </g>
     </g>
    </g>
    <g id="xtick_8">
     <g id="line2d_8">
      <g>
       <use xlink:href="#m198679e537" x="789.534306" y="512.64" style="stroke: #000000; stroke-width: 0.8"/>
      </g>
     </g>
     <g id="text_8">
      <!-- 2022 -->
      <g transform="translate(776.809306 527.238438) scale(0.1 -0.1)">
       <use xlink:href="#DejaVuSans-32"/>
       <use xlink:href="#DejaVuSans-30" x="63.623047"/>
       <use xlink:href="#DejaVuSans-32" x="127.246094"/>
       <use xlink:href="#DejaVuSans-32" x="190.869141"/>
      </g>
     </g>
    </g>
    <g id="xtick_9">
     <g id="line2d_9">
      <g>
       <use xlink:href="#m198679e537" x="879.182019" y="512.64" style="stroke: #000000; stroke-width: 0.8"/>
      </g>
     </g>
     <g id="text_9">
      <!-- 2024 -->
      <g transform="translate(866.457019 527.238438) scale(0.1 -0.1)">
       <use xlink:href="#DejaVuSans-32"/>
       <use xlink:href="#DejaVuSans-30" x="63.623047"/>
       <use xlink:href="#DejaVuSans-32" x="127.246094"/>
       <use xlink:href="#DejaVuSans-34" x="190.869141"/>
      </g>
     </g>
    </g>
   </g>
   <g id="matplotlib.axis_2">
    <g id="ytick_1">
     <g id="line2d_10">
      <defs>
       <path id="me0f2333ad7" d="M 0 0 
L -3.5 0 
" style="stroke: #000000; stroke-width: 0.8"/>
      </defs>
      <g>
       <use xlink:href="#me0f2333ad7" x="126" y="492.48" style="stroke: #000000; stroke-width: 0.8"/>
      </g>
     </g>
     <g id="text_10">
      <!-- 0 -->
      <g transform="translate(112.6375 496.279219) scale(0.1 -0.1)">
       <use xlink:href="#DejaVuSans-30"/>
      </g>
     </g>
    </g>
    <g id="ytick_2">
     <g id="line2d_11">
      <g>
       <use xlink:href="#me0f2333ad7" x="126" y="405.452156" style="stroke: #000000; stroke-width: 0.8"/>
      </g>
     </g>
     <g id="text_11">
      <!-- 20 -->
      <g transform="translate(106.275 409.251375) scale(0.1 -0.1)">
       <use xlink:href="#DejaVuSans-32"/>
       <use xlink:href="#DejaVuSans-30" x="63.623047"/>
      </g>
     </g>
    </g>
    <g id="ytick_3">
     <g id="line2d_12">
      <g>
       <use xlink:href="#me0f2333ad7" x="126" y="318.424313" style="stroke: #000000; stroke-width: 0.8"/>
      </g>
     </g>
     <g id="text_12">
      <!-- 40 -->
      <g transform="translate(106.275 322.223531) scale(0.1 -0.1)">
       <use xlink:href="#DejaVuSans-34"/>
       <use xlink:href="#DejaVuSans-30" x="63.623047"/>
      </g>
     </g>
    </g>
    <g id="ytick_4">
     <g id="line2d_13">
      <g>
       <use xlink:href="#me0f2333ad7" x="126" y="231.396469" style="stroke: #000000; stroke-width: 0.8"/>
      </g>
     </g>
     <g id="text_13">
      <!-- 60 -->
      <g transform="translate(106.275 235.195688) scale(0.1 -0.1)">
       <use xlink:href="#DejaVuSans-36"/>
       <use xlink:href="#DejaVuSans-30" x="63.623047"/>
      </g>
     </g>
    </g>
    <g id="ytick_5">
     <g id="line2d_14">
      <g>
       <use xlink:href="#me0f2333ad7" x="126" y="144.368625" style="stroke: #000000; stroke-width: 0.8"/>
      </g>
     </g>
     <g id="text_14">
      <!-- 80 -->
      <g transform="translate(106.275 148.167844) scale(0.1 -0.1)">
       <use xlink:href="#DejaVuSans-38"/>
       <use xlink:href="#DejaVuSans-30" x="63.623047"/>
      </g>
     </g>
    </g>
   </g>
   <g id="line2d_15">
    <path d="M 161.509091 211.249523 
L 165.316049 219.560682 
L 168.877396 215.035234 
L 172.684354 216.514708 
L 176.368506 218.559862 
L 180.175464 197.716693 
L 183.859617 149.19867 
L 187.666574 120.392454 
L 191.473532 176.177302 
L 195.157685 200.066445 
L 198.964642 204.89649 
L 202.648795 198.369402 
L 206.455753 219.386626 
L 210.26271 222.171517 
L 213.701253 218.516348 
L 217.508211 226.871021 
L 221.192363 228.350494 
L 224.999321 223.215852 
L 228.683474 168.38831 
L 232.490431 138.189648 
L 236.297389 198.499944 
L 239.981542 241.970352 
L 243.788499 234.921096 
L 247.472652 212.859538 
L 251.27961 249.628802 
L 255.086567 240.099253 
L 258.52511 243.623881 
L 262.332067 235.617319 
L 266.01622 244.189562 
L 269.823178 241.187101 
L 273.50733 170.955631 
L 277.314288 146.326752 
L 281.121246 203.721615 
L 284.805398 242.492519 
L 288.612356 240.83899 
L 292.296509 228.045897 
L 296.103466 245.582007 
L 299.910424 251.760984 
L 303.348966 252.109096 
L 307.155924 254.937501 
L 310.840077 264.728133 
L 314.647034 256.37346 
L 318.331187 183.748724 
L 322.138145 167.38749 
L 325.945102 213.468733 
L 329.629255 241.926838 
L 333.436213 256.329946 
L 337.120365 236.270028 
L 340.927323 255.764265 
L 344.734281 270.68954 
L 348.295628 272.256041 
L 352.102586 261.682158 
L 355.786739 270.950624 
L 359.593696 261.072964 
L 363.277849 177.439206 
L 367.084807 161.904736 
L 370.891764 228.568064 
L 374.575917 254.806959 
L 378.382875 262.944062 
L 382.067027 271.69036 
L 385.873985 268.6879 
L 389.680943 276.999059 
L 393.119485 271.69036 
L 396.926443 277.390684 
L 400.610595 272.734695 
L 404.417553 261.421075 
L 408.101706 184.270891 
L 411.908663 147.066488 
L 415.715621 210.857898 
L 419.399774 253.240458 
L 423.206731 285.136162 
L 426.890884 275.389044 
L 430.697842 253.240458 
L 434.504799 272.1255 
L 437.943342 278.130421 
L 441.750299 271.559819 
L 445.434452 271.69036 
L 449.24141 248.323384 
L 452.925562 182.965474 
L 456.73252 152.940868 
L 460.539478 222.040976 
L 464.22363 268.383302 
L 468.030588 277.173115 
L 471.714741 282.742897 
L 475.521698 262.334867 
L 479.328656 264.684619 
L 482.767199 274.866877 
L 486.574156 266.947343 
L 490.258309 258.723212 
L 494.065267 242.05738 
L 497.749419 185.315226 
L 501.556377 139.582094 
L 505.363335 206.854617 
L 509.047487 250.760164 
L 512.854445 262.944062 
L 516.538597 262.073784 
L 520.345555 262.682979 
L 524.152513 270.68954 
L 527.71386 256.068863 
L 531.520818 262.334867 
L 535.204971 253.762625 
L 539.011928 235.051638 
L 542.696081 165.211794 
L 546.503039 143.75943 
L 550.309996 207.376784 
L 553.994149 251.021248 
L 557.801107 265.772467 
L 561.485259 266.642746 
L 565.292217 245.843091 
L 569.099175 249.541774 
L 572.537717 260.898908 
L 576.344675 241.100073 
L 580.028827 247.104995 
L 583.835785 235.39975 
L 587.519938 152.375187 
L 591.326895 136.710175 
L 595.133853 209.247883 
L 598.818006 244.711729 
L 602.624963 256.721571 
L 606.309116 252.196123 
L 610.116074 249.280691 
L 613.923031 264.118938 
L 617.361574 249.411232 
L 621.168532 257.200224 
L 624.852684 254.893987 
L 628.659642 226.871021 
L 632.343795 157.727399 
L 636.150752 142.410499 
L 639.95771 203.199447 
L 643.641863 250.760164 
L 647.44882 257.635364 
L 651.132973 251.760984 
L 654.939931 246.539314 
L 658.746888 253.022888 
L 662.185431 249.541774 
L 665.992388 235.530291 
L 669.676541 244.711729 
L 673.483499 218.037695 
L 677.167651 150.939227 
L 680.974609 131.575532 
L 684.781567 197.368582 
L 688.465719 242.797116 
L 692.272677 249.759344 
L 695.95683 246.843911 
L 699.763787 247.583648 
L 703.570745 257.809419 
L 707.132092 252.370179 
L 710.93905 492.48 
L 718.430161 492.48 
L 722.114313 184.227378 
L 725.921271 115.605923 
L 729.728229 223.172338 
L 733.412381 264.118938 
L 737.219339 291.663251 
L 740.903491 287.616456 
L 744.710449 282.525327 
L 748.517407 287.790512 
L 751.955949 276.607434 
L 755.762907 255.37264 
L 759.44706 254.806959 
L 763.254017 225.173978 
L 766.93817 177.613261 
L 770.745128 136.971258 
L 774.552085 202.329169 
L 778.236238 223.476935 
L 782.043196 234.660013 
L 785.727348 233.485137 
L 789.534306 241.709268 
L 793.341264 250.629622 
L 796.779806 244.972812 
L 800.586764 218.907973 
L 804.270916 242.05738 
L 811.762027 133.968798 
L 815.568984 106.076374 
L 819.375942 197.977777 
L 823.060095 229.568884 
L 826.867052 242.318463 
L 830.551205 223.08531 
L 834.358163 238.054099 
L 838.16512 239.664114 
L 841.603663 248.71501 
L 845.41062 214.687123 
L 849.094773 225.478575 
L 852.901731 198.369402 
L 856.585883 111.123989 
L 860.392841 89.28 
L 864.199799 167.953171 
L 867.883951 205.027032 
L 871.690909 213.251163 
L 871.690909 213.251163 
" clip-path="url(#p0a9312f605)" style="fill: none; stroke: #2d8bba; stroke-width: 1.5; stroke-linecap: square"/>
   </g>
   <g id="patch_3">
    <path d="M 126 512.64 
L 126 69.12 
" style="fill: none; stroke: #000000; stroke-width: 0.8; stroke-linejoin: miter; stroke-linecap: square"/>
   </g>
   <g id="patch_4">
    <path d="M 907.2 512.64 
L 907.2 69.12 
" style="fill: none; stroke: #000000; stroke-width: 0.8; stroke-linejoin: miter; stroke-linecap: square"/>
   </g>
   <g id="patch_5">
    <path d="M 126 512.64 
L 907.2 512.64 
" style="fill: none; stroke: #000000; stroke-width: 0.8; stroke-linejoin: miter; stroke-linecap: square"/>
   </g>
   <g id="patch_6">
    <path d="M 126 69.12 
L 907.2 69.12 
" style="fill: none; stroke: #000000; stroke-width: 0.8; stroke-linejoin: miter; stroke-linecap: square"/>
   </g>
   <g id="legend_1">
    <g id="patch_7">
     <path d="M 133 106.47625 
L 244.251563 106.47625 
Q 246.251563 106.47625 246.251563 104.47625 
L 246.251563 76.12 
Q 246.251563 74.12 244.251563 74.12 
L 133 74.12 
Q 131 74.12 131 76.12 
L 131 104.47625 
Q 131 106.47625 133 106.47625 
z
" style="fill: #ffffff; opacity: 0.8; stroke: #cccccc; stroke-linejoin: miter"/>
    </g>
    <g id="line2d_16">
     <path d="M 135 82.218438 
L 145 82.218438 
L 155 82.218438 
" style="fill: none; stroke: #2d8bba; stroke-width: 1.5; stroke-linecap: square"/>
    </g>
    <g id="text_15">
     <!-- Indicador Adr -->
     <g transform="translate(163 85.718438) scale(0.1 -0.1)">
      <defs>
       <path id="DejaVuSans-49" d="M 628 4666 
L 1259 4666 
L 1259 0 
L 628 0 
L 628 4666 
z
" transform="scale(0.015625)"/>
       <path id="DejaVuSans-6e" d="M 3513 2113 
L 3513 0 
L 2938 0 
L 2938 2094 
Q 2938 2591 2744 2837 
Q 2550 3084 2163 3084 
Q 1697 3084 1428 2787 
Q 1159 2491 1159 1978 
L 1159 0 
L 581 0 
L 581 3500 
L 1159 3500 
L 1159 2956 
Q 1366 3272 1645 3428 
Q 1925 3584 2291 3584 
Q 2894 3584 3203 3211 
Q 3513 2838 3513 2113 
z
" transform="scale(0.015625)"/>
       <path id="DejaVuSans-64" d="M 2906 2969 
L 2906 4863 
L 3481 4863 
L 3481 0 
L 2906 0 
L 2906 525 
Q 2725 213 2448 61 
Q 2172 -91 1784 -91 
Q 1150 -91 751 415 
Q 353 922 353 1747 
Q 353 2572 751 3078 
Q 1150 3584 1784 3584 
Q 2172 3584 2448 3432 
Q 2725 3281 2906 2969 
z
M 947 1747 
Q 947 1113 1208 752 
Q 1469 391 1925 391 
Q 2381 391 2643 752 
Q 2906 1113 2906 1747 
Q 2906 2381 2643 2742 
Q 2381 3103 1925 3103 
Q 1469 3103 1208 2742 
Q 947 2381 947 1747 
z
" transform="scale(0.015625)"/>
       <path id="DejaVuSans-69" d="M 603 3500 
L 1178 3500 
L 1178 0 
L 603 0 
L 603 3500 
z
M 603 4863 
L 1178 4863 
L 1178 4134 
L 603 4134 
L 603 4863 
z
" transform="scale(0.015625)"/>
       <path id="DejaVuSans-63" d="M 3122 3366 
L 3122 2828 
Q 2878 2963 2633 3030 
Q 2388 3097 2138 3097 
Q 1578 3097 1268 2742 
Q 959 2388 959 1747 
Q 959 1106 1268 751 
Q 1578 397 2138 397 
Q 2388 397 2633 464 
Q 2878 531 3122 666 
L 3122 134 
Q 2881 22 2623 -34 
Q 2366 -91 2075 -91 
Q 1284 -91 818 406 
Q 353 903 353 1747 
Q 353 2603 823 3093 
Q 1294 3584 2113 3584 
Q 2378 3584 2631 3529 
Q 2884 3475 3122 3366 
z
" transform="scale(0.015625)"/>
       <path id="DejaVuSans-61" d="M 2194 1759 
Q 1497 1759 1228 1600 
Q 959 1441 959 1056 
Q 959 750 1161 570 
Q 1363 391 1709 391 
Q 2188 391 2477 730 
Q 2766 1069 2766 1631 
L 2766 1759 
L 2194 1759 
z
M 3341 1997 
L 3341 0 
L 2766 0 
L 2766 531 
Q 2569 213 2275 61 
Q 1981 -91 1556 -91 
Q 1019 -91 701 211 
Q 384 513 384 1019 
Q 384 1609 779 1909 
Q 1175 2209 1959 2209 
L 2766 2209 
L 2766 2266 
Q 2766 2663 2505 2880 
Q 2244 3097 1772 3097 
Q 1472 3097 1187 3025 
Q 903 2953 641 2809 
L 641 3341 
Q 956 3463 1253 3523 
Q 1550 3584 1831 3584 
Q 2591 3584 2966 3190 
Q 3341 2797 3341 1997 
z
" transform="scale(0.015625)"/>
       <path id="DejaVuSans-6f" d="M 1959 3097 
Q 1497 3097 1228 2736 
Q 959 2375 959 1747 
Q 959 1119 1226 758 
Q 1494 397 1959 397 
Q 2419 397 2687 759 
Q 2956 1122 2956 1747 
Q 2956 2369 2687 2733 
Q 2419 3097 1959 3097 
z
M 1959 3584 
Q 2709 3584 3137 3096 
Q 3566 2609 3566 1747 
Q 3566 888 3137 398 
Q 2709 -91 1959 -91 
Q 1206 -91 779 398 
Q 353 888 353 1747 
Q 353 2609 779 3096 
Q 1206 3584 1959 3584 
z
" transform="scale(0.015625)"/>
       <path id="DejaVuSans-72" d="M 2631 2963 
Q 2534 3019 2420 3045 
Q 2306 3072 2169 3072 
Q 1681 3072 1420 2755 
Q 1159 2438 1159 1844 
L 1159 0 
L 581 0 
L 581 3500 
L 1159 3500 
L 1159 2956 
Q 1341 3275 1631 3429 
Q 1922 3584 2338 3584 
Q 2397 3584 2469 3576 
Q 2541 3569 2628 3553 
L 2631 2963 
z
" transform="scale(0.015625)"/>
       <path id="DejaVuSans-20" transform="scale(0.015625)"/>
       <path id="DejaVuSans-41" d="M 2188 4044 
L 1331 1722 
L 3047 1722 
L 2188 4044 
z
M 1831 4666 
L 2547 4666 
L 4325 0 
L 3669 0 
L 3244 1197 
L 1141 1197 
L 716 0 
L 50 0 
L 1831 4666 
z
" transform="scale(0.015625)"/>
      </defs>
      <use xlink:href="#DejaVuSans-49"/>
      <use xlink:href="#DejaVuSans-6e" x="29.492188"/>
      <use xlink:href="#DejaVuSans-64" x="92.871094"/>
      <use xlink:href="#DejaVuSans-69" x="156.347656"/>
      <use xlink:href="#DejaVuSans-63" x="184.130859"/>
      <use xlink:href="#DejaVuSans-61" x="239.111328"/>
      <use xlink:href="#DejaVuSans-64" x="300.390625"/>
      <use xlink:href="#DejaVuSans-6f" x="363.867188"/>
      <use xlink:href="#DejaVuSans-72" x="425.048828"/>
      <use xlink:href="#DejaVuSans-20" x="466.162109"/>
      <use xlink:href="#DejaVuSans-41" x="497.949219"/>
      <use xlink:href="#DejaVuSans-64" x="564.607422"/>
      <use xlink:href="#DejaVuSans-72" x="628.083984"/>
     </g>
    </g>
    <g id="line2d_17">
     <path d="M 135 96.896563 
L 145 96.896563 
L 155 96.896563 
" style="fill: none; stroke: #d62728; stroke-width: 1.5; stroke-linecap: square"/>
    </g>
    <g id="text_16">
     <!-- Indicador Rvpar -->
     <g transform="translate(163 100.396563) scale(0.1 -0.1)">
      <defs>
       <path id="DejaVuSans-52" d="M 2841 2188 
Q 3044 2119 3236 1894 
Q 3428 1669 3622 1275 
L 4263 0 
L 3584 0 
L 2988 1197 
Q 2756 1666 2539 1819 
Q 2322 1972 1947 1972 
L 1259 1972 
L 1259 0 
L 628 0 
L 628 4666 
L 2053 4666 
Q 2853 4666 3247 4331 
Q 3641 3997 3641 3322 
Q 3641 2881 3436 2590 
Q 3231 2300 2841 2188 
z
M 1259 4147 
L 1259 2491 
L 2053 2491 
Q 2509 2491 2742 2702 
Q 2975 2913 2975 3322 
Q 2975 3731 2742 3939 
Q 2509 4147 2053 4147 
L 1259 4147 
z
" transform="scale(0.015625)"/>
       <path id="DejaVuSans-76" d="M 191 3500 
L 800 3500 
L 1894 563 
L 2988 3500 
L 3597 3500 
L 2284 0 
L 1503 0 
L 191 3500 
z
" transform="scale(0.015625)"/>
       <path id="DejaVuSans-70" d="M 1159 525 
L 1159 -1331 
L 581 -1331 
L 581 3500 
L 1159 3500 
L 1159 2969 
Q 1341 3281 1617 3432 
Q 1894 3584 2278 3584 
Q 2916 3584 3314 3078 
Q 3713 2572 3713 1747 
Q 3713 922 3314 415 
Q 2916 -91 2278 -91 
Q 1894 -91 1617 61 
Q 1341 213 1159 525 
z
M 3116 1747 
Q 3116 2381 2855 2742 
Q 2594 3103 2138 3103 
Q 1681 3103 1420 2742 
Q 1159 2381 1159 1747 
Q 1159 1113 1420 752 
Q 1681 391 2138 391 
Q 2594 391 2855 752 
Q 3116 1113 3116 1747 
z
" transform="scale(0.015625)"/>
      </defs>
      <use xlink:href="#DejaVuSans-49"/>
      <use xlink:href="#DejaVuSans-6e" x="29.492188"/>
      <use xlink:href="#DejaVuSans-64" x="92.871094"/>
      <use xlink:href="#DejaVuSans-69" x="156.347656"/>
      <use xlink:href="#DejaVuSans-63" x="184.130859"/>
      <use xlink:href="#DejaVuSans-61" x="239.111328"/>
      <use xlink:href="#DejaVuSans-64" x="300.390625"/>
      <use xlink:href="#DejaVuSans-6f" x="363.867188"/>
      <use xlink:href="#DejaVuSans-72" x="425.048828"/>
      <use xlink:href="#DejaVuSans-20" x="466.162109"/>
      <use xlink:href="#DejaVuSans-52" x="497.949219"/>
      <use xlink:href="#DejaVuSans-76" x="567.431641"/>
      <use xlink:href="#DejaVuSans-70" x="626.611328"/>
      <use xlink:href="#DejaVuSans-61" x="690.087891"/>
      <use xlink:href="#DejaVuSans-72" x="751.367188"/>
     </g>
    </g>
   </g>
  </g>
  <g id="axes_2">
   <g id="matplotlib.axis_3">
    <g id="ytick_6">
     <g id="line2d_18">
      <defs>
       <path id="m9c8c5f5ead" d="M 0 0 
L 3.5 0 
" style="stroke: #000000; stroke-width: 0.8"/>
      </defs>
      <g>
       <use xlink:href="#m9c8c5f5ead" x="907.2" y="492.48" style="stroke: #000000; stroke-width: 0.8"/>
      </g>
     </g>
     <g id="text_17">
      <!-- 0 -->
      <g transform="translate(914.2 496.279219) scale(0.1 -0.1)">
       <use xlink:href="#DejaVuSans-30"/>
      </g>
     </g>
    </g>
    <g id="ytick_7">
     <g id="line2d_19">
      <g>
       <use xlink:href="#m9c8c5f5ead" x="907.2" y="427.562917" style="stroke: #000000; stroke-width: 0.8"/>
      </g>
     </g>
     <g id="text_18">
      <!-- 10 -->
      <g transform="translate(914.2 431.362136) scale(0.1 -0.1)">
       <use xlink:href="#DejaVuSans-31"/>
       <use xlink:href="#DejaVuSans-30" x="63.623047"/>
      </g>
     </g>
    </g>
    <g id="ytick_8">
     <g id="line2d_20">
      <g>
       <use xlink:href="#m9c8c5f5ead" x="907.2" y="362.645835" style="stroke: #000000; stroke-width: 0.8"/>
      </g>
     </g>
     <g id="text_19">
      <!-- 20 -->
      <g transform="translate(914.2 366.445054) scale(0.1 -0.1)">
       <use xlink:href="#DejaVuSans-32"/>
       <use xlink:href="#DejaVuSans-30" x="63.623047"/>
      </g>
     </g>
    </g>
    <g id="ytick_9">
     <g id="line2d_21">
      <g>
       <use xlink:href="#m9c8c5f5ead" x="907.2" y="297.728752" style="stroke: #000000; stroke-width: 0.8"/>
      </g>
     </g>
     <g id="text_20">
      <!-- 30 -->
      <g transform="translate(914.2 301.527971) scale(0.1 -0.1)">
       <defs>
        <path id="DejaVuSans-33" d="M 2597 2516 
Q 3050 2419 3304 2112 
Q 3559 1806 3559 1356 
Q 3559 666 3084 287 
Q 2609 -91 1734 -91 
Q 1441 -91 1130 -33 
Q 819 25 488 141 
L 488 750 
Q 750 597 1062 519 
Q 1375 441 1716 441 
Q 2309 441 2620 675 
Q 2931 909 2931 1356 
Q 2931 1769 2642 2001 
Q 2353 2234 1838 2234 
L 1294 2234 
L 1294 2753 
L 1863 2753 
Q 2328 2753 2575 2939 
Q 2822 3125 2822 3475 
Q 2822 3834 2567 4026 
Q 2313 4219 1838 4219 
Q 1578 4219 1281 4162 
Q 984 4106 628 3988 
L 628 4550 
Q 988 4650 1302 4700 
Q 1616 4750 1894 4750 
Q 2613 4750 3031 4423 
Q 3450 4097 3450 3541 
Q 3450 3153 3228 2886 
Q 3006 2619 2597 2516 
z
" transform="scale(0.015625)"/>
       </defs>
       <use xlink:href="#DejaVuSans-33"/>
       <use xlink:href="#DejaVuSans-30" x="63.623047"/>
      </g>
     </g>
    </g>
    <g id="ytick_10">
     <g id="line2d_22">
      <g>
       <use xlink:href="#m9c8c5f5ead" x="907.2" y="232.81167" style="stroke: #000000; stroke-width: 0.8"/>
      </g>
     </g>
     <g id="text_21">
      <!-- 40 -->
      <g transform="translate(914.2 236.610888) scale(0.1 -0.1)">
       <use xlink:href="#DejaVuSans-34"/>
       <use xlink:href="#DejaVuSans-30" x="63.623047"/>
      </g>
     </g>
    </g>
    <g id="ytick_11">
     <g id="line2d_23">
      <g>
       <use xlink:href="#m9c8c5f5ead" x="907.2" y="167.894587" style="stroke: #000000; stroke-width: 0.8"/>
      </g>
     </g>
     <g id="text_22">
      <!-- 50 -->
      <g transform="translate(914.2 171.693806) scale(0.1 -0.1)">
       <defs>
        <path id="DejaVuSans-35" d="M 691 4666 
L 3169 4666 
L 3169 4134 
L 1269 4134 
L 1269 2991 
Q 1406 3038 1543 3061 
Q 1681 3084 1819 3084 
Q 2600 3084 3056 2656 
Q 3513 2228 3513 1497 
Q 3513 744 3044 326 
Q 2575 -91 1722 -91 
Q 1428 -91 1123 -41 
Q 819 9 494 109 
L 494 744 
Q 775 591 1075 516 
Q 1375 441 1709 441 
Q 2250 441 2565 725 
Q 2881 1009 2881 1497 
Q 2881 1984 2565 2268 
Q 2250 2553 1709 2553 
Q 1456 2553 1204 2497 
Q 953 2441 691 2322 
L 691 4666 
z
" transform="scale(0.015625)"/>
       </defs>
       <use xlink:href="#DejaVuSans-35"/>
       <use xlink:href="#DejaVuSans-30" x="63.623047"/>
      </g>
     </g>
    </g>
    <g id="ytick_12">
     <g id="line2d_24">
      <g>
       <use xlink:href="#m9c8c5f5ead" x="907.2" y="102.977504" style="stroke: #000000; stroke-width: 0.8"/>
      </g>
     </g>
     <g id="text_23">
      <!-- 60 -->
      <g transform="translate(914.2 106.776723) scale(0.1 -0.1)">
       <use xlink:href="#DejaVuSans-36"/>
       <use xlink:href="#DejaVuSans-30" x="63.623047"/>
      </g>
     </g>
    </g>
   </g>
   <g id="line2d_25">
    <path d="M 161.509091 344.72872 
L 165.316049 296.235659 
L 168.877396 281.30473 
L 172.684354 301.429026 
L 176.368506 287.406936 
L 180.175464 274.034017 
L 183.859617 218.464994 
L 187.666574 179.83933 
L 191.473532 244.237076 
L 195.157685 278.253627 
L 198.964642 311.815759 
L 202.648795 361.41241 
L 206.455753 368.423455 
L 210.26271 329.408289 
L 213.701253 302.792285 
L 217.508211 313.179018 
L 221.192363 300.650021 
L 224.999321 306.297807 
L 228.683474 255.532649 
L 232.490431 224.437366 
L 236.297389 272.086505 
L 239.981542 329.408289 
L 243.788499 327.136191 
L 247.472652 366.346109 
L 251.27961 385.172062 
L 255.086567 328.953869 
L 258.52511 332.004972 
L 262.332067 317.917965 
L 266.01622 334.406904 
L 269.823178 319.735643 
L 273.50733 263.971869 
L 277.314288 215.154223 
L 281.121246 286.627931 
L 284.805398 321.488404 
L 288.612356 329.862708 
L 292.296509 372.837817 
L 296.103466 374.785329 
L 299.910424 339.665188 
L 307.155924 340.833695 
L 310.840077 334.666572 
L 314.647034 326.48702 
L 318.331187 256.571322 
L 322.138145 233.980177 
L 325.945102 288.575444 
L 329.629255 329.992542 
L 333.436213 348.104408 
L 337.120365 385.172062 
L 340.927323 384.717643 
L 344.734281 367.384782 
L 352.102586 339.210768 
L 355.786739 355.050536 
L 359.593696 345.767393 
L 363.277849 263.452533 
L 367.084807 236.771612 
L 370.891764 315.775701 
L 374.575917 359.659649 
L 378.382875 372.448314 
L 382.067027 397.506308 
L 385.873985 390.430346 
L 389.680943 364.203845 
L 393.119485 337.587841 
L 396.926443 349.272916 
L 400.610595 340.963529 
L 404.417553 343.62513 
L 408.101706 268.516065 
L 411.908663 212.492623 
L 415.715621 283.122409 
L 419.399774 338.561597 
L 423.206731 369.721797 
L 426.890884 387.184492 
L 430.697842 371.799143 
L 434.504799 349.143082 
L 437.943342 345.507725 
L 441.750299 335.185909 
L 445.434452 339.730105 
L 449.24141 320.709399 
L 452.925562 253.71497 
L 456.73252 201.19705 
L 460.539478 271.242583 
L 464.22363 322.397244 
L 471.714741 384.78256 
L 475.521698 368.033953 
L 479.328656 328.369615 
L 482.767199 334.796406 
L 486.574156 313.373769 
L 490.258309 323.046414 
L 494.065267 307.076812 
L 501.556377 171.140441 
L 505.363335 249.884862 
L 509.047487 322.656912 
L 512.854445 348.558828 
L 516.538597 370.176216 
L 520.345555 355.050536 
L 524.152513 325.448346 
L 527.71386 299.351679 
L 531.520818 294.612732 
L 535.204971 287.471853 
L 539.011928 280.785394 
L 542.696081 193.536835 
L 546.503039 141.148749 
L 550.309996 240.212217 
L 553.994149 298.572674 
L 557.801107 336.873753 
L 561.485259 359.594732 
L 565.292217 334.536738 
L 569.099175 313.893106 
L 572.537717 299.481513 
L 576.344675 265.205294 
L 580.028827 286.303346 
L 583.835785 270.593412 
L 587.519938 188.862805 
L 591.326895 147.57554 
L 595.133853 239.887632 
L 598.818006 282.213569 
L 602.624963 304.285378 
L 606.309116 341.482866 
L 610.116074 322.721829 
L 613.923031 300.650021 
L 617.361574 274.618271 
L 621.168532 283.252243 
L 624.852684 294.22323 
L 628.659642 262.803362 
L 632.343795 176.853144 
L 636.150752 138.616983 
L 639.95771 222.619688 
L 643.641863 288.445609 
L 647.44882 297.33925 
L 651.132973 334.27707 
L 654.939931 329.992542 
L 658.746888 295.716323 
L 662.185431 291.561629 
L 665.992388 287.601687 
L 669.676541 277.409705 
L 673.483499 247.48293 
L 677.167651 177.632149 
L 680.974609 119.596278 
L 684.781567 224.826868 
L 688.465719 304.480129 
L 692.272677 305.648636 
L 695.95683 336.614085 
L 699.763787 343.495295 
L 703.570745 313.243935 
L 707.132092 378.810188 
L 710.93905 492.48 
L 718.430161 492.48 
L 722.114313 339.859939 
L 725.921271 264.036786 
L 729.728229 381.082286 
L 733.412381 398.220396 
L 737.219339 418.993863 
L 740.903491 413.865413 
L 744.710449 426.459327 
L 748.517407 407.763207 
L 751.955949 394.585039 
L 755.762907 377.641681 
L 759.44706 366.216274 
L 763.254017 318.69697 
L 766.93817 223.528527 
L 770.745128 141.927754 
L 774.552085 266.438718 
L 778.236238 280.395891 
L 782.043196 298.183172 
L 785.727348 331.290884 
L 789.534306 368.553289 
L 793.341264 301.493943 
L 796.779806 309.34891 
L 800.586764 261.310269 
L 804.270916 279.09755 
L 808.077874 232.681835 
L 811.762027 164.194313 
L 815.568984 96.550713 
L 819.375942 237.875202 
L 823.060095 277.669374 
L 826.867052 308.24532 
L 830.551205 321.228736 
L 834.358163 332.654143 
L 838.16512 293.184556 
L 841.603663 293.119639 
L 845.41062 248.067184 
L 849.094773 270.39866 
L 852.901731 228.851728 
L 856.585883 144.264769 
L 860.392841 89.28 
L 864.199799 201.132133 
L 867.883951 265.72463 
L 871.690909 272.995344 
L 871.690909 272.995344 
" clip-path="url(#p0a9312f605)" style="fill: none; stroke: #d62728; stroke-width: 1.5; stroke-linecap: square"/>
   </g>
   <g id="patch_8">
    <path d="M 126 512.64 
L 126 69.12 
" style="fill: none; stroke: #000000; stroke-width: 0.8; stroke-linejoin: miter; stroke-linecap: square"/>
   </g>
   <g id="patch_9">
    <path d="M 907.2 512.64 
L 907.2 69.12 
" style="fill: none; stroke: #000000; stroke-width: 0.8; stroke-linejoin: miter; stroke-linecap: square"/>
   </g>
   <g id="patch_10">
    <path d="M 126 512.64 
L 907.2 512.64 
" style="fill: none; stroke: #000000; stroke-width: 0.8; stroke-linejoin: miter; stroke-linecap: square"/>
   </g>
   <g id="patch_11">
    <path d="M 126 69.12 
L 907.2 69.12 
" style="fill: none; stroke: #000000; stroke-width: 0.8; stroke-linejoin: miter; stroke-linecap: square"/>
   </g>
  </g>
 </g>
 <defs>
  <clipPath id="p0a9312f605">
   <rect x="126" y="69.12" width="781.2" height="443.52"/>
  </clipPath>
 </defs>
</svg>
