<?xml version="1.0" encoding="utf-8" standalone="no"?>
<!DOCTYPE svg PUBLIC "-//W3C//DTD SVG 1.1//EN"
  "http://www.w3.org/Graphics/SVG/1.1/DTD/svg11.dtd">
<svg xmlns:xlink="http://www.w3.org/1999/xlink" width="720pt" height="432pt" viewBox="0 0 720 432" xmlns="http://www.w3.org/2000/svg" version="1.1">
 <metadata>
  <rdf:RDF xmlns:dc="http://purl.org/dc/elements/1.1/" xmlns:cc="http://creativecommons.org/ns#" xmlns:rdf="http://www.w3.org/1999/02/22-rdf-syntax-ns#">
   <cc:Work>
    <dc:type rdf:resource="http://purl.org/dc/dcmitype/StillImage"/>
    <dc:date>2024-02-20T16:56:41.709330</dc:date>
    <dc:format>image/svg+xml</dc:format>
    <dc:creator>
     <cc:Agent>
      <dc:title>Matplotlib v3.6.0, https://matplotlib.org/</dc:title>
     </cc:Agent>
    </dc:creator>
   </cc:Work>
  </rdf:RDF>
 </metadata>
 <defs>
  <style type="text/css">*{stroke-linejoin: round; stroke-linecap: butt}</style>
 </defs>
 <g id="figure_1">
  <g id="patch_1">
   <path d="M 0 432 
L 720 432 
L 720 0 
L 0 0 
z
" style="fill: #ffffff"/>
  </g>
  <g id="axes_1">
   <g id="patch_2">
    <path d="M 50.87 390.04 
L 709.2 390.04 
L 709.2 10.8 
L 50.87 10.8 
z
" style="fill: #ffffff"/>
   </g>
   <g id="PolyCollection_1">
    <defs>
     <path id="mff5d93f16b" d="M 80.794091 -314.563908 
L 80.794091 -244.916203 
L 83.81181 -233.992447 
L 86.634837 -251.3265 
L 89.652556 -223.125797 
L 92.57293 -225.720583 
L 95.590649 -234.269334 
L 98.511022 -316.752641 
L 101.528741 -337.444534 
L 104.54646 -276.419921 
L 107.466833 -246.068429 
L 110.484552 -233.690401 
L 113.404925 -235.168055 
L 116.422644 -236.293018 
L 119.440363 -235.936542 
L 122.166045 -238.159992 
L 125.183764 -225.340254 
L 128.104137 -220.592148 
L 131.121856 -234.920604 
L 134.042229 -307.569123 
L 137.059948 -331.318131 
L 140.077667 -270.838445 
L 142.99804 -242.410385 
L 146.015759 -231.425575 
L 148.936133 -232.076666 
L 151.953852 -235.101235 
L 154.971571 -231.530239 
L 157.697252 -224.591182 
L 160.714971 -221.04749 
L 163.635345 -219.862985 
L 166.653064 -234.744348 
L 169.573437 -295.489848 
L 172.591156 -319.810277 
L 175.608875 -266.484709 
L 178.529248 -235.162387 
L 181.546967 -228.297233 
L 184.46734 -230.096966 
L 187.485059 -230.028237 
L 190.502778 -221.413878 
L 193.22846 -213.642311 
L 196.246179 -223.689555 
L 199.166552 -219.658393 
L 202.184271 -236.658503 
L 205.104644 -286.55658 
L 208.122363 -311.127912 
L 211.140082 -260.295746 
L 214.060455 -232.979255 
L 217.078174 -225.879686 
L 219.998548 -232.135039 
L 223.016267 -224.770727 
L 226.033986 -214.850531 
L 228.857013 -231.09999 
L 231.874732 -206.349892 
L 234.795105 -204.30497 
L 237.812824 -211.514551 
L 240.733197 -295.681844 
L 243.750916 -320.362505 
L 246.768635 -254.217679 
L 249.689009 -224.349637 
L 252.706728 -210.959782 
L 255.627101 -212.491339 
L 258.64482 -215.734303 
L 261.662539 -215.981472 
L 264.388221 -216.447098 
L 267.40594 -203.569814 
L 270.326313 -203.314782 
L 273.344032 -217.750131 
L 276.264405 -286.726985 
L 279.282124 -309.5321 
L 282.299843 -253.951826 
L 285.220216 -224.465319 
L 288.237935 -211.790185 
L 291.158308 -217.035054 
L 294.176027 -215.140161 
L 297.193746 -210.742736 
L 299.919428 -208.41472 
L 302.937147 -208.819938 
L 305.85752 -204.655778 
L 308.875239 -223.591868 
L 311.795612 -281.543214 
L 314.813331 -304.216862 
L 317.83105 -249.780854 
L 320.751424 -218.279686 
L 323.769143 -213.856027 
L 326.689516 -218.746405 
L 329.707235 -219.05789 
L 332.724954 -209.297981 
L 335.450636 -200.476768 
L 338.468355 -212.006901 
L 341.388728 -206.443766 
L 344.406447 -225.073656 
L 347.32682 -277.15033 
L 350.344539 -302.897086 
L 353.362258 -250.059482 
L 356.282631 -221.839814 
L 359.30035 -218.011726 
L 362.220723 -221.947181 
L 365.238442 -217.190504 
L 368.256161 -207.586398 
L 371.079189 -222.62237 
L 374.096908 -198.225903 
L 377.017281 -200.278224 
L 380.035 -208.564446 
L 382.955373 -290.525961 
L 385.973092 -310.611011 
L 388.990811 -254.162231 
L 391.911184 -222.183746 
L 394.928903 -208.675281 
L 397.849277 -212.895193 
L 400.866996 -215.473739 
L 403.884715 -215.310402 
L 406.610396 -213.900582 
L 409.628115 -202.660958 
L 412.548488 -200.482512 
L 415.566207 -214.321895 
L 418.486581 -286.965267 
L 421.5043 -309.279971 
L 424.522019 -251.647121 
L 427.442392 -223.072953 
L 430.460111 -211.603874 
L 433.380484 -216.245103 
L 436.398203 -215.252197 
L 439.415922 -209.530277 
L 442.141604 -207.210047 
L 445.159323 -205.404684 
L 448.079696 -204.717119 
L 451.097415 -219.048259 
L 454.017788 -280.021175 
L 457.035507 -304.264611 
L 460.053226 -249.797457 
L 462.973599 -221.927761 
L 465.991318 -214.141407 
L 468.911692 -219.46797 
L 471.929411 -214.577886 
L 474.94713 -209.141794 
L 477.672811 -199.88892 
L 480.69053 -211.498598 
L 483.610903 -207.087811 
L 486.628622 -225.459844 
L 489.548996 -277.690665 
L 492.566715 -299.864688 
L 495.584434 -249.135095 
L 498.504807 -222.327527 
L 501.522526 -216.369649 
L 504.442899 -221.781078 
L 507.460618 -218.21517 
L 510.478337 -205.945655 
L 513.301365 -220.885847 
L 516.319084 -196.702568 
L 519.239457 -195.542781 
L 522.257176 -209.502609 
L 525.177549 -293.398122 
L 528.195268 -313.413307 
L 531.212987 -255.373442 
L 534.13336 -220.47853 
L 537.151079 -213.993435 
L 540.071452 -216.709889 
L 543.089171 -219.970015 
L 546.10689 -218.335128 
L 548.832572 -221.548886 
L 551.850291 -210.031487 
L 554.770664 -208.140527 
L 557.788383 -221.964769 
L 560.708756 -295.200479 
L 563.726475 -319.0299 
L 566.744194 -260.740989 
L 569.664568 -231.63586 
L 572.682287 -222.616001 
L 575.60266 -226.555657 
L 578.620379 -226.765778 
L 581.638098 -225.076617 
L 584.363779 -221.052318 
L 587.381498 -219.404602 
L 590.301872 -218.021761 
L 593.319591 -235.791227 
L 596.239964 -298.393199 
L 599.257683 -320.200287 
L 602.275402 -270.345315 
L 605.195775 -240.496551 
L 608.213494 -233.864184 
L 611.133867 -237.69256 
L 614.151586 -233.279036 
L 617.169305 -227.167919 
L 619.894987 -222.987727 
L 622.912706 -234.216445 
L 625.833079 -228.159935 
L 628.850798 -249.408041 
L 631.771171 -299.041047 
L 634.78889 -324.972263 
L 637.806609 -272.991743 
L 640.726983 -246.847052 
L 643.744702 -243.669394 
L 646.567729 -259.608764 
L 649.585448 -248.645141 
L 652.603167 -226.107185 
L 655.426194 -220.463891 
L 658.443913 -247.653315 
L 661.364287 -240.659937 
L 664.382006 -264.313253 
L 667.302379 -303.071592 
L 670.320098 -327.465835 
L 673.337817 -280.452956 
L 676.25819 -257.834743 
L 679.275909 -251.829346 
L 679.275909 -318.365797 
L 679.275909 -318.365797 
L 676.25819 -322.05115 
L 673.337817 -348.766441 
L 670.320098 -391.495992 
L 667.302379 -368.947323 
L 664.382006 -328.087155 
L 661.364287 -304.345095 
L 658.443913 -313.994797 
L 655.426194 -289.059582 
L 652.603167 -289.404273 
L 649.585448 -312.834176 
L 646.567729 -327.711942 
L 643.744702 -311.143916 
L 640.726983 -315.637135 
L 637.806609 -338.532562 
L 634.78889 -390.501814 
L 631.771171 -365.367123 
L 628.850798 -314.860137 
L 625.833079 -294.156372 
L 622.912706 -300.725384 
L 619.894987 -286.476135 
L 617.169305 -294.245491 
L 614.151586 -299.739275 
L 611.133867 -303.318618 
L 608.213494 -299.991982 
L 605.195775 -308.612535 
L 602.275402 -334.412822 
L 599.257683 -389.148213 
L 596.239964 -362.846322 
L 593.319591 -300.43427 
L 590.301872 -284.561476 
L 587.381498 -287.481551 
L 584.363779 -286.38256 
L 581.638098 -288.809803 
L 578.620379 -293.144788 
L 575.60266 -291.963936 
L 572.682287 -287.861604 
L 569.664568 -295.43333 
L 566.744194 -326.692238 
L 563.726475 -383.940546 
L 560.708756 -359.052751 
L 557.788383 -286.964453 
L 554.770664 -274.303167 
L 551.850291 -274.14858 
L 548.832572 -284.601119 
L 546.10689 -281.957949 
L 543.089171 -283.964809 
L 540.071452 -280.777587 
L 537.151079 -275.327823 
L 534.13336 -287.255476 
L 531.212987 -318.368293 
L 528.195268 -380.874892 
L 525.177549 -356.596715 
L 522.257176 -276.267909 
L 519.239457 -262.638158 
L 516.319084 -261.955261 
L 513.301365 -286.671018 
L 510.478337 -271.684357 
L 507.460618 -280.662187 
L 504.442899 -282.041938 
L 501.522526 -280.235745 
L 498.504807 -287.011803 
L 495.584434 -316.296209 
L 492.566715 -363.910906 
L 489.548996 -343.098902 
L 486.628622 -290.792972 
L 483.610903 -271.766068 
L 480.69053 -276.518333 
L 477.672811 -265.492139 
L 474.94713 -271.571941 
L 471.929411 -280.641295 
L 468.911692 -284.028959 
L 465.991318 -278.734666 
L 462.973599 -288.72163 
L 460.053226 -317.19411 
L 457.035507 -369.640722 
L 454.017788 -347.325964 
L 451.097415 -284.861028 
L 448.079696 -266.164358 
L 445.159323 -268.044075 
L 442.141604 -272.449349 
L 439.415922 -274.372405 
L 436.398203 -281.024754 
L 433.380484 -280.72746 
L 430.460111 -277.070849 
L 427.442392 -288.453035 
L 424.522019 -317.13264 
L 421.5043 -373.642378 
L 418.486581 -350.159712 
L 415.566207 -278.283775 
L 412.548488 -264.519487 
L 409.628115 -266.498628 
L 406.610396 -283.317634 
L 403.884715 -279.872878 
L 400.866996 -277.228711 
L 397.849277 -275.961044 
L 394.928903 -274.692663 
L 391.911184 -287.586034 
L 388.990811 -318.074031 
L 385.973092 -378.788121 
L 382.955373 -358.83692 
L 380.035 -275.380227 
L 377.017281 -264.743546 
L 374.096908 -266.26611 
L 371.079189 -286.555433 
L 368.256161 -274.693297 
L 365.238442 -284.393299 
L 362.220723 -287.822957 
L 359.30035 -284.483543 
L 356.282631 -288.788638 
L 353.362258 -316.02731 
L 350.344539 -366.620919 
L 347.32682 -341.01296 
L 344.406447 -291.512845 
L 341.388728 -271.159757 
L 338.468355 -281.065781 
L 335.450636 -265.082329 
L 332.724954 -272.617616 
L 329.707235 -282.81386 
L 326.689516 -284.709274 
L 323.769143 -281.260568 
L 320.751424 -288.161717 
L 317.83105 -317.696092 
L 314.813331 -372.206442 
L 311.795612 -350.034111 
L 308.875239 -286.36301 
L 305.85752 -270.19537 
L 302.937147 -271.596378 
L 299.919428 -273.685677 
L 297.193746 -277.22033 
L 294.176027 -280.235013 
L 291.158308 -282.468212 
L 288.237935 -277.278114 
L 285.220216 -288.951422 
L 282.299843 -316.790847 
L 279.282124 -375.497209 
L 276.264405 -354.049596 
L 273.344032 -281.950257 
L 270.326313 -268.74602 
L 267.40594 -271.653898 
L 264.388221 -282.979792 
L 261.662539 -281.34018 
L 258.64482 -280.053361 
L 255.627101 -280.014492 
L 252.706728 -277.907806 
L 249.689009 -289.35059 
L 246.768635 -321.658185 
L 243.750916 -380.99583 
L 240.733197 -360.159126 
L 237.812824 -277.965218 
L 234.795105 -268.205847 
L 231.874732 -271.208764 
L 228.857013 -298.022787 
L 226.033986 -280.092332 
L 223.016267 -288.22725 
L 219.998548 -295.30983 
L 217.078174 -293.020506 
L 214.060455 -295.386809 
L 211.140082 -326.457863 
L 208.122363 -376.351852 
L 205.104644 -348.325184 
L 202.184271 -302.533307 
L 199.166552 -282.751415 
L 196.246179 -288.887641 
L 193.22846 -277.041733 
L 190.502778 -288.125277 
L 187.485059 -295.509904 
L 184.46734 -297.058572 
L 181.546967 -290.83834 
L 178.529248 -298.66269 
L 175.608875 -330.966494 
L 172.591156 -384.08401 
L 169.573437 -360.356695 
L 166.653064 -301.891717 
L 163.635345 -284.465051 
L 160.714971 -289.931166 
L 157.697252 -290.688963 
L 154.971571 -293.113645 
L 151.953852 -298.38555 
L 148.936133 -303.063742 
L 146.015759 -298.04909 
L 142.99804 -306.28108 
L 140.077667 -337.220137 
L 137.059948 -397.527898 
L 134.042229 -373.882517 
L 131.121856 -302.477862 
L 128.104137 -290.383996 
L 125.183764 -289.392541 
L 122.166045 -304.248033 
L 119.440363 -299.756239 
L 116.422644 -302.421017 
L 113.404925 -299.592412 
L 110.484552 -298.275375 
L 107.466833 -311.637868 
L 104.54646 -343.112083 
L 101.528741 -403.961818 
L 98.511022 -384.73212 
L 95.590649 -297.391173 
L 92.57293 -289.705855 
L 89.652556 -292.094275 
L 86.634837 -316.884753 
L 83.81181 -301.075458 
L 80.794091 -314.563908 
z
" style="stroke: #0072b2; stroke-opacity: 0.2"/>
    </defs>
    <g clip-path="url(#ped9d785ecc)">
     <use xlink:href="#mff5d93f16b" x="0" y="432" style="fill: #0072b2; fill-opacity: 0.2; stroke: #0072b2; stroke-opacity: 0.2"/>
    </g>
   </g>
   <g id="matplotlib.axis_1">
    <g id="xtick_1">
     <g id="line2d_1">
      <path d="M 80.794091 390.04 
L 80.794091 10.8 
" clip-path="url(#ped9d785ecc)" style="fill: none; stroke: #808080; stroke-opacity: 0.2; stroke-linecap: square"/>
     </g>
     <g id="line2d_2">
      <defs>
       <path id="m63202e67fb" d="M 0 0 
L 0 3.5 
" style="stroke: #000000; stroke-width: 0.8"/>
      </defs>
      <g>
       <use xlink:href="#m63202e67fb" x="80.794091" y="390.04" style="stroke: #000000; stroke-width: 0.8"/>
      </g>
     </g>
     <g id="text_1">
      <!-- 2008 -->
      <g transform="translate(68.069091 404.638438) scale(0.1 -0.1)">
       <defs>
        <path id="DejaVuSans-32" d="M 1228 531 
L 3431 531 
L 3431 0 
L 469 0 
L 469 531 
Q 828 903 1448 1529 
Q 2069 2156 2228 2338 
Q 2531 2678 2651 2914 
Q 2772 3150 2772 3378 
Q 2772 3750 2511 3984 
Q 2250 4219 1831 4219 
Q 1534 4219 1204 4116 
Q 875 4013 500 3803 
L 500 4441 
Q 881 4594 1212 4672 
Q 1544 4750 1819 4750 
Q 2544 4750 2975 4387 
Q 3406 4025 3406 3419 
Q 3406 3131 3298 2873 
Q 3191 2616 2906 2266 
Q 2828 2175 2409 1742 
Q 1991 1309 1228 531 
z
" transform="scale(0.015625)"/>
        <path id="DejaVuSans-30" d="M 2034 4250 
Q 1547 4250 1301 3770 
Q 1056 3291 1056 2328 
Q 1056 1369 1301 889 
Q 1547 409 2034 409 
Q 2525 409 2770 889 
Q 3016 1369 3016 2328 
Q 3016 3291 2770 3770 
Q 2525 4250 2034 4250 
z
M 2034 4750 
Q 2819 4750 3233 4129 
Q 3647 3509 3647 2328 
Q 3647 1150 3233 529 
Q 2819 -91 2034 -91 
Q 1250 -91 836 529 
Q 422 1150 422 2328 
Q 422 3509 836 4129 
Q 1250 4750 2034 4750 
z
" transform="scale(0.015625)"/>
        <path id="DejaVuSans-38" d="M 2034 2216 
Q 1584 2216 1326 1975 
Q 1069 1734 1069 1313 
Q 1069 891 1326 650 
Q 1584 409 2034 409 
Q 2484 409 2743 651 
Q 3003 894 3003 1313 
Q 3003 1734 2745 1975 
Q 2488 2216 2034 2216 
z
M 1403 2484 
Q 997 2584 770 2862 
Q 544 3141 544 3541 
Q 544 4100 942 4425 
Q 1341 4750 2034 4750 
Q 2731 4750 3128 4425 
Q 3525 4100 3525 3541 
Q 3525 3141 3298 2862 
Q 3072 2584 2669 2484 
Q 3125 2378 3379 2068 
Q 3634 1759 3634 1313 
Q 3634 634 3220 271 
Q 2806 -91 2034 -91 
Q 1263 -91 848 271 
Q 434 634 434 1313 
Q 434 1759 690 2068 
Q 947 2378 1403 2484 
z
M 1172 3481 
Q 1172 3119 1398 2916 
Q 1625 2713 2034 2713 
Q 2441 2713 2670 2916 
Q 2900 3119 2900 3481 
Q 2900 3844 2670 4047 
Q 2441 4250 2034 4250 
Q 1625 4250 1398 4047 
Q 1172 3844 1172 3481 
z
" transform="scale(0.015625)"/>
       </defs>
       <use xlink:href="#DejaVuSans-32"/>
       <use xlink:href="#DejaVuSans-30" x="63.623047"/>
       <use xlink:href="#DejaVuSans-30" x="127.246094"/>
       <use xlink:href="#DejaVuSans-38" x="190.869141"/>
      </g>
     </g>
    </g>
    <g id="xtick_2">
     <g id="line2d_3">
      <path d="M 151.953852 390.04 
L 151.953852 10.8 
" clip-path="url(#ped9d785ecc)" style="fill: none; stroke: #808080; stroke-opacity: 0.2; stroke-linecap: square"/>
     </g>
     <g id="line2d_4">
      <g>
       <use xlink:href="#m63202e67fb" x="151.953852" y="390.04" style="stroke: #000000; stroke-width: 0.8"/>
      </g>
     </g>
     <g id="text_2">
      <!-- 2010 -->
      <g transform="translate(139.228852 404.638438) scale(0.1 -0.1)">
       <defs>
        <path id="DejaVuSans-31" d="M 794 531 
L 1825 531 
L 1825 4091 
L 703 3866 
L 703 4441 
L 1819 4666 
L 2450 4666 
L 2450 531 
L 3481 531 
L 3481 0 
L 794 0 
L 794 531 
z
" transform="scale(0.015625)"/>
       </defs>
       <use xlink:href="#DejaVuSans-32"/>
       <use xlink:href="#DejaVuSans-30" x="63.623047"/>
       <use xlink:href="#DejaVuSans-31" x="127.246094"/>
       <use xlink:href="#DejaVuSans-30" x="190.869141"/>
      </g>
     </g>
    </g>
    <g id="xtick_3">
     <g id="line2d_5">
      <path d="M 223.016267 390.04 
L 223.016267 10.8 
" clip-path="url(#ped9d785ecc)" style="fill: none; stroke: #808080; stroke-opacity: 0.2; stroke-linecap: square"/>
     </g>
     <g id="line2d_6">
      <g>
       <use xlink:href="#m63202e67fb" x="223.016267" y="390.04" style="stroke: #000000; stroke-width: 0.8"/>
      </g>
     </g>
     <g id="text_3">
      <!-- 2012 -->
      <g transform="translate(210.291267 404.638438) scale(0.1 -0.1)">
       <use xlink:href="#DejaVuSans-32"/>
       <use xlink:href="#DejaVuSans-30" x="63.623047"/>
       <use xlink:href="#DejaVuSans-31" x="127.246094"/>
       <use xlink:href="#DejaVuSans-32" x="190.869141"/>
      </g>
     </g>
    </g>
    <g id="xtick_4">
     <g id="line2d_7">
      <path d="M 294.176027 390.04 
L 294.176027 10.8 
" clip-path="url(#ped9d785ecc)" style="fill: none; stroke: #808080; stroke-opacity: 0.2; stroke-linecap: square"/>
     </g>
     <g id="line2d_8">
      <g>
       <use xlink:href="#m63202e67fb" x="294.176027" y="390.04" style="stroke: #000000; stroke-width: 0.8"/>
      </g>
     </g>
     <g id="text_4">
      <!-- 2014 -->
      <g transform="translate(281.451027 404.638438) scale(0.1 -0.1)">
       <defs>
        <path id="DejaVuSans-34" d="M 2419 4116 
L 825 1625 
L 2419 1625 
L 2419 4116 
z
M 2253 4666 
L 3047 4666 
L 3047 1625 
L 3713 1625 
L 3713 1100 
L 3047 1100 
L 3047 0 
L 2419 0 
L 2419 1100 
L 313 1100 
L 313 1709 
L 2253 4666 
z
" transform="scale(0.015625)"/>
       </defs>
       <use xlink:href="#DejaVuSans-32"/>
       <use xlink:href="#DejaVuSans-30" x="63.623047"/>
       <use xlink:href="#DejaVuSans-31" x="127.246094"/>
       <use xlink:href="#DejaVuSans-34" x="190.869141"/>
      </g>
     </g>
    </g>
    <g id="xtick_5">
     <g id="line2d_9">
      <path d="M 365.238442 390.04 
L 365.238442 10.8 
" clip-path="url(#ped9d785ecc)" style="fill: none; stroke: #808080; stroke-opacity: 0.2; stroke-linecap: square"/>
     </g>
     <g id="line2d_10">
      <g>
       <use xlink:href="#m63202e67fb" x="365.238442" y="390.04" style="stroke: #000000; stroke-width: 0.8"/>
      </g>
     </g>
     <g id="text_5">
      <!-- 2016 -->
      <g transform="translate(352.513442 404.638438) scale(0.1 -0.1)">
       <defs>
        <path id="DejaVuSans-36" d="M 2113 2584 
Q 1688 2584 1439 2293 
Q 1191 2003 1191 1497 
Q 1191 994 1439 701 
Q 1688 409 2113 409 
Q 2538 409 2786 701 
Q 3034 994 3034 1497 
Q 3034 2003 2786 2293 
Q 2538 2584 2113 2584 
z
M 3366 4563 
L 3366 3988 
Q 3128 4100 2886 4159 
Q 2644 4219 2406 4219 
Q 1781 4219 1451 3797 
Q 1122 3375 1075 2522 
Q 1259 2794 1537 2939 
Q 1816 3084 2150 3084 
Q 2853 3084 3261 2657 
Q 3669 2231 3669 1497 
Q 3669 778 3244 343 
Q 2819 -91 2113 -91 
Q 1303 -91 875 529 
Q 447 1150 447 2328 
Q 447 3434 972 4092 
Q 1497 4750 2381 4750 
Q 2619 4750 2861 4703 
Q 3103 4656 3366 4563 
z
" transform="scale(0.015625)"/>
       </defs>
       <use xlink:href="#DejaVuSans-32"/>
       <use xlink:href="#DejaVuSans-30" x="63.623047"/>
       <use xlink:href="#DejaVuSans-31" x="127.246094"/>
       <use xlink:href="#DejaVuSans-36" x="190.869141"/>
      </g>
     </g>
    </g>
    <g id="xtick_6">
     <g id="line2d_11">
      <path d="M 436.398203 390.04 
L 436.398203 10.8 
" clip-path="url(#ped9d785ecc)" style="fill: none; stroke: #808080; stroke-opacity: 0.2; stroke-linecap: square"/>
     </g>
     <g id="line2d_12">
      <g>
       <use xlink:href="#m63202e67fb" x="436.398203" y="390.04" style="stroke: #000000; stroke-width: 0.8"/>
      </g>
     </g>
     <g id="text_6">
      <!-- 2018 -->
      <g transform="translate(423.673203 404.638438) scale(0.1 -0.1)">
       <use xlink:href="#DejaVuSans-32"/>
       <use xlink:href="#DejaVuSans-30" x="63.623047"/>
       <use xlink:href="#DejaVuSans-31" x="127.246094"/>
       <use xlink:href="#DejaVuSans-38" x="190.869141"/>
      </g>
     </g>
    </g>
    <g id="xtick_7">
     <g id="line2d_13">
      <path d="M 507.460618 390.04 
L 507.460618 10.8 
" clip-path="url(#ped9d785ecc)" style="fill: none; stroke: #808080; stroke-opacity: 0.2; stroke-linecap: square"/>
     </g>
     <g id="line2d_14">
      <g>
       <use xlink:href="#m63202e67fb" x="507.460618" y="390.04" style="stroke: #000000; stroke-width: 0.8"/>
      </g>
     </g>
     <g id="text_7">
      <!-- 2020 -->
      <g transform="translate(494.735618 404.638438) scale(0.1 -0.1)">
       <use xlink:href="#DejaVuSans-32"/>
       <use xlink:href="#DejaVuSans-30" x="63.623047"/>
       <use xlink:href="#DejaVuSans-32" x="127.246094"/>
       <use xlink:href="#DejaVuSans-30" x="190.869141"/>
      </g>
     </g>
    </g>
    <g id="xtick_8">
     <g id="line2d_15">
      <path d="M 578.620379 390.04 
L 578.620379 10.8 
" clip-path="url(#ped9d785ecc)" style="fill: none; stroke: #808080; stroke-opacity: 0.2; stroke-linecap: square"/>
     </g>
     <g id="line2d_16">
      <g>
       <use xlink:href="#m63202e67fb" x="578.620379" y="390.04" style="stroke: #000000; stroke-width: 0.8"/>
      </g>
     </g>
     <g id="text_8">
      <!-- 2022 -->
      <g transform="translate(565.895379 404.638438) scale(0.1 -0.1)">
       <use xlink:href="#DejaVuSans-32"/>
       <use xlink:href="#DejaVuSans-30" x="63.623047"/>
       <use xlink:href="#DejaVuSans-32" x="127.246094"/>
       <use xlink:href="#DejaVuSans-32" x="190.869141"/>
      </g>
     </g>
    </g>
    <g id="xtick_9">
     <g id="line2d_17">
      <path d="M 649.682794 390.04 
L 649.682794 10.8 
" clip-path="url(#ped9d785ecc)" style="fill: none; stroke: #808080; stroke-opacity: 0.2; stroke-linecap: square"/>
     </g>
     <g id="line2d_18">
      <g>
       <use xlink:href="#m63202e67fb" x="649.682794" y="390.04" style="stroke: #000000; stroke-width: 0.8"/>
      </g>
     </g>
     <g id="text_9">
      <!-- 2024 -->
      <g transform="translate(636.957794 404.638438) scale(0.1 -0.1)">
       <use xlink:href="#DejaVuSans-32"/>
       <use xlink:href="#DejaVuSans-30" x="63.623047"/>
       <use xlink:href="#DejaVuSans-32" x="127.246094"/>
       <use xlink:href="#DejaVuSans-34" x="190.869141"/>
      </g>
     </g>
    </g>
    <g id="text_10">
     <!-- ds -->
     <g transform="translate(374.256094 418.316562) scale(0.1 -0.1)">
      <defs>
       <path id="DejaVuSans-64" d="M 2906 2969 
L 2906 4863 
L 3481 4863 
L 3481 0 
L 2906 0 
L 2906 525 
Q 2725 213 2448 61 
Q 2172 -91 1784 -91 
Q 1150 -91 751 415 
Q 353 922 353 1747 
Q 353 2572 751 3078 
Q 1150 3584 1784 3584 
Q 2172 3584 2448 3432 
Q 2725 3281 2906 2969 
z
M 947 1747 
Q 947 1113 1208 752 
Q 1469 391 1925 391 
Q 2381 391 2643 752 
Q 2906 1113 2906 1747 
Q 2906 2381 2643 2742 
Q 2381 3103 1925 3103 
Q 1469 3103 1208 2742 
Q 947 2381 947 1747 
z
" transform="scale(0.015625)"/>
       <path id="DejaVuSans-73" d="M 2834 3397 
L 2834 2853 
Q 2591 2978 2328 3040 
Q 2066 3103 1784 3103 
Q 1356 3103 1142 2972 
Q 928 2841 928 2578 
Q 928 2378 1081 2264 
Q 1234 2150 1697 2047 
L 1894 2003 
Q 2506 1872 2764 1633 
Q 3022 1394 3022 966 
Q 3022 478 2636 193 
Q 2250 -91 1575 -91 
Q 1294 -91 989 -36 
Q 684 19 347 128 
L 347 722 
Q 666 556 975 473 
Q 1284 391 1588 391 
Q 1994 391 2212 530 
Q 2431 669 2431 922 
Q 2431 1156 2273 1281 
Q 2116 1406 1581 1522 
L 1381 1569 
Q 847 1681 609 1914 
Q 372 2147 372 2553 
Q 372 3047 722 3315 
Q 1072 3584 1716 3584 
Q 2034 3584 2315 3537 
Q 2597 3491 2834 3397 
z
" transform="scale(0.015625)"/>
      </defs>
      <use xlink:href="#DejaVuSans-64"/>
      <use xlink:href="#DejaVuSans-73" x="63.476562"/>
     </g>
    </g>
   </g>
   <g id="matplotlib.axis_2">
    <g id="ytick_1">
     <g id="line2d_19">
      <path d="M 50.87 372.801818 
L 709.2 372.801818 
" clip-path="url(#ped9d785ecc)" style="fill: none; stroke: #808080; stroke-opacity: 0.2; stroke-linecap: square"/>
     </g>
     <g id="line2d_20">
      <defs>
       <path id="m643a377f52" d="M 0 0 
L -3.5 0 
" style="stroke: #000000; stroke-width: 0.8"/>
      </defs>
      <g>
       <use xlink:href="#m643a377f52" x="50.87" y="372.801818" style="stroke: #000000; stroke-width: 0.8"/>
      </g>
     </g>
     <g id="text_11">
      <!-- 0 -->
      <g transform="translate(37.5075 376.601037) scale(0.1 -0.1)">
       <use xlink:href="#DejaVuSans-30"/>
      </g>
     </g>
    </g>
    <g id="ytick_2">
     <g id="line2d_21">
      <path d="M 50.87 302.400685 
L 709.2 302.400685 
" clip-path="url(#ped9d785ecc)" style="fill: none; stroke: #808080; stroke-opacity: 0.2; stroke-linecap: square"/>
     </g>
     <g id="line2d_22">
      <g>
       <use xlink:href="#m643a377f52" x="50.87" y="302.400685" style="stroke: #000000; stroke-width: 0.8"/>
      </g>
     </g>
     <g id="text_12">
      <!-- 20 -->
      <g transform="translate(31.145 306.199904) scale(0.1 -0.1)">
       <use xlink:href="#DejaVuSans-32"/>
       <use xlink:href="#DejaVuSans-30" x="63.623047"/>
      </g>
     </g>
    </g>
    <g id="ytick_3">
     <g id="line2d_23">
      <path d="M 50.87 231.999552 
L 709.2 231.999552 
" clip-path="url(#ped9d785ecc)" style="fill: none; stroke: #808080; stroke-opacity: 0.2; stroke-linecap: square"/>
     </g>
     <g id="line2d_24">
      <g>
       <use xlink:href="#m643a377f52" x="50.87" y="231.999552" style="stroke: #000000; stroke-width: 0.8"/>
      </g>
     </g>
     <g id="text_13">
      <!-- 40 -->
      <g transform="translate(31.145 235.79877) scale(0.1 -0.1)">
       <use xlink:href="#DejaVuSans-34"/>
       <use xlink:href="#DejaVuSans-30" x="63.623047"/>
      </g>
     </g>
    </g>
    <g id="ytick_4">
     <g id="line2d_25">
      <path d="M 50.87 161.598418 
L 709.2 161.598418 
" clip-path="url(#ped9d785ecc)" style="fill: none; stroke: #808080; stroke-opacity: 0.2; stroke-linecap: square"/>
     </g>
     <g id="line2d_26">
      <g>
       <use xlink:href="#m643a377f52" x="50.87" y="161.598418" style="stroke: #000000; stroke-width: 0.8"/>
      </g>
     </g>
     <g id="text_14">
      <!-- 60 -->
      <g transform="translate(31.145 165.397637) scale(0.1 -0.1)">
       <use xlink:href="#DejaVuSans-36"/>
       <use xlink:href="#DejaVuSans-30" x="63.623047"/>
      </g>
     </g>
    </g>
    <g id="ytick_5">
     <g id="line2d_27">
      <path d="M 50.87 91.197285 
L 709.2 91.197285 
" clip-path="url(#ped9d785ecc)" style="fill: none; stroke: #808080; stroke-opacity: 0.2; stroke-linecap: square"/>
     </g>
     <g id="line2d_28">
      <g>
       <use xlink:href="#m643a377f52" x="50.87" y="91.197285" style="stroke: #000000; stroke-width: 0.8"/>
      </g>
     </g>
     <g id="text_15">
      <!-- 80 -->
      <g transform="translate(31.145 94.996504) scale(0.1 -0.1)">
       <use xlink:href="#DejaVuSans-38"/>
       <use xlink:href="#DejaVuSans-30" x="63.623047"/>
      </g>
     </g>
    </g>
    <g id="ytick_6">
     <g id="line2d_29">
      <path d="M 50.87 20.796152 
L 709.2 20.796152 
" clip-path="url(#ped9d785ecc)" style="fill: none; stroke: #808080; stroke-opacity: 0.2; stroke-linecap: square"/>
     </g>
     <g id="line2d_30">
      <g>
       <use xlink:href="#m643a377f52" x="50.87" y="20.796152" style="stroke: #000000; stroke-width: 0.8"/>
      </g>
     </g>
     <g id="text_16">
      <!-- 100 -->
      <g transform="translate(24.7825 24.59537) scale(0.1 -0.1)">
       <use xlink:href="#DejaVuSans-31"/>
       <use xlink:href="#DejaVuSans-30" x="63.623047"/>
       <use xlink:href="#DejaVuSans-30" x="127.246094"/>
      </g>
     </g>
    </g>
    <g id="text_17">
     <!-- y -->
     <g transform="translate(18.702813 203.379375) rotate(-90) scale(0.1 -0.1)">
      <defs>
       <path id="DejaVuSans-79" d="M 2059 -325 
Q 1816 -950 1584 -1140 
Q 1353 -1331 966 -1331 
L 506 -1331 
L 506 -850 
L 844 -850 
Q 1081 -850 1212 -737 
Q 1344 -625 1503 -206 
L 1606 56 
L 191 3500 
L 800 3500 
L 1894 763 
L 2988 3500 
L 3597 3500 
L 2059 -325 
z
" transform="scale(0.015625)"/>
      </defs>
      <use xlink:href="#DejaVuSans-79"/>
     </g>
    </g>
   </g>
   <g id="line2d_31">
    <defs>
     <path id="m44a3e717c7" d="M 0 1.5 
C 0.397805 1.5 0.77937 1.341951 1.06066 1.06066 
C 1.341951 0.77937 1.5 0.397805 1.5 0 
C 1.5 -0.397805 1.341951 -0.77937 1.06066 -1.06066 
C 0.77937 -1.341951 0.397805 -1.5 0 -1.5 
C -0.397805 -1.5 -0.77937 -1.341951 -1.06066 -1.06066 
C -1.341951 -0.77937 -1.5 -0.397805 -1.5 0 
C -1.5 0.397805 -1.341951 0.77937 -1.06066 1.06066 
C -0.77937 1.341951 -0.397805 1.5 0 1.5 
z
" style="stroke: #000000"/>
    </defs>
    <g clip-path="url(#ped9d785ecc)">
     <use xlink:href="#m44a3e717c7" x="80.794091" y="145.300556" style="stroke: #000000"/>
     <use xlink:href="#m44a3e717c7" x="83.81181" y="152.023864" style="stroke: #000000"/>
     <use xlink:href="#m44a3e717c7" x="86.634837" y="148.363005" style="stroke: #000000"/>
     <use xlink:href="#m44a3e717c7" x="89.652556" y="149.559824" style="stroke: #000000"/>
     <use xlink:href="#m44a3e717c7" x="92.57293" y="151.214251" style="stroke: #000000"/>
     <use xlink:href="#m44a3e717c7" x="95.590649" y="134.35318" style="stroke: #000000"/>
     <use xlink:href="#m44a3e717c7" x="98.511022" y="95.104548" style="stroke: #000000"/>
     <use xlink:href="#m44a3e717c7" x="101.528741" y="71.801773" style="stroke: #000000"/>
     <use xlink:href="#m44a3e717c7" x="104.54646" y="116.928899" style="stroke: #000000"/>
     <use xlink:href="#m44a3e717c7" x="107.466833" y="136.25401" style="stroke: #000000"/>
     <use xlink:href="#m44a3e717c7" x="110.484552" y="140.161273" style="stroke: #000000"/>
     <use xlink:href="#m44a3e717c7" x="113.404925" y="134.881188" style="stroke: #000000"/>
     <use xlink:href="#m44a3e717c7" x="116.422644" y="151.883062" style="stroke: #000000"/>
     <use xlink:href="#m44a3e717c7" x="119.440363" y="154.135898" style="stroke: #000000"/>
     <use xlink:href="#m44a3e717c7" x="122.166045" y="151.179051" style="stroke: #000000"/>
     <use xlink:href="#m44a3e717c7" x="125.183764" y="157.937559" style="stroke: #000000"/>
     <use xlink:href="#m44a3e717c7" x="128.104137" y="159.134379" style="stroke: #000000"/>
     <use xlink:href="#m44a3e717c7" x="131.121856" y="154.980712" style="stroke: #000000"/>
     <use xlink:href="#m44a3e717c7" x="134.042229" y="110.627998" style="stroke: #000000"/>
     <use xlink:href="#m44a3e717c7" x="137.059948" y="86.198805" style="stroke: #000000"/>
     <use xlink:href="#m44a3e717c7" x="140.077667" y="134.98679" style="stroke: #000000"/>
     <use xlink:href="#m44a3e717c7" x="142.99804" y="170.152156" style="stroke: #000000"/>
     <use xlink:href="#m44a3e717c7" x="146.015759" y="164.449664" style="stroke: #000000"/>
     <use xlink:href="#m44a3e717c7" x="148.936133" y="146.602977" style="stroke: #000000"/>
     <use xlink:href="#m44a3e717c7" x="151.953852" y="176.347456" style="stroke: #000000"/>
     <use xlink:href="#m44a3e717c7" x="154.971571" y="168.638532" style="stroke: #000000"/>
     <use xlink:href="#m44a3e717c7" x="157.697252" y="171.489778" style="stroke: #000000"/>
     <use xlink:href="#m44a3e717c7" x="160.714971" y="165.012873" style="stroke: #000000"/>
     <use xlink:href="#m44a3e717c7" x="163.635345" y="171.947385" style="stroke: #000000"/>
     <use xlink:href="#m44a3e717c7" x="166.653064" y="169.518546" style="stroke: #000000"/>
     <use xlink:href="#m44a3e717c7" x="169.573437" y="112.704831" style="stroke: #000000"/>
     <use xlink:href="#m44a3e717c7" x="172.591156" y="92.78131" style="stroke: #000000"/>
     <use xlink:href="#m44a3e717c7" x="175.608875" y="139.210858" style="stroke: #000000"/>
     <use xlink:href="#m44a3e717c7" x="178.529248" y="170.574563" style="stroke: #000000"/>
     <use xlink:href="#m44a3e717c7" x="181.546967" y="169.236941" style="stroke: #000000"/>
     <use xlink:href="#m44a3e717c7" x="184.46734" y="158.887975" style="stroke: #000000"/>
     <use xlink:href="#m44a3e717c7" x="187.485059" y="173.073803" style="stroke: #000000"/>
     <use xlink:href="#m44a3e717c7" x="190.502778" y="178.072283" style="stroke: #000000"/>
     <use xlink:href="#m44a3e717c7" x="193.22846" y="178.353888" style="stroke: #000000"/>
     <use xlink:href="#m44a3e717c7" x="196.246179" y="180.641925" style="stroke: #000000"/>
     <use xlink:href="#m44a3e717c7" x="199.166552" y="188.562052" style="stroke: #000000"/>
     <use xlink:href="#m44a3e717c7" x="202.184271" y="181.803544" style="stroke: #000000"/>
     <use xlink:href="#m44a3e717c7" x="205.104644" y="123.053798" style="stroke: #000000"/>
     <use xlink:href="#m44a3e717c7" x="208.122363" y="109.818385" style="stroke: #000000"/>
     <use xlink:href="#m44a3e717c7" x="211.140082" y="147.095785" style="stroke: #000000"/>
     <use xlink:href="#m44a3e717c7" x="214.060455" y="170.116955" style="stroke: #000000"/>
     <use xlink:href="#m44a3e717c7" x="217.078174" y="181.768343" style="stroke: #000000"/>
     <use xlink:href="#m44a3e717c7" x="219.998548" y="165.540882" style="stroke: #000000"/>
     <use xlink:href="#m44a3e717c7" x="223.016267" y="181.310736" style="stroke: #000000"/>
     <use xlink:href="#m44a3e717c7" x="226.033986" y="193.38453" style="stroke: #000000"/>
     <use xlink:href="#m44a3e717c7" x="228.857013" y="194.65175" style="stroke: #000000"/>
     <use xlink:href="#m44a3e717c7" x="231.874732" y="186.098013" style="stroke: #000000"/>
     <use xlink:href="#m44a3e717c7" x="234.795105" y="193.595733" style="stroke: #000000"/>
     <use xlink:href="#m44a3e717c7" x="237.812824" y="185.605205" style="stroke: #000000"/>
     <use xlink:href="#m44a3e717c7" x="240.733197" y="117.949716" style="stroke: #000000"/>
     <use xlink:href="#m44a3e717c7" x="243.750916" y="105.383113" style="stroke: #000000"/>
     <use xlink:href="#m44a3e717c7" x="246.768635" y="159.310381" style="stroke: #000000"/>
     <use xlink:href="#m44a3e717c7" x="249.689009" y="180.536323" style="stroke: #000000"/>
     <use xlink:href="#m44a3e717c7" x="252.706728" y="187.118829" style="stroke: #000000"/>
     <use xlink:href="#m44a3e717c7" x="255.627101" y="194.194143" style="stroke: #000000"/>
     <use xlink:href="#m44a3e717c7" x="258.64482" y="191.765304" style="stroke: #000000"/>
     <use xlink:href="#m44a3e717c7" x="261.662539" y="198.488612" style="stroke: #000000"/>
     <use xlink:href="#m44a3e717c7" x="264.388221" y="194.194143" style="stroke: #000000"/>
     <use xlink:href="#m44a3e717c7" x="267.40594" y="198.805417" style="stroke: #000000"/>
     <use xlink:href="#m44a3e717c7" x="270.326313" y="195.038957" style="stroke: #000000"/>
     <use xlink:href="#m44a3e717c7" x="273.344032" y="185.886809" style="stroke: #000000"/>
     <use xlink:href="#m44a3e717c7" x="276.264405" y="123.476205" style="stroke: #000000"/>
     <use xlink:href="#m44a3e717c7" x="279.282124" y="93.37972" style="stroke: #000000"/>
     <use xlink:href="#m44a3e717c7" x="282.299843" y="144.983751" style="stroke: #000000"/>
     <use xlink:href="#m44a3e717c7" x="285.220216" y="179.269103" style="stroke: #000000"/>
     <use xlink:href="#m44a3e717c7" x="288.237935" y="205.071118" style="stroke: #000000"/>
     <use xlink:href="#m44a3e717c7" x="291.158308" y="197.186191" style="stroke: #000000"/>
     <use xlink:href="#m44a3e717c7" x="294.176027" y="179.269103" style="stroke: #000000"/>
     <use xlink:href="#m44a3e717c7" x="297.193746" y="194.546149" style="stroke: #000000"/>
     <use xlink:href="#m44a3e717c7" x="299.919428" y="199.403827" style="stroke: #000000"/>
     <use xlink:href="#m44a3e717c7" x="302.937147" y="194.088541" style="stroke: #000000"/>
     <use xlink:href="#m44a3e717c7" x="305.85752" y="194.194143" style="stroke: #000000"/>
     <use xlink:href="#m44a3e717c7" x="308.875239" y="175.291439" style="stroke: #000000"/>
     <use xlink:href="#m44a3e717c7" x="311.795612" y="122.420188" style="stroke: #000000"/>
     <use xlink:href="#m44a3e717c7" x="314.813331" y="98.131797" style="stroke: #000000"/>
     <use xlink:href="#m44a3e717c7" x="317.83105" y="154.030296" style="stroke: #000000"/>
     <use xlink:href="#m44a3e717c7" x="320.751424" y="191.5189" style="stroke: #000000"/>
     <use xlink:href="#m44a3e717c7" x="323.769143" y="198.629414" style="stroke: #000000"/>
     <use xlink:href="#m44a3e717c7" x="326.689516" y="203.135087" style="stroke: #000000"/>
     <use xlink:href="#m44a3e717c7" x="329.707235" y="186.626021" style="stroke: #000000"/>
     <use xlink:href="#m44a3e717c7" x="332.724954" y="188.526852" style="stroke: #000000"/>
     <use xlink:href="#m44a3e717c7" x="335.450636" y="196.763784" style="stroke: #000000"/>
     <use xlink:href="#m44a3e717c7" x="338.468355" y="190.357281" style="stroke: #000000"/>
     <use xlink:href="#m44a3e717c7" x="341.388728" y="183.704374" style="stroke: #000000"/>
     <use xlink:href="#m44a3e717c7" x="344.406447" y="170.222557" style="stroke: #000000"/>
     <use xlink:href="#m44a3e717c7" x="347.32682" y="124.321018" style="stroke: #000000"/>
     <use xlink:href="#m44a3e717c7" x="350.344539" y="87.325223" style="stroke: #000000"/>
     <use xlink:href="#m44a3e717c7" x="353.362258" y="141.745299" style="stroke: #000000"/>
     <use xlink:href="#m44a3e717c7" x="356.282631" y="177.26267" style="stroke: #000000"/>
     <use xlink:href="#m44a3e717c7" x="359.30035" y="187.118829" style="stroke: #000000"/>
     <use xlink:href="#m44a3e717c7" x="362.220723" y="186.414818" style="stroke: #000000"/>
     <use xlink:href="#m44a3e717c7" x="365.238442" y="186.907626" style="stroke: #000000"/>
     <use xlink:href="#m44a3e717c7" x="368.256161" y="193.38453" style="stroke: #000000"/>
     <use xlink:href="#m44a3e717c7" x="371.079189" y="181.55714" style="stroke: #000000"/>
     <use xlink:href="#m44a3e717c7" x="374.096908" y="186.626021" style="stroke: #000000"/>
     <use xlink:href="#m44a3e717c7" x="377.017281" y="179.69151" style="stroke: #000000"/>
     <use xlink:href="#m44a3e717c7" x="380.035" y="164.555266" style="stroke: #000000"/>
     <use xlink:href="#m44a3e717c7" x="382.955373" y="108.058356" style="stroke: #000000"/>
     <use xlink:href="#m44a3e717c7" x="385.973092" y="90.704477" style="stroke: #000000"/>
     <use xlink:href="#m44a3e717c7" x="388.990811" y="142.167706" style="stroke: #000000"/>
     <use xlink:href="#m44a3e717c7" x="391.911184" y="177.473874" style="stroke: #000000"/>
     <use xlink:href="#m44a3e717c7" x="394.928903" y="189.406866" style="stroke: #000000"/>
     <use xlink:href="#m44a3e717c7" x="397.849277" y="190.110877" style="stroke: #000000"/>
     <use xlink:href="#m44a3e717c7" x="400.866996" y="173.285006" style="stroke: #000000"/>
     <use xlink:href="#m44a3e717c7" x="403.884715" y="176.277055" style="stroke: #000000"/>
     <use xlink:href="#m44a3e717c7" x="406.610396" y="185.464402" style="stroke: #000000"/>
     <use xlink:href="#m44a3e717c7" x="409.628115" y="169.448145" style="stroke: #000000"/>
     <use xlink:href="#m44a3e717c7" x="412.548488" y="174.305823" style="stroke: #000000"/>
     <use xlink:href="#m44a3e717c7" x="415.566207" y="164.83687" style="stroke: #000000"/>
     <use xlink:href="#m44a3e717c7" x="418.486581" y="97.674189" style="stroke: #000000"/>
     <use xlink:href="#m44a3e717c7" x="421.5043" y="85.001985" style="stroke: #000000"/>
     <use xlink:href="#m44a3e717c7" x="424.522019" y="143.68133" style="stroke: #000000"/>
     <use xlink:href="#m44a3e717c7" x="427.442392" y="172.369792" style="stroke: #000000"/>
     <use xlink:href="#m44a3e717c7" x="430.460111" y="182.085148" style="stroke: #000000"/>
     <use xlink:href="#m44a3e717c7" x="433.380484" y="178.424289" style="stroke: #000000"/>
     <use xlink:href="#m44a3e717c7" x="436.398203" y="176.065851" style="stroke: #000000"/>
     <use xlink:href="#m44a3e717c7" x="439.415922" y="188.069244" style="stroke: #000000"/>
     <use xlink:href="#m44a3e717c7" x="442.141604" y="176.171453" style="stroke: #000000"/>
     <use xlink:href="#m44a3e717c7" x="445.159323" y="182.472354" style="stroke: #000000"/>
     <use xlink:href="#m44a3e717c7" x="448.079696" y="180.606724" style="stroke: #000000"/>
     <use xlink:href="#m44a3e717c7" x="451.097415" y="157.937559" style="stroke: #000000"/>
     <use xlink:href="#m44a3e717c7" x="454.017788" y="102.003859" style="stroke: #000000"/>
     <use xlink:href="#m44a3e717c7" x="457.035507" y="89.613259" style="stroke: #000000"/>
     <use xlink:href="#m44a3e717c7" x="460.053226" y="138.788451" style="stroke: #000000"/>
     <use xlink:href="#m44a3e717c7" x="462.973599" y="177.26267" style="stroke: #000000"/>
     <use xlink:href="#m44a3e717c7" x="465.991318" y="182.82436" style="stroke: #000000"/>
     <use xlink:href="#m44a3e717c7" x="468.911692" y="178.072283" style="stroke: #000000"/>
     <use xlink:href="#m44a3e717c7" x="471.929411" y="173.848215" style="stroke: #000000"/>
     <use xlink:href="#m44a3e717c7" x="474.94713" y="179.0931" style="stroke: #000000"/>
     <use xlink:href="#m44a3e717c7" x="477.672811" y="176.277055" style="stroke: #000000"/>
     <use xlink:href="#m44a3e717c7" x="480.69053" y="164.942472" style="stroke: #000000"/>
     <use xlink:href="#m44a3e717c7" x="483.610903" y="172.369792" style="stroke: #000000"/>
     <use xlink:href="#m44a3e717c7" x="486.628622" y="150.791844" style="stroke: #000000"/>
     <use xlink:href="#m44a3e717c7" x="489.548996" y="96.512571" style="stroke: #000000"/>
     <use xlink:href="#m44a3e717c7" x="492.566715" y="80.848318" style="stroke: #000000"/>
     <use xlink:href="#m44a3e717c7" x="495.584434" y="134.071575" style="stroke: #000000"/>
     <use xlink:href="#m44a3e717c7" x="498.504807" y="170.820967" style="stroke: #000000"/>
     <use xlink:href="#m44a3e717c7" x="501.522526" y="176.453057" style="stroke: #000000"/>
     <use xlink:href="#m44a3e717c7" x="504.442899" y="174.094619" style="stroke: #000000"/>
     <use xlink:href="#m44a3e717c7" x="507.460618" y="174.693029" style="stroke: #000000"/>
     <use xlink:href="#m44a3e717c7" x="510.478337" y="182.965162" style="stroke: #000000"/>
     <use xlink:href="#m44a3e717c7" x="513.301365" y="178.565091" style="stroke: #000000"/>
     <use xlink:href="#m44a3e717c7" x="516.319084" y="372.801818" style="stroke: #000000"/>
     <use xlink:href="#m44a3e717c7" x="519.239457" y="372.801818" style="stroke: #000000"/>
     <use xlink:href="#m44a3e717c7" x="522.257176" y="372.801818" style="stroke: #000000"/>
     <use xlink:href="#m44a3e717c7" x="525.177549" y="123.441004" style="stroke: #000000"/>
     <use xlink:href="#m44a3e717c7" x="528.195268" y="67.92971" style="stroke: #000000"/>
     <use xlink:href="#m44a3e717c7" x="531.212987" y="154.945511" style="stroke: #000000"/>
     <use xlink:href="#m44a3e717c7" x="534.13336" y="188.069244" style="stroke: #000000"/>
     <use xlink:href="#m44a3e717c7" x="537.151079" y="210.351203" style="stroke: #000000"/>
     <use xlink:href="#m44a3e717c7" x="540.071452" y="207.07755" style="stroke: #000000"/>
     <use xlink:href="#m44a3e717c7" x="543.089171" y="202.959084" style="stroke: #000000"/>
     <use xlink:href="#m44a3e717c7" x="546.10689" y="207.218353" style="stroke: #000000"/>
     <use xlink:href="#m44a3e717c7" x="548.832572" y="198.171807" style="stroke: #000000"/>
     <use xlink:href="#m44a3e717c7" x="551.850291" y="180.993931" style="stroke: #000000"/>
     <use xlink:href="#m44a3e717c7" x="554.770664" y="180.536323" style="stroke: #000000"/>
     <use xlink:href="#m44a3e717c7" x="557.788383" y="156.564737" style="stroke: #000000"/>
     <use xlink:href="#m44a3e717c7" x="560.708756" y="118.090518" style="stroke: #000000"/>
     <use xlink:href="#m44a3e717c7" x="563.726475" y="85.213189" style="stroke: #000000"/>
     <use xlink:href="#m44a3e717c7" x="566.744194" y="138.08444" style="stroke: #000000"/>
     <use xlink:href="#m44a3e717c7" x="569.664568" y="155.191915" style="stroke: #000000"/>
     <use xlink:href="#m44a3e717c7" x="572.682287" y="164.238461" style="stroke: #000000"/>
     <use xlink:href="#m44a3e717c7" x="575.60266" y="163.288045" style="stroke: #000000"/>
     <use xlink:href="#m44a3e717c7" x="578.620379" y="169.940953" style="stroke: #000000"/>
     <use xlink:href="#m44a3e717c7" x="581.638098" y="177.157069" style="stroke: #000000"/>
     <use xlink:href="#m44a3e717c7" x="584.363779" y="172.580995" style="stroke: #000000"/>
     <use xlink:href="#m44a3e717c7" x="587.381498" y="151.495856" style="stroke: #000000"/>
     <use xlink:href="#m44a3e717c7" x="590.301872" y="170.222557" style="stroke: #000000"/>
     <use xlink:href="#m44a3e717c7" x="593.319591" y="125.799442" style="stroke: #000000"/>
     <use xlink:href="#m44a3e717c7" x="596.239964" y="82.78435" style="stroke: #000000"/>
     <use xlink:href="#m44a3e717c7" x="599.257683" y="60.220786" style="stroke: #000000"/>
     <use xlink:href="#m44a3e717c7" x="602.275402" y="134.564383" style="stroke: #000000"/>
     <use xlink:href="#m44a3e717c7" x="605.195775" y="160.119994" style="stroke: #000000"/>
     <use xlink:href="#m44a3e717c7" x="608.213494" y="170.433761" style="stroke: #000000"/>
     <use xlink:href="#m44a3e717c7" x="611.133867" y="154.87511" style="stroke: #000000"/>
     <use xlink:href="#m44a3e717c7" x="614.151586" y="166.984105" style="stroke: #000000"/>
     <use xlink:href="#m44a3e717c7" x="617.169305" y="168.286526" style="stroke: #000000"/>
     <use xlink:href="#m44a3e717c7" x="619.894987" y="175.608244" style="stroke: #000000"/>
     <use xlink:href="#m44a3e717c7" x="622.912706" y="148.081401" style="stroke: #000000"/>
     <use xlink:href="#m44a3e717c7" x="625.833079" y="156.811141" style="stroke: #000000"/>
     <use xlink:href="#m44a3e717c7" x="628.850798" y="134.881188" style="stroke: #000000"/>
     <use xlink:href="#m44a3e717c7" x="631.771171" y="64.304052" style="stroke: #000000"/>
     <use xlink:href="#m44a3e717c7" x="634.78889" y="46.633368" style="stroke: #000000"/>
     <use xlink:href="#m44a3e717c7" x="637.806609" y="110.275992" style="stroke: #000000"/>
     <use xlink:href="#m44a3e717c7" x="640.726983" y="140.266875" style="stroke: #000000"/>
     <use xlink:href="#m44a3e717c7" x="643.744702" y="146.919782" style="stroke: #000000"/>
    </g>
   </g>
   <g id="line2d_32">
    <path d="M 80.794091 152.906819 
L 83.81181 163.938042 
L 86.634837 148.008875 
L 89.652556 173.733163 
L 92.57293 173.704729 
L 95.590649 163.737948 
L 98.511022 81.658004 
L 101.528741 59.762369 
L 104.54646 121.214235 
L 107.466833 153.430424 
L 110.484552 166.075517 
L 113.404925 162.524956 
L 116.422644 161.702328 
L 119.440363 162.704266 
L 122.166045 161.386211 
L 125.183764 174.488109 
L 128.104137 176.54993 
L 131.121856 163.457461 
L 134.042229 92.069141 
L 137.059948 69.739672 
L 140.077667 127.439045 
L 142.99804 158.590404 
L 146.015759 168.885598 
L 148.936133 164.845382 
L 151.953852 166.033798 
L 154.971571 170.381715 
L 157.697252 174.625057 
L 160.714971 175.04354 
L 163.635345 179.367497 
L 166.653064 163.305052 
L 169.573437 102.662967 
L 172.591156 79.70508 
L 175.608875 133.553919 
L 178.529248 163.636012 
L 181.546967 171.62117 
L 184.46734 167.208817 
L 187.485059 170.487459 
L 190.502778 178.170242 
L 193.22846 187.680461 
L 196.246179 175.357355 
L 199.166552 182.10767 
L 202.184271 163.22134 
L 205.104644 113.357668 
L 208.122363 89.569476 
L 211.140082 139.46873 
L 214.060455 168.475901 
L 217.078174 174.189018 
L 219.998548 169.517265 
L 223.016267 174.956169 
L 226.033986 185.968098 
L 228.857013 170.020882 
L 231.874732 195.725875 
L 234.795105 195.67877 
L 237.812824 185.692695 
L 240.733197 103.594079 
L 243.750916 81.548541 
L 246.768635 142.850503 
L 249.689009 174.921624 
L 252.706728 187.416814 
L 255.627101 183.721185 
L 258.64482 182.748653 
L 261.662539 183.498026 
L 264.388221 181.951848 
L 267.40594 194.801181 
L 270.326313 196.618584 
L 273.344032 183.27355 
L 276.264405 111.640812 
L 279.282124 88.951505 
L 282.299843 146.29104 
L 285.220216 177.094168 
L 288.237935 187.029524 
L 291.158308 182.641077 
L 294.176027 183.469655 
L 297.193746 187.371239 
L 299.919428 191.211442 
L 302.937147 191.183592 
L 305.85752 195.075614 
L 308.875239 178.566836 
L 311.795612 117.492816 
L 314.813331 94.091449 
L 317.83105 147.493737 
L 320.751424 177.143684 
L 323.769143 184.682291 
L 326.689516 179.837793 
L 329.707235 182.669884 
L 332.724954 189.913461 
L 335.450636 199.025623 
L 338.468355 186.261811 
L 341.388728 192.585635 
L 344.406447 173.258598 
L 347.32682 122.968437 
L 350.344539 98.743296 
L 353.362258 148.205315 
L 356.282631 176.789355 
L 359.30035 182.065237 
L 362.220723 176.970353 
L 365.238442 181.972022 
L 368.256161 192.552057 
L 371.079189 176.20081 
L 374.096908 201.473909 
L 377.017281 201.008841 
L 380.035 190.590871 
L 382.955373 108.074293 
L 385.973092 85.72747 
L 388.990811 146.728146 
L 391.911184 178.507701 
L 394.928903 190.701606 
L 397.849277 186.71441 
L 400.866996 185.440593 
L 403.884715 185.991343 
L 406.610396 184.265762 
L 409.628115 196.916472 
L 412.548488 198.541659 
L 415.566207 184.998001 
L 418.486581 113.173046 
L 421.5043 90.392389 
L 424.522019 147.640573 
L 427.442392 178.355298 
L 430.460111 188.199303 
L 433.380484 183.722453 
L 436.398203 184.459681 
L 439.415922 188.356408 
L 442.141604 192.192225 
L 445.159323 192.15952 
L 448.079696 196.046842 
L 451.097415 179.533209 
L 454.017788 118.454489 
L 457.035507 95.048266 
L 460.053226 148.448769 
L 462.973599 178.096987 
L 465.991318 185.633809 
L 468.911692 180.787582 
L 471.929411 183.617887 
L 474.94713 190.859678 
L 477.672811 199.971581 
L 480.69053 187.207483 
L 483.610903 193.531031 
L 486.628622 174.203708 
L 489.548996 123.91327 
L 492.566715 99.687843 
L 495.584434 149.149862 
L 498.504807 177.733902 
L 501.522526 183.009783 
L 504.442899 177.9149 
L 507.460618 182.916568 
L 510.478337 193.496603 
L 513.301365 176.849374 
L 516.319084 201.806079 
L 519.239457 201.034823 
L 522.257176 190.300459 
L 525.177549 107.477693 
L 528.195268 84.814475 
L 531.212987 145.133841 
L 534.13336 176.254063 
L 537.151079 187.766657 
L 540.071452 183.120128 
L 543.089171 181.165001 
L 546.10689 181.034439 
L 548.832572 178.693482 
L 551.850291 190.662881 
L 554.770664 191.628734 
L 557.788383 177.403766 
L 560.708756 104.919478 
L 563.726475 81.45751 
L 566.744194 138.024384 
L 569.664568 168.079775 
L 572.682287 177.24247 
L 575.60266 172.106287 
L 578.620379 172.162204 
L 581.638098 175.377621 
L 584.363779 178.59806 
L 587.381498 177.884044 
L 590.301872 181.112033 
L 593.319591 163.917089 
L 596.239964 102.179037 
L 599.257683 78.091503 
L 602.275402 130.810695 
L 605.195775 159.799581 
L 608.213494 166.655091 
L 611.133867 161.149532 
L 614.151586 163.298526 
L 617.169305 169.859006 
L 619.894987 178.355532 
L 622.912706 164.910123 
L 625.833079 170.574338 
L 628.850798 150.565705 
L 631.771171 99.615933 
L 634.78889 74.709196 
L 637.806609 123.489903 
L 640.726983 151.414611 
L 643.744702 156.009181 
L 646.567729 138.560914 
L 649.585448 152.26965 
L 652.603167 175.336225 
L 655.426194 177.957553 
L 658.443913 151.745914 
L 661.364287 160.022327 
L 664.382006 137.356557 
L 667.302379 97.224492 
L 670.320098 71.303348 
L 673.337817 116.059339 
L 676.25819 142.92621 
L 679.275909 145.309513 
L 679.275909 145.309513 
" clip-path="url(#ped9d785ecc)" style="fill: none; stroke: #0072b2; stroke-width: 1.5; stroke-linecap: square"/>
   </g>
   <g id="patch_3">
    <path d="M 50.87 390.04 
L 50.87 10.8 
" style="fill: none; stroke: #000000; stroke-width: 0.8; stroke-linejoin: miter; stroke-linecap: square"/>
   </g>
   <g id="patch_4">
    <path d="M 709.2 390.04 
L 709.2 10.8 
" style="fill: none; stroke: #000000; stroke-width: 0.8; stroke-linejoin: miter; stroke-linecap: square"/>
   </g>
   <g id="patch_5">
    <path d="M 50.87 390.04 
L 709.2 390.04 
" style="fill: none; stroke: #000000; stroke-width: 0.8; stroke-linejoin: miter; stroke-linecap: square"/>
   </g>
   <g id="patch_6">
    <path d="M 50.87 10.8 
L 709.2 10.8 
" style="fill: none; stroke: #000000; stroke-width: 0.8; stroke-linejoin: miter; stroke-linecap: square"/>
   </g>
  </g>
 </g>
 <defs>
  <clipPath id="ped9d785ecc">
   <rect x="50.87" y="10.8" width="658.33" height="379.24"/>
  </clipPath>
 </defs>
</svg>
