<?xml version="1.0" encoding="utf-8" standalone="no"?>
<!DOCTYPE svg PUBLIC "-//W3C//DTD SVG 1.1//EN"
  "http://www.w3.org/Graphics/SVG/1.1/DTD/svg11.dtd">
<svg xmlns:xlink="http://www.w3.org/1999/xlink" width="648pt" height="432pt" viewBox="0 0 648 432" xmlns="http://www.w3.org/2000/svg" version="1.1">
 <metadata>
  <rdf:RDF xmlns:dc="http://purl.org/dc/elements/1.1/" xmlns:cc="http://creativecommons.org/ns#" xmlns:rdf="http://www.w3.org/1999/02/22-rdf-syntax-ns#">
   <cc:Work>
    <dc:type rdf:resource="http://purl.org/dc/dcmitype/StillImage"/>
    <dc:date>2024-02-20T21:18:01.150846</dc:date>
    <dc:format>image/svg+xml</dc:format>
    <dc:creator>
     <cc:Agent>
      <dc:title>Matplotlib v3.6.0, https://matplotlib.org/</dc:title>
     </cc:Agent>
    </dc:creator>
   </cc:Work>
  </rdf:RDF>
 </metadata>
 <defs>
  <style type="text/css">*{stroke-linejoin: round; stroke-linecap: butt}</style>
 </defs>
 <g id="figure_1">
  <g id="patch_1">
   <path d="M 0 432 
L 648 432 
L 648 0 
L 0 0 
z
" style="fill: #ffffff"/>
  </g>
  <g id="axes_1">
   <g id="patch_2">
    <path d="M 52.85 179.44 
L 635.013027 179.44 
L 635.013027 10.8 
L 52.85 10.8 
z
" style="fill: #ffffff"/>
   </g>
   <g id="PolyCollection_1">
    <defs>
     <path id="m5044161101" d="M 79.311956 -390.370143 
L 79.311956 -390.370143 
L 81.980533 -388.327899 
L 84.476944 -386.417413 
L 87.145521 -384.37517 
L 89.728015 -382.398805 
L 92.396592 -380.356562 
L 94.979086 -378.380197 
L 97.647664 -376.337953 
L 100.316241 -374.29571 
L 102.898735 -372.319345 
L 105.567312 -370.277102 
L 108.149806 -368.300737 
L 110.818383 -366.258494 
L 113.48696 -364.216251 
L 115.897288 -362.371644 
L 118.565865 -360.3294 
L 121.148359 -358.353036 
L 123.816937 -356.310793 
L 126.399431 -354.334428 
L 129.068008 -352.292185 
L 131.736585 -350.249942 
L 134.319079 -348.273578 
L 136.987656 -346.231335 
L 139.57015 -344.254971 
L 142.238728 -342.212728 
L 144.907305 -340.170485 
L 147.317633 -338.325878 
L 149.98621 -336.283635 
L 152.568704 -334.307271 
L 155.237281 -332.265027 
L 157.819775 -330.288663 
L 160.488352 -328.258781 
L 163.156929 -326.2289 
L 165.739424 -324.264498 
L 168.408001 -322.234616 
L 170.990495 -320.270215 
L 173.659072 -318.240333 
L 176.327649 -316.242279 
L 178.737977 -314.437585 
L 181.406554 -312.439531 
L 183.989048 -310.505931 
L 186.657625 -308.507877 
L 189.240119 -306.574276 
L 191.908697 -304.592506 
L 194.577274 -302.610735 
L 197.159768 -300.692893 
L 199.828345 -298.711122 
L 202.410839 -296.79328 
L 205.079416 -294.81151 
L 207.747994 -292.852884 
L 210.244404 -291.020621 
L 212.912982 -289.061995 
L 215.495476 -287.16655 
L 218.164053 -285.207924 
L 220.746547 -283.31248 
L 223.415124 -281.919896 
L 226.083701 -280.527312 
L 228.666195 -279.17965 
L 231.334773 -277.787066 
L 233.917267 -276.439404 
L 236.585844 -275.046821 
L 239.254421 -274.099157 
L 241.664749 -273.243203 
L 244.333326 -272.29554 
L 246.91582 -271.378446 
L 249.584397 -270.430783 
L 252.166891 -269.51369 
L 254.835469 -269.030933 
L 257.504046 -268.548175 
L 260.08654 -268.080991 
L 262.755117 -267.598234 
L 265.337611 -267.13105 
L 268.006188 -266.648293 
L 270.674765 -266.54039 
L 273.085093 -266.44293 
L 275.75367 -266.335028 
L 278.336164 -266.230606 
L 281.004742 -266.122704 
L 283.587236 -266.018282 
L 286.255813 -265.91038 
L 288.92439 -265.815782 
L 291.506884 -265.724236 
L 294.175461 -265.629639 
L 296.757955 -265.538093 
L 299.426533 -265.443495 
L 302.09511 -265.348897 
L 304.505438 -265.269326 
L 307.174015 -265.181229 
L 309.756509 -265.095973 
L 312.425086 -265.007876 
L 315.00758 -264.922621 
L 317.676157 -264.834524 
L 320.344734 -264.747666 
L 322.927228 -264.663609 
L 325.595806 -264.576751 
L 328.1783 -264.492694 
L 330.846877 -264.405836 
L 333.515454 -264.318977 
L 336.011865 -264.237723 
L 338.680442 -264.150864 
L 341.262936 -264.066808 
L 343.931513 -263.97995 
L 346.514008 -263.895893 
L 349.182585 -263.809035 
L 351.851162 -263.722177 
L 354.433656 -263.638121 
L 357.102233 -263.551263 
L 359.684727 -263.467207 
L 362.353304 -263.380349 
L 365.021882 -263.293491 
L 367.432209 -263.215039 
L 370.100787 -263.128181 
L 372.683281 -263.044125 
L 375.351858 -262.957267 
L 377.934352 -262.873211 
L 380.602929 -262.786354 
L 383.271506 -262.699496 
L 385.854 -262.61544 
L 388.522578 -262.528582 
L 391.105072 -262.444527 
L 393.773649 -262.357669 
L 396.442226 -262.270811 
L 398.852554 -262.192359 
L 401.521131 -262.105501 
L 404.103625 -262.021446 
L 406.772202 -261.934588 
L 409.354696 -261.850532 
L 412.023273 -261.763674 
L 414.691851 -261.676817 
L 417.274345 -261.592761 
L 419.942922 -261.505903 
L 422.525416 -261.421847 
L 425.193993 -261.33499 
L 427.86257 -261.248132 
L 430.272898 -261.16968 
L 432.941475 -261.082823 
L 435.523969 -260.998767 
L 438.192547 -260.911909 
L 440.775041 -260.827853 
L 443.443618 -260.740996 
L 446.112195 -260.654138 
L 448.694689 -260.570083 
L 451.363266 -260.483225 
L 453.94576 -260.39917 
L 456.614338 -260.312312 
L 459.282915 -260.225455 
L 461.779326 -261.426941 
L 464.447903 -262.711288 
L 467.030397 -263.954205 
L 469.698974 -265.238553 
L 472.281468 -266.48147 
L 474.950045 -267.765817 
L 477.618623 -270.63166 
L 480.201117 -273.405056 
L 482.869694 -276.270898 
L 485.452188 -279.044294 
L 488.120765 -281.910137 
L 490.789342 -284.77598 
L 493.19967 -287.364483 
L 495.868247 -290.230325 
L 498.450741 -293.003721 
L 501.119318 -295.869564 
L 503.701812 -298.64296 
L 506.37039 -301.508802 
L 509.038967 -304.374645 
L 511.621461 -307.148041 
L 514.290038 -310.013884 
L 516.872532 -312.78728 
L 519.541109 -315.653122 
L 522.209687 -318.518965 
L 524.620014 -321.107468 
L 527.288592 -323.973311 
L 529.871086 -326.746707 
L 532.539663 -329.612549 
L 535.122157 -332.385945 
L 537.790734 -335.251788 
L 540.459311 -338.11763 
L 543.041805 -340.891026 
L 545.710382 -343.756869 
L 548.292877 -346.530265 
L 550.961454 -349.396108 
L 553.630031 -352.26195 
L 556.040359 -354.850453 
L 558.708936 -357.716296 
L 561.29143 -360.489692 
L 563.960007 -363.355534 
L 566.542501 -366.128931 
L 569.211078 -368.994773 
L 571.879656 -371.860616 
L 574.46215 -374.634012 
L 577.130727 -377.499854 
L 579.627138 -380.180804 
L 582.295715 -382.997234 
L 584.964292 -385.755596 
L 587.460703 -388.275166 
L 590.12928 -390.920081 
L 592.711774 -393.459954 
L 595.380352 -396.104053 
L 597.962846 -398.636124 
L 600.631423 -401.269745 
L 603.3 -403.873853 
L 605.882494 -406.306056 
L 608.551071 -408.833935 
L 608.551071 -413.534545 
L 608.551071 -413.534545 
L 605.882494 -410.37744 
L 603.3 -407.222058 
L 600.631423 -404.060542 
L 597.962846 -400.91801 
L 595.380352 -397.891381 
L 592.711774 -394.830246 
L 590.12928 -391.838101 
L 587.460703 -388.809164 
L 584.964292 -386.018543 
L 582.295715 -383.053844 
L 579.627138 -380.180804 
L 577.130727 -377.499854 
L 574.46215 -374.634012 
L 571.879656 -371.860616 
L 569.211078 -368.994773 
L 566.542501 -366.128931 
L 563.960007 -363.355534 
L 561.29143 -360.489692 
L 558.708936 -357.716296 
L 556.040359 -354.850453 
L 553.630031 -352.26195 
L 550.961454 -349.396108 
L 548.292877 -346.530265 
L 545.710382 -343.756869 
L 543.041805 -340.891026 
L 540.459311 -338.11763 
L 537.790734 -335.251788 
L 535.122157 -332.385945 
L 532.539663 -329.612549 
L 529.871086 -326.746707 
L 527.288592 -323.973311 
L 524.620014 -321.107468 
L 522.209687 -318.518965 
L 519.541109 -315.653122 
L 516.872532 -312.78728 
L 514.290038 -310.013884 
L 511.621461 -307.148041 
L 509.038967 -304.374645 
L 506.37039 -301.508802 
L 503.701812 -298.64296 
L 501.119318 -295.869564 
L 498.450741 -293.003721 
L 495.868247 -290.230325 
L 493.19967 -287.364483 
L 490.789342 -284.77598 
L 488.120765 -281.910137 
L 485.452188 -279.044294 
L 482.869694 -276.270898 
L 480.201117 -273.405056 
L 477.618623 -270.63166 
L 474.950045 -267.765817 
L 472.281468 -266.48147 
L 469.698974 -265.238553 
L 467.030397 -263.954205 
L 464.447903 -262.711288 
L 461.779326 -261.426941 
L 459.282915 -260.225455 
L 456.614338 -260.312312 
L 453.94576 -260.39917 
L 451.363266 -260.483225 
L 448.694689 -260.570083 
L 446.112195 -260.654138 
L 443.443618 -260.740996 
L 440.775041 -260.827853 
L 438.192547 -260.911909 
L 435.523969 -260.998767 
L 432.941475 -261.082823 
L 430.272898 -261.16968 
L 427.86257 -261.248132 
L 425.193993 -261.33499 
L 422.525416 -261.421847 
L 419.942922 -261.505903 
L 417.274345 -261.592761 
L 414.691851 -261.676817 
L 412.023273 -261.763674 
L 409.354696 -261.850532 
L 406.772202 -261.934588 
L 404.103625 -262.021446 
L 401.521131 -262.105501 
L 398.852554 -262.192359 
L 396.442226 -262.270811 
L 393.773649 -262.357669 
L 391.105072 -262.444527 
L 388.522578 -262.528582 
L 385.854 -262.61544 
L 383.271506 -262.699496 
L 380.602929 -262.786354 
L 377.934352 -262.873211 
L 375.351858 -262.957267 
L 372.683281 -263.044125 
L 370.100787 -263.128181 
L 367.432209 -263.215039 
L 365.021882 -263.293491 
L 362.353304 -263.380349 
L 359.684727 -263.467207 
L 357.102233 -263.551263 
L 354.433656 -263.638121 
L 351.851162 -263.722177 
L 349.182585 -263.809035 
L 346.514008 -263.895893 
L 343.931513 -263.97995 
L 341.262936 -264.066808 
L 338.680442 -264.150864 
L 336.011865 -264.237723 
L 333.515454 -264.318977 
L 330.846877 -264.405836 
L 328.1783 -264.492694 
L 325.595806 -264.576751 
L 322.927228 -264.663609 
L 320.344734 -264.747666 
L 317.676157 -264.834524 
L 315.00758 -264.922621 
L 312.425086 -265.007876 
L 309.756509 -265.095973 
L 307.174015 -265.181229 
L 304.505438 -265.269326 
L 302.09511 -265.348897 
L 299.426533 -265.443495 
L 296.757955 -265.538093 
L 294.175461 -265.629639 
L 291.506884 -265.724236 
L 288.92439 -265.815782 
L 286.255813 -265.91038 
L 283.587236 -266.018282 
L 281.004742 -266.122704 
L 278.336164 -266.230606 
L 275.75367 -266.335028 
L 273.085093 -266.44293 
L 270.674765 -266.54039 
L 268.006188 -266.648293 
L 265.337611 -267.13105 
L 262.755117 -267.598234 
L 260.08654 -268.080991 
L 257.504046 -268.548175 
L 254.835469 -269.030933 
L 252.166891 -269.51369 
L 249.584397 -270.430783 
L 246.91582 -271.378446 
L 244.333326 -272.29554 
L 241.664749 -273.243203 
L 239.254421 -274.099157 
L 236.585844 -275.046821 
L 233.917267 -276.439404 
L 231.334773 -277.787066 
L 228.666195 -279.17965 
L 226.083701 -280.527312 
L 223.415124 -281.919896 
L 220.746547 -283.31248 
L 218.164053 -285.207924 
L 215.495476 -287.16655 
L 212.912982 -289.061995 
L 210.244404 -291.020621 
L 207.747994 -292.852884 
L 205.079416 -294.81151 
L 202.410839 -296.79328 
L 199.828345 -298.711122 
L 197.159768 -300.692893 
L 194.577274 -302.610735 
L 191.908697 -304.592506 
L 189.240119 -306.574276 
L 186.657625 -308.507877 
L 183.989048 -310.505931 
L 181.406554 -312.439531 
L 178.737977 -314.437585 
L 176.327649 -316.242279 
L 173.659072 -318.240333 
L 170.990495 -320.270215 
L 168.408001 -322.234616 
L 165.739424 -324.264498 
L 163.156929 -326.2289 
L 160.488352 -328.258781 
L 157.819775 -330.288663 
L 155.237281 -332.265027 
L 152.568704 -334.307271 
L 149.98621 -336.283635 
L 147.317633 -338.325878 
L 144.907305 -340.170485 
L 142.238728 -342.212728 
L 139.57015 -344.254971 
L 136.987656 -346.231335 
L 134.319079 -348.273578 
L 131.736585 -350.249942 
L 129.068008 -352.292185 
L 126.399431 -354.334428 
L 123.816937 -356.310793 
L 121.148359 -358.353036 
L 118.565865 -360.3294 
L 115.897288 -362.371644 
L 113.48696 -364.216251 
L 110.818383 -366.258494 
L 108.149806 -368.300737 
L 105.567312 -370.277102 
L 102.898735 -372.319345 
L 100.316241 -374.29571 
L 97.647664 -376.337953 
L 94.979086 -378.380197 
L 92.396592 -380.356562 
L 89.728015 -382.398805 
L 87.145521 -384.37517 
L 84.476944 -386.417413 
L 81.980533 -388.327899 
L 79.311956 -390.370143 
z
" style="stroke: #0072b2; stroke-opacity: 0.2"/>
    </defs>
    <g clip-path="url(#p77b250b683)">
     <use xlink:href="#m5044161101" x="0" y="432" style="fill: #0072b2; fill-opacity: 0.2; stroke: #0072b2; stroke-opacity: 0.2"/>
    </g>
   </g>
   <g id="matplotlib.axis_1">
    <g id="xtick_1">
     <g id="line2d_1">
      <path d="M 79.311956 179.44 
L 79.311956 10.8 
" clip-path="url(#p77b250b683)" style="fill: none; stroke: #808080; stroke-opacity: 0.2; stroke-linecap: square"/>
     </g>
     <g id="line2d_2">
      <defs>
       <path id="m17466d3e61" d="M 0 0 
L 0 3.5 
" style="stroke: #000000; stroke-width: 0.8"/>
      </defs>
      <g>
       <use xlink:href="#m17466d3e61" x="79.311956" y="179.44" style="stroke: #000000; stroke-width: 0.8"/>
      </g>
     </g>
     <g id="text_1">
      <!-- 2008 -->
      <g transform="translate(66.586956 194.038437) scale(0.1 -0.1)">
       <defs>
        <path id="DejaVuSans-32" d="M 1228 531 
L 3431 531 
L 3431 0 
L 469 0 
L 469 531 
Q 828 903 1448 1529 
Q 2069 2156 2228 2338 
Q 2531 2678 2651 2914 
Q 2772 3150 2772 3378 
Q 2772 3750 2511 3984 
Q 2250 4219 1831 4219 
Q 1534 4219 1204 4116 
Q 875 4013 500 3803 
L 500 4441 
Q 881 4594 1212 4672 
Q 1544 4750 1819 4750 
Q 2544 4750 2975 4387 
Q 3406 4025 3406 3419 
Q 3406 3131 3298 2873 
Q 3191 2616 2906 2266 
Q 2828 2175 2409 1742 
Q 1991 1309 1228 531 
z
" transform="scale(0.015625)"/>
        <path id="DejaVuSans-30" d="M 2034 4250 
Q 1547 4250 1301 3770 
Q 1056 3291 1056 2328 
Q 1056 1369 1301 889 
Q 1547 409 2034 409 
Q 2525 409 2770 889 
Q 3016 1369 3016 2328 
Q 3016 3291 2770 3770 
Q 2525 4250 2034 4250 
z
M 2034 4750 
Q 2819 4750 3233 4129 
Q 3647 3509 3647 2328 
Q 3647 1150 3233 529 
Q 2819 -91 2034 -91 
Q 1250 -91 836 529 
Q 422 1150 422 2328 
Q 422 3509 836 4129 
Q 1250 4750 2034 4750 
z
" transform="scale(0.015625)"/>
        <path id="DejaVuSans-38" d="M 2034 2216 
Q 1584 2216 1326 1975 
Q 1069 1734 1069 1313 
Q 1069 891 1326 650 
Q 1584 409 2034 409 
Q 2484 409 2743 651 
Q 3003 894 3003 1313 
Q 3003 1734 2745 1975 
Q 2488 2216 2034 2216 
z
M 1403 2484 
Q 997 2584 770 2862 
Q 544 3141 544 3541 
Q 544 4100 942 4425 
Q 1341 4750 2034 4750 
Q 2731 4750 3128 4425 
Q 3525 4100 3525 3541 
Q 3525 3141 3298 2862 
Q 3072 2584 2669 2484 
Q 3125 2378 3379 2068 
Q 3634 1759 3634 1313 
Q 3634 634 3220 271 
Q 2806 -91 2034 -91 
Q 1263 -91 848 271 
Q 434 634 434 1313 
Q 434 1759 690 2068 
Q 947 2378 1403 2484 
z
M 1172 3481 
Q 1172 3119 1398 2916 
Q 1625 2713 2034 2713 
Q 2441 2713 2670 2916 
Q 2900 3119 2900 3481 
Q 2900 3844 2670 4047 
Q 2441 4250 2034 4250 
Q 1625 4250 1398 4047 
Q 1172 3844 1172 3481 
z
" transform="scale(0.015625)"/>
       </defs>
       <use xlink:href="#DejaVuSans-32"/>
       <use xlink:href="#DejaVuSans-30" x="63.623047"/>
       <use xlink:href="#DejaVuSans-30" x="127.246094"/>
       <use xlink:href="#DejaVuSans-38" x="190.869141"/>
      </g>
     </g>
    </g>
    <g id="xtick_2">
     <g id="line2d_3">
      <path d="M 142.238728 179.44 
L 142.238728 10.8 
" clip-path="url(#p77b250b683)" style="fill: none; stroke: #808080; stroke-opacity: 0.2; stroke-linecap: square"/>
     </g>
     <g id="line2d_4">
      <g>
       <use xlink:href="#m17466d3e61" x="142.238728" y="179.44" style="stroke: #000000; stroke-width: 0.8"/>
      </g>
     </g>
     <g id="text_2">
      <!-- 2010 -->
      <g transform="translate(129.513728 194.038437) scale(0.1 -0.1)">
       <defs>
        <path id="DejaVuSans-31" d="M 794 531 
L 1825 531 
L 1825 4091 
L 703 3866 
L 703 4441 
L 1819 4666 
L 2450 4666 
L 2450 531 
L 3481 531 
L 3481 0 
L 794 0 
L 794 531 
z
" transform="scale(0.015625)"/>
       </defs>
       <use xlink:href="#DejaVuSans-32"/>
       <use xlink:href="#DejaVuSans-30" x="63.623047"/>
       <use xlink:href="#DejaVuSans-31" x="127.246094"/>
       <use xlink:href="#DejaVuSans-30" x="190.869141"/>
      </g>
     </g>
    </g>
    <g id="xtick_3">
     <g id="line2d_5">
      <path d="M 205.079416 179.44 
L 205.079416 10.8 
" clip-path="url(#p77b250b683)" style="fill: none; stroke: #808080; stroke-opacity: 0.2; stroke-linecap: square"/>
     </g>
     <g id="line2d_6">
      <g>
       <use xlink:href="#m17466d3e61" x="205.079416" y="179.44" style="stroke: #000000; stroke-width: 0.8"/>
      </g>
     </g>
     <g id="text_3">
      <!-- 2012 -->
      <g transform="translate(192.354416 194.038437) scale(0.1 -0.1)">
       <use xlink:href="#DejaVuSans-32"/>
       <use xlink:href="#DejaVuSans-30" x="63.623047"/>
       <use xlink:href="#DejaVuSans-31" x="127.246094"/>
       <use xlink:href="#DejaVuSans-32" x="190.869141"/>
      </g>
     </g>
    </g>
    <g id="xtick_4">
     <g id="line2d_7">
      <path d="M 268.006188 179.44 
L 268.006188 10.8 
" clip-path="url(#p77b250b683)" style="fill: none; stroke: #808080; stroke-opacity: 0.2; stroke-linecap: square"/>
     </g>
     <g id="line2d_8">
      <g>
       <use xlink:href="#m17466d3e61" x="268.006188" y="179.44" style="stroke: #000000; stroke-width: 0.8"/>
      </g>
     </g>
     <g id="text_4">
      <!-- 2014 -->
      <g transform="translate(255.281188 194.038437) scale(0.1 -0.1)">
       <defs>
        <path id="DejaVuSans-34" d="M 2419 4116 
L 825 1625 
L 2419 1625 
L 2419 4116 
z
M 2253 4666 
L 3047 4666 
L 3047 1625 
L 3713 1625 
L 3713 1100 
L 3047 1100 
L 3047 0 
L 2419 0 
L 2419 1100 
L 313 1100 
L 313 1709 
L 2253 4666 
z
" transform="scale(0.015625)"/>
       </defs>
       <use xlink:href="#DejaVuSans-32"/>
       <use xlink:href="#DejaVuSans-30" x="63.623047"/>
       <use xlink:href="#DejaVuSans-31" x="127.246094"/>
       <use xlink:href="#DejaVuSans-34" x="190.869141"/>
      </g>
     </g>
    </g>
    <g id="xtick_5">
     <g id="line2d_9">
      <path d="M 330.846877 179.44 
L 330.846877 10.8 
" clip-path="url(#p77b250b683)" style="fill: none; stroke: #808080; stroke-opacity: 0.2; stroke-linecap: square"/>
     </g>
     <g id="line2d_10">
      <g>
       <use xlink:href="#m17466d3e61" x="330.846877" y="179.44" style="stroke: #000000; stroke-width: 0.8"/>
      </g>
     </g>
     <g id="text_5">
      <!-- 2016 -->
      <g transform="translate(318.121877 194.038437) scale(0.1 -0.1)">
       <defs>
        <path id="DejaVuSans-36" d="M 2113 2584 
Q 1688 2584 1439 2293 
Q 1191 2003 1191 1497 
Q 1191 994 1439 701 
Q 1688 409 2113 409 
Q 2538 409 2786 701 
Q 3034 994 3034 1497 
Q 3034 2003 2786 2293 
Q 2538 2584 2113 2584 
z
M 3366 4563 
L 3366 3988 
Q 3128 4100 2886 4159 
Q 2644 4219 2406 4219 
Q 1781 4219 1451 3797 
Q 1122 3375 1075 2522 
Q 1259 2794 1537 2939 
Q 1816 3084 2150 3084 
Q 2853 3084 3261 2657 
Q 3669 2231 3669 1497 
Q 3669 778 3244 343 
Q 2819 -91 2113 -91 
Q 1303 -91 875 529 
Q 447 1150 447 2328 
Q 447 3434 972 4092 
Q 1497 4750 2381 4750 
Q 2619 4750 2861 4703 
Q 3103 4656 3366 4563 
z
" transform="scale(0.015625)"/>
       </defs>
       <use xlink:href="#DejaVuSans-32"/>
       <use xlink:href="#DejaVuSans-30" x="63.623047"/>
       <use xlink:href="#DejaVuSans-31" x="127.246094"/>
       <use xlink:href="#DejaVuSans-36" x="190.869141"/>
      </g>
     </g>
    </g>
    <g id="xtick_6">
     <g id="line2d_11">
      <path d="M 393.773649 179.44 
L 393.773649 10.8 
" clip-path="url(#p77b250b683)" style="fill: none; stroke: #808080; stroke-opacity: 0.2; stroke-linecap: square"/>
     </g>
     <g id="line2d_12">
      <g>
       <use xlink:href="#m17466d3e61" x="393.773649" y="179.44" style="stroke: #000000; stroke-width: 0.8"/>
      </g>
     </g>
     <g id="text_6">
      <!-- 2018 -->
      <g transform="translate(381.048649 194.038437) scale(0.1 -0.1)">
       <use xlink:href="#DejaVuSans-32"/>
       <use xlink:href="#DejaVuSans-30" x="63.623047"/>
       <use xlink:href="#DejaVuSans-31" x="127.246094"/>
       <use xlink:href="#DejaVuSans-38" x="190.869141"/>
      </g>
     </g>
    </g>
    <g id="xtick_7">
     <g id="line2d_13">
      <path d="M 456.614338 179.44 
L 456.614338 10.8 
" clip-path="url(#p77b250b683)" style="fill: none; stroke: #808080; stroke-opacity: 0.2; stroke-linecap: square"/>
     </g>
     <g id="line2d_14">
      <g>
       <use xlink:href="#m17466d3e61" x="456.614338" y="179.44" style="stroke: #000000; stroke-width: 0.8"/>
      </g>
     </g>
     <g id="text_7">
      <!-- 2020 -->
      <g transform="translate(443.889338 194.038437) scale(0.1 -0.1)">
       <use xlink:href="#DejaVuSans-32"/>
       <use xlink:href="#DejaVuSans-30" x="63.623047"/>
       <use xlink:href="#DejaVuSans-32" x="127.246094"/>
       <use xlink:href="#DejaVuSans-30" x="190.869141"/>
      </g>
     </g>
    </g>
    <g id="xtick_8">
     <g id="line2d_15">
      <path d="M 519.541109 179.44 
L 519.541109 10.8 
" clip-path="url(#p77b250b683)" style="fill: none; stroke: #808080; stroke-opacity: 0.2; stroke-linecap: square"/>
     </g>
     <g id="line2d_16">
      <g>
       <use xlink:href="#m17466d3e61" x="519.541109" y="179.44" style="stroke: #000000; stroke-width: 0.8"/>
      </g>
     </g>
     <g id="text_8">
      <!-- 2022 -->
      <g transform="translate(506.816109 194.038437) scale(0.1 -0.1)">
       <use xlink:href="#DejaVuSans-32"/>
       <use xlink:href="#DejaVuSans-30" x="63.623047"/>
       <use xlink:href="#DejaVuSans-32" x="127.246094"/>
       <use xlink:href="#DejaVuSans-32" x="190.869141"/>
      </g>
     </g>
    </g>
    <g id="xtick_9">
     <g id="line2d_17">
      <path d="M 582.381798 179.44 
L 582.381798 10.8 
" clip-path="url(#p77b250b683)" style="fill: none; stroke: #808080; stroke-opacity: 0.2; stroke-linecap: square"/>
     </g>
     <g id="line2d_18">
      <g>
       <use xlink:href="#m17466d3e61" x="582.381798" y="179.44" style="stroke: #000000; stroke-width: 0.8"/>
      </g>
     </g>
     <g id="text_9">
      <!-- 2024 -->
      <g transform="translate(569.656798 194.038437) scale(0.1 -0.1)">
       <use xlink:href="#DejaVuSans-32"/>
       <use xlink:href="#DejaVuSans-30" x="63.623047"/>
       <use xlink:href="#DejaVuSans-32" x="127.246094"/>
       <use xlink:href="#DejaVuSans-34" x="190.869141"/>
      </g>
     </g>
    </g>
    <g id="text_10">
     <!-- ds -->
     <g transform="translate(338.152607 207.716562) scale(0.1 -0.1)">
      <defs>
       <path id="DejaVuSans-64" d="M 2906 2969 
L 2906 4863 
L 3481 4863 
L 3481 0 
L 2906 0 
L 2906 525 
Q 2725 213 2448 61 
Q 2172 -91 1784 -91 
Q 1150 -91 751 415 
Q 353 922 353 1747 
Q 353 2572 751 3078 
Q 1150 3584 1784 3584 
Q 2172 3584 2448 3432 
Q 2725 3281 2906 2969 
z
M 947 1747 
Q 947 1113 1208 752 
Q 1469 391 1925 391 
Q 2381 391 2643 752 
Q 2906 1113 2906 1747 
Q 2906 2381 2643 2742 
Q 2381 3103 1925 3103 
Q 1469 3103 1208 2742 
Q 947 2381 947 1747 
z
" transform="scale(0.015625)"/>
       <path id="DejaVuSans-73" d="M 2834 3397 
L 2834 2853 
Q 2591 2978 2328 3040 
Q 2066 3103 1784 3103 
Q 1356 3103 1142 2972 
Q 928 2841 928 2578 
Q 928 2378 1081 2264 
Q 1234 2150 1697 2047 
L 1894 2003 
Q 2506 1872 2764 1633 
Q 3022 1394 3022 966 
Q 3022 478 2636 193 
Q 2250 -91 1575 -91 
Q 1294 -91 989 -36 
Q 684 19 347 128 
L 347 722 
Q 666 556 975 473 
Q 1284 391 1588 391 
Q 1994 391 2212 530 
Q 2431 669 2431 922 
Q 2431 1156 2273 1281 
Q 2116 1406 1581 1522 
L 1381 1569 
Q 847 1681 609 1914 
Q 372 2147 372 2553 
Q 372 3047 722 3315 
Q 1072 3584 1716 3584 
Q 2034 3584 2315 3537 
Q 2597 3491 2834 3397 
z
" transform="scale(0.015625)"/>
      </defs>
      <use xlink:href="#DejaVuSans-64"/>
      <use xlink:href="#DejaVuSans-73" x="63.476562"/>
     </g>
    </g>
   </g>
   <g id="matplotlib.axis_2">
    <g id="ytick_1">
     <g id="line2d_19">
      <path d="M 52.85 171.144573 
L 635.013027 171.144573 
" clip-path="url(#p77b250b683)" style="fill: none; stroke: #808080; stroke-opacity: 0.2; stroke-linecap: square"/>
     </g>
     <g id="line2d_20">
      <defs>
       <path id="m5579308285" d="M 0 0 
L -3.5 0 
" style="stroke: #000000; stroke-width: 0.8"/>
      </defs>
      <g>
       <use xlink:href="#m5579308285" x="52.85" y="171.144573" style="stroke: #000000; stroke-width: 0.8"/>
      </g>
     </g>
     <g id="text_11">
      <!-- 58 -->
      <g transform="translate(33.125 174.943792) scale(0.1 -0.1)">
       <defs>
        <path id="DejaVuSans-35" d="M 691 4666 
L 3169 4666 
L 3169 4134 
L 1269 4134 
L 1269 2991 
Q 1406 3038 1543 3061 
Q 1681 3084 1819 3084 
Q 2600 3084 3056 2656 
Q 3513 2228 3513 1497 
Q 3513 744 3044 326 
Q 2575 -91 1722 -91 
Q 1428 -91 1123 -41 
Q 819 9 494 109 
L 494 744 
Q 775 591 1075 516 
Q 1375 441 1709 441 
Q 2250 441 2565 725 
Q 2881 1009 2881 1497 
Q 2881 1984 2565 2268 
Q 2250 2553 1709 2553 
Q 1456 2553 1204 2497 
Q 953 2441 691 2322 
L 691 4666 
z
" transform="scale(0.015625)"/>
       </defs>
       <use xlink:href="#DejaVuSans-35"/>
       <use xlink:href="#DejaVuSans-38" x="63.623047"/>
      </g>
     </g>
    </g>
    <g id="ytick_2">
     <g id="line2d_21">
      <path d="M 52.85 140.633759 
L 635.013027 140.633759 
" clip-path="url(#p77b250b683)" style="fill: none; stroke: #808080; stroke-opacity: 0.2; stroke-linecap: square"/>
     </g>
     <g id="line2d_22">
      <g>
       <use xlink:href="#m5579308285" x="52.85" y="140.633759" style="stroke: #000000; stroke-width: 0.8"/>
      </g>
     </g>
     <g id="text_12">
      <!-- 60 -->
      <g transform="translate(33.125 144.432978) scale(0.1 -0.1)">
       <use xlink:href="#DejaVuSans-36"/>
       <use xlink:href="#DejaVuSans-30" x="63.623047"/>
      </g>
     </g>
    </g>
    <g id="ytick_3">
     <g id="line2d_23">
      <path d="M 52.85 110.122946 
L 635.013027 110.122946 
" clip-path="url(#p77b250b683)" style="fill: none; stroke: #808080; stroke-opacity: 0.2; stroke-linecap: square"/>
     </g>
     <g id="line2d_24">
      <g>
       <use xlink:href="#m5579308285" x="52.85" y="110.122946" style="stroke: #000000; stroke-width: 0.8"/>
      </g>
     </g>
     <g id="text_13">
      <!-- 62 -->
      <g transform="translate(33.125 113.922164) scale(0.1 -0.1)">
       <use xlink:href="#DejaVuSans-36"/>
       <use xlink:href="#DejaVuSans-32" x="63.623047"/>
      </g>
     </g>
    </g>
    <g id="ytick_4">
     <g id="line2d_25">
      <path d="M 52.85 79.612132 
L 635.013027 79.612132 
" clip-path="url(#p77b250b683)" style="fill: none; stroke: #808080; stroke-opacity: 0.2; stroke-linecap: square"/>
     </g>
     <g id="line2d_26">
      <g>
       <use xlink:href="#m5579308285" x="52.85" y="79.612132" style="stroke: #000000; stroke-width: 0.8"/>
      </g>
     </g>
     <g id="text_14">
      <!-- 64 -->
      <g transform="translate(33.125 83.411351) scale(0.1 -0.1)">
       <use xlink:href="#DejaVuSans-36"/>
       <use xlink:href="#DejaVuSans-34" x="63.623047"/>
      </g>
     </g>
    </g>
    <g id="ytick_5">
     <g id="line2d_27">
      <path d="M 52.85 49.101318 
L 635.013027 49.101318 
" clip-path="url(#p77b250b683)" style="fill: none; stroke: #808080; stroke-opacity: 0.2; stroke-linecap: square"/>
     </g>
     <g id="line2d_28">
      <g>
       <use xlink:href="#m5579308285" x="52.85" y="49.101318" style="stroke: #000000; stroke-width: 0.8"/>
      </g>
     </g>
     <g id="text_15">
      <!-- 66 -->
      <g transform="translate(33.125 52.900537) scale(0.1 -0.1)">
       <use xlink:href="#DejaVuSans-36"/>
       <use xlink:href="#DejaVuSans-36" x="63.623047"/>
      </g>
     </g>
    </g>
    <g id="ytick_6">
     <g id="line2d_29">
      <path d="M 52.85 18.590504 
L 635.013027 18.590504 
" clip-path="url(#p77b250b683)" style="fill: none; stroke: #808080; stroke-opacity: 0.2; stroke-linecap: square"/>
     </g>
     <g id="line2d_30">
      <g>
       <use xlink:href="#m5579308285" x="52.85" y="18.590504" style="stroke: #000000; stroke-width: 0.8"/>
      </g>
     </g>
     <g id="text_16">
      <!-- 68 -->
      <g transform="translate(33.125 22.389723) scale(0.1 -0.1)">
       <use xlink:href="#DejaVuSans-36"/>
       <use xlink:href="#DejaVuSans-38" x="63.623047"/>
      </g>
     </g>
    </g>
    <g id="text_17">
     <!-- trend -->
     <g transform="translate(27.045313 108.442656) rotate(-90) scale(0.1 -0.1)">
      <defs>
       <path id="DejaVuSans-74" d="M 1172 4494 
L 1172 3500 
L 2356 3500 
L 2356 3053 
L 1172 3053 
L 1172 1153 
Q 1172 725 1289 603 
Q 1406 481 1766 481 
L 2356 481 
L 2356 0 
L 1766 0 
Q 1100 0 847 248 
Q 594 497 594 1153 
L 594 3053 
L 172 3053 
L 172 3500 
L 594 3500 
L 594 4494 
L 1172 4494 
z
" transform="scale(0.015625)"/>
       <path id="DejaVuSans-72" d="M 2631 2963 
Q 2534 3019 2420 3045 
Q 2306 3072 2169 3072 
Q 1681 3072 1420 2755 
Q 1159 2438 1159 1844 
L 1159 0 
L 581 0 
L 581 3500 
L 1159 3500 
L 1159 2956 
Q 1341 3275 1631 3429 
Q 1922 3584 2338 3584 
Q 2397 3584 2469 3576 
Q 2541 3569 2628 3553 
L 2631 2963 
z
" transform="scale(0.015625)"/>
       <path id="DejaVuSans-65" d="M 3597 1894 
L 3597 1613 
L 953 1613 
Q 991 1019 1311 708 
Q 1631 397 2203 397 
Q 2534 397 2845 478 
Q 3156 559 3463 722 
L 3463 178 
Q 3153 47 2828 -22 
Q 2503 -91 2169 -91 
Q 1331 -91 842 396 
Q 353 884 353 1716 
Q 353 2575 817 3079 
Q 1281 3584 2069 3584 
Q 2775 3584 3186 3129 
Q 3597 2675 3597 1894 
z
M 3022 2063 
Q 3016 2534 2758 2815 
Q 2500 3097 2075 3097 
Q 1594 3097 1305 2825 
Q 1016 2553 972 2059 
L 3022 2063 
z
" transform="scale(0.015625)"/>
       <path id="DejaVuSans-6e" d="M 3513 2113 
L 3513 0 
L 2938 0 
L 2938 2094 
Q 2938 2591 2744 2837 
Q 2550 3084 2163 3084 
Q 1697 3084 1428 2787 
Q 1159 2491 1159 1978 
L 1159 0 
L 581 0 
L 581 3500 
L 1159 3500 
L 1159 2956 
Q 1366 3272 1645 3428 
Q 1925 3584 2291 3584 
Q 2894 3584 3203 3211 
Q 3513 2838 3513 2113 
z
" transform="scale(0.015625)"/>
      </defs>
      <use xlink:href="#DejaVuSans-74"/>
      <use xlink:href="#DejaVuSans-72" x="39.208984"/>
      <use xlink:href="#DejaVuSans-65" x="78.072266"/>
      <use xlink:href="#DejaVuSans-6e" x="139.595703"/>
      <use xlink:href="#DejaVuSans-64" x="202.974609"/>
     </g>
    </g>
   </g>
   <g id="line2d_31">
    <path d="M 79.311956 41.629857 
L 176.327649 115.757721 
L 207.747994 139.147116 
L 220.746547 148.68752 
L 236.585844 156.953179 
L 252.166891 162.48631 
L 268.006188 165.351707 
L 304.505438 166.730674 
L 459.282915 171.774545 
L 474.950045 164.234183 
L 608.551071 20.75716 
L 608.551071 20.75716 
" clip-path="url(#p77b250b683)" style="fill: none; stroke: #0072b2; stroke-width: 1.5; stroke-linecap: square"/>
   </g>
   <g id="patch_3">
    <path d="M 52.85 179.44 
L 52.85 10.8 
" style="fill: none; stroke: #000000; stroke-width: 0.8; stroke-linejoin: miter; stroke-linecap: square"/>
   </g>
   <g id="patch_4">
    <path d="M 635.013027 179.44 
L 635.013027 10.8 
" style="fill: none; stroke: #000000; stroke-width: 0.8; stroke-linejoin: miter; stroke-linecap: square"/>
   </g>
   <g id="patch_5">
    <path d="M 52.85 179.44 
L 635.013027 179.44 
" style="fill: none; stroke: #000000; stroke-width: 0.8; stroke-linejoin: miter; stroke-linecap: square"/>
   </g>
   <g id="patch_6">
    <path d="M 52.85 10.8 
L 635.013027 10.8 
" style="fill: none; stroke: #000000; stroke-width: 0.8; stroke-linejoin: miter; stroke-linecap: square"/>
   </g>
  </g>
  <g id="axes_2">
   <g id="patch_7">
    <path d="M 52.85 390.04 
L 635.013027 390.04 
L 635.013027 221.4 
L 52.85 221.4 
z
" style="fill: #ffffff"/>
   </g>
   <g id="PolyCollection_2">
    <defs>
     <path id="md72e5f9245" d="M 79.311956 -114.947495 
L 79.311956 -114.947495 
L 80.765909 -113.431452 
L 82.219863 -111.416489 
L 83.673817 -108.95424 
L 85.12777 -106.110774 
L 86.581724 -102.964694 
L 88.035677 -99.604848 
L 89.489631 -96.127709 
L 90.943585 -92.634497 
L 92.397538 -89.228134 
L 93.851492 -86.010122 
L 95.305446 -83.077438 
L 96.759399 -80.519527 
L 98.213353 -78.415516 
L 99.667306 -76.831695 
L 101.12126 -75.819375 
L 102.575214 -75.413178 
L 104.029167 -75.629815 
L 105.483121 -76.467397 
L 106.937074 -77.905298 
L 108.391028 -79.904594 
L 109.844982 -82.409052 
L 111.298935 -85.346665 
L 112.752889 -88.631673 
L 114.206843 -92.167032 
L 115.660796 -95.84725 
L 117.11475 -99.56152 
L 118.568703 -103.19705 
L 120.022657 -106.6425 
L 121.476611 -109.79142 
L 122.930564 -112.545595 
L 124.384518 -114.818186 
L 125.838471 -116.536582 
L 127.292425 -117.644869 
L 128.746379 -118.10584 
L 130.200332 -117.90248 
L 131.654286 -117.038881 
L 133.108239 -115.540548 
L 134.562193 -113.454077 
L 136.016147 -110.846214 
L 137.4701 -107.802311 
L 138.924054 -104.424209 
L 140.378008 -100.827618 
L 141.831961 -97.139041 
L 143.285915 -93.492349 
L 144.739868 -90.025078 
L 146.193822 -86.874567 
L 147.647776 -84.174037 
L 149.101729 -82.04872 
L 150.555683 -80.612155 
L 152.009636 -79.96275 
L 153.46359 -80.180719 
L 154.917544 -81.325469 
L 156.371497 -83.433534 
L 157.825451 -86.517101 
L 159.279405 -90.563187 
L 160.733358 -95.533494 
L 162.187312 -101.364945 
L 163.641265 -107.970905 
L 165.095219 -115.24304 
L 166.549173 -123.053796 
L 168.003126 -131.259398 
L 169.45708 -139.703331 
L 170.911033 -148.22017 
L 172.364987 -156.639694 
L 173.818941 -164.791146 
L 175.272894 -172.507534 
L 176.726848 -179.629863 
L 178.180802 -186.011169 
L 179.634755 -191.520255 
L 181.088709 -196.045026 
L 182.542662 -199.495325 
L 183.996616 -201.805201 
L 185.45057 -202.934545 
L 186.904523 -202.870047 
L 188.358477 -201.625446 
L 189.81243 -199.241079 
L 191.266384 -195.782732 
L 192.720338 -191.339819 
L 194.174291 -186.022965 
L 195.628245 -179.961031 
L 197.082198 -173.297691 
L 198.536152 -166.187628 
L 199.990106 -158.79249 
L 201.444059 -151.276677 
L 202.898013 -143.803114 
L 204.351967 -136.529097 
L 205.80592 -129.602346 
L 207.259874 -123.157353 
L 208.713827 -117.312146 
L 210.167781 -112.165534 
L 211.621735 -107.794919 
L 213.075688 -104.254729 
L 214.529642 -101.575501 
L 215.983595 -99.763646 
L 217.437549 -98.801892 
L 218.891503 -98.650373 
L 220.345456 -99.24835 
L 221.79941 -100.51649 
L 223.253364 -102.359633 
L 224.707317 -104.669979 
L 226.161271 -107.330572 
L 227.615224 -110.219003 
L 229.069178 -113.211205 
L 230.523132 -116.185238 
L 231.977085 -119.024944 
L 233.431039 -121.623375 
L 234.884992 -123.885894 
L 236.338946 -125.732848 
L 237.7929 -127.101757 
L 239.246853 -127.948944 
L 240.700807 -128.250563 
L 242.154761 -128.003004 
L 243.608714 -127.22267 
L 245.062668 -125.94512 
L 246.516621 -124.223634 
L 247.970575 -122.127222 
L 249.424529 -119.738157 
L 250.878482 -117.149102 
L 252.332436 -114.459922 
L 253.786389 -111.774277 
L 255.240343 -109.19611 
L 256.694297 -106.826117 
L 258.14825 -104.75834 
L 259.602204 -103.076945 
L 261.056157 -101.853329 
L 262.510111 -101.143604 
L 263.964065 -100.986566 
L 265.418018 -101.402194 
L 266.871972 -102.390736 
L 268.325926 -103.932401 
L 269.779879 -105.987685 
L 271.233833 -108.498309 
L 272.687786 -111.388749 
L 274.14174 -114.568318 
L 275.595694 -117.933731 
L 277.049647 -121.372099 
L 278.503601 -124.764232 
L 279.957554 -127.988193 
L 281.411508 -130.922965 
L 282.865462 -133.452145 
L 284.319415 -135.467548 
L 285.773369 -136.87261 
L 287.227323 -137.585501 
L 288.681276 -137.541835 
L 290.13523 -136.69692 
L 291.589183 -135.027452 
L 293.043137 -132.532622 
L 294.497091 -129.234591 
L 295.951044 -125.178307 
L 297.404998 -120.430679 
L 298.858951 -115.07912 
L 300.312905 -109.229494 
L 301.766859 -103.003527 
L 303.220812 -96.535749 
L 304.674766 -89.970052 
L 306.12872 -83.455957 
L 307.582673 -77.1447 
L 309.036627 -71.185237 
L 310.49058 -65.720285 
L 311.944534 -60.882513 
L 313.398488 -56.790979 
L 314.852441 -53.547923 
L 316.306395 -51.236006 
L 317.760348 -49.916065 
L 319.214302 -49.625455 
L 320.668256 -50.377013 
L 322.122209 -52.158697 
L 323.576163 -54.933878 
L 325.030117 -58.642302 
L 326.48407 -63.201689 
L 327.938024 -68.50991 
L 329.391977 -74.447707 
L 330.845931 -80.881854 
L 332.299885 -87.66869 
L 333.753838 -94.657913 
L 335.207792 -101.696536 
L 336.661745 -108.632895 
L 338.115699 -115.320599 
L 339.569653 -121.622302 
L 341.023606 -127.413216 
L 342.47756 -132.584246 
L 343.931513 -137.044677 
L 345.385467 -140.724342 
L 346.839421 -143.575199 
L 348.293374 -145.572298 
L 349.747328 -146.714101 
L 351.201282 -147.022158 
L 352.655235 -146.540147 
L 354.109189 -145.332322 
L 355.563142 -143.481402 
L 357.017096 -141.085975 
L 358.47105 -138.257492 
L 359.925003 -135.116939 
L 361.378957 -131.791287 
L 362.83291 -128.409807 
L 364.286864 -125.100385 
L 365.740818 -121.985903 
L 367.194771 -119.180825 
L 368.648725 -116.788056 
L 370.102679 -114.896169 
L 371.556632 -113.577083 
L 373.010586 -112.884237 
L 374.464539 -112.851319 
L 375.918493 -113.49158 
L 377.372447 -114.797739 
L 378.8264 -116.742473 
L 380.280354 -119.279491 
L 381.734307 -122.345125 
L 383.188261 -125.860411 
L 384.642215 -129.733582 
L 386.096168 -133.862895 
L 387.550122 -138.139715 
L 389.004076 -142.451757 
L 390.458029 -146.686388 
L 391.911983 -150.7339 
L 393.365936 -154.49065 
L 394.81989 -157.861988 
L 396.273844 -160.764878 
L 397.727797 -163.130144 
L 399.181751 -164.904289 
L 400.635704 -166.050819 
L 402.089658 -166.551059 
L 403.543612 -166.404433 
L 404.997565 -165.628204 
L 406.451519 -164.256699 
L 407.905472 -162.340039 
L 409.359426 -159.942419 
L 410.81338 -157.140004 
L 412.267333 -154.01849 
L 413.721287 -150.670429 
L 415.175241 -147.192381 
L 416.629194 -143.681998 
L 418.083148 -140.235111 
L 419.537101 -136.942921 
L 420.991055 -133.889371 
L 422.445009 -131.148778 
L 423.898962 -128.783789 
L 425.352916 -126.843728 
L 426.806869 -125.363367 
L 428.260823 -124.362167 
L 429.714777 -123.843991 
L 431.16873 -123.797312 
L 432.622684 -124.195879 
L 434.076638 -124.999839 
L 435.530591 -126.157258 
L 436.984545 -127.606004 
L 438.438498 -129.275912 
L 439.892452 -131.091181 
L 441.346406 -132.972913 
L 442.800359 -134.841715 
L 444.254313 -136.620288 
L 445.708266 -138.23592 
L 447.16222 -139.622798 
L 448.616174 -140.724086 
L 450.070127 -141.493684 
L 451.524081 -141.897638 
L 452.978035 -141.915137 
L 454.431988 -141.539087 
L 455.885942 -140.776236 
L 457.339895 -139.646854 
L 458.793849 -138.183978 
L 460.247803 -136.43225 
L 461.701756 -134.446386 
L 463.15571 -132.289326 
L 464.609663 -130.030127 
L 466.063617 -127.741666 
L 467.517571 -125.498219 
L 468.971524 -123.37301 
L 470.425478 -121.435788 
L 471.879432 -119.750525 
L 473.333385 -118.373293 
L 474.787339 -117.350405 
L 476.241292 -116.716855 
L 477.695246 -116.495134 
L 479.1492 -116.694429 
L 480.603153 -117.310257 
L 482.057107 -118.324529 
L 483.51106 -119.706048 
L 484.965014 -121.411426 
L 486.418968 -123.386387 
L 487.872921 -125.567424 
L 489.326875 -127.883748 
L 490.780828 -130.259479 
L 492.234782 -132.616 
L 493.688736 -134.874409 
L 495.142689 -136.957991 
L 496.596643 -138.794625 
L 498.050597 -140.319066 
L 499.50455 -141.475013 
L 500.958504 -142.216912 
L 502.412457 -142.511431 
L 503.866411 -142.338555 
L 505.320365 -141.692281 
L 506.774318 -140.580874 
L 508.228272 -139.026685 
L 509.682225 -137.065527 
L 511.136179 -134.745641 
L 512.590133 -132.126265 
L 514.044086 -129.27586 
L 515.49804 -126.270043 
L 516.951994 -123.189297 
L 518.405947 -120.116514 
L 519.859901 -117.134455 
L 521.313854 -114.323213 
L 522.767808 -111.757733 
L 524.221762 -109.505497 
L 525.675715 -107.62442 
L 527.129669 -106.161031 
L 528.583622 -105.149007 
L 530.037576 -104.608086 
L 531.49153 -104.543409 
L 532.945483 -104.945313 
L 534.399437 -105.789568 
L 535.853391 -107.038075 
L 537.307344 -108.639983 
L 538.761298 -110.533206 
L 540.215251 -112.646298 
L 541.669205 -114.900614 
L 543.123159 -117.212708 
L 544.577112 -119.496886 
L 546.031066 -121.667842 
L 547.485019 -123.643293 
L 548.938973 -125.346531 
L 550.392927 -126.708822 
L 551.84688 -127.671565 
L 553.300834 -128.188154 
L 554.754787 -128.225484 
L 556.208741 -127.765043 
L 557.662695 -126.803567 
L 559.116648 -125.353237 
L 560.570602 -123.441388 
L 562.024556 -121.109772 
L 563.478509 -118.41336 
L 564.932463 -115.418738 
L 566.386416 -112.202148 
L 567.84037 -108.847204 
L 569.294324 -105.442393 
L 570.748277 -102.078391 
L 572.202231 -98.845314 
L 573.656184 -95.829962 
L 575.110138 -93.113152 
L 576.564092 -90.767214 
L 578.018045 -88.853739 
L 579.471999 -87.421633 
L 580.925953 -86.505555 
L 582.379906 -86.124771 
L 583.83386 -86.282483 
L 585.287813 -86.965629 
L 586.741767 -88.145192 
L 588.195721 -89.776986 
L 589.649674 -91.802918 
L 591.103628 -94.152674 
L 592.557581 -96.745795 
L 594.011535 -99.494073 
L 595.465489 -102.304195 
L 596.919442 -105.080566 
L 598.373396 -107.72822 
L 599.82735 -110.155725 
L 601.281303 -112.278006 
L 602.735257 -114.018995 
L 604.18921 -115.314019 
L 605.643164 -116.111869 
L 607.097118 -116.376459 
L 608.551071 -116.088054 
L 608.551071 -116.088054 
L 608.551071 -116.088054 
L 607.097118 -116.376459 
L 605.643164 -116.111869 
L 604.18921 -115.314019 
L 602.735257 -114.018995 
L 601.281303 -112.278006 
L 599.82735 -110.155725 
L 598.373396 -107.72822 
L 596.919442 -105.080566 
L 595.465489 -102.304195 
L 594.011535 -99.494073 
L 592.557581 -96.745795 
L 591.103628 -94.152674 
L 589.649674 -91.802918 
L 588.195721 -89.776986 
L 586.741767 -88.145192 
L 585.287813 -86.965629 
L 583.83386 -86.282483 
L 582.379906 -86.124771 
L 580.925953 -86.505555 
L 579.471999 -87.421633 
L 578.018045 -88.853739 
L 576.564092 -90.767214 
L 575.110138 -93.113152 
L 573.656184 -95.829962 
L 572.202231 -98.845314 
L 570.748277 -102.078391 
L 569.294324 -105.442393 
L 567.84037 -108.847204 
L 566.386416 -112.202148 
L 564.932463 -115.418738 
L 563.478509 -118.41336 
L 562.024556 -121.109772 
L 560.570602 -123.441388 
L 559.116648 -125.353237 
L 557.662695 -126.803567 
L 556.208741 -127.765043 
L 554.754787 -128.225484 
L 553.300834 -128.188154 
L 551.84688 -127.671565 
L 550.392927 -126.708822 
L 548.938973 -125.346531 
L 547.485019 -123.643293 
L 546.031066 -121.667842 
L 544.577112 -119.496886 
L 543.123159 -117.212708 
L 541.669205 -114.900614 
L 540.215251 -112.646298 
L 538.761298 -110.533206 
L 537.307344 -108.639983 
L 535.853391 -107.038075 
L 534.399437 -105.789568 
L 532.945483 -104.945313 
L 531.49153 -104.543409 
L 530.037576 -104.608086 
L 528.583622 -105.149007 
L 527.129669 -106.161031 
L 525.675715 -107.62442 
L 524.221762 -109.505497 
L 522.767808 -111.757733 
L 521.313854 -114.323213 
L 519.859901 -117.134455 
L 518.405947 -120.116514 
L 516.951994 -123.189297 
L 515.49804 -126.270043 
L 514.044086 -129.27586 
L 512.590133 -132.126265 
L 511.136179 -134.745641 
L 509.682225 -137.065527 
L 508.228272 -139.026685 
L 506.774318 -140.580874 
L 505.320365 -141.692281 
L 503.866411 -142.338555 
L 502.412457 -142.511431 
L 500.958504 -142.216912 
L 499.50455 -141.475013 
L 498.050597 -140.319066 
L 496.596643 -138.794625 
L 495.142689 -136.957991 
L 493.688736 -134.874409 
L 492.234782 -132.616 
L 490.780828 -130.259479 
L 489.326875 -127.883748 
L 487.872921 -125.567424 
L 486.418968 -123.386387 
L 484.965014 -121.411426 
L 483.51106 -119.706048 
L 482.057107 -118.324529 
L 480.603153 -117.310257 
L 479.1492 -116.694429 
L 477.695246 -116.495134 
L 476.241292 -116.716855 
L 474.787339 -117.350405 
L 473.333385 -118.373293 
L 471.879432 -119.750525 
L 470.425478 -121.435788 
L 468.971524 -123.37301 
L 467.517571 -125.498219 
L 466.063617 -127.741666 
L 464.609663 -130.030127 
L 463.15571 -132.289326 
L 461.701756 -134.446386 
L 460.247803 -136.43225 
L 458.793849 -138.183978 
L 457.339895 -139.646854 
L 455.885942 -140.776236 
L 454.431988 -141.539087 
L 452.978035 -141.915137 
L 451.524081 -141.897638 
L 450.070127 -141.493684 
L 448.616174 -140.724086 
L 447.16222 -139.622798 
L 445.708266 -138.23592 
L 444.254313 -136.620288 
L 442.800359 -134.841715 
L 441.346406 -132.972913 
L 439.892452 -131.091181 
L 438.438498 -129.275912 
L 436.984545 -127.606004 
L 435.530591 -126.157258 
L 434.076638 -124.999839 
L 432.622684 -124.195879 
L 431.16873 -123.797312 
L 429.714777 -123.843991 
L 428.260823 -124.362167 
L 426.806869 -125.363367 
L 425.352916 -126.843728 
L 423.898962 -128.783789 
L 422.445009 -131.148778 
L 420.991055 -133.889371 
L 419.537101 -136.942921 
L 418.083148 -140.235111 
L 416.629194 -143.681998 
L 415.175241 -147.192381 
L 413.721287 -150.670429 
L 412.267333 -154.01849 
L 410.81338 -157.140004 
L 409.359426 -159.942419 
L 407.905472 -162.340039 
L 406.451519 -164.256699 
L 404.997565 -165.628204 
L 403.543612 -166.404433 
L 402.089658 -166.551059 
L 400.635704 -166.050819 
L 399.181751 -164.904289 
L 397.727797 -163.130144 
L 396.273844 -160.764878 
L 394.81989 -157.861988 
L 393.365936 -154.49065 
L 391.911983 -150.7339 
L 390.458029 -146.686388 
L 389.004076 -142.451757 
L 387.550122 -138.139715 
L 386.096168 -133.862895 
L 384.642215 -129.733582 
L 383.188261 -125.860411 
L 381.734307 -122.345125 
L 380.280354 -119.279491 
L 378.8264 -116.742473 
L 377.372447 -114.797739 
L 375.918493 -113.49158 
L 374.464539 -112.851319 
L 373.010586 -112.884237 
L 371.556632 -113.577083 
L 370.102679 -114.896169 
L 368.648725 -116.788056 
L 367.194771 -119.180825 
L 365.740818 -121.985903 
L 364.286864 -125.100385 
L 362.83291 -128.409807 
L 361.378957 -131.791287 
L 359.925003 -135.116939 
L 358.47105 -138.257492 
L 357.017096 -141.085975 
L 355.563142 -143.481402 
L 354.109189 -145.332322 
L 352.655235 -146.540147 
L 351.201282 -147.022158 
L 349.747328 -146.714101 
L 348.293374 -145.572298 
L 346.839421 -143.575199 
L 345.385467 -140.724342 
L 343.931513 -137.044677 
L 342.47756 -132.584246 
L 341.023606 -127.413216 
L 339.569653 -121.622302 
L 338.115699 -115.320599 
L 336.661745 -108.632895 
L 335.207792 -101.696536 
L 333.753838 -94.657913 
L 332.299885 -87.66869 
L 330.845931 -80.881854 
L 329.391977 -74.447707 
L 327.938024 -68.50991 
L 326.48407 -63.201689 
L 325.030117 -58.642302 
L 323.576163 -54.933878 
L 322.122209 -52.158697 
L 320.668256 -50.377013 
L 319.214302 -49.625455 
L 317.760348 -49.916065 
L 316.306395 -51.236006 
L 314.852441 -53.547923 
L 313.398488 -56.790979 
L 311.944534 -60.882513 
L 310.49058 -65.720285 
L 309.036627 -71.185237 
L 307.582673 -77.1447 
L 306.12872 -83.455957 
L 304.674766 -89.970052 
L 303.220812 -96.535749 
L 301.766859 -103.003527 
L 300.312905 -109.229494 
L 298.858951 -115.07912 
L 297.404998 -120.430679 
L 295.951044 -125.178307 
L 294.497091 -129.234591 
L 293.043137 -132.532622 
L 291.589183 -135.027452 
L 290.13523 -136.69692 
L 288.681276 -137.541835 
L 287.227323 -137.585501 
L 285.773369 -136.87261 
L 284.319415 -135.467548 
L 282.865462 -133.452145 
L 281.411508 -130.922965 
L 279.957554 -127.988193 
L 278.503601 -124.764232 
L 277.049647 -121.372099 
L 275.595694 -117.933731 
L 274.14174 -114.568318 
L 272.687786 -111.388749 
L 271.233833 -108.498309 
L 269.779879 -105.987685 
L 268.325926 -103.932401 
L 266.871972 -102.390736 
L 265.418018 -101.402194 
L 263.964065 -100.986566 
L 262.510111 -101.143604 
L 261.056157 -101.853329 
L 259.602204 -103.076945 
L 258.14825 -104.75834 
L 256.694297 -106.826117 
L 255.240343 -109.19611 
L 253.786389 -111.774277 
L 252.332436 -114.459922 
L 250.878482 -117.149102 
L 249.424529 -119.738157 
L 247.970575 -122.127222 
L 246.516621 -124.223634 
L 245.062668 -125.94512 
L 243.608714 -127.22267 
L 242.154761 -128.003004 
L 240.700807 -128.250563 
L 239.246853 -127.948944 
L 237.7929 -127.101757 
L 236.338946 -125.732848 
L 234.884992 -123.885894 
L 233.431039 -121.623375 
L 231.977085 -119.024944 
L 230.523132 -116.185238 
L 229.069178 -113.211205 
L 227.615224 -110.219003 
L 226.161271 -107.330572 
L 224.707317 -104.669979 
L 223.253364 -102.359633 
L 221.79941 -100.51649 
L 220.345456 -99.24835 
L 218.891503 -98.650373 
L 217.437549 -98.801892 
L 215.983595 -99.763646 
L 214.529642 -101.575501 
L 213.075688 -104.254729 
L 211.621735 -107.794919 
L 210.167781 -112.165534 
L 208.713827 -117.312146 
L 207.259874 -123.157353 
L 205.80592 -129.602346 
L 204.351967 -136.529097 
L 202.898013 -143.803114 
L 201.444059 -151.276677 
L 199.990106 -158.79249 
L 198.536152 -166.187628 
L 197.082198 -173.297691 
L 195.628245 -179.961031 
L 194.174291 -186.022965 
L 192.720338 -191.339819 
L 191.266384 -195.782732 
L 189.81243 -199.241079 
L 188.358477 -201.625446 
L 186.904523 -202.870047 
L 185.45057 -202.934545 
L 183.996616 -201.805201 
L 182.542662 -199.495325 
L 181.088709 -196.045026 
L 179.634755 -191.520255 
L 178.180802 -186.011169 
L 176.726848 -179.629863 
L 175.272894 -172.507534 
L 173.818941 -164.791146 
L 172.364987 -156.639694 
L 170.911033 -148.22017 
L 169.45708 -139.703331 
L 168.003126 -131.259398 
L 166.549173 -123.053796 
L 165.095219 -115.24304 
L 163.641265 -107.970905 
L 162.187312 -101.364945 
L 160.733358 -95.533494 
L 159.279405 -90.563187 
L 157.825451 -86.517101 
L 156.371497 -83.433534 
L 154.917544 -81.325469 
L 153.46359 -80.180719 
L 152.009636 -79.96275 
L 150.555683 -80.612155 
L 149.101729 -82.04872 
L 147.647776 -84.174037 
L 146.193822 -86.874567 
L 144.739868 -90.025078 
L 143.285915 -93.492349 
L 141.831961 -97.139041 
L 140.378008 -100.827618 
L 138.924054 -104.424209 
L 137.4701 -107.802311 
L 136.016147 -110.846214 
L 134.562193 -113.454077 
L 133.108239 -115.540548 
L 131.654286 -117.038881 
L 130.200332 -117.90248 
L 128.746379 -118.10584 
L 127.292425 -117.644869 
L 125.838471 -116.536582 
L 124.384518 -114.818186 
L 122.930564 -112.545595 
L 121.476611 -109.79142 
L 120.022657 -106.6425 
L 118.568703 -103.19705 
L 117.11475 -99.56152 
L 115.660796 -95.84725 
L 114.206843 -92.167032 
L 112.752889 -88.631673 
L 111.298935 -85.346665 
L 109.844982 -82.409052 
L 108.391028 -79.904594 
L 106.937074 -77.905298 
L 105.483121 -76.467397 
L 104.029167 -75.629815 
L 102.575214 -75.413178 
L 101.12126 -75.819375 
L 99.667306 -76.831695 
L 98.213353 -78.415516 
L 96.759399 -80.519527 
L 95.305446 -83.077438 
L 93.851492 -86.010122 
L 92.397538 -89.228134 
L 90.943585 -92.634497 
L 89.489631 -96.127709 
L 88.035677 -99.604848 
L 86.581724 -102.964694 
L 85.12777 -106.110774 
L 83.673817 -108.95424 
L 82.219863 -111.416489 
L 80.765909 -113.431452 
L 79.311956 -114.947495 
z
" style="stroke: #0072b2; stroke-opacity: 0.2"/>
    </defs>
    <g clip-path="url(#p534485bf47)">
     <use xlink:href="#md72e5f9245" x="0" y="432" style="fill: #0072b2; fill-opacity: 0.2; stroke: #0072b2; stroke-opacity: 0.2"/>
    </g>
   </g>
   <g id="matplotlib.axis_3">
    <g id="xtick_10">
     <g id="line2d_32">
      <path d="M 79.311956 390.04 
L 79.311956 221.4 
" clip-path="url(#p534485bf47)" style="fill: none; stroke: #808080; stroke-opacity: 0.2; stroke-linecap: square"/>
     </g>
     <g id="line2d_33">
      <g>
       <use xlink:href="#m17466d3e61" x="79.311956" y="390.04" style="stroke: #000000; stroke-width: 0.8"/>
      </g>
     </g>
     <g id="text_18">
      <!-- January 1 -->
      <g transform="translate(55.586175 404.638438) scale(0.1 -0.1)">
       <defs>
        <path id="DejaVuSans-4a" d="M 628 4666 
L 1259 4666 
L 1259 325 
Q 1259 -519 939 -900 
Q 619 -1281 -91 -1281 
L -331 -1281 
L -331 -750 
L -134 -750 
Q 284 -750 456 -515 
Q 628 -281 628 325 
L 628 4666 
z
" transform="scale(0.015625)"/>
        <path id="DejaVuSans-61" d="M 2194 1759 
Q 1497 1759 1228 1600 
Q 959 1441 959 1056 
Q 959 750 1161 570 
Q 1363 391 1709 391 
Q 2188 391 2477 730 
Q 2766 1069 2766 1631 
L 2766 1759 
L 2194 1759 
z
M 3341 1997 
L 3341 0 
L 2766 0 
L 2766 531 
Q 2569 213 2275 61 
Q 1981 -91 1556 -91 
Q 1019 -91 701 211 
Q 384 513 384 1019 
Q 384 1609 779 1909 
Q 1175 2209 1959 2209 
L 2766 2209 
L 2766 2266 
Q 2766 2663 2505 2880 
Q 2244 3097 1772 3097 
Q 1472 3097 1187 3025 
Q 903 2953 641 2809 
L 641 3341 
Q 956 3463 1253 3523 
Q 1550 3584 1831 3584 
Q 2591 3584 2966 3190 
Q 3341 2797 3341 1997 
z
" transform="scale(0.015625)"/>
        <path id="DejaVuSans-75" d="M 544 1381 
L 544 3500 
L 1119 3500 
L 1119 1403 
Q 1119 906 1312 657 
Q 1506 409 1894 409 
Q 2359 409 2629 706 
Q 2900 1003 2900 1516 
L 2900 3500 
L 3475 3500 
L 3475 0 
L 2900 0 
L 2900 538 
Q 2691 219 2414 64 
Q 2138 -91 1772 -91 
Q 1169 -91 856 284 
Q 544 659 544 1381 
z
M 1991 3584 
L 1991 3584 
z
" transform="scale(0.015625)"/>
        <path id="DejaVuSans-79" d="M 2059 -325 
Q 1816 -950 1584 -1140 
Q 1353 -1331 966 -1331 
L 506 -1331 
L 506 -850 
L 844 -850 
Q 1081 -850 1212 -737 
Q 1344 -625 1503 -206 
L 1606 56 
L 191 3500 
L 800 3500 
L 1894 763 
L 2988 3500 
L 3597 3500 
L 2059 -325 
z
" transform="scale(0.015625)"/>
        <path id="DejaVuSans-20" transform="scale(0.015625)"/>
       </defs>
       <use xlink:href="#DejaVuSans-4a"/>
       <use xlink:href="#DejaVuSans-61" x="29.492188"/>
       <use xlink:href="#DejaVuSans-6e" x="90.771484"/>
       <use xlink:href="#DejaVuSans-75" x="154.150391"/>
       <use xlink:href="#DejaVuSans-61" x="217.529297"/>
       <use xlink:href="#DejaVuSans-72" x="278.808594"/>
       <use xlink:href="#DejaVuSans-79" x="319.921875"/>
       <use xlink:href="#DejaVuSans-20" x="379.101562"/>
       <use xlink:href="#DejaVuSans-31" x="410.888672"/>
      </g>
     </g>
    </g>
    <g id="xtick_11">
     <g id="line2d_34">
      <path d="M 165.095219 390.04 
L 165.095219 221.4 
" clip-path="url(#p534485bf47)" style="fill: none; stroke: #808080; stroke-opacity: 0.2; stroke-linecap: square"/>
     </g>
     <g id="line2d_35">
      <g>
       <use xlink:href="#m17466d3e61" x="165.095219" y="390.04" style="stroke: #000000; stroke-width: 0.8"/>
      </g>
     </g>
     <g id="text_19">
      <!-- March 1 -->
      <g transform="translate(145.085844 404.638438) scale(0.1 -0.1)">
       <defs>
        <path id="DejaVuSans-4d" d="M 628 4666 
L 1569 4666 
L 2759 1491 
L 3956 4666 
L 4897 4666 
L 4897 0 
L 4281 0 
L 4281 4097 
L 3078 897 
L 2444 897 
L 1241 4097 
L 1241 0 
L 628 0 
L 628 4666 
z
" transform="scale(0.015625)"/>
        <path id="DejaVuSans-63" d="M 3122 3366 
L 3122 2828 
Q 2878 2963 2633 3030 
Q 2388 3097 2138 3097 
Q 1578 3097 1268 2742 
Q 959 2388 959 1747 
Q 959 1106 1268 751 
Q 1578 397 2138 397 
Q 2388 397 2633 464 
Q 2878 531 3122 666 
L 3122 134 
Q 2881 22 2623 -34 
Q 2366 -91 2075 -91 
Q 1284 -91 818 406 
Q 353 903 353 1747 
Q 353 2603 823 3093 
Q 1294 3584 2113 3584 
Q 2378 3584 2631 3529 
Q 2884 3475 3122 3366 
z
" transform="scale(0.015625)"/>
        <path id="DejaVuSans-68" d="M 3513 2113 
L 3513 0 
L 2938 0 
L 2938 2094 
Q 2938 2591 2744 2837 
Q 2550 3084 2163 3084 
Q 1697 3084 1428 2787 
Q 1159 2491 1159 1978 
L 1159 0 
L 581 0 
L 581 4863 
L 1159 4863 
L 1159 2956 
Q 1366 3272 1645 3428 
Q 1925 3584 2291 3584 
Q 2894 3584 3203 3211 
Q 3513 2838 3513 2113 
z
" transform="scale(0.015625)"/>
       </defs>
       <use xlink:href="#DejaVuSans-4d"/>
       <use xlink:href="#DejaVuSans-61" x="86.279297"/>
       <use xlink:href="#DejaVuSans-72" x="147.558594"/>
       <use xlink:href="#DejaVuSans-63" x="186.421875"/>
       <use xlink:href="#DejaVuSans-68" x="241.402344"/>
       <use xlink:href="#DejaVuSans-20" x="304.78125"/>
       <use xlink:href="#DejaVuSans-31" x="336.568359"/>
      </g>
     </g>
    </g>
    <g id="xtick_12">
     <g id="line2d_36">
      <path d="M 253.786389 390.04 
L 253.786389 221.4 
" clip-path="url(#p534485bf47)" style="fill: none; stroke: #808080; stroke-opacity: 0.2; stroke-linecap: square"/>
     </g>
     <g id="line2d_37">
      <g>
       <use xlink:href="#m17466d3e61" x="253.786389" y="390.04" style="stroke: #000000; stroke-width: 0.8"/>
      </g>
     </g>
     <g id="text_20">
      <!-- May 1 -->
      <g transform="translate(238.678577 404.638438) scale(0.1 -0.1)">
       <use xlink:href="#DejaVuSans-4d"/>
       <use xlink:href="#DejaVuSans-61" x="86.279297"/>
       <use xlink:href="#DejaVuSans-79" x="147.558594"/>
       <use xlink:href="#DejaVuSans-20" x="206.738281"/>
       <use xlink:href="#DejaVuSans-31" x="238.525391"/>
      </g>
     </g>
    </g>
    <g id="xtick_13">
     <g id="line2d_38">
      <path d="M 342.47756 390.04 
L 342.47756 221.4 
" clip-path="url(#p534485bf47)" style="fill: none; stroke: #808080; stroke-opacity: 0.2; stroke-linecap: square"/>
     </g>
     <g id="line2d_39">
      <g>
       <use xlink:href="#m17466d3e61" x="342.47756" y="390.04" style="stroke: #000000; stroke-width: 0.8"/>
      </g>
     </g>
     <g id="text_21">
      <!-- July 1 -->
      <g transform="translate(328.71506 404.638438) scale(0.1 -0.1)">
       <defs>
        <path id="DejaVuSans-6c" d="M 603 4863 
L 1178 4863 
L 1178 0 
L 603 0 
L 603 4863 
z
" transform="scale(0.015625)"/>
       </defs>
       <use xlink:href="#DejaVuSans-4a"/>
       <use xlink:href="#DejaVuSans-75" x="29.492188"/>
       <use xlink:href="#DejaVuSans-6c" x="92.871094"/>
       <use xlink:href="#DejaVuSans-79" x="120.654297"/>
       <use xlink:href="#DejaVuSans-20" x="179.833984"/>
       <use xlink:href="#DejaVuSans-31" x="211.621094"/>
      </g>
     </g>
    </g>
    <g id="xtick_14">
     <g id="line2d_40">
      <path d="M 432.622684 390.04 
L 432.622684 221.4 
" clip-path="url(#p534485bf47)" style="fill: none; stroke: #808080; stroke-opacity: 0.2; stroke-linecap: square"/>
     </g>
     <g id="line2d_41">
      <g>
       <use xlink:href="#m17466d3e61" x="432.622684" y="390.04" style="stroke: #000000; stroke-width: 0.8"/>
      </g>
     </g>
     <g id="text_22">
      <!-- September 1 -->
      <g transform="translate(400.21409 404.638438) scale(0.1 -0.1)">
       <defs>
        <path id="DejaVuSans-53" d="M 3425 4513 
L 3425 3897 
Q 3066 4069 2747 4153 
Q 2428 4238 2131 4238 
Q 1616 4238 1336 4038 
Q 1056 3838 1056 3469 
Q 1056 3159 1242 3001 
Q 1428 2844 1947 2747 
L 2328 2669 
Q 3034 2534 3370 2195 
Q 3706 1856 3706 1288 
Q 3706 609 3251 259 
Q 2797 -91 1919 -91 
Q 1588 -91 1214 -16 
Q 841 59 441 206 
L 441 856 
Q 825 641 1194 531 
Q 1563 422 1919 422 
Q 2459 422 2753 634 
Q 3047 847 3047 1241 
Q 3047 1584 2836 1778 
Q 2625 1972 2144 2069 
L 1759 2144 
Q 1053 2284 737 2584 
Q 422 2884 422 3419 
Q 422 4038 858 4394 
Q 1294 4750 2059 4750 
Q 2388 4750 2728 4690 
Q 3069 4631 3425 4513 
z
" transform="scale(0.015625)"/>
        <path id="DejaVuSans-70" d="M 1159 525 
L 1159 -1331 
L 581 -1331 
L 581 3500 
L 1159 3500 
L 1159 2969 
Q 1341 3281 1617 3432 
Q 1894 3584 2278 3584 
Q 2916 3584 3314 3078 
Q 3713 2572 3713 1747 
Q 3713 922 3314 415 
Q 2916 -91 2278 -91 
Q 1894 -91 1617 61 
Q 1341 213 1159 525 
z
M 3116 1747 
Q 3116 2381 2855 2742 
Q 2594 3103 2138 3103 
Q 1681 3103 1420 2742 
Q 1159 2381 1159 1747 
Q 1159 1113 1420 752 
Q 1681 391 2138 391 
Q 2594 391 2855 752 
Q 3116 1113 3116 1747 
z
" transform="scale(0.015625)"/>
        <path id="DejaVuSans-6d" d="M 3328 2828 
Q 3544 3216 3844 3400 
Q 4144 3584 4550 3584 
Q 5097 3584 5394 3201 
Q 5691 2819 5691 2113 
L 5691 0 
L 5113 0 
L 5113 2094 
Q 5113 2597 4934 2840 
Q 4756 3084 4391 3084 
Q 3944 3084 3684 2787 
Q 3425 2491 3425 1978 
L 3425 0 
L 2847 0 
L 2847 2094 
Q 2847 2600 2669 2842 
Q 2491 3084 2119 3084 
Q 1678 3084 1418 2786 
Q 1159 2488 1159 1978 
L 1159 0 
L 581 0 
L 581 3500 
L 1159 3500 
L 1159 2956 
Q 1356 3278 1631 3431 
Q 1906 3584 2284 3584 
Q 2666 3584 2933 3390 
Q 3200 3197 3328 2828 
z
" transform="scale(0.015625)"/>
        <path id="DejaVuSans-62" d="M 3116 1747 
Q 3116 2381 2855 2742 
Q 2594 3103 2138 3103 
Q 1681 3103 1420 2742 
Q 1159 2381 1159 1747 
Q 1159 1113 1420 752 
Q 1681 391 2138 391 
Q 2594 391 2855 752 
Q 3116 1113 3116 1747 
z
M 1159 2969 
Q 1341 3281 1617 3432 
Q 1894 3584 2278 3584 
Q 2916 3584 3314 3078 
Q 3713 2572 3713 1747 
Q 3713 922 3314 415 
Q 2916 -91 2278 -91 
Q 1894 -91 1617 61 
Q 1341 213 1159 525 
L 1159 0 
L 581 0 
L 581 4863 
L 1159 4863 
L 1159 2969 
z
" transform="scale(0.015625)"/>
       </defs>
       <use xlink:href="#DejaVuSans-53"/>
       <use xlink:href="#DejaVuSans-65" x="63.476562"/>
       <use xlink:href="#DejaVuSans-70" x="125"/>
       <use xlink:href="#DejaVuSans-74" x="188.476562"/>
       <use xlink:href="#DejaVuSans-65" x="227.685547"/>
       <use xlink:href="#DejaVuSans-6d" x="289.208984"/>
       <use xlink:href="#DejaVuSans-62" x="386.621094"/>
       <use xlink:href="#DejaVuSans-65" x="450.097656"/>
       <use xlink:href="#DejaVuSans-72" x="511.621094"/>
       <use xlink:href="#DejaVuSans-20" x="552.734375"/>
       <use xlink:href="#DejaVuSans-31" x="584.521484"/>
      </g>
     </g>
    </g>
    <g id="xtick_15">
     <g id="line2d_42">
      <path d="M 521.313854 390.04 
L 521.313854 221.4 
" clip-path="url(#p534485bf47)" style="fill: none; stroke: #808080; stroke-opacity: 0.2; stroke-linecap: square"/>
     </g>
     <g id="line2d_43">
      <g>
       <use xlink:href="#m17466d3e61" x="521.313854" y="390.04" style="stroke: #000000; stroke-width: 0.8"/>
      </g>
     </g>
     <g id="text_23">
      <!-- November 1 -->
      <g transform="translate(490.531042 404.638438) scale(0.1 -0.1)">
       <defs>
        <path id="DejaVuSans-4e" d="M 628 4666 
L 1478 4666 
L 3547 763 
L 3547 4666 
L 4159 4666 
L 4159 0 
L 3309 0 
L 1241 3903 
L 1241 0 
L 628 0 
L 628 4666 
z
" transform="scale(0.015625)"/>
        <path id="DejaVuSans-6f" d="M 1959 3097 
Q 1497 3097 1228 2736 
Q 959 2375 959 1747 
Q 959 1119 1226 758 
Q 1494 397 1959 397 
Q 2419 397 2687 759 
Q 2956 1122 2956 1747 
Q 2956 2369 2687 2733 
Q 2419 3097 1959 3097 
z
M 1959 3584 
Q 2709 3584 3137 3096 
Q 3566 2609 3566 1747 
Q 3566 888 3137 398 
Q 2709 -91 1959 -91 
Q 1206 -91 779 398 
Q 353 888 353 1747 
Q 353 2609 779 3096 
Q 1206 3584 1959 3584 
z
" transform="scale(0.015625)"/>
        <path id="DejaVuSans-76" d="M 191 3500 
L 800 3500 
L 1894 563 
L 2988 3500 
L 3597 3500 
L 2284 0 
L 1503 0 
L 191 3500 
z
" transform="scale(0.015625)"/>
       </defs>
       <use xlink:href="#DejaVuSans-4e"/>
       <use xlink:href="#DejaVuSans-6f" x="74.804688"/>
       <use xlink:href="#DejaVuSans-76" x="135.986328"/>
       <use xlink:href="#DejaVuSans-65" x="195.166016"/>
       <use xlink:href="#DejaVuSans-6d" x="256.689453"/>
       <use xlink:href="#DejaVuSans-62" x="354.101562"/>
       <use xlink:href="#DejaVuSans-65" x="417.578125"/>
       <use xlink:href="#DejaVuSans-72" x="479.101562"/>
       <use xlink:href="#DejaVuSans-20" x="520.214844"/>
       <use xlink:href="#DejaVuSans-31" x="552.001953"/>
      </g>
     </g>
    </g>
    <g id="xtick_16">
     <g id="line2d_44">
      <path d="M 610.005025 390.04 
L 610.005025 221.4 
" clip-path="url(#p534485bf47)" style="fill: none; stroke: #808080; stroke-opacity: 0.2; stroke-linecap: square"/>
     </g>
     <g id="line2d_45">
      <g>
       <use xlink:href="#m17466d3e61" x="610.005025" y="390.04" style="stroke: #000000; stroke-width: 0.8"/>
      </g>
     </g>
     <g id="text_24">
      <!-- January 1 -->
      <g transform="translate(586.279244 404.638438) scale(0.1 -0.1)">
       <use xlink:href="#DejaVuSans-4a"/>
       <use xlink:href="#DejaVuSans-61" x="29.492188"/>
       <use xlink:href="#DejaVuSans-6e" x="90.771484"/>
       <use xlink:href="#DejaVuSans-75" x="154.150391"/>
       <use xlink:href="#DejaVuSans-61" x="217.529297"/>
       <use xlink:href="#DejaVuSans-72" x="278.808594"/>
       <use xlink:href="#DejaVuSans-79" x="319.921875"/>
       <use xlink:href="#DejaVuSans-20" x="379.101562"/>
       <use xlink:href="#DejaVuSans-31" x="410.888672"/>
      </g>
     </g>
    </g>
    <g id="text_25">
     <!-- Day of year -->
     <g transform="translate(314.904951 418.316562) scale(0.1 -0.1)">
      <defs>
       <path id="DejaVuSans-44" d="M 1259 4147 
L 1259 519 
L 2022 519 
Q 2988 519 3436 956 
Q 3884 1394 3884 2338 
Q 3884 3275 3436 3711 
Q 2988 4147 2022 4147 
L 1259 4147 
z
M 628 4666 
L 1925 4666 
Q 3281 4666 3915 4102 
Q 4550 3538 4550 2338 
Q 4550 1131 3912 565 
Q 3275 0 1925 0 
L 628 0 
L 628 4666 
z
" transform="scale(0.015625)"/>
       <path id="DejaVuSans-66" d="M 2375 4863 
L 2375 4384 
L 1825 4384 
Q 1516 4384 1395 4259 
Q 1275 4134 1275 3809 
L 1275 3500 
L 2222 3500 
L 2222 3053 
L 1275 3053 
L 1275 0 
L 697 0 
L 697 3053 
L 147 3053 
L 147 3500 
L 697 3500 
L 697 3744 
Q 697 4328 969 4595 
Q 1241 4863 1831 4863 
L 2375 4863 
z
" transform="scale(0.015625)"/>
      </defs>
      <use xlink:href="#DejaVuSans-44"/>
      <use xlink:href="#DejaVuSans-61" x="77.001953"/>
      <use xlink:href="#DejaVuSans-79" x="138.28125"/>
      <use xlink:href="#DejaVuSans-20" x="197.460938"/>
      <use xlink:href="#DejaVuSans-6f" x="229.248047"/>
      <use xlink:href="#DejaVuSans-66" x="290.429688"/>
      <use xlink:href="#DejaVuSans-20" x="325.634766"/>
      <use xlink:href="#DejaVuSans-79" x="357.421875"/>
      <use xlink:href="#DejaVuSans-65" x="416.601562"/>
      <use xlink:href="#DejaVuSans-61" x="478.125"/>
      <use xlink:href="#DejaVuSans-72" x="539.404297"/>
     </g>
    </g>
   </g>
   <g id="matplotlib.axis_4">
    <g id="ytick_7">
     <g id="line2d_46">
      <path d="M 52.85 377.142225 
L 635.013027 377.142225 
" clip-path="url(#p534485bf47)" style="fill: none; stroke: #808080; stroke-opacity: 0.2; stroke-linecap: square"/>
     </g>
     <g id="line2d_47">
      <g>
       <use xlink:href="#m5579308285" x="52.85" y="377.142225" style="stroke: #000000; stroke-width: 0.8"/>
      </g>
     </g>
     <g id="text_26">
      <!-- 75 -->
      <g transform="translate(24.745313 380.941444) scale(0.1 -0.1)">
       <defs>
        <path id="DejaVuSans-2212" d="M 678 2272 
L 4684 2272 
L 4684 1741 
L 678 1741 
L 678 2272 
z
" transform="scale(0.015625)"/>
        <path id="DejaVuSans-37" d="M 525 4666 
L 3525 4666 
L 3525 4397 
L 1831 0 
L 1172 0 
L 2766 4134 
L 525 4134 
L 525 4666 
z
" transform="scale(0.015625)"/>
       </defs>
       <use xlink:href="#DejaVuSans-2212"/>
       <use xlink:href="#DejaVuSans-37" x="83.789062"/>
       <use xlink:href="#DejaVuSans-35" x="147.412109"/>
      </g>
     </g>
    </g>
    <g id="ytick_8">
     <g id="line2d_48">
      <path d="M 52.85 355.700374 
L 635.013027 355.700374 
" clip-path="url(#p534485bf47)" style="fill: none; stroke: #808080; stroke-opacity: 0.2; stroke-linecap: square"/>
     </g>
     <g id="line2d_49">
      <g>
       <use xlink:href="#m5579308285" x="52.85" y="355.700374" style="stroke: #000000; stroke-width: 0.8"/>
      </g>
     </g>
     <g id="text_27">
      <!-- 50 -->
      <g transform="translate(24.745313 359.499592) scale(0.1 -0.1)">
       <use xlink:href="#DejaVuSans-2212"/>
       <use xlink:href="#DejaVuSans-35" x="83.789062"/>
       <use xlink:href="#DejaVuSans-30" x="147.412109"/>
      </g>
     </g>
    </g>
    <g id="ytick_9">
     <g id="line2d_50">
      <path d="M 52.85 334.258522 
L 635.013027 334.258522 
" clip-path="url(#p534485bf47)" style="fill: none; stroke: #808080; stroke-opacity: 0.2; stroke-linecap: square"/>
     </g>
     <g id="line2d_51">
      <g>
       <use xlink:href="#m5579308285" x="52.85" y="334.258522" style="stroke: #000000; stroke-width: 0.8"/>
      </g>
     </g>
     <g id="text_28">
      <!-- 25 -->
      <g transform="translate(24.745313 338.057741) scale(0.1 -0.1)">
       <use xlink:href="#DejaVuSans-2212"/>
       <use xlink:href="#DejaVuSans-32" x="83.789062"/>
       <use xlink:href="#DejaVuSans-35" x="147.412109"/>
      </g>
     </g>
    </g>
    <g id="ytick_10">
     <g id="line2d_52">
      <path d="M 52.85 312.816671 
L 635.013027 312.816671 
" clip-path="url(#p534485bf47)" style="fill: none; stroke: #808080; stroke-opacity: 0.2; stroke-linecap: square"/>
     </g>
     <g id="line2d_53">
      <g>
       <use xlink:href="#m5579308285" x="52.85" y="312.816671" style="stroke: #000000; stroke-width: 0.8"/>
      </g>
     </g>
     <g id="text_29">
      <!-- 0 -->
      <g transform="translate(39.4875 316.61589) scale(0.1 -0.1)">
       <use xlink:href="#DejaVuSans-30"/>
      </g>
     </g>
    </g>
    <g id="ytick_11">
     <g id="line2d_54">
      <path d="M 52.85 291.37482 
L 635.013027 291.37482 
" clip-path="url(#p534485bf47)" style="fill: none; stroke: #808080; stroke-opacity: 0.2; stroke-linecap: square"/>
     </g>
     <g id="line2d_55">
      <g>
       <use xlink:href="#m5579308285" x="52.85" y="291.37482" style="stroke: #000000; stroke-width: 0.8"/>
      </g>
     </g>
     <g id="text_30">
      <!-- 25 -->
      <g transform="translate(33.125 295.174038) scale(0.1 -0.1)">
       <use xlink:href="#DejaVuSans-32"/>
       <use xlink:href="#DejaVuSans-35" x="63.623047"/>
      </g>
     </g>
    </g>
    <g id="ytick_12">
     <g id="line2d_56">
      <path d="M 52.85 269.932968 
L 635.013027 269.932968 
" clip-path="url(#p534485bf47)" style="fill: none; stroke: #808080; stroke-opacity: 0.2; stroke-linecap: square"/>
     </g>
     <g id="line2d_57">
      <g>
       <use xlink:href="#m5579308285" x="52.85" y="269.932968" style="stroke: #000000; stroke-width: 0.8"/>
      </g>
     </g>
     <g id="text_31">
      <!-- 50 -->
      <g transform="translate(33.125 273.732187) scale(0.1 -0.1)">
       <use xlink:href="#DejaVuSans-35"/>
       <use xlink:href="#DejaVuSans-30" x="63.623047"/>
      </g>
     </g>
    </g>
    <g id="ytick_13">
     <g id="line2d_58">
      <path d="M 52.85 248.491117 
L 635.013027 248.491117 
" clip-path="url(#p534485bf47)" style="fill: none; stroke: #808080; stroke-opacity: 0.2; stroke-linecap: square"/>
     </g>
     <g id="line2d_59">
      <g>
       <use xlink:href="#m5579308285" x="52.85" y="248.491117" style="stroke: #000000; stroke-width: 0.8"/>
      </g>
     </g>
     <g id="text_32">
      <!-- 75 -->
      <g transform="translate(33.125 252.290336) scale(0.1 -0.1)">
       <use xlink:href="#DejaVuSans-37"/>
       <use xlink:href="#DejaVuSans-35" x="63.623047"/>
      </g>
     </g>
    </g>
    <g id="ytick_14">
     <g id="line2d_60">
      <path d="M 52.85 227.049266 
L 635.013027 227.049266 
" clip-path="url(#p534485bf47)" style="fill: none; stroke: #808080; stroke-opacity: 0.2; stroke-linecap: square"/>
     </g>
     <g id="line2d_61">
      <g>
       <use xlink:href="#m5579308285" x="52.85" y="227.049266" style="stroke: #000000; stroke-width: 0.8"/>
      </g>
     </g>
     <g id="text_33">
      <!-- 100 -->
      <g transform="translate(26.7625 230.848484) scale(0.1 -0.1)">
       <use xlink:href="#DejaVuSans-31"/>
       <use xlink:href="#DejaVuSans-30" x="63.623047"/>
       <use xlink:href="#DejaVuSans-30" x="127.246094"/>
      </g>
     </g>
    </g>
    <g id="text_34">
     <!-- yearly -->
     <g transform="translate(18.665625 321.223906) rotate(-90) scale(0.1 -0.1)">
      <use xlink:href="#DejaVuSans-79"/>
      <use xlink:href="#DejaVuSans-65" x="59.179688"/>
      <use xlink:href="#DejaVuSans-61" x="120.703125"/>
      <use xlink:href="#DejaVuSans-72" x="181.982422"/>
      <use xlink:href="#DejaVuSans-6c" x="223.095703"/>
      <use xlink:href="#DejaVuSans-79" x="250.878906"/>
     </g>
    </g>
   </g>
   <g id="line2d_62">
    <path d="M 79.311956 317.052505 
L 80.765909 318.568548 
L 82.219863 320.583511 
L 83.673817 323.04576 
L 85.12777 325.889226 
L 88.035677 332.395152 
L 92.397538 342.771866 
L 93.851492 345.989878 
L 95.305446 348.922562 
L 96.759399 351.480473 
L 98.213353 353.584484 
L 99.667306 355.168305 
L 101.12126 356.180625 
L 102.575214 356.586822 
L 104.029167 356.370185 
L 105.483121 355.532603 
L 106.937074 354.094702 
L 108.391028 352.095406 
L 109.844982 349.590948 
L 111.298935 346.653335 
L 114.206843 339.832968 
L 120.022657 325.3575 
L 121.476611 322.20858 
L 122.930564 319.454405 
L 124.384518 317.181814 
L 125.838471 315.463418 
L 127.292425 314.355131 
L 128.746379 313.89416 
L 130.200332 314.09752 
L 131.654286 314.961119 
L 133.108239 316.459452 
L 134.562193 318.545923 
L 136.016147 321.153786 
L 137.4701 324.197689 
L 140.378008 331.172382 
L 144.739868 341.974922 
L 146.193822 345.125433 
L 147.647776 347.825963 
L 149.101729 349.95128 
L 150.555683 351.387845 
L 152.009636 352.03725 
L 153.46359 351.819281 
L 154.917544 350.674531 
L 156.371497 348.566466 
L 157.825451 345.482899 
L 159.279405 341.436813 
L 160.733358 336.466506 
L 162.187312 330.635055 
L 163.641265 324.029095 
L 166.549173 308.946204 
L 170.911033 283.77983 
L 173.818941 267.208854 
L 176.726848 252.370137 
L 178.180802 245.988831 
L 179.634755 240.479745 
L 181.088709 235.954974 
L 182.542662 232.504675 
L 183.996616 230.194799 
L 185.45057 229.065455 
L 186.904523 229.129953 
L 188.358477 230.374554 
L 189.81243 232.758921 
L 191.266384 236.217268 
L 192.720338 240.660181 
L 194.174291 245.977035 
L 195.628245 252.038969 
L 198.536152 265.812372 
L 205.80592 302.397654 
L 207.259874 308.842647 
L 208.713827 314.687854 
L 210.167781 319.834466 
L 211.621735 324.205081 
L 213.075688 327.745271 
L 214.529642 330.424499 
L 215.983595 332.236354 
L 217.437549 333.198108 
L 218.891503 333.349627 
L 220.345456 332.75165 
L 221.79941 331.48351 
L 223.253364 329.640367 
L 224.707317 327.330021 
L 227.615224 321.780997 
L 231.977085 312.975056 
L 233.431039 310.376625 
L 234.884992 308.114106 
L 236.338946 306.267152 
L 237.7929 304.898243 
L 239.246853 304.051056 
L 240.700807 303.749437 
L 242.154761 303.996996 
L 243.608714 304.77733 
L 245.062668 306.05488 
L 246.516621 307.776366 
L 247.970575 309.872778 
L 250.878482 314.850898 
L 255.240343 322.80389 
L 256.694297 325.173883 
L 258.14825 327.24166 
L 259.602204 328.923055 
L 261.056157 330.146671 
L 262.510111 330.856396 
L 263.964065 331.013434 
L 265.418018 330.597806 
L 266.871972 329.609264 
L 268.325926 328.067599 
L 269.779879 326.012315 
L 271.233833 323.501691 
L 272.687786 320.611251 
L 275.595694 314.066269 
L 279.957554 304.011807 
L 281.411508 301.077035 
L 282.865462 298.547855 
L 284.319415 296.532452 
L 285.773369 295.12739 
L 287.227323 294.414499 
L 288.681276 294.458165 
L 290.13523 295.30308 
L 291.589183 296.972548 
L 293.043137 299.467378 
L 294.497091 302.765409 
L 295.951044 306.821693 
L 297.404998 311.569321 
L 298.858951 316.92088 
L 301.766859 328.996473 
L 307.582673 354.8553 
L 309.036627 360.814763 
L 310.49058 366.279715 
L 311.944534 371.117487 
L 313.398488 375.209021 
L 314.852441 378.452077 
L 316.306395 380.763994 
L 317.760348 382.083935 
L 319.214302 382.374545 
L 320.668256 381.622987 
L 322.122209 379.841303 
L 323.576163 377.066122 
L 325.030117 373.357698 
L 326.48407 368.798311 
L 327.938024 363.49009 
L 329.391977 357.552293 
L 332.299885 344.33131 
L 338.115699 316.679401 
L 339.569653 310.377698 
L 341.023606 304.586784 
L 342.47756 299.415754 
L 343.931513 294.955323 
L 345.385467 291.275658 
L 346.839421 288.424801 
L 348.293374 286.427702 
L 349.747328 285.285899 
L 351.201282 284.977842 
L 352.655235 285.459853 
L 354.109189 286.667678 
L 355.563142 288.518598 
L 357.017096 290.914025 
L 358.47105 293.742508 
L 361.378957 300.208713 
L 364.286864 306.899615 
L 365.740818 310.014097 
L 367.194771 312.819175 
L 368.648725 315.211944 
L 370.102679 317.103831 
L 371.556632 318.422917 
L 373.010586 319.115763 
L 374.464539 319.148681 
L 375.918493 318.50842 
L 377.372447 317.202261 
L 378.8264 315.257527 
L 380.280354 312.720509 
L 381.734307 309.654875 
L 383.188261 306.139589 
L 386.096168 298.137105 
L 391.911983 281.2661 
L 393.365936 277.50935 
L 394.81989 274.138012 
L 396.273844 271.235122 
L 397.727797 268.869856 
L 399.181751 267.095711 
L 400.635704 265.949181 
L 402.089658 265.448941 
L 403.543612 265.595567 
L 404.997565 266.371796 
L 406.451519 267.743301 
L 407.905472 269.659961 
L 409.359426 272.057581 
L 410.81338 274.859996 
L 413.721287 281.329571 
L 419.537101 295.057079 
L 420.991055 298.110629 
L 422.445009 300.851222 
L 423.898962 303.216211 
L 425.352916 305.156272 
L 426.806869 306.636633 
L 428.260823 307.637833 
L 429.714777 308.156009 
L 431.16873 308.202688 
L 432.622684 307.804121 
L 434.076638 307.000161 
L 435.530591 305.842742 
L 436.984545 304.393996 
L 439.892452 300.908819 
L 444.254313 295.379712 
L 445.708266 293.76408 
L 447.16222 292.377202 
L 448.616174 291.275914 
L 450.070127 290.506316 
L 451.524081 290.102362 
L 452.978035 290.084863 
L 454.431988 290.460913 
L 455.885942 291.223764 
L 457.339895 292.353146 
L 458.793849 293.816022 
L 460.247803 295.56775 
L 463.15571 299.710674 
L 468.971524 308.62699 
L 470.425478 310.564212 
L 471.879432 312.249475 
L 473.333385 313.626707 
L 474.787339 314.649595 
L 476.241292 315.283145 
L 477.695246 315.504866 
L 479.1492 315.305571 
L 480.603153 314.689743 
L 482.057107 313.675471 
L 483.51106 312.293952 
L 484.965014 310.588574 
L 486.418968 308.613613 
L 489.326875 304.116252 
L 493.688736 297.125591 
L 495.142689 295.042009 
L 496.596643 293.205375 
L 498.050597 291.680934 
L 499.50455 290.524987 
L 500.958504 289.783088 
L 502.412457 289.488569 
L 503.866411 289.661445 
L 505.320365 290.307719 
L 506.774318 291.419126 
L 508.228272 292.973315 
L 509.682225 294.934473 
L 511.136179 297.254359 
L 512.590133 299.873735 
L 515.49804 305.729957 
L 519.859901 314.865545 
L 521.313854 317.676787 
L 522.767808 320.242267 
L 524.221762 322.494503 
L 525.675715 324.37558 
L 527.129669 325.838969 
L 528.583622 326.850993 
L 530.037576 327.391914 
L 531.49153 327.456591 
L 532.945483 327.054687 
L 534.399437 326.210432 
L 535.853391 324.961925 
L 537.307344 323.360017 
L 538.761298 321.466794 
L 541.669205 317.099386 
L 546.031066 310.332158 
L 547.485019 308.356707 
L 548.938973 306.653469 
L 550.392927 305.291178 
L 551.84688 304.328435 
L 553.300834 303.811846 
L 554.754787 303.774516 
L 556.208741 304.234957 
L 557.662695 305.196433 
L 559.116648 306.646763 
L 560.570602 308.558612 
L 562.024556 310.890228 
L 563.478509 313.58664 
L 566.386416 319.797852 
L 572.202231 333.154686 
L 573.656184 336.170038 
L 575.110138 338.886848 
L 576.564092 341.232786 
L 578.018045 343.146261 
L 579.471999 344.578367 
L 580.925953 345.494445 
L 582.379906 345.875229 
L 583.83386 345.717517 
L 585.287813 345.034371 
L 586.741767 343.854808 
L 588.195721 342.223014 
L 589.649674 340.197082 
L 591.103628 337.847326 
L 594.011535 332.505927 
L 598.373396 324.27178 
L 599.82735 321.844275 
L 601.281303 319.721994 
L 602.735257 317.981005 
L 604.18921 316.685981 
L 605.643164 315.888131 
L 607.097118 315.623541 
L 608.551071 315.911946 
L 608.551071 315.911946 
" clip-path="url(#p534485bf47)" style="fill: none; stroke: #0072b2; stroke-width: 1.5; stroke-linecap: square"/>
   </g>
   <g id="patch_8">
    <path d="M 52.85 390.04 
L 52.85 221.4 
" style="fill: none; stroke: #000000; stroke-width: 0.8; stroke-linejoin: miter; stroke-linecap: square"/>
   </g>
   <g id="patch_9">
    <path d="M 635.013027 390.04 
L 635.013027 221.4 
" style="fill: none; stroke: #000000; stroke-width: 0.8; stroke-linejoin: miter; stroke-linecap: square"/>
   </g>
   <g id="patch_10">
    <path d="M 52.85 390.04 
L 635.013027 390.04 
" style="fill: none; stroke: #000000; stroke-width: 0.8; stroke-linejoin: miter; stroke-linecap: square"/>
   </g>
   <g id="patch_11">
    <path d="M 52.85 221.4 
L 635.013027 221.4 
" style="fill: none; stroke: #000000; stroke-width: 0.8; stroke-linejoin: miter; stroke-linecap: square"/>
   </g>
  </g>
 </g>
 <defs>
  <clipPath id="p77b250b683">
   <rect x="52.85" y="10.8" width="582.163027" height="168.64"/>
  </clipPath>
  <clipPath id="p534485bf47">
   <rect x="52.85" y="221.4" width="582.163027" height="168.64"/>
  </clipPath>
 </defs>
</svg>
